G04 #@! TF.FileFunction,Legend,Top*
%FSLAX46Y46*%
G04 Gerber Fmt 4.6, Leading zero omitted, Abs format (unit mm)*
G04 Created by KiCad (PCBNEW 4.0.7) date 04/19/18 23:02:37*
%MOMM*%
%LPD*%
G01*
G04 APERTURE LIST*
%ADD10C,0.100000*%
%ADD11C,0.350000*%
%ADD12C,0.150000*%
G04 APERTURE END LIST*
D10*
D11*
X120303332Y-108383333D02*
X120303332Y-106983333D01*
X120836666Y-106983333D01*
X120969999Y-107050000D01*
X121036666Y-107116667D01*
X121103332Y-107250000D01*
X121103332Y-107450000D01*
X121036666Y-107583333D01*
X120969999Y-107650000D01*
X120836666Y-107716667D01*
X120303332Y-107716667D01*
X121703332Y-108383333D02*
X121703332Y-106983333D01*
X122236666Y-106983333D02*
X123169999Y-108383333D01*
X123169999Y-106983333D02*
X122236666Y-108383333D01*
X123969999Y-106983333D02*
X124236666Y-106983333D01*
X124369999Y-107050000D01*
X124503332Y-107183333D01*
X124569999Y-107450000D01*
X124569999Y-107916667D01*
X124503332Y-108183333D01*
X124369999Y-108316667D01*
X124236666Y-108383333D01*
X123969999Y-108383333D01*
X123836666Y-108316667D01*
X123703332Y-108183333D01*
X123636666Y-107916667D01*
X123636666Y-107450000D01*
X123703332Y-107183333D01*
X123836666Y-107050000D01*
X123969999Y-106983333D01*
X125169999Y-108383333D02*
X125169999Y-106983333D01*
X125703333Y-106983333D01*
X125836666Y-107050000D01*
X125903333Y-107116667D01*
X125969999Y-107250000D01*
X125969999Y-107450000D01*
X125903333Y-107583333D01*
X125836666Y-107650000D01*
X125703333Y-107716667D01*
X125169999Y-107716667D01*
X126569999Y-108383333D02*
X126569999Y-107450000D01*
X126569999Y-106983333D02*
X126503333Y-107050000D01*
X126569999Y-107116667D01*
X126636666Y-107050000D01*
X126569999Y-106983333D01*
X126569999Y-107116667D01*
X127103333Y-108383333D02*
X127836666Y-107450000D01*
X127103333Y-107450000D02*
X127836666Y-108383333D01*
X128903333Y-108316667D02*
X128769999Y-108383333D01*
X128503333Y-108383333D01*
X128369999Y-108316667D01*
X128303333Y-108183333D01*
X128303333Y-107650000D01*
X128369999Y-107516667D01*
X128503333Y-107450000D01*
X128769999Y-107450000D01*
X128903333Y-107516667D01*
X128969999Y-107650000D01*
X128969999Y-107783333D01*
X128303333Y-107916667D01*
X129769999Y-108383333D02*
X129636666Y-108316667D01*
X129569999Y-108183333D01*
X129569999Y-106983333D01*
X131369999Y-108383333D02*
X131369999Y-106983333D01*
X131703333Y-106983333D01*
X131903333Y-107050000D01*
X132036666Y-107183333D01*
X132103333Y-107316667D01*
X132169999Y-107583333D01*
X132169999Y-107783333D01*
X132103333Y-108050000D01*
X132036666Y-108183333D01*
X131903333Y-108316667D01*
X131703333Y-108383333D01*
X131369999Y-108383333D01*
X132769999Y-108383333D02*
X132769999Y-107450000D01*
X132769999Y-106983333D02*
X132703333Y-107050000D01*
X132769999Y-107116667D01*
X132836666Y-107050000D01*
X132769999Y-106983333D01*
X132769999Y-107116667D01*
X133370000Y-108316667D02*
X133503333Y-108383333D01*
X133770000Y-108383333D01*
X133903333Y-108316667D01*
X133970000Y-108183333D01*
X133970000Y-108116667D01*
X133903333Y-107983333D01*
X133770000Y-107916667D01*
X133570000Y-107916667D01*
X133436666Y-107850000D01*
X133370000Y-107716667D01*
X133370000Y-107650000D01*
X133436666Y-107516667D01*
X133570000Y-107450000D01*
X133770000Y-107450000D01*
X133903333Y-107516667D01*
X134569999Y-107450000D02*
X134569999Y-108850000D01*
X134569999Y-107516667D02*
X134703333Y-107450000D01*
X134969999Y-107450000D01*
X135103333Y-107516667D01*
X135169999Y-107583333D01*
X135236666Y-107716667D01*
X135236666Y-108116667D01*
X135169999Y-108250000D01*
X135103333Y-108316667D01*
X134969999Y-108383333D01*
X134703333Y-108383333D01*
X134569999Y-108316667D01*
X136036666Y-108383333D02*
X135903333Y-108316667D01*
X135836666Y-108183333D01*
X135836666Y-106983333D01*
X137169999Y-108383333D02*
X137169999Y-107650000D01*
X137103333Y-107516667D01*
X136969999Y-107450000D01*
X136703333Y-107450000D01*
X136569999Y-107516667D01*
X137169999Y-108316667D02*
X137036666Y-108383333D01*
X136703333Y-108383333D01*
X136569999Y-108316667D01*
X136503333Y-108183333D01*
X136503333Y-108050000D01*
X136569999Y-107916667D01*
X136703333Y-107850000D01*
X137036666Y-107850000D01*
X137169999Y-107783333D01*
X137703333Y-107450000D02*
X138036666Y-108383333D01*
X138370000Y-107450000D02*
X138036666Y-108383333D01*
X137903333Y-108716667D01*
X137836666Y-108783333D01*
X137703333Y-108850000D01*
X139770000Y-106983333D02*
X140570000Y-106983333D01*
X140170000Y-108383333D02*
X140170000Y-106983333D01*
X141570001Y-108316667D02*
X141436667Y-108383333D01*
X141170001Y-108383333D01*
X141036667Y-108316667D01*
X140970001Y-108183333D01*
X140970001Y-107650000D01*
X141036667Y-107516667D01*
X141170001Y-107450000D01*
X141436667Y-107450000D01*
X141570001Y-107516667D01*
X141636667Y-107650000D01*
X141636667Y-107783333D01*
X140970001Y-107916667D01*
X142170001Y-108316667D02*
X142303334Y-108383333D01*
X142570001Y-108383333D01*
X142703334Y-108316667D01*
X142770001Y-108183333D01*
X142770001Y-108116667D01*
X142703334Y-107983333D01*
X142570001Y-107916667D01*
X142370001Y-107916667D01*
X142236667Y-107850000D01*
X142170001Y-107716667D01*
X142170001Y-107650000D01*
X142236667Y-107516667D01*
X142370001Y-107450000D01*
X142570001Y-107450000D01*
X142703334Y-107516667D01*
X143170000Y-107450000D02*
X143703334Y-107450000D01*
X143370000Y-106983333D02*
X143370000Y-108183333D01*
X143436667Y-108316667D01*
X143570000Y-108383333D01*
X143703334Y-108383333D01*
X144703334Y-108316667D02*
X144570000Y-108383333D01*
X144303334Y-108383333D01*
X144170000Y-108316667D01*
X144103334Y-108183333D01*
X144103334Y-107650000D01*
X144170000Y-107516667D01*
X144303334Y-107450000D01*
X144570000Y-107450000D01*
X144703334Y-107516667D01*
X144770000Y-107650000D01*
X144770000Y-107783333D01*
X144103334Y-107916667D01*
X145370000Y-108383333D02*
X145370000Y-107450000D01*
X145370000Y-107716667D02*
X145436667Y-107583333D01*
X145503334Y-107516667D01*
X145636667Y-107450000D01*
X145770000Y-107450000D01*
X147103334Y-106983333D02*
X147570001Y-108383333D01*
X148036668Y-106983333D01*
X148770001Y-106983333D02*
X148903334Y-106983333D01*
X149036668Y-107050000D01*
X149103334Y-107116667D01*
X149170001Y-107250000D01*
X149236668Y-107516667D01*
X149236668Y-107850000D01*
X149170001Y-108116667D01*
X149103334Y-108250000D01*
X149036668Y-108316667D01*
X148903334Y-108383333D01*
X148770001Y-108383333D01*
X148636668Y-108316667D01*
X148570001Y-108250000D01*
X148503334Y-108116667D01*
X148436668Y-107850000D01*
X148436668Y-107516667D01*
X148503334Y-107250000D01*
X148570001Y-107116667D01*
X148636668Y-107050000D01*
X148770001Y-106983333D01*
X149836667Y-108250000D02*
X149903334Y-108316667D01*
X149836667Y-108383333D01*
X149770001Y-108316667D01*
X149836667Y-108250000D01*
X149836667Y-108383333D01*
X151236668Y-108383333D02*
X150436668Y-108383333D01*
X150836668Y-108383333D02*
X150836668Y-106983333D01*
X150703334Y-107183333D01*
X150570001Y-107316667D01*
X150436668Y-107383333D01*
X151836667Y-107450000D02*
X151836667Y-108850000D01*
X151836667Y-107516667D02*
X151970001Y-107450000D01*
X152236667Y-107450000D01*
X152370001Y-107516667D01*
X152436667Y-107583333D01*
X152503334Y-107716667D01*
X152503334Y-108116667D01*
X152436667Y-108250000D01*
X152370001Y-108316667D01*
X152236667Y-108383333D01*
X151970001Y-108383333D01*
X151836667Y-108316667D01*
D12*
X154780000Y-108420000D02*
X154780000Y-106520000D01*
X153680000Y-108420000D02*
X153680000Y-106520000D01*
X154230000Y-107520000D02*
X154230000Y-107070000D01*
X153980000Y-107570000D02*
X154480000Y-107570000D01*
X154230000Y-107570000D02*
X153980000Y-107320000D01*
X153980000Y-107320000D02*
X154480000Y-107320000D01*
X154480000Y-107320000D02*
X154230000Y-107570000D01*
X159610000Y-101565000D02*
G75*
G03X159610000Y-101565000I-250000J0D01*
G01*
X161260000Y-108315000D02*
X161260000Y-107315000D01*
X161260000Y-107315000D02*
X166260000Y-107315000D01*
X166260000Y-107315000D02*
X166260000Y-108315000D01*
X159860000Y-102315000D02*
X158610000Y-102315000D01*
X158610000Y-102315000D02*
X158610000Y-100715000D01*
X158610000Y-100715000D02*
X157810000Y-100715000D01*
X157810000Y-100715000D02*
X157810000Y-104815000D01*
X158610000Y-102315000D02*
X157810000Y-102315000D01*
X167660000Y-102315000D02*
X168910000Y-102315000D01*
X168910000Y-102315000D02*
X168910000Y-100715000D01*
X168910000Y-100715000D02*
X169710000Y-100715000D01*
X169710000Y-100715000D02*
X169710000Y-104815000D01*
X168910000Y-102315000D02*
X169710000Y-102315000D01*
X159560000Y-108315000D02*
X167960000Y-108315000D01*
X159560000Y-103415000D02*
X159560000Y-106815000D01*
X159560000Y-106815000D02*
X160560000Y-106815000D01*
X160560000Y-106815000D02*
X160560000Y-103415000D01*
X160560000Y-103415000D02*
X159560000Y-103415000D01*
X167960000Y-103415000D02*
X167960000Y-106815000D01*
X167960000Y-106815000D02*
X166960000Y-106815000D01*
X166960000Y-106815000D02*
X166960000Y-103415000D01*
X166960000Y-103415000D02*
X167960000Y-103415000D01*
X161660000Y-102315000D02*
X161860000Y-102315000D01*
X163660000Y-102315000D02*
X163860000Y-102315000D01*
X165660000Y-102315000D02*
X165860000Y-102315000D01*
X155135000Y-103460000D02*
X155135000Y-104660000D01*
X153385000Y-104660000D02*
X153385000Y-103460000D01*
X156242381Y-107548095D02*
X155242381Y-107548095D01*
X155242381Y-107310000D01*
X155290000Y-107167142D01*
X155385238Y-107071904D01*
X155480476Y-107024285D01*
X155670952Y-106976666D01*
X155813810Y-106976666D01*
X156004286Y-107024285D01*
X156099524Y-107071904D01*
X156194762Y-107167142D01*
X156242381Y-107310000D01*
X156242381Y-107548095D01*
X156242381Y-106024285D02*
X156242381Y-106595714D01*
X156242381Y-106310000D02*
X155242381Y-106310000D01*
X155385238Y-106405238D01*
X155480476Y-106500476D01*
X155528095Y-106595714D01*
X160426667Y-97767381D02*
X160426667Y-98481667D01*
X160379047Y-98624524D01*
X160283809Y-98719762D01*
X160140952Y-98767381D01*
X160045714Y-98767381D01*
X161426667Y-98767381D02*
X160855238Y-98767381D01*
X161140952Y-98767381D02*
X161140952Y-97767381D01*
X161045714Y-97910238D01*
X160950476Y-98005476D01*
X160855238Y-98053095D01*
X156242381Y-104086666D02*
X155766190Y-104420000D01*
X156242381Y-104658095D02*
X155242381Y-104658095D01*
X155242381Y-104277142D01*
X155290000Y-104181904D01*
X155337619Y-104134285D01*
X155432857Y-104086666D01*
X155575714Y-104086666D01*
X155670952Y-104134285D01*
X155718571Y-104181904D01*
X155766190Y-104277142D01*
X155766190Y-104658095D01*
X156242381Y-103134285D02*
X156242381Y-103705714D01*
X156242381Y-103420000D02*
X155242381Y-103420000D01*
X155385238Y-103515238D01*
X155480476Y-103610476D01*
X155528095Y-103705714D01*
X124706667Y-102242381D02*
X124706667Y-102956667D01*
X124659047Y-103099524D01*
X124563809Y-103194762D01*
X124420952Y-103242381D01*
X124325714Y-103242381D01*
X125135238Y-102337619D02*
X125182857Y-102290000D01*
X125278095Y-102242381D01*
X125516191Y-102242381D01*
X125611429Y-102290000D01*
X125659048Y-102337619D01*
X125706667Y-102432857D01*
X125706667Y-102528095D01*
X125659048Y-102670952D01*
X125087619Y-103242381D01*
X125706667Y-103242381D01*
M02*
