G04 #@! TF.FileFunction,Copper,L1,Top,Signal*
%FSLAX46Y46*%
G04 Gerber Fmt 4.6, Leading zero omitted, Abs format (unit mm)*
G04 Created by KiCad (PCBNEW 4.0.7) date 04/19/18 23:02:37*
%MOMM*%
%LPD*%
G01*
G04 APERTURE LIST*
%ADD10C,0.100000*%
%ADD11R,0.797560X0.797560*%
%ADD12R,1.000000X3.500000*%
%ADD13R,1.600000X3.400000*%
%ADD14R,1.300000X0.700000*%
%ADD15C,2.500000*%
%ADD16C,0.600000*%
%ADD17C,0.400000*%
%ADD18C,0.800000*%
%ADD19C,2.000000*%
%ADD20C,0.200000*%
%ADD21C,0.254000*%
G04 APERTURE END LIST*
D10*
D11*
X154230000Y-106570700D03*
X154230000Y-108069300D03*
D12*
X160760000Y-101315000D03*
X162760000Y-101315000D03*
X164760000Y-101315000D03*
X166760000Y-101315000D03*
D13*
X158360000Y-106865000D03*
X169160000Y-106865000D03*
D14*
X154260000Y-105010000D03*
X154260000Y-103110000D03*
D15*
X122090000Y-101190000D03*
X124090000Y-99190000D03*
X126090000Y-101190000D03*
X128090000Y-99190000D03*
D16*
X155630000Y-108070000D03*
X166750000Y-104070000D03*
X166790000Y-98240000D03*
D17*
X154230000Y-106570700D02*
X154230000Y-105040000D01*
X154230000Y-105040000D02*
X154260000Y-105010000D01*
D18*
X154230000Y-108069300D02*
X155629300Y-108069300D01*
X155629300Y-108069300D02*
X155630000Y-108070000D01*
X166760000Y-101315000D02*
X166760000Y-104060000D01*
X166760000Y-104060000D02*
X166750000Y-104070000D01*
X166760000Y-101315000D02*
X166760000Y-98270000D01*
X166760000Y-98270000D02*
X166790000Y-98240000D01*
D17*
X154260000Y-103110000D02*
X154260000Y-101460000D01*
X154260000Y-101460000D02*
X153510000Y-100710000D01*
D19*
X153510000Y-100710000D02*
X157820000Y-100710000D01*
X149210000Y-105010000D02*
X153510000Y-100710000D01*
X148960000Y-105010000D02*
X149210000Y-105010000D01*
X124142234Y-105010000D02*
X148960000Y-105010000D01*
X122090000Y-101190000D02*
X122090000Y-102957766D01*
X122090000Y-102957766D02*
X124142234Y-105010000D01*
D20*
X147350000Y-98660000D02*
X161355000Y-98660000D01*
X161355000Y-98660000D02*
X162760000Y-100065000D01*
X162760000Y-100065000D02*
X162760000Y-101315000D01*
X142720000Y-103290000D02*
X147350000Y-98660000D01*
X125999598Y-103290000D02*
X142720000Y-103290000D01*
X124090000Y-99190000D02*
X124090000Y-101380402D01*
X124090000Y-101380402D02*
X125999598Y-103290000D01*
X146980000Y-98160000D02*
X162855000Y-98160000D01*
X162855000Y-98160000D02*
X164760000Y-100065000D01*
X164760000Y-100065000D02*
X164760000Y-101315000D01*
X143950000Y-101190000D02*
X146980000Y-98160000D01*
X126090000Y-101190000D02*
X143950000Y-101190000D01*
D21*
G36*
X127065533Y-97563877D02*
X126936285Y-97856680D01*
X128090000Y-99010395D01*
X129243715Y-97856680D01*
X129114467Y-97563877D01*
X128913789Y-97487000D01*
X174219763Y-97487000D01*
X174895582Y-97621429D01*
X175442879Y-97987121D01*
X175808571Y-98534418D01*
X175943000Y-99210236D01*
X175943000Y-107149764D01*
X175808571Y-107825582D01*
X175442879Y-108372879D01*
X174895582Y-108738571D01*
X174219763Y-108873000D01*
X155121885Y-108873000D01*
X155167107Y-108827778D01*
X155263780Y-108594389D01*
X155263780Y-108355050D01*
X155105030Y-108196300D01*
X154357000Y-108196300D01*
X154357000Y-108216300D01*
X154103000Y-108216300D01*
X154103000Y-108196300D01*
X153354970Y-108196300D01*
X153196220Y-108355050D01*
X153196220Y-108594389D01*
X153292893Y-108827778D01*
X153338115Y-108873000D01*
X118280236Y-108873000D01*
X117604418Y-108738571D01*
X117057121Y-108372879D01*
X116691429Y-107825582D01*
X116563015Y-107180000D01*
X117093000Y-107180000D01*
X117181071Y-107622765D01*
X117431877Y-107998123D01*
X117807235Y-108248929D01*
X118250000Y-108337000D01*
X118692765Y-108248929D01*
X119068123Y-107998123D01*
X119318929Y-107622765D01*
X119334554Y-107544211D01*
X153196220Y-107544211D01*
X153196220Y-107783550D01*
X153354970Y-107942300D01*
X154103000Y-107942300D01*
X154103000Y-107922300D01*
X154357000Y-107922300D01*
X154357000Y-107942300D01*
X155105030Y-107942300D01*
X155263780Y-107783550D01*
X155263780Y-107544211D01*
X155167107Y-107310822D01*
X154988479Y-107132193D01*
X154863906Y-107080593D01*
X154870169Y-107071426D01*
X154890814Y-106969480D01*
X154890814Y-106171920D01*
X154872894Y-106076682D01*
X154816608Y-105989211D01*
X154730726Y-105930531D01*
X154687000Y-105921676D01*
X154687000Y-105622034D01*
X154910000Y-105622034D01*
X155005238Y-105604114D01*
X155092709Y-105547828D01*
X155151389Y-105461946D01*
X155172034Y-105360000D01*
X155172034Y-105165000D01*
X157297966Y-105165000D01*
X157297966Y-108565000D01*
X157315886Y-108660238D01*
X157372172Y-108747709D01*
X157458054Y-108806389D01*
X157560000Y-108827034D01*
X159160000Y-108827034D01*
X159255238Y-108809114D01*
X159342709Y-108752828D01*
X159401389Y-108666946D01*
X159422034Y-108565000D01*
X159422034Y-105165000D01*
X168097966Y-105165000D01*
X168097966Y-108565000D01*
X168115886Y-108660238D01*
X168172172Y-108747709D01*
X168258054Y-108806389D01*
X168360000Y-108827034D01*
X169960000Y-108827034D01*
X170055238Y-108809114D01*
X170142709Y-108752828D01*
X170201389Y-108666946D01*
X170222034Y-108565000D01*
X170222034Y-107180000D01*
X173093000Y-107180000D01*
X173181071Y-107622765D01*
X173431877Y-107998123D01*
X173807235Y-108248929D01*
X174250000Y-108337000D01*
X174692765Y-108248929D01*
X175068123Y-107998123D01*
X175318929Y-107622765D01*
X175407000Y-107180000D01*
X175318929Y-106737235D01*
X175068123Y-106361877D01*
X174692765Y-106111071D01*
X174250000Y-106023000D01*
X173807235Y-106111071D01*
X173431877Y-106361877D01*
X173181071Y-106737235D01*
X173093000Y-107180000D01*
X170222034Y-107180000D01*
X170222034Y-105165000D01*
X170204114Y-105069762D01*
X170147828Y-104982291D01*
X170061946Y-104923611D01*
X169960000Y-104902966D01*
X168360000Y-104902966D01*
X168264762Y-104920886D01*
X168177291Y-104977172D01*
X168118611Y-105063054D01*
X168097966Y-105165000D01*
X159422034Y-105165000D01*
X159404114Y-105069762D01*
X159347828Y-104982291D01*
X159261946Y-104923611D01*
X159160000Y-104902966D01*
X157560000Y-104902966D01*
X157464762Y-104920886D01*
X157377291Y-104977172D01*
X157318611Y-105063054D01*
X157297966Y-105165000D01*
X155172034Y-105165000D01*
X155172034Y-104660000D01*
X155154114Y-104564762D01*
X155097828Y-104477291D01*
X155011946Y-104418611D01*
X154910000Y-104397966D01*
X153610000Y-104397966D01*
X153514762Y-104415886D01*
X153427291Y-104472172D01*
X153368611Y-104558054D01*
X153347966Y-104660000D01*
X153347966Y-105360000D01*
X153365886Y-105455238D01*
X153422172Y-105542709D01*
X153508054Y-105601389D01*
X153610000Y-105622034D01*
X153773000Y-105622034D01*
X153773000Y-105920841D01*
X153735982Y-105927806D01*
X153648511Y-105984092D01*
X153589831Y-106069974D01*
X153569186Y-106171920D01*
X153569186Y-106969480D01*
X153587106Y-107064718D01*
X153597063Y-107080192D01*
X153471521Y-107132193D01*
X153292893Y-107310822D01*
X153196220Y-107544211D01*
X119334554Y-107544211D01*
X119407000Y-107180000D01*
X119318929Y-106737235D01*
X119068123Y-106361877D01*
X118692765Y-106111071D01*
X118250000Y-106023000D01*
X117807235Y-106111071D01*
X117431877Y-106361877D01*
X117181071Y-106737235D01*
X117093000Y-107180000D01*
X116563015Y-107180000D01*
X116557000Y-107149763D01*
X116557000Y-101488446D01*
X120582739Y-101488446D01*
X120811683Y-102042532D01*
X120833000Y-102063886D01*
X120833000Y-102957766D01*
X120928683Y-103438799D01*
X121201167Y-103846599D01*
X123253401Y-105898833D01*
X123661200Y-106171317D01*
X124142234Y-106267000D01*
X149210000Y-106267000D01*
X149691033Y-106171317D01*
X150098833Y-105898833D01*
X153803000Y-102194666D01*
X153803000Y-102497966D01*
X153610000Y-102497966D01*
X153514762Y-102515886D01*
X153427291Y-102572172D01*
X153368611Y-102658054D01*
X153347966Y-102760000D01*
X153347966Y-103460000D01*
X153365886Y-103555238D01*
X153422172Y-103642709D01*
X153508054Y-103701389D01*
X153610000Y-103722034D01*
X154910000Y-103722034D01*
X155005238Y-103704114D01*
X155092709Y-103647828D01*
X155151389Y-103561946D01*
X155172034Y-103460000D01*
X155172034Y-102760000D01*
X155154114Y-102664762D01*
X155097828Y-102577291D01*
X155011946Y-102518611D01*
X154910000Y-102497966D01*
X154717000Y-102497966D01*
X154717000Y-101967000D01*
X156813548Y-101967000D01*
X158058274Y-103211726D01*
X158140013Y-103266752D01*
X158240000Y-103287000D01*
X160111527Y-103287000D01*
X160138729Y-103303812D01*
X160168729Y-103313812D01*
X160250000Y-103327000D01*
X160259832Y-103327000D01*
X160260000Y-103327034D01*
X161260000Y-103327034D01*
X161355238Y-103309114D01*
X161442709Y-103252828D01*
X161501389Y-103166946D01*
X161522034Y-103065000D01*
X161522034Y-99565000D01*
X161504114Y-99469762D01*
X161447828Y-99382291D01*
X161361946Y-99323611D01*
X161260000Y-99302966D01*
X160260000Y-99302966D01*
X160259819Y-99303000D01*
X156880000Y-99303000D01*
X156786591Y-99320576D01*
X156700801Y-99375780D01*
X156648040Y-99453000D01*
X153510000Y-99453000D01*
X153108774Y-99532808D01*
X153028966Y-99548683D01*
X152621167Y-99821167D01*
X148689334Y-103753000D01*
X124662900Y-103753000D01*
X123347000Y-102437100D01*
X123347000Y-102064555D01*
X123366828Y-102044762D01*
X123596738Y-101491076D01*
X123597261Y-100891554D01*
X123460399Y-100560323D01*
X123733000Y-100673516D01*
X123733000Y-101380402D01*
X123760175Y-101517020D01*
X123837563Y-101632839D01*
X125747161Y-103542437D01*
X125862980Y-103619825D01*
X125999598Y-103647000D01*
X142720000Y-103647000D01*
X142856618Y-103619825D01*
X142972437Y-103542437D01*
X145334874Y-101180000D01*
X147093000Y-101180000D01*
X147181071Y-101622765D01*
X147431877Y-101998123D01*
X147807235Y-102248929D01*
X148250000Y-102337000D01*
X148692765Y-102248929D01*
X149068123Y-101998123D01*
X149318929Y-101622765D01*
X149407000Y-101180000D01*
X149318929Y-100737235D01*
X149068123Y-100361877D01*
X148692765Y-100111071D01*
X148250000Y-100023000D01*
X147807235Y-100111071D01*
X147431877Y-100361877D01*
X147181071Y-100737235D01*
X147093000Y-101180000D01*
X145334874Y-101180000D01*
X147497874Y-99017000D01*
X161207126Y-99017000D01*
X161997966Y-99807840D01*
X161997966Y-103065000D01*
X162015886Y-103160238D01*
X162072172Y-103247709D01*
X162158054Y-103306389D01*
X162260000Y-103327034D01*
X163260000Y-103327034D01*
X163355238Y-103309114D01*
X163442709Y-103252828D01*
X163501389Y-103166946D01*
X163522034Y-103065000D01*
X163522034Y-99565000D01*
X163504114Y-99469762D01*
X163447828Y-99382291D01*
X163361946Y-99323611D01*
X163260000Y-99302966D01*
X162502840Y-99302966D01*
X161716874Y-98517000D01*
X162707126Y-98517000D01*
X163997966Y-99807840D01*
X163997966Y-103065000D01*
X164015886Y-103160238D01*
X164072172Y-103247709D01*
X164158054Y-103306389D01*
X164260000Y-103327034D01*
X165260000Y-103327034D01*
X165355238Y-103309114D01*
X165442709Y-103252828D01*
X165501389Y-103166946D01*
X165522034Y-103065000D01*
X165522034Y-101600750D01*
X165625000Y-101600750D01*
X165625000Y-103191310D01*
X165721673Y-103424699D01*
X165900302Y-103603327D01*
X166133691Y-103700000D01*
X166474250Y-103700000D01*
X166633000Y-103541250D01*
X166633000Y-101442000D01*
X166887000Y-101442000D01*
X166887000Y-103541250D01*
X167045750Y-103700000D01*
X167386309Y-103700000D01*
X167619698Y-103603327D01*
X167798327Y-103424699D01*
X167895000Y-103191310D01*
X167895000Y-101600750D01*
X167736250Y-101442000D01*
X166887000Y-101442000D01*
X166633000Y-101442000D01*
X165783750Y-101442000D01*
X165625000Y-101600750D01*
X165522034Y-101600750D01*
X165522034Y-99565000D01*
X165504114Y-99469762D01*
X165484120Y-99438690D01*
X165625000Y-99438690D01*
X165625000Y-101029250D01*
X165783750Y-101188000D01*
X166633000Y-101188000D01*
X166633000Y-99088750D01*
X166887000Y-99088750D01*
X166887000Y-101188000D01*
X167736250Y-101188000D01*
X167895000Y-101029250D01*
X167895000Y-99438690D01*
X167798327Y-99205301D01*
X167773026Y-99180000D01*
X173093000Y-99180000D01*
X173181071Y-99622765D01*
X173431877Y-99998123D01*
X173807235Y-100248929D01*
X174250000Y-100337000D01*
X174692765Y-100248929D01*
X175068123Y-99998123D01*
X175318929Y-99622765D01*
X175407000Y-99180000D01*
X175318929Y-98737235D01*
X175068123Y-98361877D01*
X174692765Y-98111071D01*
X174250000Y-98023000D01*
X173807235Y-98111071D01*
X173431877Y-98361877D01*
X173181071Y-98737235D01*
X173093000Y-99180000D01*
X167773026Y-99180000D01*
X167619698Y-99026673D01*
X167386309Y-98930000D01*
X167045750Y-98930000D01*
X166887000Y-99088750D01*
X166633000Y-99088750D01*
X166474250Y-98930000D01*
X166133691Y-98930000D01*
X165900302Y-99026673D01*
X165721673Y-99205301D01*
X165625000Y-99438690D01*
X165484120Y-99438690D01*
X165447828Y-99382291D01*
X165361946Y-99323611D01*
X165260000Y-99302966D01*
X164502840Y-99302966D01*
X163107437Y-97907563D01*
X162991618Y-97830175D01*
X162855000Y-97803000D01*
X146980000Y-97803000D01*
X146843382Y-97830175D01*
X146727563Y-97907563D01*
X143802126Y-100833000D01*
X129073722Y-100833000D01*
X129114467Y-100816123D01*
X129243715Y-100523320D01*
X128090000Y-99369605D01*
X128075858Y-99383748D01*
X127896253Y-99204143D01*
X127910395Y-99190000D01*
X128269605Y-99190000D01*
X129423320Y-100343715D01*
X129716123Y-100214467D01*
X129984388Y-99514194D01*
X129964250Y-98764565D01*
X129716123Y-98165533D01*
X129423320Y-98036285D01*
X128269605Y-99190000D01*
X127910395Y-99190000D01*
X126756680Y-98036285D01*
X126463877Y-98165533D01*
X126195612Y-98865806D01*
X126215750Y-99615435D01*
X126243792Y-99683134D01*
X125791554Y-99682739D01*
X125460323Y-99819601D01*
X125596738Y-99491076D01*
X125597261Y-98891554D01*
X125368317Y-98337468D01*
X124944762Y-97913172D01*
X124391076Y-97683262D01*
X123791554Y-97682739D01*
X123237468Y-97911683D01*
X122813172Y-98335238D01*
X122583262Y-98888924D01*
X122582739Y-99488446D01*
X122719601Y-99819677D01*
X122391076Y-99683262D01*
X121791554Y-99682739D01*
X121237468Y-99911683D01*
X120813172Y-100335238D01*
X120583262Y-100888924D01*
X120582739Y-101488446D01*
X116557000Y-101488446D01*
X116557000Y-99210237D01*
X116691429Y-98534418D01*
X117057121Y-97987121D01*
X117604418Y-97621429D01*
X118280236Y-97487000D01*
X127251131Y-97487000D01*
X127065533Y-97563877D01*
X127065533Y-97563877D01*
G37*
X127065533Y-97563877D02*
X126936285Y-97856680D01*
X128090000Y-99010395D01*
X129243715Y-97856680D01*
X129114467Y-97563877D01*
X128913789Y-97487000D01*
X174219763Y-97487000D01*
X174895582Y-97621429D01*
X175442879Y-97987121D01*
X175808571Y-98534418D01*
X175943000Y-99210236D01*
X175943000Y-107149764D01*
X175808571Y-107825582D01*
X175442879Y-108372879D01*
X174895582Y-108738571D01*
X174219763Y-108873000D01*
X155121885Y-108873000D01*
X155167107Y-108827778D01*
X155263780Y-108594389D01*
X155263780Y-108355050D01*
X155105030Y-108196300D01*
X154357000Y-108196300D01*
X154357000Y-108216300D01*
X154103000Y-108216300D01*
X154103000Y-108196300D01*
X153354970Y-108196300D01*
X153196220Y-108355050D01*
X153196220Y-108594389D01*
X153292893Y-108827778D01*
X153338115Y-108873000D01*
X118280236Y-108873000D01*
X117604418Y-108738571D01*
X117057121Y-108372879D01*
X116691429Y-107825582D01*
X116563015Y-107180000D01*
X117093000Y-107180000D01*
X117181071Y-107622765D01*
X117431877Y-107998123D01*
X117807235Y-108248929D01*
X118250000Y-108337000D01*
X118692765Y-108248929D01*
X119068123Y-107998123D01*
X119318929Y-107622765D01*
X119334554Y-107544211D01*
X153196220Y-107544211D01*
X153196220Y-107783550D01*
X153354970Y-107942300D01*
X154103000Y-107942300D01*
X154103000Y-107922300D01*
X154357000Y-107922300D01*
X154357000Y-107942300D01*
X155105030Y-107942300D01*
X155263780Y-107783550D01*
X155263780Y-107544211D01*
X155167107Y-107310822D01*
X154988479Y-107132193D01*
X154863906Y-107080593D01*
X154870169Y-107071426D01*
X154890814Y-106969480D01*
X154890814Y-106171920D01*
X154872894Y-106076682D01*
X154816608Y-105989211D01*
X154730726Y-105930531D01*
X154687000Y-105921676D01*
X154687000Y-105622034D01*
X154910000Y-105622034D01*
X155005238Y-105604114D01*
X155092709Y-105547828D01*
X155151389Y-105461946D01*
X155172034Y-105360000D01*
X155172034Y-105165000D01*
X157297966Y-105165000D01*
X157297966Y-108565000D01*
X157315886Y-108660238D01*
X157372172Y-108747709D01*
X157458054Y-108806389D01*
X157560000Y-108827034D01*
X159160000Y-108827034D01*
X159255238Y-108809114D01*
X159342709Y-108752828D01*
X159401389Y-108666946D01*
X159422034Y-108565000D01*
X159422034Y-105165000D01*
X168097966Y-105165000D01*
X168097966Y-108565000D01*
X168115886Y-108660238D01*
X168172172Y-108747709D01*
X168258054Y-108806389D01*
X168360000Y-108827034D01*
X169960000Y-108827034D01*
X170055238Y-108809114D01*
X170142709Y-108752828D01*
X170201389Y-108666946D01*
X170222034Y-108565000D01*
X170222034Y-107180000D01*
X173093000Y-107180000D01*
X173181071Y-107622765D01*
X173431877Y-107998123D01*
X173807235Y-108248929D01*
X174250000Y-108337000D01*
X174692765Y-108248929D01*
X175068123Y-107998123D01*
X175318929Y-107622765D01*
X175407000Y-107180000D01*
X175318929Y-106737235D01*
X175068123Y-106361877D01*
X174692765Y-106111071D01*
X174250000Y-106023000D01*
X173807235Y-106111071D01*
X173431877Y-106361877D01*
X173181071Y-106737235D01*
X173093000Y-107180000D01*
X170222034Y-107180000D01*
X170222034Y-105165000D01*
X170204114Y-105069762D01*
X170147828Y-104982291D01*
X170061946Y-104923611D01*
X169960000Y-104902966D01*
X168360000Y-104902966D01*
X168264762Y-104920886D01*
X168177291Y-104977172D01*
X168118611Y-105063054D01*
X168097966Y-105165000D01*
X159422034Y-105165000D01*
X159404114Y-105069762D01*
X159347828Y-104982291D01*
X159261946Y-104923611D01*
X159160000Y-104902966D01*
X157560000Y-104902966D01*
X157464762Y-104920886D01*
X157377291Y-104977172D01*
X157318611Y-105063054D01*
X157297966Y-105165000D01*
X155172034Y-105165000D01*
X155172034Y-104660000D01*
X155154114Y-104564762D01*
X155097828Y-104477291D01*
X155011946Y-104418611D01*
X154910000Y-104397966D01*
X153610000Y-104397966D01*
X153514762Y-104415886D01*
X153427291Y-104472172D01*
X153368611Y-104558054D01*
X153347966Y-104660000D01*
X153347966Y-105360000D01*
X153365886Y-105455238D01*
X153422172Y-105542709D01*
X153508054Y-105601389D01*
X153610000Y-105622034D01*
X153773000Y-105622034D01*
X153773000Y-105920841D01*
X153735982Y-105927806D01*
X153648511Y-105984092D01*
X153589831Y-106069974D01*
X153569186Y-106171920D01*
X153569186Y-106969480D01*
X153587106Y-107064718D01*
X153597063Y-107080192D01*
X153471521Y-107132193D01*
X153292893Y-107310822D01*
X153196220Y-107544211D01*
X119334554Y-107544211D01*
X119407000Y-107180000D01*
X119318929Y-106737235D01*
X119068123Y-106361877D01*
X118692765Y-106111071D01*
X118250000Y-106023000D01*
X117807235Y-106111071D01*
X117431877Y-106361877D01*
X117181071Y-106737235D01*
X117093000Y-107180000D01*
X116563015Y-107180000D01*
X116557000Y-107149763D01*
X116557000Y-101488446D01*
X120582739Y-101488446D01*
X120811683Y-102042532D01*
X120833000Y-102063886D01*
X120833000Y-102957766D01*
X120928683Y-103438799D01*
X121201167Y-103846599D01*
X123253401Y-105898833D01*
X123661200Y-106171317D01*
X124142234Y-106267000D01*
X149210000Y-106267000D01*
X149691033Y-106171317D01*
X150098833Y-105898833D01*
X153803000Y-102194666D01*
X153803000Y-102497966D01*
X153610000Y-102497966D01*
X153514762Y-102515886D01*
X153427291Y-102572172D01*
X153368611Y-102658054D01*
X153347966Y-102760000D01*
X153347966Y-103460000D01*
X153365886Y-103555238D01*
X153422172Y-103642709D01*
X153508054Y-103701389D01*
X153610000Y-103722034D01*
X154910000Y-103722034D01*
X155005238Y-103704114D01*
X155092709Y-103647828D01*
X155151389Y-103561946D01*
X155172034Y-103460000D01*
X155172034Y-102760000D01*
X155154114Y-102664762D01*
X155097828Y-102577291D01*
X155011946Y-102518611D01*
X154910000Y-102497966D01*
X154717000Y-102497966D01*
X154717000Y-101967000D01*
X156813548Y-101967000D01*
X158058274Y-103211726D01*
X158140013Y-103266752D01*
X158240000Y-103287000D01*
X160111527Y-103287000D01*
X160138729Y-103303812D01*
X160168729Y-103313812D01*
X160250000Y-103327000D01*
X160259832Y-103327000D01*
X160260000Y-103327034D01*
X161260000Y-103327034D01*
X161355238Y-103309114D01*
X161442709Y-103252828D01*
X161501389Y-103166946D01*
X161522034Y-103065000D01*
X161522034Y-99565000D01*
X161504114Y-99469762D01*
X161447828Y-99382291D01*
X161361946Y-99323611D01*
X161260000Y-99302966D01*
X160260000Y-99302966D01*
X160259819Y-99303000D01*
X156880000Y-99303000D01*
X156786591Y-99320576D01*
X156700801Y-99375780D01*
X156648040Y-99453000D01*
X153510000Y-99453000D01*
X153108774Y-99532808D01*
X153028966Y-99548683D01*
X152621167Y-99821167D01*
X148689334Y-103753000D01*
X124662900Y-103753000D01*
X123347000Y-102437100D01*
X123347000Y-102064555D01*
X123366828Y-102044762D01*
X123596738Y-101491076D01*
X123597261Y-100891554D01*
X123460399Y-100560323D01*
X123733000Y-100673516D01*
X123733000Y-101380402D01*
X123760175Y-101517020D01*
X123837563Y-101632839D01*
X125747161Y-103542437D01*
X125862980Y-103619825D01*
X125999598Y-103647000D01*
X142720000Y-103647000D01*
X142856618Y-103619825D01*
X142972437Y-103542437D01*
X145334874Y-101180000D01*
X147093000Y-101180000D01*
X147181071Y-101622765D01*
X147431877Y-101998123D01*
X147807235Y-102248929D01*
X148250000Y-102337000D01*
X148692765Y-102248929D01*
X149068123Y-101998123D01*
X149318929Y-101622765D01*
X149407000Y-101180000D01*
X149318929Y-100737235D01*
X149068123Y-100361877D01*
X148692765Y-100111071D01*
X148250000Y-100023000D01*
X147807235Y-100111071D01*
X147431877Y-100361877D01*
X147181071Y-100737235D01*
X147093000Y-101180000D01*
X145334874Y-101180000D01*
X147497874Y-99017000D01*
X161207126Y-99017000D01*
X161997966Y-99807840D01*
X161997966Y-103065000D01*
X162015886Y-103160238D01*
X162072172Y-103247709D01*
X162158054Y-103306389D01*
X162260000Y-103327034D01*
X163260000Y-103327034D01*
X163355238Y-103309114D01*
X163442709Y-103252828D01*
X163501389Y-103166946D01*
X163522034Y-103065000D01*
X163522034Y-99565000D01*
X163504114Y-99469762D01*
X163447828Y-99382291D01*
X163361946Y-99323611D01*
X163260000Y-99302966D01*
X162502840Y-99302966D01*
X161716874Y-98517000D01*
X162707126Y-98517000D01*
X163997966Y-99807840D01*
X163997966Y-103065000D01*
X164015886Y-103160238D01*
X164072172Y-103247709D01*
X164158054Y-103306389D01*
X164260000Y-103327034D01*
X165260000Y-103327034D01*
X165355238Y-103309114D01*
X165442709Y-103252828D01*
X165501389Y-103166946D01*
X165522034Y-103065000D01*
X165522034Y-101600750D01*
X165625000Y-101600750D01*
X165625000Y-103191310D01*
X165721673Y-103424699D01*
X165900302Y-103603327D01*
X166133691Y-103700000D01*
X166474250Y-103700000D01*
X166633000Y-103541250D01*
X166633000Y-101442000D01*
X166887000Y-101442000D01*
X166887000Y-103541250D01*
X167045750Y-103700000D01*
X167386309Y-103700000D01*
X167619698Y-103603327D01*
X167798327Y-103424699D01*
X167895000Y-103191310D01*
X167895000Y-101600750D01*
X167736250Y-101442000D01*
X166887000Y-101442000D01*
X166633000Y-101442000D01*
X165783750Y-101442000D01*
X165625000Y-101600750D01*
X165522034Y-101600750D01*
X165522034Y-99565000D01*
X165504114Y-99469762D01*
X165484120Y-99438690D01*
X165625000Y-99438690D01*
X165625000Y-101029250D01*
X165783750Y-101188000D01*
X166633000Y-101188000D01*
X166633000Y-99088750D01*
X166887000Y-99088750D01*
X166887000Y-101188000D01*
X167736250Y-101188000D01*
X167895000Y-101029250D01*
X167895000Y-99438690D01*
X167798327Y-99205301D01*
X167773026Y-99180000D01*
X173093000Y-99180000D01*
X173181071Y-99622765D01*
X173431877Y-99998123D01*
X173807235Y-100248929D01*
X174250000Y-100337000D01*
X174692765Y-100248929D01*
X175068123Y-99998123D01*
X175318929Y-99622765D01*
X175407000Y-99180000D01*
X175318929Y-98737235D01*
X175068123Y-98361877D01*
X174692765Y-98111071D01*
X174250000Y-98023000D01*
X173807235Y-98111071D01*
X173431877Y-98361877D01*
X173181071Y-98737235D01*
X173093000Y-99180000D01*
X167773026Y-99180000D01*
X167619698Y-99026673D01*
X167386309Y-98930000D01*
X167045750Y-98930000D01*
X166887000Y-99088750D01*
X166633000Y-99088750D01*
X166474250Y-98930000D01*
X166133691Y-98930000D01*
X165900302Y-99026673D01*
X165721673Y-99205301D01*
X165625000Y-99438690D01*
X165484120Y-99438690D01*
X165447828Y-99382291D01*
X165361946Y-99323611D01*
X165260000Y-99302966D01*
X164502840Y-99302966D01*
X163107437Y-97907563D01*
X162991618Y-97830175D01*
X162855000Y-97803000D01*
X146980000Y-97803000D01*
X146843382Y-97830175D01*
X146727563Y-97907563D01*
X143802126Y-100833000D01*
X129073722Y-100833000D01*
X129114467Y-100816123D01*
X129243715Y-100523320D01*
X128090000Y-99369605D01*
X128075858Y-99383748D01*
X127896253Y-99204143D01*
X127910395Y-99190000D01*
X128269605Y-99190000D01*
X129423320Y-100343715D01*
X129716123Y-100214467D01*
X129984388Y-99514194D01*
X129964250Y-98764565D01*
X129716123Y-98165533D01*
X129423320Y-98036285D01*
X128269605Y-99190000D01*
X127910395Y-99190000D01*
X126756680Y-98036285D01*
X126463877Y-98165533D01*
X126195612Y-98865806D01*
X126215750Y-99615435D01*
X126243792Y-99683134D01*
X125791554Y-99682739D01*
X125460323Y-99819601D01*
X125596738Y-99491076D01*
X125597261Y-98891554D01*
X125368317Y-98337468D01*
X124944762Y-97913172D01*
X124391076Y-97683262D01*
X123791554Y-97682739D01*
X123237468Y-97911683D01*
X122813172Y-98335238D01*
X122583262Y-98888924D01*
X122582739Y-99488446D01*
X122719601Y-99819677D01*
X122391076Y-99683262D01*
X121791554Y-99682739D01*
X121237468Y-99911683D01*
X120813172Y-100335238D01*
X120583262Y-100888924D01*
X120582739Y-101488446D01*
X116557000Y-101488446D01*
X116557000Y-99210237D01*
X116691429Y-98534418D01*
X117057121Y-97987121D01*
X117604418Y-97621429D01*
X118280236Y-97487000D01*
X127251131Y-97487000D01*
X127065533Y-97563877D01*
G36*
X161133000Y-102943000D02*
X160282606Y-102943000D01*
X160279803Y-102940197D01*
X160237789Y-102912334D01*
X160190000Y-102903000D01*
X158292606Y-102903000D01*
X157007000Y-101617394D01*
X157007000Y-99687000D01*
X161133000Y-99687000D01*
X161133000Y-102943000D01*
X161133000Y-102943000D01*
G37*
X161133000Y-102943000D02*
X160282606Y-102943000D01*
X160279803Y-102940197D01*
X160237789Y-102912334D01*
X160190000Y-102903000D01*
X158292606Y-102903000D01*
X157007000Y-101617394D01*
X157007000Y-99687000D01*
X161133000Y-99687000D01*
X161133000Y-102943000D01*
M02*
