G04 #@! TF.FileFunction,Paste,Top*
%FSLAX46Y46*%
G04 Gerber Fmt 4.6, Leading zero omitted, Abs format (unit mm)*
G04 Created by KiCad (PCBNEW 4.0.7) date 05/12/18 12:12:21*
%MOMM*%
%LPD*%
G01*
G04 APERTURE LIST*
%ADD10C,0.100000*%
%ADD11R,0.700000X0.350000*%
G04 APERTURE END LIST*
D10*
D11*
X109450000Y-133250000D03*
X107550000Y-133250000D03*
X109450000Y-132500000D03*
X107550000Y-132500000D03*
X109450000Y-131750000D03*
X107550000Y-131750000D03*
X125450000Y-129250000D03*
X123550000Y-129250000D03*
X125450000Y-128500000D03*
X123550000Y-128500000D03*
X125450000Y-127750000D03*
X123550000Y-127750000D03*
X161450000Y-125250000D03*
X159550000Y-125250000D03*
X161450000Y-124500000D03*
X159550000Y-124500000D03*
X161450000Y-123750000D03*
X159550000Y-123750000D03*
X121450000Y-109250000D03*
X119550000Y-109250000D03*
X121450000Y-108500000D03*
X119550000Y-108500000D03*
X121450000Y-107750000D03*
X119550000Y-107750000D03*
X105450000Y-105250000D03*
X103550000Y-105250000D03*
X105450000Y-104500000D03*
X103550000Y-104500000D03*
X105450000Y-103750000D03*
X103550000Y-103750000D03*
X109450000Y-105250000D03*
X107550000Y-105250000D03*
X109450000Y-104500000D03*
X107550000Y-104500000D03*
X109450000Y-103750000D03*
X107550000Y-103750000D03*
X113450000Y-105250000D03*
X111550000Y-105250000D03*
X113450000Y-104500000D03*
X111550000Y-104500000D03*
X113450000Y-103750000D03*
X111550000Y-103750000D03*
X117450000Y-105250000D03*
X115550000Y-105250000D03*
X117450000Y-104500000D03*
X115550000Y-104500000D03*
X117450000Y-103750000D03*
X115550000Y-103750000D03*
X121450000Y-105250000D03*
X119550000Y-105250000D03*
X121450000Y-104500000D03*
X119550000Y-104500000D03*
X121450000Y-103750000D03*
X119550000Y-103750000D03*
X125450000Y-105250000D03*
X123550000Y-105250000D03*
X125450000Y-104500000D03*
X123550000Y-104500000D03*
X125450000Y-103750000D03*
X123550000Y-103750000D03*
X129450000Y-105250000D03*
X127550000Y-105250000D03*
X129450000Y-104500000D03*
X127550000Y-104500000D03*
X129450000Y-103750000D03*
X127550000Y-103750000D03*
X133450000Y-105250000D03*
X131550000Y-105250000D03*
X133450000Y-104500000D03*
X131550000Y-104500000D03*
X133450000Y-103750000D03*
X131550000Y-103750000D03*
X137450000Y-105250000D03*
X135550000Y-105250000D03*
X137450000Y-104500000D03*
X135550000Y-104500000D03*
X137450000Y-103750000D03*
X135550000Y-103750000D03*
X141450000Y-105250000D03*
X139550000Y-105250000D03*
X141450000Y-104500000D03*
X139550000Y-104500000D03*
X141450000Y-103750000D03*
X139550000Y-103750000D03*
X145450000Y-105250000D03*
X143550000Y-105250000D03*
X145450000Y-104500000D03*
X143550000Y-104500000D03*
X145450000Y-103750000D03*
X143550000Y-103750000D03*
X149450000Y-105250000D03*
X147550000Y-105250000D03*
X149450000Y-104500000D03*
X147550000Y-104500000D03*
X149450000Y-103750000D03*
X147550000Y-103750000D03*
X153450000Y-105250000D03*
X151550000Y-105250000D03*
X153450000Y-104500000D03*
X151550000Y-104500000D03*
X153450000Y-103750000D03*
X151550000Y-103750000D03*
X157450000Y-105250000D03*
X155550000Y-105250000D03*
X157450000Y-104500000D03*
X155550000Y-104500000D03*
X157450000Y-103750000D03*
X155550000Y-103750000D03*
X161450000Y-105250000D03*
X159550000Y-105250000D03*
X161450000Y-104500000D03*
X159550000Y-104500000D03*
X161450000Y-103750000D03*
X159550000Y-103750000D03*
X165450000Y-105250000D03*
X163550000Y-105250000D03*
X165450000Y-104500000D03*
X163550000Y-104500000D03*
X165450000Y-103750000D03*
X163550000Y-103750000D03*
X105450000Y-109250000D03*
X103550000Y-109250000D03*
X105450000Y-108500000D03*
X103550000Y-108500000D03*
X105450000Y-107750000D03*
X103550000Y-107750000D03*
X109450000Y-109250000D03*
X107550000Y-109250000D03*
X109450000Y-108500000D03*
X107550000Y-108500000D03*
X109450000Y-107750000D03*
X107550000Y-107750000D03*
X113450000Y-109250000D03*
X111550000Y-109250000D03*
X113450000Y-108500000D03*
X111550000Y-108500000D03*
X113450000Y-107750000D03*
X111550000Y-107750000D03*
X117450000Y-109250000D03*
X115550000Y-109250000D03*
X117450000Y-108500000D03*
X115550000Y-108500000D03*
X117450000Y-107750000D03*
X115550000Y-107750000D03*
X125450000Y-109250000D03*
X123550000Y-109250000D03*
X125450000Y-108500000D03*
X123550000Y-108500000D03*
X125450000Y-107750000D03*
X123550000Y-107750000D03*
X129450000Y-109250000D03*
X127550000Y-109250000D03*
X129450000Y-108500000D03*
X127550000Y-108500000D03*
X129450000Y-107750000D03*
X127550000Y-107750000D03*
X133450000Y-109250000D03*
X131550000Y-109250000D03*
X133450000Y-108500000D03*
X131550000Y-108500000D03*
X133450000Y-107750000D03*
X131550000Y-107750000D03*
X137450000Y-109250000D03*
X135550000Y-109250000D03*
X137450000Y-108500000D03*
X135550000Y-108500000D03*
X137450000Y-107750000D03*
X135550000Y-107750000D03*
X141450000Y-109250000D03*
X139550000Y-109250000D03*
X141450000Y-108500000D03*
X139550000Y-108500000D03*
X141450000Y-107750000D03*
X139550000Y-107750000D03*
X145450000Y-109250000D03*
X143550000Y-109250000D03*
X145450000Y-108500000D03*
X143550000Y-108500000D03*
X145450000Y-107750000D03*
X143550000Y-107750000D03*
X149450000Y-109250000D03*
X147550000Y-109250000D03*
X149450000Y-108500000D03*
X147550000Y-108500000D03*
X149450000Y-107750000D03*
X147550000Y-107750000D03*
X153450000Y-109250000D03*
X151550000Y-109250000D03*
X153450000Y-108500000D03*
X151550000Y-108500000D03*
X153450000Y-107750000D03*
X151550000Y-107750000D03*
X157450000Y-109250000D03*
X155550000Y-109250000D03*
X157450000Y-108500000D03*
X155550000Y-108500000D03*
X157450000Y-107750000D03*
X155550000Y-107750000D03*
X161450000Y-109250000D03*
X159550000Y-109250000D03*
X161450000Y-108500000D03*
X159550000Y-108500000D03*
X161450000Y-107750000D03*
X159550000Y-107750000D03*
X165450000Y-109250000D03*
X163550000Y-109250000D03*
X165450000Y-108500000D03*
X163550000Y-108500000D03*
X165450000Y-107750000D03*
X163550000Y-107750000D03*
X105450000Y-113250000D03*
X103550000Y-113250000D03*
X105450000Y-112500000D03*
X103550000Y-112500000D03*
X105450000Y-111750000D03*
X103550000Y-111750000D03*
X109450000Y-113250000D03*
X107550000Y-113250000D03*
X109450000Y-112500000D03*
X107550000Y-112500000D03*
X109450000Y-111750000D03*
X107550000Y-111750000D03*
X113450000Y-113250000D03*
X111550000Y-113250000D03*
X113450000Y-112500000D03*
X111550000Y-112500000D03*
X113450000Y-111750000D03*
X111550000Y-111750000D03*
X117450000Y-113250000D03*
X115550000Y-113250000D03*
X117450000Y-112500000D03*
X115550000Y-112500000D03*
X117450000Y-111750000D03*
X115550000Y-111750000D03*
X121450000Y-113250000D03*
X119550000Y-113250000D03*
X121450000Y-112500000D03*
X119550000Y-112500000D03*
X121450000Y-111750000D03*
X119550000Y-111750000D03*
X125450000Y-113250000D03*
X123550000Y-113250000D03*
X125450000Y-112500000D03*
X123550000Y-112500000D03*
X125450000Y-111750000D03*
X123550000Y-111750000D03*
X129450000Y-113250000D03*
X127550000Y-113250000D03*
X129450000Y-112500000D03*
X127550000Y-112500000D03*
X129450000Y-111750000D03*
X127550000Y-111750000D03*
X133450000Y-113250000D03*
X131550000Y-113250000D03*
X133450000Y-112500000D03*
X131550000Y-112500000D03*
X133450000Y-111750000D03*
X131550000Y-111750000D03*
X137450000Y-113250000D03*
X135550000Y-113250000D03*
X137450000Y-112500000D03*
X135550000Y-112500000D03*
X137450000Y-111750000D03*
X135550000Y-111750000D03*
X141450000Y-113250000D03*
X139550000Y-113250000D03*
X141450000Y-112500000D03*
X139550000Y-112500000D03*
X141450000Y-111750000D03*
X139550000Y-111750000D03*
X145450000Y-113250000D03*
X143550000Y-113250000D03*
X145450000Y-112500000D03*
X143550000Y-112500000D03*
X145450000Y-111750000D03*
X143550000Y-111750000D03*
X149450000Y-113250000D03*
X147550000Y-113250000D03*
X149450000Y-112500000D03*
X147550000Y-112500000D03*
X149450000Y-111750000D03*
X147550000Y-111750000D03*
X153450000Y-113250000D03*
X151550000Y-113250000D03*
X153450000Y-112500000D03*
X151550000Y-112500000D03*
X153450000Y-111750000D03*
X151550000Y-111750000D03*
X157450000Y-113250000D03*
X155550000Y-113250000D03*
X157450000Y-112500000D03*
X155550000Y-112500000D03*
X157450000Y-111750000D03*
X155550000Y-111750000D03*
X161450000Y-113250000D03*
X159550000Y-113250000D03*
X161450000Y-112500000D03*
X159550000Y-112500000D03*
X161450000Y-111750000D03*
X159550000Y-111750000D03*
X165450000Y-113250000D03*
X163550000Y-113250000D03*
X165450000Y-112500000D03*
X163550000Y-112500000D03*
X165450000Y-111750000D03*
X163550000Y-111750000D03*
X105450000Y-117250000D03*
X103550000Y-117250000D03*
X105450000Y-116500000D03*
X103550000Y-116500000D03*
X105450000Y-115750000D03*
X103550000Y-115750000D03*
X109450000Y-117250000D03*
X107550000Y-117250000D03*
X109450000Y-116500000D03*
X107550000Y-116500000D03*
X109450000Y-115750000D03*
X107550000Y-115750000D03*
X113450000Y-117250000D03*
X111550000Y-117250000D03*
X113450000Y-116500000D03*
X111550000Y-116500000D03*
X113450000Y-115750000D03*
X111550000Y-115750000D03*
X117450000Y-117250000D03*
X115550000Y-117250000D03*
X117450000Y-116500000D03*
X115550000Y-116500000D03*
X117450000Y-115750000D03*
X115550000Y-115750000D03*
X121450000Y-117250000D03*
X119550000Y-117250000D03*
X121450000Y-116500000D03*
X119550000Y-116500000D03*
X121450000Y-115750000D03*
X119550000Y-115750000D03*
X125450000Y-117250000D03*
X123550000Y-117250000D03*
X125450000Y-116500000D03*
X123550000Y-116500000D03*
X125450000Y-115750000D03*
X123550000Y-115750000D03*
X129450000Y-117250000D03*
X127550000Y-117250000D03*
X129450000Y-116500000D03*
X127550000Y-116500000D03*
X129450000Y-115750000D03*
X127550000Y-115750000D03*
X133450000Y-117250000D03*
X131550000Y-117250000D03*
X133450000Y-116500000D03*
X131550000Y-116500000D03*
X133450000Y-115750000D03*
X131550000Y-115750000D03*
X137450000Y-117250000D03*
X135550000Y-117250000D03*
X137450000Y-116500000D03*
X135550000Y-116500000D03*
X137450000Y-115750000D03*
X135550000Y-115750000D03*
X141450000Y-117250000D03*
X139550000Y-117250000D03*
X141450000Y-116500000D03*
X139550000Y-116500000D03*
X141450000Y-115750000D03*
X139550000Y-115750000D03*
X145450000Y-117250000D03*
X143550000Y-117250000D03*
X145450000Y-116500000D03*
X143550000Y-116500000D03*
X145450000Y-115750000D03*
X143550000Y-115750000D03*
X149450000Y-117250000D03*
X147550000Y-117250000D03*
X149450000Y-116500000D03*
X147550000Y-116500000D03*
X149450000Y-115750000D03*
X147550000Y-115750000D03*
X153450000Y-117250000D03*
X151550000Y-117250000D03*
X153450000Y-116500000D03*
X151550000Y-116500000D03*
X153450000Y-115750000D03*
X151550000Y-115750000D03*
X157450000Y-117250000D03*
X155550000Y-117250000D03*
X157450000Y-116500000D03*
X155550000Y-116500000D03*
X157450000Y-115750000D03*
X155550000Y-115750000D03*
X161450000Y-117250000D03*
X159550000Y-117250000D03*
X161450000Y-116500000D03*
X159550000Y-116500000D03*
X161450000Y-115750000D03*
X159550000Y-115750000D03*
X165450000Y-117250000D03*
X163550000Y-117250000D03*
X165450000Y-116500000D03*
X163550000Y-116500000D03*
X165450000Y-115750000D03*
X163550000Y-115750000D03*
X105450000Y-121250000D03*
X103550000Y-121250000D03*
X105450000Y-120500000D03*
X103550000Y-120500000D03*
X105450000Y-119750000D03*
X103550000Y-119750000D03*
X109450000Y-121250000D03*
X107550000Y-121250000D03*
X109450000Y-120500000D03*
X107550000Y-120500000D03*
X109450000Y-119750000D03*
X107550000Y-119750000D03*
X113450000Y-121250000D03*
X111550000Y-121250000D03*
X113450000Y-120500000D03*
X111550000Y-120500000D03*
X113450000Y-119750000D03*
X111550000Y-119750000D03*
X117450000Y-121250000D03*
X115550000Y-121250000D03*
X117450000Y-120500000D03*
X115550000Y-120500000D03*
X117450000Y-119750000D03*
X115550000Y-119750000D03*
X121450000Y-121250000D03*
X119550000Y-121250000D03*
X121450000Y-120500000D03*
X119550000Y-120500000D03*
X121450000Y-119750000D03*
X119550000Y-119750000D03*
X125450000Y-121250000D03*
X123550000Y-121250000D03*
X125450000Y-120500000D03*
X123550000Y-120500000D03*
X125450000Y-119750000D03*
X123550000Y-119750000D03*
X129450000Y-121250000D03*
X127550000Y-121250000D03*
X129450000Y-120500000D03*
X127550000Y-120500000D03*
X129450000Y-119750000D03*
X127550000Y-119750000D03*
X133450000Y-121250000D03*
X131550000Y-121250000D03*
X133450000Y-120500000D03*
X131550000Y-120500000D03*
X133450000Y-119750000D03*
X131550000Y-119750000D03*
X137450000Y-121250000D03*
X135550000Y-121250000D03*
X137450000Y-120500000D03*
X135550000Y-120500000D03*
X137450000Y-119750000D03*
X135550000Y-119750000D03*
X141450000Y-121250000D03*
X139550000Y-121250000D03*
X141450000Y-120500000D03*
X139550000Y-120500000D03*
X141450000Y-119750000D03*
X139550000Y-119750000D03*
X145450000Y-121250000D03*
X143550000Y-121250000D03*
X145450000Y-120500000D03*
X143550000Y-120500000D03*
X145450000Y-119750000D03*
X143550000Y-119750000D03*
X149450000Y-121250000D03*
X147550000Y-121250000D03*
X149450000Y-120500000D03*
X147550000Y-120500000D03*
X149450000Y-119750000D03*
X147550000Y-119750000D03*
X153450000Y-121250000D03*
X151550000Y-121250000D03*
X153450000Y-120500000D03*
X151550000Y-120500000D03*
X153450000Y-119750000D03*
X151550000Y-119750000D03*
X157450000Y-121250000D03*
X155550000Y-121250000D03*
X157450000Y-120500000D03*
X155550000Y-120500000D03*
X157450000Y-119750000D03*
X155550000Y-119750000D03*
X161450000Y-121250000D03*
X159550000Y-121250000D03*
X161450000Y-120500000D03*
X159550000Y-120500000D03*
X161450000Y-119750000D03*
X159550000Y-119750000D03*
X165450000Y-121250000D03*
X163550000Y-121250000D03*
X165450000Y-120500000D03*
X163550000Y-120500000D03*
X165450000Y-119750000D03*
X163550000Y-119750000D03*
X105450000Y-125250000D03*
X103550000Y-125250000D03*
X105450000Y-124500000D03*
X103550000Y-124500000D03*
X105450000Y-123750000D03*
X103550000Y-123750000D03*
X109450000Y-125250000D03*
X107550000Y-125250000D03*
X109450000Y-124500000D03*
X107550000Y-124500000D03*
X109450000Y-123750000D03*
X107550000Y-123750000D03*
X113450000Y-125250000D03*
X111550000Y-125250000D03*
X113450000Y-124500000D03*
X111550000Y-124500000D03*
X113450000Y-123750000D03*
X111550000Y-123750000D03*
X117450000Y-125250000D03*
X115550000Y-125250000D03*
X117450000Y-124500000D03*
X115550000Y-124500000D03*
X117450000Y-123750000D03*
X115550000Y-123750000D03*
X121450000Y-125250000D03*
X119550000Y-125250000D03*
X121450000Y-124500000D03*
X119550000Y-124500000D03*
X121450000Y-123750000D03*
X119550000Y-123750000D03*
X125450000Y-125250000D03*
X123550000Y-125250000D03*
X125450000Y-124500000D03*
X123550000Y-124500000D03*
X125450000Y-123750000D03*
X123550000Y-123750000D03*
X129450000Y-125250000D03*
X127550000Y-125250000D03*
X129450000Y-124500000D03*
X127550000Y-124500000D03*
X129450000Y-123750000D03*
X127550000Y-123750000D03*
X133450000Y-125250000D03*
X131550000Y-125250000D03*
X133450000Y-124500000D03*
X131550000Y-124500000D03*
X133450000Y-123750000D03*
X131550000Y-123750000D03*
X137450000Y-125250000D03*
X135550000Y-125250000D03*
X137450000Y-124500000D03*
X135550000Y-124500000D03*
X137450000Y-123750000D03*
X135550000Y-123750000D03*
X141450000Y-125250000D03*
X139550000Y-125250000D03*
X141450000Y-124500000D03*
X139550000Y-124500000D03*
X141450000Y-123750000D03*
X139550000Y-123750000D03*
X145450000Y-125250000D03*
X143550000Y-125250000D03*
X145450000Y-124500000D03*
X143550000Y-124500000D03*
X145450000Y-123750000D03*
X143550000Y-123750000D03*
X149450000Y-125250000D03*
X147550000Y-125250000D03*
X149450000Y-124500000D03*
X147550000Y-124500000D03*
X149450000Y-123750000D03*
X147550000Y-123750000D03*
X153450000Y-125250000D03*
X151550000Y-125250000D03*
X153450000Y-124500000D03*
X151550000Y-124500000D03*
X153450000Y-123750000D03*
X151550000Y-123750000D03*
X157450000Y-125250000D03*
X155550000Y-125250000D03*
X157450000Y-124500000D03*
X155550000Y-124500000D03*
X157450000Y-123750000D03*
X155550000Y-123750000D03*
X165450000Y-125250000D03*
X163550000Y-125250000D03*
X165450000Y-124500000D03*
X163550000Y-124500000D03*
X165450000Y-123750000D03*
X163550000Y-123750000D03*
X105450000Y-129250000D03*
X103550000Y-129250000D03*
X105450000Y-128500000D03*
X103550000Y-128500000D03*
X105450000Y-127750000D03*
X103550000Y-127750000D03*
X109450000Y-129250000D03*
X107550000Y-129250000D03*
X109450000Y-128500000D03*
X107550000Y-128500000D03*
X109450000Y-127750000D03*
X107550000Y-127750000D03*
X113450000Y-129250000D03*
X111550000Y-129250000D03*
X113450000Y-128500000D03*
X111550000Y-128500000D03*
X113450000Y-127750000D03*
X111550000Y-127750000D03*
X117450000Y-129250000D03*
X115550000Y-129250000D03*
X117450000Y-128500000D03*
X115550000Y-128500000D03*
X117450000Y-127750000D03*
X115550000Y-127750000D03*
X121450000Y-129250000D03*
X119550000Y-129250000D03*
X121450000Y-128500000D03*
X119550000Y-128500000D03*
X121450000Y-127750000D03*
X119550000Y-127750000D03*
X129450000Y-129250000D03*
X127550000Y-129250000D03*
X129450000Y-128500000D03*
X127550000Y-128500000D03*
X129450000Y-127750000D03*
X127550000Y-127750000D03*
X133450000Y-129250000D03*
X131550000Y-129250000D03*
X133450000Y-128500000D03*
X131550000Y-128500000D03*
X133450000Y-127750000D03*
X131550000Y-127750000D03*
X137450000Y-129250000D03*
X135550000Y-129250000D03*
X137450000Y-128500000D03*
X135550000Y-128500000D03*
X137450000Y-127750000D03*
X135550000Y-127750000D03*
X141450000Y-129250000D03*
X139550000Y-129250000D03*
X141450000Y-128500000D03*
X139550000Y-128500000D03*
X141450000Y-127750000D03*
X139550000Y-127750000D03*
X145450000Y-129250000D03*
X143550000Y-129250000D03*
X145450000Y-128500000D03*
X143550000Y-128500000D03*
X145450000Y-127750000D03*
X143550000Y-127750000D03*
X149450000Y-129250000D03*
X147550000Y-129250000D03*
X149450000Y-128500000D03*
X147550000Y-128500000D03*
X149450000Y-127750000D03*
X147550000Y-127750000D03*
X153450000Y-129250000D03*
X151550000Y-129250000D03*
X153450000Y-128500000D03*
X151550000Y-128500000D03*
X153450000Y-127750000D03*
X151550000Y-127750000D03*
X157450000Y-129250000D03*
X155550000Y-129250000D03*
X157450000Y-128500000D03*
X155550000Y-128500000D03*
X157450000Y-127750000D03*
X155550000Y-127750000D03*
X161450000Y-129250000D03*
X159550000Y-129250000D03*
X161450000Y-128500000D03*
X159550000Y-128500000D03*
X161450000Y-127750000D03*
X159550000Y-127750000D03*
X165450000Y-129250000D03*
X163550000Y-129250000D03*
X165450000Y-128500000D03*
X163550000Y-128500000D03*
X165450000Y-127750000D03*
X163550000Y-127750000D03*
X105450000Y-133250000D03*
X103550000Y-133250000D03*
X105450000Y-132500000D03*
X103550000Y-132500000D03*
X105450000Y-131750000D03*
X103550000Y-131750000D03*
X113450000Y-133250000D03*
X111550000Y-133250000D03*
X113450000Y-132500000D03*
X111550000Y-132500000D03*
X113450000Y-131750000D03*
X111550000Y-131750000D03*
X117450000Y-133250000D03*
X115550000Y-133250000D03*
X117450000Y-132500000D03*
X115550000Y-132500000D03*
X117450000Y-131750000D03*
X115550000Y-131750000D03*
X121450000Y-133250000D03*
X119550000Y-133250000D03*
X121450000Y-132500000D03*
X119550000Y-132500000D03*
X121450000Y-131750000D03*
X119550000Y-131750000D03*
X125450000Y-133250000D03*
X123550000Y-133250000D03*
X125450000Y-132500000D03*
X123550000Y-132500000D03*
X125450000Y-131750000D03*
X123550000Y-131750000D03*
X129450000Y-133250000D03*
X127550000Y-133250000D03*
X129450000Y-132500000D03*
X127550000Y-132500000D03*
X129450000Y-131750000D03*
X127550000Y-131750000D03*
X133450000Y-133250000D03*
X131550000Y-133250000D03*
X133450000Y-132500000D03*
X131550000Y-132500000D03*
X133450000Y-131750000D03*
X131550000Y-131750000D03*
X137450000Y-133250000D03*
X135550000Y-133250000D03*
X137450000Y-132500000D03*
X135550000Y-132500000D03*
X137450000Y-131750000D03*
X135550000Y-131750000D03*
X141450000Y-133250000D03*
X139550000Y-133250000D03*
X141450000Y-132500000D03*
X139550000Y-132500000D03*
X141450000Y-131750000D03*
X139550000Y-131750000D03*
X145450000Y-133250000D03*
X143550000Y-133250000D03*
X145450000Y-132500000D03*
X143550000Y-132500000D03*
X145450000Y-131750000D03*
X143550000Y-131750000D03*
X149450000Y-133250000D03*
X147550000Y-133250000D03*
X149450000Y-132500000D03*
X147550000Y-132500000D03*
X149450000Y-131750000D03*
X147550000Y-131750000D03*
X153450000Y-133250000D03*
X151550000Y-133250000D03*
X153450000Y-132500000D03*
X151550000Y-132500000D03*
X153450000Y-131750000D03*
X151550000Y-131750000D03*
X157450000Y-133250000D03*
X155550000Y-133250000D03*
X157450000Y-132500000D03*
X155550000Y-132500000D03*
X157450000Y-131750000D03*
X155550000Y-131750000D03*
X161450000Y-133250000D03*
X159550000Y-133250000D03*
X161450000Y-132500000D03*
X159550000Y-132500000D03*
X161450000Y-131750000D03*
X159550000Y-131750000D03*
X165450000Y-133250000D03*
X163550000Y-133250000D03*
X165450000Y-132500000D03*
X163550000Y-132500000D03*
X165450000Y-131750000D03*
X163550000Y-131750000D03*
X105450000Y-137250000D03*
X103550000Y-137250000D03*
X105450000Y-136500000D03*
X103550000Y-136500000D03*
X105450000Y-135750000D03*
X103550000Y-135750000D03*
X109450000Y-137250000D03*
X107550000Y-137250000D03*
X109450000Y-136500000D03*
X107550000Y-136500000D03*
X109450000Y-135750000D03*
X107550000Y-135750000D03*
X113450000Y-137250000D03*
X111550000Y-137250000D03*
X113450000Y-136500000D03*
X111550000Y-136500000D03*
X113450000Y-135750000D03*
X111550000Y-135750000D03*
X117450000Y-137250000D03*
X115550000Y-137250000D03*
X117450000Y-136500000D03*
X115550000Y-136500000D03*
X117450000Y-135750000D03*
X115550000Y-135750000D03*
X121450000Y-137250000D03*
X119550000Y-137250000D03*
X121450000Y-136500000D03*
X119550000Y-136500000D03*
X121450000Y-135750000D03*
X119550000Y-135750000D03*
X125450000Y-137250000D03*
X123550000Y-137250000D03*
X125450000Y-136500000D03*
X123550000Y-136500000D03*
X125450000Y-135750000D03*
X123550000Y-135750000D03*
X129450000Y-137250000D03*
X127550000Y-137250000D03*
X129450000Y-136500000D03*
X127550000Y-136500000D03*
X129450000Y-135750000D03*
X127550000Y-135750000D03*
X133450000Y-137250000D03*
X131550000Y-137250000D03*
X133450000Y-136500000D03*
X131550000Y-136500000D03*
X133450000Y-135750000D03*
X131550000Y-135750000D03*
X137450000Y-137250000D03*
X135550000Y-137250000D03*
X137450000Y-136500000D03*
X135550000Y-136500000D03*
X137450000Y-135750000D03*
X135550000Y-135750000D03*
X141450000Y-137250000D03*
X139550000Y-137250000D03*
X141450000Y-136500000D03*
X139550000Y-136500000D03*
X141450000Y-135750000D03*
X139550000Y-135750000D03*
X145450000Y-137250000D03*
X143550000Y-137250000D03*
X145450000Y-136500000D03*
X143550000Y-136500000D03*
X145450000Y-135750000D03*
X143550000Y-135750000D03*
X149450000Y-137250000D03*
X147550000Y-137250000D03*
X149450000Y-136500000D03*
X147550000Y-136500000D03*
X149450000Y-135750000D03*
X147550000Y-135750000D03*
X153450000Y-137250000D03*
X151550000Y-137250000D03*
X153450000Y-136500000D03*
X151550000Y-136500000D03*
X153450000Y-135750000D03*
X151550000Y-135750000D03*
X157450000Y-137250000D03*
X155550000Y-137250000D03*
X157450000Y-136500000D03*
X155550000Y-136500000D03*
X157450000Y-135750000D03*
X155550000Y-135750000D03*
X161450000Y-137250000D03*
X159550000Y-137250000D03*
X161450000Y-136500000D03*
X159550000Y-136500000D03*
X161450000Y-135750000D03*
X159550000Y-135750000D03*
X165450000Y-137250000D03*
X163550000Y-137250000D03*
X165450000Y-136500000D03*
X163550000Y-136500000D03*
X165450000Y-135750000D03*
X163550000Y-135750000D03*
X105450000Y-141250000D03*
X103550000Y-141250000D03*
X105450000Y-140500000D03*
X103550000Y-140500000D03*
X105450000Y-139750000D03*
X103550000Y-139750000D03*
X109450000Y-141250000D03*
X107550000Y-141250000D03*
X109450000Y-140500000D03*
X107550000Y-140500000D03*
X109450000Y-139750000D03*
X107550000Y-139750000D03*
X113450000Y-141250000D03*
X111550000Y-141250000D03*
X113450000Y-140500000D03*
X111550000Y-140500000D03*
X113450000Y-139750000D03*
X111550000Y-139750000D03*
X117450000Y-141250000D03*
X115550000Y-141250000D03*
X117450000Y-140500000D03*
X115550000Y-140500000D03*
X117450000Y-139750000D03*
X115550000Y-139750000D03*
X121450000Y-141250000D03*
X119550000Y-141250000D03*
X121450000Y-140500000D03*
X119550000Y-140500000D03*
X121450000Y-139750000D03*
X119550000Y-139750000D03*
X125450000Y-141250000D03*
X123550000Y-141250000D03*
X125450000Y-140500000D03*
X123550000Y-140500000D03*
X125450000Y-139750000D03*
X123550000Y-139750000D03*
X129450000Y-141250000D03*
X127550000Y-141250000D03*
X129450000Y-140500000D03*
X127550000Y-140500000D03*
X129450000Y-139750000D03*
X127550000Y-139750000D03*
X133450000Y-141250000D03*
X131550000Y-141250000D03*
X133450000Y-140500000D03*
X131550000Y-140500000D03*
X133450000Y-139750000D03*
X131550000Y-139750000D03*
X137450000Y-141250000D03*
X135550000Y-141250000D03*
X137450000Y-140500000D03*
X135550000Y-140500000D03*
X137450000Y-139750000D03*
X135550000Y-139750000D03*
X141450000Y-141250000D03*
X139550000Y-141250000D03*
X141450000Y-140500000D03*
X139550000Y-140500000D03*
X141450000Y-139750000D03*
X139550000Y-139750000D03*
X145450000Y-141250000D03*
X143550000Y-141250000D03*
X145450000Y-140500000D03*
X143550000Y-140500000D03*
X145450000Y-139750000D03*
X143550000Y-139750000D03*
X149450000Y-141250000D03*
X147550000Y-141250000D03*
X149450000Y-140500000D03*
X147550000Y-140500000D03*
X149450000Y-139750000D03*
X147550000Y-139750000D03*
X153450000Y-141250000D03*
X151550000Y-141250000D03*
X153450000Y-140500000D03*
X151550000Y-140500000D03*
X153450000Y-139750000D03*
X151550000Y-139750000D03*
X157450000Y-141250000D03*
X155550000Y-141250000D03*
X157450000Y-140500000D03*
X155550000Y-140500000D03*
X157450000Y-139750000D03*
X155550000Y-139750000D03*
X161450000Y-141250000D03*
X159550000Y-141250000D03*
X161450000Y-140500000D03*
X159550000Y-140500000D03*
X161450000Y-139750000D03*
X159550000Y-139750000D03*
X165450000Y-141250000D03*
X163550000Y-141250000D03*
X165450000Y-140500000D03*
X163550000Y-140500000D03*
X165450000Y-139750000D03*
X163550000Y-139750000D03*
X105450000Y-145250000D03*
X103550000Y-145250000D03*
X105450000Y-144500000D03*
X103550000Y-144500000D03*
X105450000Y-143750000D03*
X103550000Y-143750000D03*
X109450000Y-145250000D03*
X107550000Y-145250000D03*
X109450000Y-144500000D03*
X107550000Y-144500000D03*
X109450000Y-143750000D03*
X107550000Y-143750000D03*
X113450000Y-145250000D03*
X111550000Y-145250000D03*
X113450000Y-144500000D03*
X111550000Y-144500000D03*
X113450000Y-143750000D03*
X111550000Y-143750000D03*
X117450000Y-145250000D03*
X115550000Y-145250000D03*
X117450000Y-144500000D03*
X115550000Y-144500000D03*
X117450000Y-143750000D03*
X115550000Y-143750000D03*
X121450000Y-145250000D03*
X119550000Y-145250000D03*
X121450000Y-144500000D03*
X119550000Y-144500000D03*
X121450000Y-143750000D03*
X119550000Y-143750000D03*
X125450000Y-145250000D03*
X123550000Y-145250000D03*
X125450000Y-144500000D03*
X123550000Y-144500000D03*
X125450000Y-143750000D03*
X123550000Y-143750000D03*
X129450000Y-145250000D03*
X127550000Y-145250000D03*
X129450000Y-144500000D03*
X127550000Y-144500000D03*
X129450000Y-143750000D03*
X127550000Y-143750000D03*
X133450000Y-145250000D03*
X131550000Y-145250000D03*
X133450000Y-144500000D03*
X131550000Y-144500000D03*
X133450000Y-143750000D03*
X131550000Y-143750000D03*
X137450000Y-145250000D03*
X135550000Y-145250000D03*
X137450000Y-144500000D03*
X135550000Y-144500000D03*
X137450000Y-143750000D03*
X135550000Y-143750000D03*
X141450000Y-145250000D03*
X139550000Y-145250000D03*
X141450000Y-144500000D03*
X139550000Y-144500000D03*
X141450000Y-143750000D03*
X139550000Y-143750000D03*
X145450000Y-145250000D03*
X143550000Y-145250000D03*
X145450000Y-144500000D03*
X143550000Y-144500000D03*
X145450000Y-143750000D03*
X143550000Y-143750000D03*
X149450000Y-145250000D03*
X147550000Y-145250000D03*
X149450000Y-144500000D03*
X147550000Y-144500000D03*
X149450000Y-143750000D03*
X147550000Y-143750000D03*
X153450000Y-145250000D03*
X151550000Y-145250000D03*
X153450000Y-144500000D03*
X151550000Y-144500000D03*
X153450000Y-143750000D03*
X151550000Y-143750000D03*
X157450000Y-145250000D03*
X155550000Y-145250000D03*
X157450000Y-144500000D03*
X155550000Y-144500000D03*
X157450000Y-143750000D03*
X155550000Y-143750000D03*
X161450000Y-145250000D03*
X159550000Y-145250000D03*
X161450000Y-144500000D03*
X159550000Y-144500000D03*
X161450000Y-143750000D03*
X159550000Y-143750000D03*
X165450000Y-145250000D03*
X163550000Y-145250000D03*
X165450000Y-144500000D03*
X163550000Y-144500000D03*
X165450000Y-143750000D03*
X163550000Y-143750000D03*
X105450000Y-149250000D03*
X103550000Y-149250000D03*
X105450000Y-148500000D03*
X103550000Y-148500000D03*
X105450000Y-147750000D03*
X103550000Y-147750000D03*
X109450000Y-149250000D03*
X107550000Y-149250000D03*
X109450000Y-148500000D03*
X107550000Y-148500000D03*
X109450000Y-147750000D03*
X107550000Y-147750000D03*
X113450000Y-149250000D03*
X111550000Y-149250000D03*
X113450000Y-148500000D03*
X111550000Y-148500000D03*
X113450000Y-147750000D03*
X111550000Y-147750000D03*
X117450000Y-149250000D03*
X115550000Y-149250000D03*
X117450000Y-148500000D03*
X115550000Y-148500000D03*
X117450000Y-147750000D03*
X115550000Y-147750000D03*
X121450000Y-149250000D03*
X119550000Y-149250000D03*
X121450000Y-148500000D03*
X119550000Y-148500000D03*
X121450000Y-147750000D03*
X119550000Y-147750000D03*
X125450000Y-149250000D03*
X123550000Y-149250000D03*
X125450000Y-148500000D03*
X123550000Y-148500000D03*
X125450000Y-147750000D03*
X123550000Y-147750000D03*
X129450000Y-149250000D03*
X127550000Y-149250000D03*
X129450000Y-148500000D03*
X127550000Y-148500000D03*
X129450000Y-147750000D03*
X127550000Y-147750000D03*
X133450000Y-149250000D03*
X131550000Y-149250000D03*
X133450000Y-148500000D03*
X131550000Y-148500000D03*
X133450000Y-147750000D03*
X131550000Y-147750000D03*
X137450000Y-149250000D03*
X135550000Y-149250000D03*
X137450000Y-148500000D03*
X135550000Y-148500000D03*
X137450000Y-147750000D03*
X135550000Y-147750000D03*
X141450000Y-149250000D03*
X139550000Y-149250000D03*
X141450000Y-148500000D03*
X139550000Y-148500000D03*
X141450000Y-147750000D03*
X139550000Y-147750000D03*
X145450000Y-149250000D03*
X143550000Y-149250000D03*
X145450000Y-148500000D03*
X143550000Y-148500000D03*
X145450000Y-147750000D03*
X143550000Y-147750000D03*
X149450000Y-149250000D03*
X147550000Y-149250000D03*
X149450000Y-148500000D03*
X147550000Y-148500000D03*
X149450000Y-147750000D03*
X147550000Y-147750000D03*
X153450000Y-149250000D03*
X151550000Y-149250000D03*
X153450000Y-148500000D03*
X151550000Y-148500000D03*
X153450000Y-147750000D03*
X151550000Y-147750000D03*
X157450000Y-149250000D03*
X155550000Y-149250000D03*
X157450000Y-148500000D03*
X155550000Y-148500000D03*
X157450000Y-147750000D03*
X155550000Y-147750000D03*
X161450000Y-149250000D03*
X159550000Y-149250000D03*
X161450000Y-148500000D03*
X159550000Y-148500000D03*
X161450000Y-147750000D03*
X159550000Y-147750000D03*
X165450000Y-149250000D03*
X163550000Y-149250000D03*
X165450000Y-148500000D03*
X163550000Y-148500000D03*
X165450000Y-147750000D03*
X163550000Y-147750000D03*
X105450000Y-153250000D03*
X103550000Y-153250000D03*
X105450000Y-152500000D03*
X103550000Y-152500000D03*
X105450000Y-151750000D03*
X103550000Y-151750000D03*
X109450000Y-153250000D03*
X107550000Y-153250000D03*
X109450000Y-152500000D03*
X107550000Y-152500000D03*
X109450000Y-151750000D03*
X107550000Y-151750000D03*
X113450000Y-153250000D03*
X111550000Y-153250000D03*
X113450000Y-152500000D03*
X111550000Y-152500000D03*
X113450000Y-151750000D03*
X111550000Y-151750000D03*
X117450000Y-153250000D03*
X115550000Y-153250000D03*
X117450000Y-152500000D03*
X115550000Y-152500000D03*
X117450000Y-151750000D03*
X115550000Y-151750000D03*
X121450000Y-153250000D03*
X119550000Y-153250000D03*
X121450000Y-152500000D03*
X119550000Y-152500000D03*
X121450000Y-151750000D03*
X119550000Y-151750000D03*
X125450000Y-153250000D03*
X123550000Y-153250000D03*
X125450000Y-152500000D03*
X123550000Y-152500000D03*
X125450000Y-151750000D03*
X123550000Y-151750000D03*
X129450000Y-153250000D03*
X127550000Y-153250000D03*
X129450000Y-152500000D03*
X127550000Y-152500000D03*
X129450000Y-151750000D03*
X127550000Y-151750000D03*
X133450000Y-153250000D03*
X131550000Y-153250000D03*
X133450000Y-152500000D03*
X131550000Y-152500000D03*
X133450000Y-151750000D03*
X131550000Y-151750000D03*
X137450000Y-153250000D03*
X135550000Y-153250000D03*
X137450000Y-152500000D03*
X135550000Y-152500000D03*
X137450000Y-151750000D03*
X135550000Y-151750000D03*
X141450000Y-153250000D03*
X139550000Y-153250000D03*
X141450000Y-152500000D03*
X139550000Y-152500000D03*
X141450000Y-151750000D03*
X139550000Y-151750000D03*
X145450000Y-153250000D03*
X143550000Y-153250000D03*
X145450000Y-152500000D03*
X143550000Y-152500000D03*
X145450000Y-151750000D03*
X143550000Y-151750000D03*
X149450000Y-153250000D03*
X147550000Y-153250000D03*
X149450000Y-152500000D03*
X147550000Y-152500000D03*
X149450000Y-151750000D03*
X147550000Y-151750000D03*
X153450000Y-153250000D03*
X151550000Y-153250000D03*
X153450000Y-152500000D03*
X151550000Y-152500000D03*
X153450000Y-151750000D03*
X151550000Y-151750000D03*
X157450000Y-153250000D03*
X155550000Y-153250000D03*
X157450000Y-152500000D03*
X155550000Y-152500000D03*
X157450000Y-151750000D03*
X155550000Y-151750000D03*
X161450000Y-153250000D03*
X159550000Y-153250000D03*
X161450000Y-152500000D03*
X159550000Y-152500000D03*
X161450000Y-151750000D03*
X159550000Y-151750000D03*
X165450000Y-153250000D03*
X163550000Y-153250000D03*
X165450000Y-152500000D03*
X163550000Y-152500000D03*
X165450000Y-151750000D03*
X163550000Y-151750000D03*
X105450000Y-157250000D03*
X103550000Y-157250000D03*
X105450000Y-156500000D03*
X103550000Y-156500000D03*
X105450000Y-155750000D03*
X103550000Y-155750000D03*
X109450000Y-157250000D03*
X107550000Y-157250000D03*
X109450000Y-156500000D03*
X107550000Y-156500000D03*
X109450000Y-155750000D03*
X107550000Y-155750000D03*
X113450000Y-157250000D03*
X111550000Y-157250000D03*
X113450000Y-156500000D03*
X111550000Y-156500000D03*
X113450000Y-155750000D03*
X111550000Y-155750000D03*
X117450000Y-157250000D03*
X115550000Y-157250000D03*
X117450000Y-156500000D03*
X115550000Y-156500000D03*
X117450000Y-155750000D03*
X115550000Y-155750000D03*
X121450000Y-157250000D03*
X119550000Y-157250000D03*
X121450000Y-156500000D03*
X119550000Y-156500000D03*
X121450000Y-155750000D03*
X119550000Y-155750000D03*
X125450000Y-157250000D03*
X123550000Y-157250000D03*
X125450000Y-156500000D03*
X123550000Y-156500000D03*
X125450000Y-155750000D03*
X123550000Y-155750000D03*
X129450000Y-157250000D03*
X127550000Y-157250000D03*
X129450000Y-156500000D03*
X127550000Y-156500000D03*
X129450000Y-155750000D03*
X127550000Y-155750000D03*
X133450000Y-157250000D03*
X131550000Y-157250000D03*
X133450000Y-156500000D03*
X131550000Y-156500000D03*
X133450000Y-155750000D03*
X131550000Y-155750000D03*
X137450000Y-157250000D03*
X135550000Y-157250000D03*
X137450000Y-156500000D03*
X135550000Y-156500000D03*
X137450000Y-155750000D03*
X135550000Y-155750000D03*
X141450000Y-157250000D03*
X139550000Y-157250000D03*
X141450000Y-156500000D03*
X139550000Y-156500000D03*
X141450000Y-155750000D03*
X139550000Y-155750000D03*
X145450000Y-157250000D03*
X143550000Y-157250000D03*
X145450000Y-156500000D03*
X143550000Y-156500000D03*
X145450000Y-155750000D03*
X143550000Y-155750000D03*
X149450000Y-157250000D03*
X147550000Y-157250000D03*
X149450000Y-156500000D03*
X147550000Y-156500000D03*
X149450000Y-155750000D03*
X147550000Y-155750000D03*
X153450000Y-157250000D03*
X151550000Y-157250000D03*
X153450000Y-156500000D03*
X151550000Y-156500000D03*
X153450000Y-155750000D03*
X151550000Y-155750000D03*
X157450000Y-157250000D03*
X155550000Y-157250000D03*
X157450000Y-156500000D03*
X155550000Y-156500000D03*
X157450000Y-155750000D03*
X155550000Y-155750000D03*
X161450000Y-157250000D03*
X159550000Y-157250000D03*
X161450000Y-156500000D03*
X159550000Y-156500000D03*
X161450000Y-155750000D03*
X159550000Y-155750000D03*
X165450000Y-157250000D03*
X163550000Y-157250000D03*
X165450000Y-156500000D03*
X163550000Y-156500000D03*
X165450000Y-155750000D03*
X163550000Y-155750000D03*
X105450000Y-161250000D03*
X103550000Y-161250000D03*
X105450000Y-160500000D03*
X103550000Y-160500000D03*
X105450000Y-159750000D03*
X103550000Y-159750000D03*
X109450000Y-161250000D03*
X107550000Y-161250000D03*
X109450000Y-160500000D03*
X107550000Y-160500000D03*
X109450000Y-159750000D03*
X107550000Y-159750000D03*
X113450000Y-161250000D03*
X111550000Y-161250000D03*
X113450000Y-160500000D03*
X111550000Y-160500000D03*
X113450000Y-159750000D03*
X111550000Y-159750000D03*
X117450000Y-161250000D03*
X115550000Y-161250000D03*
X117450000Y-160500000D03*
X115550000Y-160500000D03*
X117450000Y-159750000D03*
X115550000Y-159750000D03*
X121450000Y-161250000D03*
X119550000Y-161250000D03*
X121450000Y-160500000D03*
X119550000Y-160500000D03*
X121450000Y-159750000D03*
X119550000Y-159750000D03*
X125450000Y-161250000D03*
X123550000Y-161250000D03*
X125450000Y-160500000D03*
X123550000Y-160500000D03*
X125450000Y-159750000D03*
X123550000Y-159750000D03*
X129450000Y-161250000D03*
X127550000Y-161250000D03*
X129450000Y-160500000D03*
X127550000Y-160500000D03*
X129450000Y-159750000D03*
X127550000Y-159750000D03*
X133450000Y-161250000D03*
X131550000Y-161250000D03*
X133450000Y-160500000D03*
X131550000Y-160500000D03*
X133450000Y-159750000D03*
X131550000Y-159750000D03*
X137450000Y-161250000D03*
X135550000Y-161250000D03*
X137450000Y-160500000D03*
X135550000Y-160500000D03*
X137450000Y-159750000D03*
X135550000Y-159750000D03*
X141450000Y-161250000D03*
X139550000Y-161250000D03*
X141450000Y-160500000D03*
X139550000Y-160500000D03*
X141450000Y-159750000D03*
X139550000Y-159750000D03*
X145450000Y-161250000D03*
X143550000Y-161250000D03*
X145450000Y-160500000D03*
X143550000Y-160500000D03*
X145450000Y-159750000D03*
X143550000Y-159750000D03*
X149450000Y-161250000D03*
X147550000Y-161250000D03*
X149450000Y-160500000D03*
X147550000Y-160500000D03*
X149450000Y-159750000D03*
X147550000Y-159750000D03*
X153450000Y-161250000D03*
X151550000Y-161250000D03*
X153450000Y-160500000D03*
X151550000Y-160500000D03*
X153450000Y-159750000D03*
X151550000Y-159750000D03*
X157450000Y-161250000D03*
X155550000Y-161250000D03*
X157450000Y-160500000D03*
X155550000Y-160500000D03*
X157450000Y-159750000D03*
X155550000Y-159750000D03*
X161450000Y-161250000D03*
X159550000Y-161250000D03*
X161450000Y-160500000D03*
X159550000Y-160500000D03*
X161450000Y-159750000D03*
X159550000Y-159750000D03*
X165450000Y-161250000D03*
X163550000Y-161250000D03*
X165450000Y-160500000D03*
X163550000Y-160500000D03*
X165450000Y-159750000D03*
X163550000Y-159750000D03*
X105450000Y-165250000D03*
X103550000Y-165250000D03*
X105450000Y-164500000D03*
X103550000Y-164500000D03*
X105450000Y-163750000D03*
X103550000Y-163750000D03*
X109450000Y-165250000D03*
X107550000Y-165250000D03*
X109450000Y-164500000D03*
X107550000Y-164500000D03*
X109450000Y-163750000D03*
X107550000Y-163750000D03*
X113450000Y-165250000D03*
X111550000Y-165250000D03*
X113450000Y-164500000D03*
X111550000Y-164500000D03*
X113450000Y-163750000D03*
X111550000Y-163750000D03*
X117450000Y-165250000D03*
X115550000Y-165250000D03*
X117450000Y-164500000D03*
X115550000Y-164500000D03*
X117450000Y-163750000D03*
X115550000Y-163750000D03*
X121450000Y-165250000D03*
X119550000Y-165250000D03*
X121450000Y-164500000D03*
X119550000Y-164500000D03*
X121450000Y-163750000D03*
X119550000Y-163750000D03*
X125450000Y-165250000D03*
X123550000Y-165250000D03*
X125450000Y-164500000D03*
X123550000Y-164500000D03*
X125450000Y-163750000D03*
X123550000Y-163750000D03*
X129450000Y-165250000D03*
X127550000Y-165250000D03*
X129450000Y-164500000D03*
X127550000Y-164500000D03*
X129450000Y-163750000D03*
X127550000Y-163750000D03*
X133450000Y-165250000D03*
X131550000Y-165250000D03*
X133450000Y-164500000D03*
X131550000Y-164500000D03*
X133450000Y-163750000D03*
X131550000Y-163750000D03*
X137450000Y-165250000D03*
X135550000Y-165250000D03*
X137450000Y-164500000D03*
X135550000Y-164500000D03*
X137450000Y-163750000D03*
X135550000Y-163750000D03*
X141450000Y-165250000D03*
X139550000Y-165250000D03*
X141450000Y-164500000D03*
X139550000Y-164500000D03*
X141450000Y-163750000D03*
X139550000Y-163750000D03*
X145450000Y-165250000D03*
X143550000Y-165250000D03*
X145450000Y-164500000D03*
X143550000Y-164500000D03*
X145450000Y-163750000D03*
X143550000Y-163750000D03*
X149450000Y-165250000D03*
X147550000Y-165250000D03*
X149450000Y-164500000D03*
X147550000Y-164500000D03*
X149450000Y-163750000D03*
X147550000Y-163750000D03*
X153450000Y-165250000D03*
X151550000Y-165250000D03*
X153450000Y-164500000D03*
X151550000Y-164500000D03*
X153450000Y-163750000D03*
X151550000Y-163750000D03*
X157450000Y-165250000D03*
X155550000Y-165250000D03*
X157450000Y-164500000D03*
X155550000Y-164500000D03*
X157450000Y-163750000D03*
X155550000Y-163750000D03*
X161450000Y-165250000D03*
X159550000Y-165250000D03*
X161450000Y-164500000D03*
X159550000Y-164500000D03*
X161450000Y-163750000D03*
X159550000Y-163750000D03*
X165450000Y-165250000D03*
X163550000Y-165250000D03*
X165450000Y-164500000D03*
X163550000Y-164500000D03*
X165450000Y-163750000D03*
X163550000Y-163750000D03*
M02*
