M48
;DRILL file {KiCad 4.0.7} date 05/12/18 12:12:27
;FORMAT={-:-/ absolute / inch / decimal}
FMAT,2
INCH,TZ
T1C0.016
T2C0.020
T3C0.126
%
G90
G05
M72
T1
X3.9961Y-4.1142
X4.Y-4.0748
X4.0276Y-4.3937
X4.0276Y-4.5512
X4.0315Y-4.7126
X4.0354Y-5.0236
X4.0394Y-5.3386
X4.0394Y-6.4449
X4.0433Y-4.8661
X4.0433Y-5.1811
X4.0433Y-5.4961
X4.0433Y-5.6614
X4.0433Y-5.811
X4.0433Y-5.9685
X4.0435Y-4.2321
X4.0472Y-6.126
X4.0472Y-6.2835
X4.1801Y-4.4537
X4.1801Y-4.6112
X4.1811Y-4.2972
X4.1811Y-5.2402
X4.1811Y-6.5
X4.1821Y-4.7687
X4.1848Y-6.3425
X4.185Y-4.9252
X4.185Y-5.3976
X4.185Y-5.5551
X4.185Y-5.7126
X4.185Y-6.0276
X4.188Y-4.1496
X4.189Y-5.0827
X4.189Y-5.874
X4.189Y-6.189
X4.3376Y-4.2953
X4.3376Y-4.6102
X4.3376Y-4.7677
X4.3386Y-5.2402
X4.3386Y-5.3976
X4.3406Y-4.4518
X4.3425Y-4.9252
X4.3425Y-5.0827
X4.3425Y-5.5551
X4.3425Y-5.7126
X4.3425Y-6.0276
X4.3425Y-6.185
X4.3425Y-6.3425
X4.3425Y-6.5
X4.3465Y-4.1486
X4.3465Y-5.874
X4.4951Y-4.2953
X4.4951Y-4.4537
X4.4961Y-4.6132
X4.4961Y-4.7677
X4.4961Y-5.2402
X4.4961Y-6.0276
X4.5Y-4.9252
X4.5Y-5.0827
X4.5Y-5.3976
X4.5Y-5.5551
X4.5Y-5.7126
X4.5Y-6.189
X4.5Y-6.3425
X4.5039Y-6.5
X4.5049Y-4.1496
X4.5079Y-5.874
X4.6506Y-4.2933
X4.6535Y-4.6112
X4.6535Y-5.2402
X4.6535Y-5.3976
X4.6545Y-4.4528
X4.6575Y-4.7677
X4.6575Y-4.9252
X4.6575Y-5.0827
X4.6575Y-5.5551
X4.6575Y-5.7126
X4.6575Y-6.0276
X4.6614Y-4.1496
X4.6614Y-5.874
X4.6614Y-6.185
X4.6614Y-6.3425
X4.6614Y-6.5
X4.7953Y-6.3898
X4.81Y-4.2953
X4.811Y-4.6112
X4.812Y-4.4537
X4.815Y-4.7677
X4.815Y-4.9252
X4.815Y-5.2402
X4.815Y-5.3976
X4.815Y-5.5551
X4.815Y-5.7126
X4.815Y-6.0276
X4.8161Y-6.3403
X4.8189Y-5.0827
X4.8189Y-5.874
X4.8189Y-6.185
X4.8189Y-6.5
X4.8199Y-4.1467
X4.8386Y-6.3583
X4.9685Y-4.1437
X4.9685Y-4.2953
X4.9685Y-5.2402
X4.9705Y-4.4508
X4.9705Y-4.6112
X4.9724Y-4.7677
X4.9724Y-4.9252
X4.9724Y-5.0827
X4.9724Y-5.3976
X4.9724Y-5.5551
X4.9724Y-5.7126
X4.9724Y-6.0276
X4.9764Y-5.874
X4.9764Y-6.185
X4.9783Y-6.5256
X5.123Y-4.2933
X5.123Y-4.6102
X5.126Y-4.4518
X5.126Y-4.9252
X5.128Y-4.1467
X5.1299Y-4.7677
X5.1299Y-5.0827
X5.1299Y-5.2402
X5.1299Y-5.3976
X5.1299Y-5.5551
X5.1299Y-5.7126
X5.1299Y-6.0276
X5.1299Y-6.185
X5.1339Y-5.878
X5.1378Y-6.5185
X5.1476Y-6.3406
X5.2805Y-4.2943
X5.2835Y-4.1457
X5.2835Y-5.0827
X5.2844Y-4.4528
X5.2844Y-4.6102
X5.2874Y-4.7677
X5.2874Y-4.9252
X5.2874Y-5.2441
X5.2874Y-5.3976
X5.2874Y-6.0276
X5.2874Y-6.5276
X5.2913Y-5.5551
X5.2913Y-5.7126
X5.2913Y-5.878
X5.2913Y-6.185
X5.2913Y-6.3425
X5.44Y-4.1457
X5.44Y-4.6122
X5.4409Y-4.2943
X5.4409Y-5.0827
X5.4419Y-4.4528
X5.4449Y-4.7677
X5.4449Y-5.2402
X5.4449Y-5.3976
X5.4449Y-5.7126
X5.4449Y-6.0276
X5.4449Y-6.3425
X5.4469Y-6.5276
X5.4488Y-4.9252
X5.4488Y-5.5551
X5.4488Y-5.874
X5.4488Y-6.185
X5.5965Y-4.2933
X5.5974Y-4.4518
X5.5974Y-4.6112
X5.5984Y-5.0827
X5.5984Y-5.2441
X5.5984Y-5.3976
X5.5994Y-4.1417
X5.6024Y-4.7677
X5.6024Y-4.9252
X5.6024Y-5.7126
X5.6024Y-6.0276
X5.6063Y-5.5551
X5.6063Y-5.874
X5.6063Y-6.185
X5.6063Y-6.3425
X5.6142Y-6.5
X5.7549Y-4.2963
X5.7549Y-4.4518
X5.7559Y-4.1427
X5.7559Y-4.6122
X5.7559Y-5.0827
X5.7559Y-5.2402
X5.7559Y-5.3976
X5.7598Y-4.7677
X5.7598Y-5.7126
X5.7598Y-6.0276
X5.7598Y-6.185
X5.7638Y-4.9252
X5.7638Y-5.5551
X5.7638Y-5.874
X5.7638Y-6.3425
X5.7654Y-6.503
X5.8976Y-6.378
X5.9124Y-4.2953
X5.9124Y-4.4508
X5.9134Y-4.6112
X5.9134Y-5.0827
X5.9134Y-5.2402
X5.9144Y-4.1407
X5.9173Y-4.7677
X5.9173Y-4.9252
X5.9173Y-5.3976
X5.9173Y-6.0276
X5.9213Y-5.5551
X5.9213Y-5.7126
X5.9213Y-5.878
X5.9213Y-6.185
X5.9213Y-6.5
X6.0679Y-4.2943
X6.0679Y-4.4508
X6.0679Y-4.6102
X6.0748Y-4.7677
X6.0748Y-4.9252
X6.0748Y-5.0827
X6.0748Y-5.2402
X6.0748Y-5.7126
X6.0748Y-5.878
X6.0748Y-6.0276
X6.0748Y-6.5
X6.0768Y-4.1407
X6.0787Y-5.3976
X6.0787Y-5.5551
X6.0787Y-6.185
X6.0787Y-6.3425
X6.2274Y-4.4518
X6.2283Y-4.1427
X6.2283Y-4.2953
X6.2283Y-5.2402
X6.2283Y-5.7126
X6.2303Y-4.6132
X6.2323Y-4.9252
X6.2323Y-5.0827
X6.2323Y-5.3976
X6.2323Y-5.874
X6.2323Y-6.0276
X6.2362Y-4.7677
X6.2362Y-5.5551
X6.2362Y-6.185
X6.2362Y-6.3425
X6.2362Y-6.5
X6.3878Y-4.1663
X6.3898Y-6.0512
X6.3898Y-6.3661
X6.3898Y-6.5276
X6.3907Y-4.3228
X6.3927Y-4.4803
X6.3927Y-4.6368
X6.3937Y-4.7953
X6.3937Y-4.9528
X6.3937Y-5.1102
X6.3937Y-5.4213
X6.3937Y-5.5827
X6.3937Y-5.7362
X6.3937Y-5.8937
X6.3937Y-6.2087
X6.3976Y-5.2677
X6.4449Y-5.2795
X6.4449Y-6.3898
X6.4488Y-4.3346
X6.4488Y-4.5
X6.4488Y-4.6496
X6.4488Y-4.811
X6.4488Y-4.9646
X6.4488Y-5.122
X6.4488Y-5.437
X6.4488Y-5.5945
X6.4488Y-5.752
X6.4488Y-5.9134
X6.4488Y-6.0669
X6.4488Y-6.2323
X6.4488Y-6.5433
X6.5354Y-6.2138
X6.5394Y-6.0564
X6.5394Y-6.3713
X6.5401Y-4.1666
X6.5423Y-4.3249
X6.5423Y-4.6398
X6.5425Y-4.4854
X6.5433Y-4.8031
X6.5433Y-4.9548
X6.5433Y-5.1115
X6.5433Y-5.269
X6.5433Y-5.4264
X6.5433Y-5.5839
X6.5433Y-5.7414
X6.5433Y-5.8989
X6.5433Y-6.5288
X6.5827Y-5.626
X6.5827Y-6.0984
X6.5864Y-6.2539
X6.5866Y-5.311
X6.5866Y-5.7835
X6.5866Y-5.9409
X6.5906Y-4.6811
X6.5906Y-5.4685
X6.5912Y-6.2823
X6.5945Y-4.9921
X6.5945Y-5.1535
X6.5984Y-4.185
X6.5984Y-4.5236
X6.5984Y-4.8386
X6.6024Y-4.3583
T2
X4.9409Y-6.6732
X5.Y-6.6732
X5.0591Y-6.6732
X5.1181Y-6.6732
X5.1772Y-6.6732
X5.2362Y-6.6732
X5.2953Y-6.6732
X5.3543Y-6.6732
X5.4134Y-6.6732
X5.4724Y-6.6732
X6.5945Y-6.3189
X6.5945Y-6.4764
X6.6142Y-4.1142
X6.6142Y-4.2717
X6.6142Y-4.4291
X6.6142Y-4.5866
X6.6142Y-4.7441
X6.6142Y-4.9016
X6.6142Y-5.0591
X6.6142Y-5.2165
X6.6142Y-5.374
X6.6142Y-5.5315
X6.6142Y-5.689
X6.6142Y-5.8465
X6.6142Y-6.0039
X6.6142Y-6.1614
T3
X3.937Y-3.937
X3.937Y-6.6535
X6.6535Y-3.937
X6.6535Y-6.6535
T0
M30
