G04 #@! TF.FileFunction,Legend,Top*
%FSLAX46Y46*%
G04 Gerber Fmt 4.6, Leading zero omitted, Abs format (unit mm)*
G04 Created by KiCad (PCBNEW 4.0.7) date 05/12/18 12:12:21*
%MOMM*%
%LPD*%
G01*
G04 APERTURE LIST*
%ADD10C,0.100000*%
%ADD11C,0.250000*%
G04 APERTURE END LIST*
D10*
D11*
X164961905Y-102375714D02*
X165200000Y-103042381D01*
X165438096Y-102375714D01*
D10*
X109500000Y-131500000D02*
X109500000Y-133500000D01*
X107500000Y-131500000D02*
X109500000Y-131500000D01*
X107500000Y-133500000D02*
X107500000Y-131500000D01*
X109500000Y-133500000D02*
X107500000Y-133500000D01*
X125500000Y-127500000D02*
X125500000Y-129500000D01*
X123500000Y-127500000D02*
X125500000Y-127500000D01*
X123500000Y-129500000D02*
X123500000Y-127500000D01*
X125500000Y-129500000D02*
X123500000Y-129500000D01*
X161500000Y-123500000D02*
X161500000Y-125500000D01*
X159500000Y-123500000D02*
X161500000Y-123500000D01*
X159500000Y-125500000D02*
X159500000Y-123500000D01*
X161500000Y-125500000D02*
X159500000Y-125500000D01*
X121500000Y-107500000D02*
X121500000Y-109500000D01*
X119500000Y-107500000D02*
X121500000Y-107500000D01*
X119500000Y-109500000D02*
X119500000Y-107500000D01*
X121500000Y-109500000D02*
X119500000Y-109500000D01*
X105500000Y-103500000D02*
X105500000Y-105500000D01*
X103500000Y-103500000D02*
X105500000Y-103500000D01*
X103500000Y-105500000D02*
X103500000Y-103500000D01*
X105500000Y-105500000D02*
X103500000Y-105500000D01*
X109500000Y-103500000D02*
X109500000Y-105500000D01*
X107500000Y-103500000D02*
X109500000Y-103500000D01*
X107500000Y-105500000D02*
X107500000Y-103500000D01*
X109500000Y-105500000D02*
X107500000Y-105500000D01*
X113500000Y-103500000D02*
X113500000Y-105500000D01*
X111500000Y-103500000D02*
X113500000Y-103500000D01*
X111500000Y-105500000D02*
X111500000Y-103500000D01*
X113500000Y-105500000D02*
X111500000Y-105500000D01*
X117500000Y-103500000D02*
X117500000Y-105500000D01*
X115500000Y-103500000D02*
X117500000Y-103500000D01*
X115500000Y-105500000D02*
X115500000Y-103500000D01*
X117500000Y-105500000D02*
X115500000Y-105500000D01*
X121500000Y-103500000D02*
X121500000Y-105500000D01*
X119500000Y-103500000D02*
X121500000Y-103500000D01*
X119500000Y-105500000D02*
X119500000Y-103500000D01*
X121500000Y-105500000D02*
X119500000Y-105500000D01*
X125500000Y-103500000D02*
X125500000Y-105500000D01*
X123500000Y-103500000D02*
X125500000Y-103500000D01*
X123500000Y-105500000D02*
X123500000Y-103500000D01*
X125500000Y-105500000D02*
X123500000Y-105500000D01*
X129500000Y-103500000D02*
X129500000Y-105500000D01*
X127500000Y-103500000D02*
X129500000Y-103500000D01*
X127500000Y-105500000D02*
X127500000Y-103500000D01*
X129500000Y-105500000D02*
X127500000Y-105500000D01*
X133500000Y-103500000D02*
X133500000Y-105500000D01*
X131500000Y-103500000D02*
X133500000Y-103500000D01*
X131500000Y-105500000D02*
X131500000Y-103500000D01*
X133500000Y-105500000D02*
X131500000Y-105500000D01*
X137500000Y-103500000D02*
X137500000Y-105500000D01*
X135500000Y-103500000D02*
X137500000Y-103500000D01*
X135500000Y-105500000D02*
X135500000Y-103500000D01*
X137500000Y-105500000D02*
X135500000Y-105500000D01*
X141500000Y-103500000D02*
X141500000Y-105500000D01*
X139500000Y-103500000D02*
X141500000Y-103500000D01*
X139500000Y-105500000D02*
X139500000Y-103500000D01*
X141500000Y-105500000D02*
X139500000Y-105500000D01*
X145500000Y-103500000D02*
X145500000Y-105500000D01*
X143500000Y-103500000D02*
X145500000Y-103500000D01*
X143500000Y-105500000D02*
X143500000Y-103500000D01*
X145500000Y-105500000D02*
X143500000Y-105500000D01*
X149500000Y-103500000D02*
X149500000Y-105500000D01*
X147500000Y-103500000D02*
X149500000Y-103500000D01*
X147500000Y-105500000D02*
X147500000Y-103500000D01*
X149500000Y-105500000D02*
X147500000Y-105500000D01*
X153500000Y-103500000D02*
X153500000Y-105500000D01*
X151500000Y-103500000D02*
X153500000Y-103500000D01*
X151500000Y-105500000D02*
X151500000Y-103500000D01*
X153500000Y-105500000D02*
X151500000Y-105500000D01*
X157500000Y-103500000D02*
X157500000Y-105500000D01*
X155500000Y-103500000D02*
X157500000Y-103500000D01*
X155500000Y-105500000D02*
X155500000Y-103500000D01*
X157500000Y-105500000D02*
X155500000Y-105500000D01*
X161500000Y-103500000D02*
X161500000Y-105500000D01*
X159500000Y-103500000D02*
X161500000Y-103500000D01*
X159500000Y-105500000D02*
X159500000Y-103500000D01*
X161500000Y-105500000D02*
X159500000Y-105500000D01*
X165500000Y-103500000D02*
X165500000Y-105500000D01*
X163500000Y-103500000D02*
X165500000Y-103500000D01*
X163500000Y-105500000D02*
X163500000Y-103500000D01*
X165500000Y-105500000D02*
X163500000Y-105500000D01*
X105500000Y-107500000D02*
X105500000Y-109500000D01*
X103500000Y-107500000D02*
X105500000Y-107500000D01*
X103500000Y-109500000D02*
X103500000Y-107500000D01*
X105500000Y-109500000D02*
X103500000Y-109500000D01*
X109500000Y-107500000D02*
X109500000Y-109500000D01*
X107500000Y-107500000D02*
X109500000Y-107500000D01*
X107500000Y-109500000D02*
X107500000Y-107500000D01*
X109500000Y-109500000D02*
X107500000Y-109500000D01*
X113500000Y-107500000D02*
X113500000Y-109500000D01*
X111500000Y-107500000D02*
X113500000Y-107500000D01*
X111500000Y-109500000D02*
X111500000Y-107500000D01*
X113500000Y-109500000D02*
X111500000Y-109500000D01*
X117500000Y-107500000D02*
X117500000Y-109500000D01*
X115500000Y-107500000D02*
X117500000Y-107500000D01*
X115500000Y-109500000D02*
X115500000Y-107500000D01*
X117500000Y-109500000D02*
X115500000Y-109500000D01*
X125500000Y-107500000D02*
X125500000Y-109500000D01*
X123500000Y-107500000D02*
X125500000Y-107500000D01*
X123500000Y-109500000D02*
X123500000Y-107500000D01*
X125500000Y-109500000D02*
X123500000Y-109500000D01*
X129500000Y-107500000D02*
X129500000Y-109500000D01*
X127500000Y-107500000D02*
X129500000Y-107500000D01*
X127500000Y-109500000D02*
X127500000Y-107500000D01*
X129500000Y-109500000D02*
X127500000Y-109500000D01*
X133500000Y-107500000D02*
X133500000Y-109500000D01*
X131500000Y-107500000D02*
X133500000Y-107500000D01*
X131500000Y-109500000D02*
X131500000Y-107500000D01*
X133500000Y-109500000D02*
X131500000Y-109500000D01*
X137500000Y-107500000D02*
X137500000Y-109500000D01*
X135500000Y-107500000D02*
X137500000Y-107500000D01*
X135500000Y-109500000D02*
X135500000Y-107500000D01*
X137500000Y-109500000D02*
X135500000Y-109500000D01*
X141500000Y-107500000D02*
X141500000Y-109500000D01*
X139500000Y-107500000D02*
X141500000Y-107500000D01*
X139500000Y-109500000D02*
X139500000Y-107500000D01*
X141500000Y-109500000D02*
X139500000Y-109500000D01*
X145500000Y-107500000D02*
X145500000Y-109500000D01*
X143500000Y-107500000D02*
X145500000Y-107500000D01*
X143500000Y-109500000D02*
X143500000Y-107500000D01*
X145500000Y-109500000D02*
X143500000Y-109500000D01*
X149500000Y-107500000D02*
X149500000Y-109500000D01*
X147500000Y-107500000D02*
X149500000Y-107500000D01*
X147500000Y-109500000D02*
X147500000Y-107500000D01*
X149500000Y-109500000D02*
X147500000Y-109500000D01*
X153500000Y-107500000D02*
X153500000Y-109500000D01*
X151500000Y-107500000D02*
X153500000Y-107500000D01*
X151500000Y-109500000D02*
X151500000Y-107500000D01*
X153500000Y-109500000D02*
X151500000Y-109500000D01*
X157500000Y-107500000D02*
X157500000Y-109500000D01*
X155500000Y-107500000D02*
X157500000Y-107500000D01*
X155500000Y-109500000D02*
X155500000Y-107500000D01*
X157500000Y-109500000D02*
X155500000Y-109500000D01*
X161500000Y-107500000D02*
X161500000Y-109500000D01*
X159500000Y-107500000D02*
X161500000Y-107500000D01*
X159500000Y-109500000D02*
X159500000Y-107500000D01*
X161500000Y-109500000D02*
X159500000Y-109500000D01*
X165500000Y-107500000D02*
X165500000Y-109500000D01*
X163500000Y-107500000D02*
X165500000Y-107500000D01*
X163500000Y-109500000D02*
X163500000Y-107500000D01*
X165500000Y-109500000D02*
X163500000Y-109500000D01*
X105500000Y-111500000D02*
X105500000Y-113500000D01*
X103500000Y-111500000D02*
X105500000Y-111500000D01*
X103500000Y-113500000D02*
X103500000Y-111500000D01*
X105500000Y-113500000D02*
X103500000Y-113500000D01*
X109500000Y-111500000D02*
X109500000Y-113500000D01*
X107500000Y-111500000D02*
X109500000Y-111500000D01*
X107500000Y-113500000D02*
X107500000Y-111500000D01*
X109500000Y-113500000D02*
X107500000Y-113500000D01*
X113500000Y-111500000D02*
X113500000Y-113500000D01*
X111500000Y-111500000D02*
X113500000Y-111500000D01*
X111500000Y-113500000D02*
X111500000Y-111500000D01*
X113500000Y-113500000D02*
X111500000Y-113500000D01*
X117500000Y-111500000D02*
X117500000Y-113500000D01*
X115500000Y-111500000D02*
X117500000Y-111500000D01*
X115500000Y-113500000D02*
X115500000Y-111500000D01*
X117500000Y-113500000D02*
X115500000Y-113500000D01*
X121500000Y-111500000D02*
X121500000Y-113500000D01*
X119500000Y-111500000D02*
X121500000Y-111500000D01*
X119500000Y-113500000D02*
X119500000Y-111500000D01*
X121500000Y-113500000D02*
X119500000Y-113500000D01*
X125500000Y-111500000D02*
X125500000Y-113500000D01*
X123500000Y-111500000D02*
X125500000Y-111500000D01*
X123500000Y-113500000D02*
X123500000Y-111500000D01*
X125500000Y-113500000D02*
X123500000Y-113500000D01*
X129500000Y-111500000D02*
X129500000Y-113500000D01*
X127500000Y-111500000D02*
X129500000Y-111500000D01*
X127500000Y-113500000D02*
X127500000Y-111500000D01*
X129500000Y-113500000D02*
X127500000Y-113500000D01*
X133500000Y-111500000D02*
X133500000Y-113500000D01*
X131500000Y-111500000D02*
X133500000Y-111500000D01*
X131500000Y-113500000D02*
X131500000Y-111500000D01*
X133500000Y-113500000D02*
X131500000Y-113500000D01*
X137500000Y-111500000D02*
X137500000Y-113500000D01*
X135500000Y-111500000D02*
X137500000Y-111500000D01*
X135500000Y-113500000D02*
X135500000Y-111500000D01*
X137500000Y-113500000D02*
X135500000Y-113500000D01*
X141500000Y-111500000D02*
X141500000Y-113500000D01*
X139500000Y-111500000D02*
X141500000Y-111500000D01*
X139500000Y-113500000D02*
X139500000Y-111500000D01*
X141500000Y-113500000D02*
X139500000Y-113500000D01*
X145500000Y-111500000D02*
X145500000Y-113500000D01*
X143500000Y-111500000D02*
X145500000Y-111500000D01*
X143500000Y-113500000D02*
X143500000Y-111500000D01*
X145500000Y-113500000D02*
X143500000Y-113500000D01*
X149500000Y-111500000D02*
X149500000Y-113500000D01*
X147500000Y-111500000D02*
X149500000Y-111500000D01*
X147500000Y-113500000D02*
X147500000Y-111500000D01*
X149500000Y-113500000D02*
X147500000Y-113500000D01*
X153500000Y-111500000D02*
X153500000Y-113500000D01*
X151500000Y-111500000D02*
X153500000Y-111500000D01*
X151500000Y-113500000D02*
X151500000Y-111500000D01*
X153500000Y-113500000D02*
X151500000Y-113500000D01*
X157500000Y-111500000D02*
X157500000Y-113500000D01*
X155500000Y-111500000D02*
X157500000Y-111500000D01*
X155500000Y-113500000D02*
X155500000Y-111500000D01*
X157500000Y-113500000D02*
X155500000Y-113500000D01*
X161500000Y-111500000D02*
X161500000Y-113500000D01*
X159500000Y-111500000D02*
X161500000Y-111500000D01*
X159500000Y-113500000D02*
X159500000Y-111500000D01*
X161500000Y-113500000D02*
X159500000Y-113500000D01*
X165500000Y-111500000D02*
X165500000Y-113500000D01*
X163500000Y-111500000D02*
X165500000Y-111500000D01*
X163500000Y-113500000D02*
X163500000Y-111500000D01*
X165500000Y-113500000D02*
X163500000Y-113500000D01*
X105500000Y-115500000D02*
X105500000Y-117500000D01*
X103500000Y-115500000D02*
X105500000Y-115500000D01*
X103500000Y-117500000D02*
X103500000Y-115500000D01*
X105500000Y-117500000D02*
X103500000Y-117500000D01*
X109500000Y-115500000D02*
X109500000Y-117500000D01*
X107500000Y-115500000D02*
X109500000Y-115500000D01*
X107500000Y-117500000D02*
X107500000Y-115500000D01*
X109500000Y-117500000D02*
X107500000Y-117500000D01*
X113500000Y-115500000D02*
X113500000Y-117500000D01*
X111500000Y-115500000D02*
X113500000Y-115500000D01*
X111500000Y-117500000D02*
X111500000Y-115500000D01*
X113500000Y-117500000D02*
X111500000Y-117500000D01*
X117500000Y-115500000D02*
X117500000Y-117500000D01*
X115500000Y-115500000D02*
X117500000Y-115500000D01*
X115500000Y-117500000D02*
X115500000Y-115500000D01*
X117500000Y-117500000D02*
X115500000Y-117500000D01*
X121500000Y-115500000D02*
X121500000Y-117500000D01*
X119500000Y-115500000D02*
X121500000Y-115500000D01*
X119500000Y-117500000D02*
X119500000Y-115500000D01*
X121500000Y-117500000D02*
X119500000Y-117500000D01*
X125500000Y-115500000D02*
X125500000Y-117500000D01*
X123500000Y-115500000D02*
X125500000Y-115500000D01*
X123500000Y-117500000D02*
X123500000Y-115500000D01*
X125500000Y-117500000D02*
X123500000Y-117500000D01*
X129500000Y-115500000D02*
X129500000Y-117500000D01*
X127500000Y-115500000D02*
X129500000Y-115500000D01*
X127500000Y-117500000D02*
X127500000Y-115500000D01*
X129500000Y-117500000D02*
X127500000Y-117500000D01*
X133500000Y-115500000D02*
X133500000Y-117500000D01*
X131500000Y-115500000D02*
X133500000Y-115500000D01*
X131500000Y-117500000D02*
X131500000Y-115500000D01*
X133500000Y-117500000D02*
X131500000Y-117500000D01*
X137500000Y-115500000D02*
X137500000Y-117500000D01*
X135500000Y-115500000D02*
X137500000Y-115500000D01*
X135500000Y-117500000D02*
X135500000Y-115500000D01*
X137500000Y-117500000D02*
X135500000Y-117500000D01*
X141500000Y-115500000D02*
X141500000Y-117500000D01*
X139500000Y-115500000D02*
X141500000Y-115500000D01*
X139500000Y-117500000D02*
X139500000Y-115500000D01*
X141500000Y-117500000D02*
X139500000Y-117500000D01*
X145500000Y-115500000D02*
X145500000Y-117500000D01*
X143500000Y-115500000D02*
X145500000Y-115500000D01*
X143500000Y-117500000D02*
X143500000Y-115500000D01*
X145500000Y-117500000D02*
X143500000Y-117500000D01*
X149500000Y-115500000D02*
X149500000Y-117500000D01*
X147500000Y-115500000D02*
X149500000Y-115500000D01*
X147500000Y-117500000D02*
X147500000Y-115500000D01*
X149500000Y-117500000D02*
X147500000Y-117500000D01*
X153500000Y-115500000D02*
X153500000Y-117500000D01*
X151500000Y-115500000D02*
X153500000Y-115500000D01*
X151500000Y-117500000D02*
X151500000Y-115500000D01*
X153500000Y-117500000D02*
X151500000Y-117500000D01*
X157500000Y-115500000D02*
X157500000Y-117500000D01*
X155500000Y-115500000D02*
X157500000Y-115500000D01*
X155500000Y-117500000D02*
X155500000Y-115500000D01*
X157500000Y-117500000D02*
X155500000Y-117500000D01*
X161500000Y-115500000D02*
X161500000Y-117500000D01*
X159500000Y-115500000D02*
X161500000Y-115500000D01*
X159500000Y-117500000D02*
X159500000Y-115500000D01*
X161500000Y-117500000D02*
X159500000Y-117500000D01*
X165500000Y-115500000D02*
X165500000Y-117500000D01*
X163500000Y-115500000D02*
X165500000Y-115500000D01*
X163500000Y-117500000D02*
X163500000Y-115500000D01*
X165500000Y-117500000D02*
X163500000Y-117500000D01*
X105500000Y-119500000D02*
X105500000Y-121500000D01*
X103500000Y-119500000D02*
X105500000Y-119500000D01*
X103500000Y-121500000D02*
X103500000Y-119500000D01*
X105500000Y-121500000D02*
X103500000Y-121500000D01*
X109500000Y-119500000D02*
X109500000Y-121500000D01*
X107500000Y-119500000D02*
X109500000Y-119500000D01*
X107500000Y-121500000D02*
X107500000Y-119500000D01*
X109500000Y-121500000D02*
X107500000Y-121500000D01*
X113500000Y-119500000D02*
X113500000Y-121500000D01*
X111500000Y-119500000D02*
X113500000Y-119500000D01*
X111500000Y-121500000D02*
X111500000Y-119500000D01*
X113500000Y-121500000D02*
X111500000Y-121500000D01*
X117500000Y-119500000D02*
X117500000Y-121500000D01*
X115500000Y-119500000D02*
X117500000Y-119500000D01*
X115500000Y-121500000D02*
X115500000Y-119500000D01*
X117500000Y-121500000D02*
X115500000Y-121500000D01*
X121500000Y-119500000D02*
X121500000Y-121500000D01*
X119500000Y-119500000D02*
X121500000Y-119500000D01*
X119500000Y-121500000D02*
X119500000Y-119500000D01*
X121500000Y-121500000D02*
X119500000Y-121500000D01*
X125500000Y-119500000D02*
X125500000Y-121500000D01*
X123500000Y-119500000D02*
X125500000Y-119500000D01*
X123500000Y-121500000D02*
X123500000Y-119500000D01*
X125500000Y-121500000D02*
X123500000Y-121500000D01*
X129500000Y-119500000D02*
X129500000Y-121500000D01*
X127500000Y-119500000D02*
X129500000Y-119500000D01*
X127500000Y-121500000D02*
X127500000Y-119500000D01*
X129500000Y-121500000D02*
X127500000Y-121500000D01*
X133500000Y-119500000D02*
X133500000Y-121500000D01*
X131500000Y-119500000D02*
X133500000Y-119500000D01*
X131500000Y-121500000D02*
X131500000Y-119500000D01*
X133500000Y-121500000D02*
X131500000Y-121500000D01*
X137500000Y-119500000D02*
X137500000Y-121500000D01*
X135500000Y-119500000D02*
X137500000Y-119500000D01*
X135500000Y-121500000D02*
X135500000Y-119500000D01*
X137500000Y-121500000D02*
X135500000Y-121500000D01*
X141500000Y-119500000D02*
X141500000Y-121500000D01*
X139500000Y-119500000D02*
X141500000Y-119500000D01*
X139500000Y-121500000D02*
X139500000Y-119500000D01*
X141500000Y-121500000D02*
X139500000Y-121500000D01*
X145500000Y-119500000D02*
X145500000Y-121500000D01*
X143500000Y-119500000D02*
X145500000Y-119500000D01*
X143500000Y-121500000D02*
X143500000Y-119500000D01*
X145500000Y-121500000D02*
X143500000Y-121500000D01*
X149500000Y-119500000D02*
X149500000Y-121500000D01*
X147500000Y-119500000D02*
X149500000Y-119500000D01*
X147500000Y-121500000D02*
X147500000Y-119500000D01*
X149500000Y-121500000D02*
X147500000Y-121500000D01*
X153500000Y-119500000D02*
X153500000Y-121500000D01*
X151500000Y-119500000D02*
X153500000Y-119500000D01*
X151500000Y-121500000D02*
X151500000Y-119500000D01*
X153500000Y-121500000D02*
X151500000Y-121500000D01*
X157500000Y-119500000D02*
X157500000Y-121500000D01*
X155500000Y-119500000D02*
X157500000Y-119500000D01*
X155500000Y-121500000D02*
X155500000Y-119500000D01*
X157500000Y-121500000D02*
X155500000Y-121500000D01*
X161500000Y-119500000D02*
X161500000Y-121500000D01*
X159500000Y-119500000D02*
X161500000Y-119500000D01*
X159500000Y-121500000D02*
X159500000Y-119500000D01*
X161500000Y-121500000D02*
X159500000Y-121500000D01*
X165500000Y-119500000D02*
X165500000Y-121500000D01*
X163500000Y-119500000D02*
X165500000Y-119500000D01*
X163500000Y-121500000D02*
X163500000Y-119500000D01*
X165500000Y-121500000D02*
X163500000Y-121500000D01*
X105500000Y-123500000D02*
X105500000Y-125500000D01*
X103500000Y-123500000D02*
X105500000Y-123500000D01*
X103500000Y-125500000D02*
X103500000Y-123500000D01*
X105500000Y-125500000D02*
X103500000Y-125500000D01*
X109500000Y-123500000D02*
X109500000Y-125500000D01*
X107500000Y-123500000D02*
X109500000Y-123500000D01*
X107500000Y-125500000D02*
X107500000Y-123500000D01*
X109500000Y-125500000D02*
X107500000Y-125500000D01*
X113500000Y-123500000D02*
X113500000Y-125500000D01*
X111500000Y-123500000D02*
X113500000Y-123500000D01*
X111500000Y-125500000D02*
X111500000Y-123500000D01*
X113500000Y-125500000D02*
X111500000Y-125500000D01*
X117500000Y-123500000D02*
X117500000Y-125500000D01*
X115500000Y-123500000D02*
X117500000Y-123500000D01*
X115500000Y-125500000D02*
X115500000Y-123500000D01*
X117500000Y-125500000D02*
X115500000Y-125500000D01*
X121500000Y-123500000D02*
X121500000Y-125500000D01*
X119500000Y-123500000D02*
X121500000Y-123500000D01*
X119500000Y-125500000D02*
X119500000Y-123500000D01*
X121500000Y-125500000D02*
X119500000Y-125500000D01*
X125500000Y-123500000D02*
X125500000Y-125500000D01*
X123500000Y-123500000D02*
X125500000Y-123500000D01*
X123500000Y-125500000D02*
X123500000Y-123500000D01*
X125500000Y-125500000D02*
X123500000Y-125500000D01*
X129500000Y-123500000D02*
X129500000Y-125500000D01*
X127500000Y-123500000D02*
X129500000Y-123500000D01*
X127500000Y-125500000D02*
X127500000Y-123500000D01*
X129500000Y-125500000D02*
X127500000Y-125500000D01*
X133500000Y-123500000D02*
X133500000Y-125500000D01*
X131500000Y-123500000D02*
X133500000Y-123500000D01*
X131500000Y-125500000D02*
X131500000Y-123500000D01*
X133500000Y-125500000D02*
X131500000Y-125500000D01*
X137500000Y-123500000D02*
X137500000Y-125500000D01*
X135500000Y-123500000D02*
X137500000Y-123500000D01*
X135500000Y-125500000D02*
X135500000Y-123500000D01*
X137500000Y-125500000D02*
X135500000Y-125500000D01*
X141500000Y-123500000D02*
X141500000Y-125500000D01*
X139500000Y-123500000D02*
X141500000Y-123500000D01*
X139500000Y-125500000D02*
X139500000Y-123500000D01*
X141500000Y-125500000D02*
X139500000Y-125500000D01*
X145500000Y-123500000D02*
X145500000Y-125500000D01*
X143500000Y-123500000D02*
X145500000Y-123500000D01*
X143500000Y-125500000D02*
X143500000Y-123500000D01*
X145500000Y-125500000D02*
X143500000Y-125500000D01*
X149500000Y-123500000D02*
X149500000Y-125500000D01*
X147500000Y-123500000D02*
X149500000Y-123500000D01*
X147500000Y-125500000D02*
X147500000Y-123500000D01*
X149500000Y-125500000D02*
X147500000Y-125500000D01*
X153500000Y-123500000D02*
X153500000Y-125500000D01*
X151500000Y-123500000D02*
X153500000Y-123500000D01*
X151500000Y-125500000D02*
X151500000Y-123500000D01*
X153500000Y-125500000D02*
X151500000Y-125500000D01*
X157500000Y-123500000D02*
X157500000Y-125500000D01*
X155500000Y-123500000D02*
X157500000Y-123500000D01*
X155500000Y-125500000D02*
X155500000Y-123500000D01*
X157500000Y-125500000D02*
X155500000Y-125500000D01*
X165500000Y-123500000D02*
X165500000Y-125500000D01*
X163500000Y-123500000D02*
X165500000Y-123500000D01*
X163500000Y-125500000D02*
X163500000Y-123500000D01*
X165500000Y-125500000D02*
X163500000Y-125500000D01*
X105500000Y-127500000D02*
X105500000Y-129500000D01*
X103500000Y-127500000D02*
X105500000Y-127500000D01*
X103500000Y-129500000D02*
X103500000Y-127500000D01*
X105500000Y-129500000D02*
X103500000Y-129500000D01*
X109500000Y-127500000D02*
X109500000Y-129500000D01*
X107500000Y-127500000D02*
X109500000Y-127500000D01*
X107500000Y-129500000D02*
X107500000Y-127500000D01*
X109500000Y-129500000D02*
X107500000Y-129500000D01*
X113500000Y-127500000D02*
X113500000Y-129500000D01*
X111500000Y-127500000D02*
X113500000Y-127500000D01*
X111500000Y-129500000D02*
X111500000Y-127500000D01*
X113500000Y-129500000D02*
X111500000Y-129500000D01*
X117500000Y-127500000D02*
X117500000Y-129500000D01*
X115500000Y-127500000D02*
X117500000Y-127500000D01*
X115500000Y-129500000D02*
X115500000Y-127500000D01*
X117500000Y-129500000D02*
X115500000Y-129500000D01*
X121500000Y-127500000D02*
X121500000Y-129500000D01*
X119500000Y-127500000D02*
X121500000Y-127500000D01*
X119500000Y-129500000D02*
X119500000Y-127500000D01*
X121500000Y-129500000D02*
X119500000Y-129500000D01*
X129500000Y-127500000D02*
X129500000Y-129500000D01*
X127500000Y-127500000D02*
X129500000Y-127500000D01*
X127500000Y-129500000D02*
X127500000Y-127500000D01*
X129500000Y-129500000D02*
X127500000Y-129500000D01*
X133500000Y-127500000D02*
X133500000Y-129500000D01*
X131500000Y-127500000D02*
X133500000Y-127500000D01*
X131500000Y-129500000D02*
X131500000Y-127500000D01*
X133500000Y-129500000D02*
X131500000Y-129500000D01*
X137500000Y-127500000D02*
X137500000Y-129500000D01*
X135500000Y-127500000D02*
X137500000Y-127500000D01*
X135500000Y-129500000D02*
X135500000Y-127500000D01*
X137500000Y-129500000D02*
X135500000Y-129500000D01*
X141500000Y-127500000D02*
X141500000Y-129500000D01*
X139500000Y-127500000D02*
X141500000Y-127500000D01*
X139500000Y-129500000D02*
X139500000Y-127500000D01*
X141500000Y-129500000D02*
X139500000Y-129500000D01*
X145500000Y-127500000D02*
X145500000Y-129500000D01*
X143500000Y-127500000D02*
X145500000Y-127500000D01*
X143500000Y-129500000D02*
X143500000Y-127500000D01*
X145500000Y-129500000D02*
X143500000Y-129500000D01*
X149500000Y-127500000D02*
X149500000Y-129500000D01*
X147500000Y-127500000D02*
X149500000Y-127500000D01*
X147500000Y-129500000D02*
X147500000Y-127500000D01*
X149500000Y-129500000D02*
X147500000Y-129500000D01*
X153500000Y-127500000D02*
X153500000Y-129500000D01*
X151500000Y-127500000D02*
X153500000Y-127500000D01*
X151500000Y-129500000D02*
X151500000Y-127500000D01*
X153500000Y-129500000D02*
X151500000Y-129500000D01*
X157500000Y-127500000D02*
X157500000Y-129500000D01*
X155500000Y-127500000D02*
X157500000Y-127500000D01*
X155500000Y-129500000D02*
X155500000Y-127500000D01*
X157500000Y-129500000D02*
X155500000Y-129500000D01*
X161500000Y-127500000D02*
X161500000Y-129500000D01*
X159500000Y-127500000D02*
X161500000Y-127500000D01*
X159500000Y-129500000D02*
X159500000Y-127500000D01*
X161500000Y-129500000D02*
X159500000Y-129500000D01*
X165500000Y-127500000D02*
X165500000Y-129500000D01*
X163500000Y-127500000D02*
X165500000Y-127500000D01*
X163500000Y-129500000D02*
X163500000Y-127500000D01*
X165500000Y-129500000D02*
X163500000Y-129500000D01*
X105500000Y-131500000D02*
X105500000Y-133500000D01*
X103500000Y-131500000D02*
X105500000Y-131500000D01*
X103500000Y-133500000D02*
X103500000Y-131500000D01*
X105500000Y-133500000D02*
X103500000Y-133500000D01*
X113500000Y-131500000D02*
X113500000Y-133500000D01*
X111500000Y-131500000D02*
X113500000Y-131500000D01*
X111500000Y-133500000D02*
X111500000Y-131500000D01*
X113500000Y-133500000D02*
X111500000Y-133500000D01*
X117500000Y-131500000D02*
X117500000Y-133500000D01*
X115500000Y-131500000D02*
X117500000Y-131500000D01*
X115500000Y-133500000D02*
X115500000Y-131500000D01*
X117500000Y-133500000D02*
X115500000Y-133500000D01*
X121500000Y-131500000D02*
X121500000Y-133500000D01*
X119500000Y-131500000D02*
X121500000Y-131500000D01*
X119500000Y-133500000D02*
X119500000Y-131500000D01*
X121500000Y-133500000D02*
X119500000Y-133500000D01*
X125500000Y-131500000D02*
X125500000Y-133500000D01*
X123500000Y-131500000D02*
X125500000Y-131500000D01*
X123500000Y-133500000D02*
X123500000Y-131500000D01*
X125500000Y-133500000D02*
X123500000Y-133500000D01*
X129500000Y-131500000D02*
X129500000Y-133500000D01*
X127500000Y-131500000D02*
X129500000Y-131500000D01*
X127500000Y-133500000D02*
X127500000Y-131500000D01*
X129500000Y-133500000D02*
X127500000Y-133500000D01*
X133500000Y-131500000D02*
X133500000Y-133500000D01*
X131500000Y-131500000D02*
X133500000Y-131500000D01*
X131500000Y-133500000D02*
X131500000Y-131500000D01*
X133500000Y-133500000D02*
X131500000Y-133500000D01*
X137500000Y-131500000D02*
X137500000Y-133500000D01*
X135500000Y-131500000D02*
X137500000Y-131500000D01*
X135500000Y-133500000D02*
X135500000Y-131500000D01*
X137500000Y-133500000D02*
X135500000Y-133500000D01*
X141500000Y-131500000D02*
X141500000Y-133500000D01*
X139500000Y-131500000D02*
X141500000Y-131500000D01*
X139500000Y-133500000D02*
X139500000Y-131500000D01*
X141500000Y-133500000D02*
X139500000Y-133500000D01*
X145500000Y-131500000D02*
X145500000Y-133500000D01*
X143500000Y-131500000D02*
X145500000Y-131500000D01*
X143500000Y-133500000D02*
X143500000Y-131500000D01*
X145500000Y-133500000D02*
X143500000Y-133500000D01*
X149500000Y-131500000D02*
X149500000Y-133500000D01*
X147500000Y-131500000D02*
X149500000Y-131500000D01*
X147500000Y-133500000D02*
X147500000Y-131500000D01*
X149500000Y-133500000D02*
X147500000Y-133500000D01*
X153500000Y-131500000D02*
X153500000Y-133500000D01*
X151500000Y-131500000D02*
X153500000Y-131500000D01*
X151500000Y-133500000D02*
X151500000Y-131500000D01*
X153500000Y-133500000D02*
X151500000Y-133500000D01*
X157500000Y-131500000D02*
X157500000Y-133500000D01*
X155500000Y-131500000D02*
X157500000Y-131500000D01*
X155500000Y-133500000D02*
X155500000Y-131500000D01*
X157500000Y-133500000D02*
X155500000Y-133500000D01*
X161500000Y-131500000D02*
X161500000Y-133500000D01*
X159500000Y-131500000D02*
X161500000Y-131500000D01*
X159500000Y-133500000D02*
X159500000Y-131500000D01*
X161500000Y-133500000D02*
X159500000Y-133500000D01*
X165500000Y-131500000D02*
X165500000Y-133500000D01*
X163500000Y-131500000D02*
X165500000Y-131500000D01*
X163500000Y-133500000D02*
X163500000Y-131500000D01*
X165500000Y-133500000D02*
X163500000Y-133500000D01*
X105500000Y-135500000D02*
X105500000Y-137500000D01*
X103500000Y-135500000D02*
X105500000Y-135500000D01*
X103500000Y-137500000D02*
X103500000Y-135500000D01*
X105500000Y-137500000D02*
X103500000Y-137500000D01*
X109500000Y-135500000D02*
X109500000Y-137500000D01*
X107500000Y-135500000D02*
X109500000Y-135500000D01*
X107500000Y-137500000D02*
X107500000Y-135500000D01*
X109500000Y-137500000D02*
X107500000Y-137500000D01*
X113500000Y-135500000D02*
X113500000Y-137500000D01*
X111500000Y-135500000D02*
X113500000Y-135500000D01*
X111500000Y-137500000D02*
X111500000Y-135500000D01*
X113500000Y-137500000D02*
X111500000Y-137500000D01*
X117500000Y-135500000D02*
X117500000Y-137500000D01*
X115500000Y-135500000D02*
X117500000Y-135500000D01*
X115500000Y-137500000D02*
X115500000Y-135500000D01*
X117500000Y-137500000D02*
X115500000Y-137500000D01*
X121500000Y-135500000D02*
X121500000Y-137500000D01*
X119500000Y-135500000D02*
X121500000Y-135500000D01*
X119500000Y-137500000D02*
X119500000Y-135500000D01*
X121500000Y-137500000D02*
X119500000Y-137500000D01*
X125500000Y-135500000D02*
X125500000Y-137500000D01*
X123500000Y-135500000D02*
X125500000Y-135500000D01*
X123500000Y-137500000D02*
X123500000Y-135500000D01*
X125500000Y-137500000D02*
X123500000Y-137500000D01*
X129500000Y-135500000D02*
X129500000Y-137500000D01*
X127500000Y-135500000D02*
X129500000Y-135500000D01*
X127500000Y-137500000D02*
X127500000Y-135500000D01*
X129500000Y-137500000D02*
X127500000Y-137500000D01*
X133500000Y-135500000D02*
X133500000Y-137500000D01*
X131500000Y-135500000D02*
X133500000Y-135500000D01*
X131500000Y-137500000D02*
X131500000Y-135500000D01*
X133500000Y-137500000D02*
X131500000Y-137500000D01*
X137500000Y-135500000D02*
X137500000Y-137500000D01*
X135500000Y-135500000D02*
X137500000Y-135500000D01*
X135500000Y-137500000D02*
X135500000Y-135500000D01*
X137500000Y-137500000D02*
X135500000Y-137500000D01*
X141500000Y-135500000D02*
X141500000Y-137500000D01*
X139500000Y-135500000D02*
X141500000Y-135500000D01*
X139500000Y-137500000D02*
X139500000Y-135500000D01*
X141500000Y-137500000D02*
X139500000Y-137500000D01*
X145500000Y-135500000D02*
X145500000Y-137500000D01*
X143500000Y-135500000D02*
X145500000Y-135500000D01*
X143500000Y-137500000D02*
X143500000Y-135500000D01*
X145500000Y-137500000D02*
X143500000Y-137500000D01*
X149500000Y-135500000D02*
X149500000Y-137500000D01*
X147500000Y-135500000D02*
X149500000Y-135500000D01*
X147500000Y-137500000D02*
X147500000Y-135500000D01*
X149500000Y-137500000D02*
X147500000Y-137500000D01*
X153500000Y-135500000D02*
X153500000Y-137500000D01*
X151500000Y-135500000D02*
X153500000Y-135500000D01*
X151500000Y-137500000D02*
X151500000Y-135500000D01*
X153500000Y-137500000D02*
X151500000Y-137500000D01*
X157500000Y-135500000D02*
X157500000Y-137500000D01*
X155500000Y-135500000D02*
X157500000Y-135500000D01*
X155500000Y-137500000D02*
X155500000Y-135500000D01*
X157500000Y-137500000D02*
X155500000Y-137500000D01*
X161500000Y-135500000D02*
X161500000Y-137500000D01*
X159500000Y-135500000D02*
X161500000Y-135500000D01*
X159500000Y-137500000D02*
X159500000Y-135500000D01*
X161500000Y-137500000D02*
X159500000Y-137500000D01*
X165500000Y-135500000D02*
X165500000Y-137500000D01*
X163500000Y-135500000D02*
X165500000Y-135500000D01*
X163500000Y-137500000D02*
X163500000Y-135500000D01*
X165500000Y-137500000D02*
X163500000Y-137500000D01*
X105500000Y-139500000D02*
X105500000Y-141500000D01*
X103500000Y-139500000D02*
X105500000Y-139500000D01*
X103500000Y-141500000D02*
X103500000Y-139500000D01*
X105500000Y-141500000D02*
X103500000Y-141500000D01*
X109500000Y-139500000D02*
X109500000Y-141500000D01*
X107500000Y-139500000D02*
X109500000Y-139500000D01*
X107500000Y-141500000D02*
X107500000Y-139500000D01*
X109500000Y-141500000D02*
X107500000Y-141500000D01*
X113500000Y-139500000D02*
X113500000Y-141500000D01*
X111500000Y-139500000D02*
X113500000Y-139500000D01*
X111500000Y-141500000D02*
X111500000Y-139500000D01*
X113500000Y-141500000D02*
X111500000Y-141500000D01*
X117500000Y-139500000D02*
X117500000Y-141500000D01*
X115500000Y-139500000D02*
X117500000Y-139500000D01*
X115500000Y-141500000D02*
X115500000Y-139500000D01*
X117500000Y-141500000D02*
X115500000Y-141500000D01*
X121500000Y-139500000D02*
X121500000Y-141500000D01*
X119500000Y-139500000D02*
X121500000Y-139500000D01*
X119500000Y-141500000D02*
X119500000Y-139500000D01*
X121500000Y-141500000D02*
X119500000Y-141500000D01*
X125500000Y-139500000D02*
X125500000Y-141500000D01*
X123500000Y-139500000D02*
X125500000Y-139500000D01*
X123500000Y-141500000D02*
X123500000Y-139500000D01*
X125500000Y-141500000D02*
X123500000Y-141500000D01*
X129500000Y-139500000D02*
X129500000Y-141500000D01*
X127500000Y-139500000D02*
X129500000Y-139500000D01*
X127500000Y-141500000D02*
X127500000Y-139500000D01*
X129500000Y-141500000D02*
X127500000Y-141500000D01*
X133500000Y-139500000D02*
X133500000Y-141500000D01*
X131500000Y-139500000D02*
X133500000Y-139500000D01*
X131500000Y-141500000D02*
X131500000Y-139500000D01*
X133500000Y-141500000D02*
X131500000Y-141500000D01*
X137500000Y-139500000D02*
X137500000Y-141500000D01*
X135500000Y-139500000D02*
X137500000Y-139500000D01*
X135500000Y-141500000D02*
X135500000Y-139500000D01*
X137500000Y-141500000D02*
X135500000Y-141500000D01*
X141500000Y-139500000D02*
X141500000Y-141500000D01*
X139500000Y-139500000D02*
X141500000Y-139500000D01*
X139500000Y-141500000D02*
X139500000Y-139500000D01*
X141500000Y-141500000D02*
X139500000Y-141500000D01*
X145500000Y-139500000D02*
X145500000Y-141500000D01*
X143500000Y-139500000D02*
X145500000Y-139500000D01*
X143500000Y-141500000D02*
X143500000Y-139500000D01*
X145500000Y-141500000D02*
X143500000Y-141500000D01*
X149500000Y-139500000D02*
X149500000Y-141500000D01*
X147500000Y-139500000D02*
X149500000Y-139500000D01*
X147500000Y-141500000D02*
X147500000Y-139500000D01*
X149500000Y-141500000D02*
X147500000Y-141500000D01*
X153500000Y-139500000D02*
X153500000Y-141500000D01*
X151500000Y-139500000D02*
X153500000Y-139500000D01*
X151500000Y-141500000D02*
X151500000Y-139500000D01*
X153500000Y-141500000D02*
X151500000Y-141500000D01*
X157500000Y-139500000D02*
X157500000Y-141500000D01*
X155500000Y-139500000D02*
X157500000Y-139500000D01*
X155500000Y-141500000D02*
X155500000Y-139500000D01*
X157500000Y-141500000D02*
X155500000Y-141500000D01*
X161500000Y-139500000D02*
X161500000Y-141500000D01*
X159500000Y-139500000D02*
X161500000Y-139500000D01*
X159500000Y-141500000D02*
X159500000Y-139500000D01*
X161500000Y-141500000D02*
X159500000Y-141500000D01*
X165500000Y-139500000D02*
X165500000Y-141500000D01*
X163500000Y-139500000D02*
X165500000Y-139500000D01*
X163500000Y-141500000D02*
X163500000Y-139500000D01*
X165500000Y-141500000D02*
X163500000Y-141500000D01*
X105500000Y-143500000D02*
X105500000Y-145500000D01*
X103500000Y-143500000D02*
X105500000Y-143500000D01*
X103500000Y-145500000D02*
X103500000Y-143500000D01*
X105500000Y-145500000D02*
X103500000Y-145500000D01*
X109500000Y-143500000D02*
X109500000Y-145500000D01*
X107500000Y-143500000D02*
X109500000Y-143500000D01*
X107500000Y-145500000D02*
X107500000Y-143500000D01*
X109500000Y-145500000D02*
X107500000Y-145500000D01*
X113500000Y-143500000D02*
X113500000Y-145500000D01*
X111500000Y-143500000D02*
X113500000Y-143500000D01*
X111500000Y-145500000D02*
X111500000Y-143500000D01*
X113500000Y-145500000D02*
X111500000Y-145500000D01*
X117500000Y-143500000D02*
X117500000Y-145500000D01*
X115500000Y-143500000D02*
X117500000Y-143500000D01*
X115500000Y-145500000D02*
X115500000Y-143500000D01*
X117500000Y-145500000D02*
X115500000Y-145500000D01*
X121500000Y-143500000D02*
X121500000Y-145500000D01*
X119500000Y-143500000D02*
X121500000Y-143500000D01*
X119500000Y-145500000D02*
X119500000Y-143500000D01*
X121500000Y-145500000D02*
X119500000Y-145500000D01*
X125500000Y-143500000D02*
X125500000Y-145500000D01*
X123500000Y-143500000D02*
X125500000Y-143500000D01*
X123500000Y-145500000D02*
X123500000Y-143500000D01*
X125500000Y-145500000D02*
X123500000Y-145500000D01*
X129500000Y-143500000D02*
X129500000Y-145500000D01*
X127500000Y-143500000D02*
X129500000Y-143500000D01*
X127500000Y-145500000D02*
X127500000Y-143500000D01*
X129500000Y-145500000D02*
X127500000Y-145500000D01*
X133500000Y-143500000D02*
X133500000Y-145500000D01*
X131500000Y-143500000D02*
X133500000Y-143500000D01*
X131500000Y-145500000D02*
X131500000Y-143500000D01*
X133500000Y-145500000D02*
X131500000Y-145500000D01*
X137500000Y-143500000D02*
X137500000Y-145500000D01*
X135500000Y-143500000D02*
X137500000Y-143500000D01*
X135500000Y-145500000D02*
X135500000Y-143500000D01*
X137500000Y-145500000D02*
X135500000Y-145500000D01*
X141500000Y-143500000D02*
X141500000Y-145500000D01*
X139500000Y-143500000D02*
X141500000Y-143500000D01*
X139500000Y-145500000D02*
X139500000Y-143500000D01*
X141500000Y-145500000D02*
X139500000Y-145500000D01*
X145500000Y-143500000D02*
X145500000Y-145500000D01*
X143500000Y-143500000D02*
X145500000Y-143500000D01*
X143500000Y-145500000D02*
X143500000Y-143500000D01*
X145500000Y-145500000D02*
X143500000Y-145500000D01*
X149500000Y-143500000D02*
X149500000Y-145500000D01*
X147500000Y-143500000D02*
X149500000Y-143500000D01*
X147500000Y-145500000D02*
X147500000Y-143500000D01*
X149500000Y-145500000D02*
X147500000Y-145500000D01*
X153500000Y-143500000D02*
X153500000Y-145500000D01*
X151500000Y-143500000D02*
X153500000Y-143500000D01*
X151500000Y-145500000D02*
X151500000Y-143500000D01*
X153500000Y-145500000D02*
X151500000Y-145500000D01*
X157500000Y-143500000D02*
X157500000Y-145500000D01*
X155500000Y-143500000D02*
X157500000Y-143500000D01*
X155500000Y-145500000D02*
X155500000Y-143500000D01*
X157500000Y-145500000D02*
X155500000Y-145500000D01*
X161500000Y-143500000D02*
X161500000Y-145500000D01*
X159500000Y-143500000D02*
X161500000Y-143500000D01*
X159500000Y-145500000D02*
X159500000Y-143500000D01*
X161500000Y-145500000D02*
X159500000Y-145500000D01*
X165500000Y-143500000D02*
X165500000Y-145500000D01*
X163500000Y-143500000D02*
X165500000Y-143500000D01*
X163500000Y-145500000D02*
X163500000Y-143500000D01*
X165500000Y-145500000D02*
X163500000Y-145500000D01*
X105500000Y-147500000D02*
X105500000Y-149500000D01*
X103500000Y-147500000D02*
X105500000Y-147500000D01*
X103500000Y-149500000D02*
X103500000Y-147500000D01*
X105500000Y-149500000D02*
X103500000Y-149500000D01*
X109500000Y-147500000D02*
X109500000Y-149500000D01*
X107500000Y-147500000D02*
X109500000Y-147500000D01*
X107500000Y-149500000D02*
X107500000Y-147500000D01*
X109500000Y-149500000D02*
X107500000Y-149500000D01*
X113500000Y-147500000D02*
X113500000Y-149500000D01*
X111500000Y-147500000D02*
X113500000Y-147500000D01*
X111500000Y-149500000D02*
X111500000Y-147500000D01*
X113500000Y-149500000D02*
X111500000Y-149500000D01*
X117500000Y-147500000D02*
X117500000Y-149500000D01*
X115500000Y-147500000D02*
X117500000Y-147500000D01*
X115500000Y-149500000D02*
X115500000Y-147500000D01*
X117500000Y-149500000D02*
X115500000Y-149500000D01*
X121500000Y-147500000D02*
X121500000Y-149500000D01*
X119500000Y-147500000D02*
X121500000Y-147500000D01*
X119500000Y-149500000D02*
X119500000Y-147500000D01*
X121500000Y-149500000D02*
X119500000Y-149500000D01*
X125500000Y-147500000D02*
X125500000Y-149500000D01*
X123500000Y-147500000D02*
X125500000Y-147500000D01*
X123500000Y-149500000D02*
X123500000Y-147500000D01*
X125500000Y-149500000D02*
X123500000Y-149500000D01*
X129500000Y-147500000D02*
X129500000Y-149500000D01*
X127500000Y-147500000D02*
X129500000Y-147500000D01*
X127500000Y-149500000D02*
X127500000Y-147500000D01*
X129500000Y-149500000D02*
X127500000Y-149500000D01*
X133500000Y-147500000D02*
X133500000Y-149500000D01*
X131500000Y-147500000D02*
X133500000Y-147500000D01*
X131500000Y-149500000D02*
X131500000Y-147500000D01*
X133500000Y-149500000D02*
X131500000Y-149500000D01*
X137500000Y-147500000D02*
X137500000Y-149500000D01*
X135500000Y-147500000D02*
X137500000Y-147500000D01*
X135500000Y-149500000D02*
X135500000Y-147500000D01*
X137500000Y-149500000D02*
X135500000Y-149500000D01*
X141500000Y-147500000D02*
X141500000Y-149500000D01*
X139500000Y-147500000D02*
X141500000Y-147500000D01*
X139500000Y-149500000D02*
X139500000Y-147500000D01*
X141500000Y-149500000D02*
X139500000Y-149500000D01*
X145500000Y-147500000D02*
X145500000Y-149500000D01*
X143500000Y-147500000D02*
X145500000Y-147500000D01*
X143500000Y-149500000D02*
X143500000Y-147500000D01*
X145500000Y-149500000D02*
X143500000Y-149500000D01*
X149500000Y-147500000D02*
X149500000Y-149500000D01*
X147500000Y-147500000D02*
X149500000Y-147500000D01*
X147500000Y-149500000D02*
X147500000Y-147500000D01*
X149500000Y-149500000D02*
X147500000Y-149500000D01*
X153500000Y-147500000D02*
X153500000Y-149500000D01*
X151500000Y-147500000D02*
X153500000Y-147500000D01*
X151500000Y-149500000D02*
X151500000Y-147500000D01*
X153500000Y-149500000D02*
X151500000Y-149500000D01*
X157500000Y-147500000D02*
X157500000Y-149500000D01*
X155500000Y-147500000D02*
X157500000Y-147500000D01*
X155500000Y-149500000D02*
X155500000Y-147500000D01*
X157500000Y-149500000D02*
X155500000Y-149500000D01*
X161500000Y-147500000D02*
X161500000Y-149500000D01*
X159500000Y-147500000D02*
X161500000Y-147500000D01*
X159500000Y-149500000D02*
X159500000Y-147500000D01*
X161500000Y-149500000D02*
X159500000Y-149500000D01*
X165500000Y-147500000D02*
X165500000Y-149500000D01*
X163500000Y-147500000D02*
X165500000Y-147500000D01*
X163500000Y-149500000D02*
X163500000Y-147500000D01*
X165500000Y-149500000D02*
X163500000Y-149500000D01*
X105500000Y-151500000D02*
X105500000Y-153500000D01*
X103500000Y-151500000D02*
X105500000Y-151500000D01*
X103500000Y-153500000D02*
X103500000Y-151500000D01*
X105500000Y-153500000D02*
X103500000Y-153500000D01*
X109500000Y-151500000D02*
X109500000Y-153500000D01*
X107500000Y-151500000D02*
X109500000Y-151500000D01*
X107500000Y-153500000D02*
X107500000Y-151500000D01*
X109500000Y-153500000D02*
X107500000Y-153500000D01*
X113500000Y-151500000D02*
X113500000Y-153500000D01*
X111500000Y-151500000D02*
X113500000Y-151500000D01*
X111500000Y-153500000D02*
X111500000Y-151500000D01*
X113500000Y-153500000D02*
X111500000Y-153500000D01*
X117500000Y-151500000D02*
X117500000Y-153500000D01*
X115500000Y-151500000D02*
X117500000Y-151500000D01*
X115500000Y-153500000D02*
X115500000Y-151500000D01*
X117500000Y-153500000D02*
X115500000Y-153500000D01*
X121500000Y-151500000D02*
X121500000Y-153500000D01*
X119500000Y-151500000D02*
X121500000Y-151500000D01*
X119500000Y-153500000D02*
X119500000Y-151500000D01*
X121500000Y-153500000D02*
X119500000Y-153500000D01*
X125500000Y-151500000D02*
X125500000Y-153500000D01*
X123500000Y-151500000D02*
X125500000Y-151500000D01*
X123500000Y-153500000D02*
X123500000Y-151500000D01*
X125500000Y-153500000D02*
X123500000Y-153500000D01*
X129500000Y-151500000D02*
X129500000Y-153500000D01*
X127500000Y-151500000D02*
X129500000Y-151500000D01*
X127500000Y-153500000D02*
X127500000Y-151500000D01*
X129500000Y-153500000D02*
X127500000Y-153500000D01*
X133500000Y-151500000D02*
X133500000Y-153500000D01*
X131500000Y-151500000D02*
X133500000Y-151500000D01*
X131500000Y-153500000D02*
X131500000Y-151500000D01*
X133500000Y-153500000D02*
X131500000Y-153500000D01*
X137500000Y-151500000D02*
X137500000Y-153500000D01*
X135500000Y-151500000D02*
X137500000Y-151500000D01*
X135500000Y-153500000D02*
X135500000Y-151500000D01*
X137500000Y-153500000D02*
X135500000Y-153500000D01*
X141500000Y-151500000D02*
X141500000Y-153500000D01*
X139500000Y-151500000D02*
X141500000Y-151500000D01*
X139500000Y-153500000D02*
X139500000Y-151500000D01*
X141500000Y-153500000D02*
X139500000Y-153500000D01*
X145500000Y-151500000D02*
X145500000Y-153500000D01*
X143500000Y-151500000D02*
X145500000Y-151500000D01*
X143500000Y-153500000D02*
X143500000Y-151500000D01*
X145500000Y-153500000D02*
X143500000Y-153500000D01*
X149500000Y-151500000D02*
X149500000Y-153500000D01*
X147500000Y-151500000D02*
X149500000Y-151500000D01*
X147500000Y-153500000D02*
X147500000Y-151500000D01*
X149500000Y-153500000D02*
X147500000Y-153500000D01*
X153500000Y-151500000D02*
X153500000Y-153500000D01*
X151500000Y-151500000D02*
X153500000Y-151500000D01*
X151500000Y-153500000D02*
X151500000Y-151500000D01*
X153500000Y-153500000D02*
X151500000Y-153500000D01*
X157500000Y-151500000D02*
X157500000Y-153500000D01*
X155500000Y-151500000D02*
X157500000Y-151500000D01*
X155500000Y-153500000D02*
X155500000Y-151500000D01*
X157500000Y-153500000D02*
X155500000Y-153500000D01*
X161500000Y-151500000D02*
X161500000Y-153500000D01*
X159500000Y-151500000D02*
X161500000Y-151500000D01*
X159500000Y-153500000D02*
X159500000Y-151500000D01*
X161500000Y-153500000D02*
X159500000Y-153500000D01*
X165500000Y-151500000D02*
X165500000Y-153500000D01*
X163500000Y-151500000D02*
X165500000Y-151500000D01*
X163500000Y-153500000D02*
X163500000Y-151500000D01*
X165500000Y-153500000D02*
X163500000Y-153500000D01*
X105500000Y-155500000D02*
X105500000Y-157500000D01*
X103500000Y-155500000D02*
X105500000Y-155500000D01*
X103500000Y-157500000D02*
X103500000Y-155500000D01*
X105500000Y-157500000D02*
X103500000Y-157500000D01*
X109500000Y-155500000D02*
X109500000Y-157500000D01*
X107500000Y-155500000D02*
X109500000Y-155500000D01*
X107500000Y-157500000D02*
X107500000Y-155500000D01*
X109500000Y-157500000D02*
X107500000Y-157500000D01*
X113500000Y-155500000D02*
X113500000Y-157500000D01*
X111500000Y-155500000D02*
X113500000Y-155500000D01*
X111500000Y-157500000D02*
X111500000Y-155500000D01*
X113500000Y-157500000D02*
X111500000Y-157500000D01*
X117500000Y-155500000D02*
X117500000Y-157500000D01*
X115500000Y-155500000D02*
X117500000Y-155500000D01*
X115500000Y-157500000D02*
X115500000Y-155500000D01*
X117500000Y-157500000D02*
X115500000Y-157500000D01*
X121500000Y-155500000D02*
X121500000Y-157500000D01*
X119500000Y-155500000D02*
X121500000Y-155500000D01*
X119500000Y-157500000D02*
X119500000Y-155500000D01*
X121500000Y-157500000D02*
X119500000Y-157500000D01*
X125500000Y-155500000D02*
X125500000Y-157500000D01*
X123500000Y-155500000D02*
X125500000Y-155500000D01*
X123500000Y-157500000D02*
X123500000Y-155500000D01*
X125500000Y-157500000D02*
X123500000Y-157500000D01*
X129500000Y-155500000D02*
X129500000Y-157500000D01*
X127500000Y-155500000D02*
X129500000Y-155500000D01*
X127500000Y-157500000D02*
X127500000Y-155500000D01*
X129500000Y-157500000D02*
X127500000Y-157500000D01*
X133500000Y-155500000D02*
X133500000Y-157500000D01*
X131500000Y-155500000D02*
X133500000Y-155500000D01*
X131500000Y-157500000D02*
X131500000Y-155500000D01*
X133500000Y-157500000D02*
X131500000Y-157500000D01*
X137500000Y-155500000D02*
X137500000Y-157500000D01*
X135500000Y-155500000D02*
X137500000Y-155500000D01*
X135500000Y-157500000D02*
X135500000Y-155500000D01*
X137500000Y-157500000D02*
X135500000Y-157500000D01*
X141500000Y-155500000D02*
X141500000Y-157500000D01*
X139500000Y-155500000D02*
X141500000Y-155500000D01*
X139500000Y-157500000D02*
X139500000Y-155500000D01*
X141500000Y-157500000D02*
X139500000Y-157500000D01*
X145500000Y-155500000D02*
X145500000Y-157500000D01*
X143500000Y-155500000D02*
X145500000Y-155500000D01*
X143500000Y-157500000D02*
X143500000Y-155500000D01*
X145500000Y-157500000D02*
X143500000Y-157500000D01*
X149500000Y-155500000D02*
X149500000Y-157500000D01*
X147500000Y-155500000D02*
X149500000Y-155500000D01*
X147500000Y-157500000D02*
X147500000Y-155500000D01*
X149500000Y-157500000D02*
X147500000Y-157500000D01*
X153500000Y-155500000D02*
X153500000Y-157500000D01*
X151500000Y-155500000D02*
X153500000Y-155500000D01*
X151500000Y-157500000D02*
X151500000Y-155500000D01*
X153500000Y-157500000D02*
X151500000Y-157500000D01*
X157500000Y-155500000D02*
X157500000Y-157500000D01*
X155500000Y-155500000D02*
X157500000Y-155500000D01*
X155500000Y-157500000D02*
X155500000Y-155500000D01*
X157500000Y-157500000D02*
X155500000Y-157500000D01*
X161500000Y-155500000D02*
X161500000Y-157500000D01*
X159500000Y-155500000D02*
X161500000Y-155500000D01*
X159500000Y-157500000D02*
X159500000Y-155500000D01*
X161500000Y-157500000D02*
X159500000Y-157500000D01*
X165500000Y-155500000D02*
X165500000Y-157500000D01*
X163500000Y-155500000D02*
X165500000Y-155500000D01*
X163500000Y-157500000D02*
X163500000Y-155500000D01*
X165500000Y-157500000D02*
X163500000Y-157500000D01*
X105500000Y-159500000D02*
X105500000Y-161500000D01*
X103500000Y-159500000D02*
X105500000Y-159500000D01*
X103500000Y-161500000D02*
X103500000Y-159500000D01*
X105500000Y-161500000D02*
X103500000Y-161500000D01*
X109500000Y-159500000D02*
X109500000Y-161500000D01*
X107500000Y-159500000D02*
X109500000Y-159500000D01*
X107500000Y-161500000D02*
X107500000Y-159500000D01*
X109500000Y-161500000D02*
X107500000Y-161500000D01*
X113500000Y-159500000D02*
X113500000Y-161500000D01*
X111500000Y-159500000D02*
X113500000Y-159500000D01*
X111500000Y-161500000D02*
X111500000Y-159500000D01*
X113500000Y-161500000D02*
X111500000Y-161500000D01*
X117500000Y-159500000D02*
X117500000Y-161500000D01*
X115500000Y-159500000D02*
X117500000Y-159500000D01*
X115500000Y-161500000D02*
X115500000Y-159500000D01*
X117500000Y-161500000D02*
X115500000Y-161500000D01*
X121500000Y-159500000D02*
X121500000Y-161500000D01*
X119500000Y-159500000D02*
X121500000Y-159500000D01*
X119500000Y-161500000D02*
X119500000Y-159500000D01*
X121500000Y-161500000D02*
X119500000Y-161500000D01*
X125500000Y-159500000D02*
X125500000Y-161500000D01*
X123500000Y-159500000D02*
X125500000Y-159500000D01*
X123500000Y-161500000D02*
X123500000Y-159500000D01*
X125500000Y-161500000D02*
X123500000Y-161500000D01*
X129500000Y-159500000D02*
X129500000Y-161500000D01*
X127500000Y-159500000D02*
X129500000Y-159500000D01*
X127500000Y-161500000D02*
X127500000Y-159500000D01*
X129500000Y-161500000D02*
X127500000Y-161500000D01*
X133500000Y-159500000D02*
X133500000Y-161500000D01*
X131500000Y-159500000D02*
X133500000Y-159500000D01*
X131500000Y-161500000D02*
X131500000Y-159500000D01*
X133500000Y-161500000D02*
X131500000Y-161500000D01*
X137500000Y-159500000D02*
X137500000Y-161500000D01*
X135500000Y-159500000D02*
X137500000Y-159500000D01*
X135500000Y-161500000D02*
X135500000Y-159500000D01*
X137500000Y-161500000D02*
X135500000Y-161500000D01*
X141500000Y-159500000D02*
X141500000Y-161500000D01*
X139500000Y-159500000D02*
X141500000Y-159500000D01*
X139500000Y-161500000D02*
X139500000Y-159500000D01*
X141500000Y-161500000D02*
X139500000Y-161500000D01*
X145500000Y-159500000D02*
X145500000Y-161500000D01*
X143500000Y-159500000D02*
X145500000Y-159500000D01*
X143500000Y-161500000D02*
X143500000Y-159500000D01*
X145500000Y-161500000D02*
X143500000Y-161500000D01*
X149500000Y-159500000D02*
X149500000Y-161500000D01*
X147500000Y-159500000D02*
X149500000Y-159500000D01*
X147500000Y-161500000D02*
X147500000Y-159500000D01*
X149500000Y-161500000D02*
X147500000Y-161500000D01*
X153500000Y-159500000D02*
X153500000Y-161500000D01*
X151500000Y-159500000D02*
X153500000Y-159500000D01*
X151500000Y-161500000D02*
X151500000Y-159500000D01*
X153500000Y-161500000D02*
X151500000Y-161500000D01*
X157500000Y-159500000D02*
X157500000Y-161500000D01*
X155500000Y-159500000D02*
X157500000Y-159500000D01*
X155500000Y-161500000D02*
X155500000Y-159500000D01*
X157500000Y-161500000D02*
X155500000Y-161500000D01*
X161500000Y-159500000D02*
X161500000Y-161500000D01*
X159500000Y-159500000D02*
X161500000Y-159500000D01*
X159500000Y-161500000D02*
X159500000Y-159500000D01*
X161500000Y-161500000D02*
X159500000Y-161500000D01*
X165500000Y-159500000D02*
X165500000Y-161500000D01*
X163500000Y-159500000D02*
X165500000Y-159500000D01*
X163500000Y-161500000D02*
X163500000Y-159500000D01*
X165500000Y-161500000D02*
X163500000Y-161500000D01*
X105500000Y-163500000D02*
X105500000Y-165500000D01*
X103500000Y-163500000D02*
X105500000Y-163500000D01*
X103500000Y-165500000D02*
X103500000Y-163500000D01*
X105500000Y-165500000D02*
X103500000Y-165500000D01*
X109500000Y-163500000D02*
X109500000Y-165500000D01*
X107500000Y-163500000D02*
X109500000Y-163500000D01*
X107500000Y-165500000D02*
X107500000Y-163500000D01*
X109500000Y-165500000D02*
X107500000Y-165500000D01*
X113500000Y-163500000D02*
X113500000Y-165500000D01*
X111500000Y-163500000D02*
X113500000Y-163500000D01*
X111500000Y-165500000D02*
X111500000Y-163500000D01*
X113500000Y-165500000D02*
X111500000Y-165500000D01*
X117500000Y-163500000D02*
X117500000Y-165500000D01*
X115500000Y-163500000D02*
X117500000Y-163500000D01*
X115500000Y-165500000D02*
X115500000Y-163500000D01*
X117500000Y-165500000D02*
X115500000Y-165500000D01*
X121500000Y-163500000D02*
X121500000Y-165500000D01*
X119500000Y-163500000D02*
X121500000Y-163500000D01*
X119500000Y-165500000D02*
X119500000Y-163500000D01*
X121500000Y-165500000D02*
X119500000Y-165500000D01*
X125500000Y-163500000D02*
X125500000Y-165500000D01*
X123500000Y-163500000D02*
X125500000Y-163500000D01*
X123500000Y-165500000D02*
X123500000Y-163500000D01*
X125500000Y-165500000D02*
X123500000Y-165500000D01*
X129500000Y-163500000D02*
X129500000Y-165500000D01*
X127500000Y-163500000D02*
X129500000Y-163500000D01*
X127500000Y-165500000D02*
X127500000Y-163500000D01*
X129500000Y-165500000D02*
X127500000Y-165500000D01*
X133500000Y-163500000D02*
X133500000Y-165500000D01*
X131500000Y-163500000D02*
X133500000Y-163500000D01*
X131500000Y-165500000D02*
X131500000Y-163500000D01*
X133500000Y-165500000D02*
X131500000Y-165500000D01*
X137500000Y-163500000D02*
X137500000Y-165500000D01*
X135500000Y-163500000D02*
X137500000Y-163500000D01*
X135500000Y-165500000D02*
X135500000Y-163500000D01*
X137500000Y-165500000D02*
X135500000Y-165500000D01*
X141500000Y-163500000D02*
X141500000Y-165500000D01*
X139500000Y-163500000D02*
X141500000Y-163500000D01*
X139500000Y-165500000D02*
X139500000Y-163500000D01*
X141500000Y-165500000D02*
X139500000Y-165500000D01*
X145500000Y-163500000D02*
X145500000Y-165500000D01*
X143500000Y-163500000D02*
X145500000Y-163500000D01*
X143500000Y-165500000D02*
X143500000Y-163500000D01*
X145500000Y-165500000D02*
X143500000Y-165500000D01*
X149500000Y-163500000D02*
X149500000Y-165500000D01*
X147500000Y-163500000D02*
X149500000Y-163500000D01*
X147500000Y-165500000D02*
X147500000Y-163500000D01*
X149500000Y-165500000D02*
X147500000Y-165500000D01*
X153500000Y-163500000D02*
X153500000Y-165500000D01*
X151500000Y-163500000D02*
X153500000Y-163500000D01*
X151500000Y-165500000D02*
X151500000Y-163500000D01*
X153500000Y-165500000D02*
X151500000Y-165500000D01*
X157500000Y-163500000D02*
X157500000Y-165500000D01*
X155500000Y-163500000D02*
X157500000Y-163500000D01*
X155500000Y-165500000D02*
X155500000Y-163500000D01*
X157500000Y-165500000D02*
X155500000Y-165500000D01*
X161500000Y-163500000D02*
X161500000Y-165500000D01*
X159500000Y-163500000D02*
X161500000Y-163500000D01*
X159500000Y-165500000D02*
X159500000Y-163500000D01*
X161500000Y-165500000D02*
X159500000Y-165500000D01*
X165500000Y-163500000D02*
X165500000Y-165500000D01*
X163500000Y-163500000D02*
X165500000Y-163500000D01*
X163500000Y-165500000D02*
X163500000Y-163500000D01*
X165500000Y-165500000D02*
X163500000Y-165500000D01*
M02*
