G04 #@! TF.FileFunction,Paste,Bot*
%FSLAX46Y46*%
G04 Gerber Fmt 4.6, Leading zero omitted, Abs format (unit mm)*
G04 Created by KiCad (PCBNEW 4.0.4-stable) date 01/17/18 01:50:34*
%MOMM*%
%LPD*%
G01*
G04 APERTURE LIST*
%ADD10C,0.100000*%
%ADD11R,1.600200X1.803400*%
%ADD12R,4.700000X4.500000*%
%ADD13R,4.500000X4.900000*%
%ADD14R,1.000000X3.500000*%
%ADD15R,1.600000X3.400000*%
G04 APERTURE END LIST*
D10*
D11*
X163103000Y-164500000D03*
X165897000Y-164500000D03*
X163103000Y-160500000D03*
X165897000Y-160500000D03*
X163103000Y-156500000D03*
X165897000Y-156500000D03*
X163103000Y-152500000D03*
X165897000Y-152500000D03*
X163103000Y-148500000D03*
X165897000Y-148500000D03*
X163103000Y-144500000D03*
X165897000Y-144500000D03*
X163103000Y-140500000D03*
X165897000Y-140500000D03*
X163103000Y-136500000D03*
X165897000Y-136500000D03*
X163103000Y-132500000D03*
X165897000Y-132500000D03*
X163103000Y-128500000D03*
X165897000Y-128500000D03*
X163103000Y-124500000D03*
X165897000Y-124500000D03*
X163103000Y-120500000D03*
X165897000Y-120500000D03*
X163103000Y-116500000D03*
X165897000Y-116500000D03*
X163103000Y-112500000D03*
X165897000Y-112500000D03*
X163103000Y-108500000D03*
X165897000Y-108500000D03*
X163103000Y-104500000D03*
X165897000Y-104500000D03*
D12*
X127050000Y-162500000D03*
D13*
X121750000Y-169450000D03*
X115700000Y-169450000D03*
D14*
X142750000Y-167925000D03*
X144750000Y-167925000D03*
X146750000Y-167925000D03*
X148750000Y-167925000D03*
D15*
X140350000Y-162375000D03*
X151150000Y-162375000D03*
M02*
