G04 #@! TF.FileFunction,Profile,NP*
%FSLAX46Y46*%
G04 Gerber Fmt 4.6, Leading zero omitted, Abs format (unit mm)*
G04 Created by KiCad (PCBNEW 4.0.7) date 02/28/18 12:52:47*
%MOMM*%
%LPD*%
G01*
G04 APERTURE LIST*
%ADD10C,0.100000*%
G04 APERTURE END LIST*
D10*
X125500000Y-157100000D02*
X115500000Y-157100000D01*
X115000000Y-157600000D02*
G75*
G02X115500000Y-157100000I500000J0D01*
G01*
X115000000Y-157600000D02*
X115000000Y-169499997D01*
X115500000Y-169999997D02*
G75*
G02X115000000Y-169499997I0J500000D01*
G01*
X115500000Y-169999997D02*
X125500000Y-169999997D01*
X172000580Y-100000169D02*
X172000580Y-169000169D01*
X172000580Y-169000169D02*
G75*
G02X169000580Y-172000169I-3000000J0D01*
G01*
X169000580Y-172000169D02*
X100000580Y-172000169D01*
X100000580Y-172000169D02*
G75*
G02X97000580Y-169000169I0J3000000D01*
G01*
X97000580Y-169000169D02*
X97000580Y-100000169D01*
X97000580Y-100000169D02*
G75*
G02X100000580Y-97000169I3000000J0D01*
G01*
X100000580Y-97000169D02*
X169000580Y-97000169D01*
X169000580Y-97000169D02*
G75*
G02X172000580Y-100000169I0J-3000000D01*
G01*
X126000000Y-169499997D02*
G75*
G02X125500000Y-169999997I-500000J0D01*
G01*
X126000000Y-169499997D02*
X126000000Y-157600000D01*
X101600580Y-100000169D02*
G75*
G03X101600580Y-100000169I-1600000J0D01*
G01*
X101600580Y-169000169D02*
G75*
G03X101600580Y-169000169I-1600000J0D01*
G01*
X170600580Y-100000169D02*
G75*
G03X170600580Y-100000169I-1600000J0D01*
G01*
X170600580Y-169000169D02*
G75*
G03X170600580Y-169000169I-1600000J0D01*
G01*
X125500000Y-157100000D02*
G75*
G02X126000000Y-157600000I0J-500000D01*
G01*
M02*
