G04 #@! TF.FileFunction,Copper,L2,Bot,Signal*
%FSLAX46Y46*%
G04 Gerber Fmt 4.6, Leading zero omitted, Abs format (unit mm)*
G04 Created by KiCad (PCBNEW 4.0.4-stable) date 01/17/18 01:46:41*
%MOMM*%
%LPD*%
G01*
G04 APERTURE LIST*
%ADD10C,0.100000*%
%ADD11C,6.000000*%
%ADD12R,2.032000X1.727200*%
%ADD13O,2.032000X1.727200*%
%ADD14O,0.950000X1.250000*%
%ADD15O,1.550000X1.000000*%
%ADD16C,0.600000*%
%ADD17C,0.400000*%
%ADD18C,0.600000*%
%ADD19C,0.254000*%
G04 APERTURE END LIST*
D10*
D11*
X100000000Y-100000000D03*
X100000000Y-169000000D03*
X169000000Y-169000000D03*
D12*
X123680000Y-125170000D03*
D13*
X123680000Y-127710000D03*
X123680000Y-130250000D03*
X123680000Y-132790000D03*
X123680000Y-135330000D03*
X123680000Y-137870000D03*
X123680000Y-140410000D03*
X123680000Y-142950000D03*
X123680000Y-145490000D03*
X123680000Y-148030000D03*
D12*
X121140000Y-125170000D03*
D13*
X121140000Y-127710000D03*
X121140000Y-130250000D03*
X121140000Y-132790000D03*
X121140000Y-135330000D03*
X121140000Y-137870000D03*
X121140000Y-140410000D03*
X121140000Y-142950000D03*
X121140000Y-145490000D03*
X121140000Y-148030000D03*
D12*
X118600000Y-125170000D03*
D13*
X118600000Y-127710000D03*
X118600000Y-130250000D03*
X118600000Y-132790000D03*
X118600000Y-135330000D03*
X118600000Y-137870000D03*
X118600000Y-140410000D03*
X118600000Y-142950000D03*
X118600000Y-145490000D03*
X118600000Y-148030000D03*
D12*
X116060000Y-125170000D03*
D13*
X116060000Y-127710000D03*
X116060000Y-130250000D03*
X116060000Y-132790000D03*
X116060000Y-135330000D03*
X116060000Y-137870000D03*
X116060000Y-140410000D03*
X116060000Y-142950000D03*
X116060000Y-145490000D03*
X116060000Y-148030000D03*
D12*
X113520000Y-125170000D03*
D13*
X113520000Y-127710000D03*
X113520000Y-130250000D03*
X113520000Y-132790000D03*
X113520000Y-135330000D03*
X113520000Y-137870000D03*
X113520000Y-140410000D03*
X113520000Y-142950000D03*
X113520000Y-145490000D03*
X113520000Y-148030000D03*
D12*
X110980000Y-125170000D03*
D13*
X110980000Y-127710000D03*
X110980000Y-130250000D03*
X110980000Y-132790000D03*
X110980000Y-135330000D03*
X110980000Y-137870000D03*
X110980000Y-140410000D03*
X110980000Y-142950000D03*
X110980000Y-145490000D03*
X110980000Y-148030000D03*
D12*
X108440000Y-125170000D03*
D13*
X108440000Y-127710000D03*
X108440000Y-130250000D03*
X108440000Y-132790000D03*
X108440000Y-135330000D03*
X108440000Y-137870000D03*
X108440000Y-140410000D03*
X108440000Y-142950000D03*
X108440000Y-145490000D03*
X108440000Y-148030000D03*
D12*
X105900000Y-125170000D03*
D13*
X105900000Y-127710000D03*
X105900000Y-130250000D03*
X105900000Y-132790000D03*
X105900000Y-135330000D03*
X105900000Y-137870000D03*
X105900000Y-140410000D03*
X105900000Y-142950000D03*
X105900000Y-145490000D03*
X105900000Y-148030000D03*
D12*
X103360000Y-125170000D03*
D13*
X103360000Y-127710000D03*
X103360000Y-130250000D03*
X103360000Y-132790000D03*
X103360000Y-135330000D03*
X103360000Y-137870000D03*
X103360000Y-140410000D03*
X103360000Y-142950000D03*
X103360000Y-145490000D03*
X103360000Y-148030000D03*
D14*
X167037460Y-157800900D03*
X167037460Y-152800900D03*
D15*
X169737460Y-158800900D03*
X169737460Y-151800900D03*
D12*
X127980000Y-120230000D03*
D13*
X127980000Y-122770000D03*
X127980000Y-125310000D03*
X127980000Y-127850000D03*
X127980000Y-130390000D03*
X127980000Y-132930000D03*
X127980000Y-135470000D03*
X127980000Y-138010000D03*
X127980000Y-140550000D03*
X127980000Y-143090000D03*
X127980000Y-145630000D03*
X127980000Y-148170000D03*
D12*
X100820000Y-125170000D03*
D13*
X100820000Y-127710000D03*
X100820000Y-130250000D03*
X100820000Y-132790000D03*
X100820000Y-135330000D03*
X100820000Y-137870000D03*
X100820000Y-140410000D03*
X100820000Y-142950000D03*
X100820000Y-145490000D03*
X100820000Y-148030000D03*
D11*
X169000000Y-100000000D03*
D16*
X98750000Y-112900000D03*
X165250000Y-107450000D03*
X154250000Y-106200000D03*
X165290000Y-118660000D03*
X158350000Y-106310000D03*
X169970000Y-131990000D03*
X170060000Y-136840000D03*
X169110000Y-143250000D03*
X165890000Y-138840000D03*
X157650000Y-139680000D03*
X143650000Y-170120000D03*
X143700000Y-165020000D03*
X141510000Y-126280000D03*
X146917434Y-113962662D03*
X140320000Y-106220000D03*
X135790000Y-106250000D03*
X126740000Y-106610000D03*
X150290000Y-148260000D03*
X150260000Y-145790000D03*
X152800000Y-142370000D03*
X153020000Y-143470000D03*
X157760000Y-145780000D03*
X157820000Y-150620000D03*
X159010000Y-154540000D03*
X165580000Y-153570000D03*
X168410000Y-153990000D03*
X161970000Y-140270000D03*
X160830000Y-138850000D03*
X132212662Y-107532662D03*
X143630000Y-132940000D03*
X149310000Y-138810000D03*
X134110000Y-129780000D03*
X134460011Y-134293271D03*
X160790000Y-121790000D03*
X158520000Y-122460000D03*
D17*
X98750000Y-112900000D02*
X98700000Y-112950000D01*
X98700000Y-112950000D02*
X98700000Y-113200000D01*
X127980000Y-122770000D02*
X129396000Y-122770000D01*
X129396000Y-122770000D02*
X129763338Y-122402662D01*
X129763338Y-122402662D02*
X132212662Y-122402662D01*
X160830000Y-138850000D02*
X160830000Y-139130000D01*
X160830000Y-139130000D02*
X161970000Y-140270000D01*
D18*
X142750000Y-132940000D02*
X132212662Y-122402662D01*
X132212662Y-122402662D02*
X132212662Y-107532662D01*
X143630000Y-132940000D02*
X142750000Y-132940000D01*
X149310000Y-138810000D02*
X143630000Y-133130000D01*
X143630000Y-133130000D02*
X143630000Y-132940000D01*
D17*
X133060000Y-141710000D02*
X132112400Y-141710000D01*
X132112400Y-141710000D02*
X128172400Y-145650000D01*
X128172400Y-145650000D02*
X128020000Y-145650000D01*
X133810001Y-140959999D02*
X133060000Y-141710000D01*
X133810001Y-130079999D02*
X133810001Y-140959999D01*
X134110000Y-129780000D02*
X133810001Y-130079999D01*
X128172400Y-148190000D02*
X134460011Y-141902389D01*
X134460011Y-141902389D02*
X134460011Y-134717535D01*
X128020000Y-148190000D02*
X128172400Y-148190000D01*
X134460011Y-134717535D02*
X134460011Y-134293271D01*
X158520000Y-122460000D02*
X160120000Y-122460000D01*
X160120000Y-122460000D02*
X160790000Y-121790000D01*
D19*
G36*
X136948617Y-105068230D02*
X136957055Y-105113749D01*
X136984105Y-105156290D01*
X137025575Y-105184955D01*
X137074930Y-105195228D01*
X157419725Y-105305228D01*
X157467098Y-105296338D01*
X157509370Y-105268869D01*
X157537625Y-105227118D01*
X157547411Y-105177664D01*
X157512420Y-97327169D01*
X167039073Y-97327169D01*
X166223515Y-98141305D01*
X165723570Y-99345305D01*
X165722433Y-100648976D01*
X166220275Y-101853846D01*
X167141305Y-102776485D01*
X168345305Y-103276430D01*
X169648976Y-103277567D01*
X170853846Y-102779725D01*
X171673580Y-101961421D01*
X171673580Y-167039824D01*
X170858695Y-166223515D01*
X169654695Y-165723570D01*
X168351024Y-165722433D01*
X167146154Y-166220275D01*
X166223515Y-167141305D01*
X165723570Y-168345305D01*
X165722433Y-169648976D01*
X166220275Y-170853846D01*
X167038169Y-171673169D01*
X101960588Y-171673169D01*
X102776485Y-170858695D01*
X103276430Y-169654695D01*
X103277567Y-168351024D01*
X102779725Y-167146154D01*
X101858695Y-166223515D01*
X100654695Y-165723570D01*
X99351024Y-165722433D01*
X98146154Y-166220275D01*
X97327580Y-167037421D01*
X97327580Y-157600000D01*
X114673000Y-157600000D01*
X114673000Y-169499997D01*
X114679283Y-169531584D01*
X114679283Y-169563791D01*
X114717343Y-169755133D01*
X114717343Y-169755136D01*
X114766170Y-169873012D01*
X114874557Y-170035223D01*
X114919666Y-170080331D01*
X114964774Y-170125440D01*
X115126985Y-170233827D01*
X115244861Y-170282653D01*
X115244862Y-170282653D01*
X115244864Y-170282654D01*
X115436206Y-170320714D01*
X115468413Y-170320714D01*
X115500000Y-170326997D01*
X125500000Y-170326997D01*
X125531587Y-170320714D01*
X125563794Y-170320714D01*
X125755137Y-170282654D01*
X125755139Y-170282654D01*
X125873015Y-170233827D01*
X126035226Y-170125440D01*
X126080334Y-170080331D01*
X126125443Y-170035223D01*
X126233830Y-169873012D01*
X126282656Y-169755136D01*
X126282656Y-169755135D01*
X126282657Y-169755133D01*
X126320717Y-169563791D01*
X126320717Y-169531584D01*
X126327000Y-169499997D01*
X126327000Y-158800900D01*
X168664850Y-158800900D01*
X168723996Y-159098245D01*
X168892428Y-159350322D01*
X169144505Y-159518754D01*
X169441850Y-159577900D01*
X170033070Y-159577900D01*
X170330415Y-159518754D01*
X170582492Y-159350322D01*
X170750924Y-159098245D01*
X170810070Y-158800900D01*
X170750924Y-158503555D01*
X170582492Y-158251478D01*
X170330415Y-158083046D01*
X170033070Y-158023900D01*
X169441850Y-158023900D01*
X169144505Y-158083046D01*
X168892428Y-158251478D01*
X168723996Y-158503555D01*
X168664850Y-158800900D01*
X126327000Y-158800900D01*
X126327000Y-157633229D01*
X166285460Y-157633229D01*
X166285460Y-157968571D01*
X166342703Y-158256349D01*
X166505716Y-158500315D01*
X166749682Y-158663328D01*
X167037460Y-158720571D01*
X167325238Y-158663328D01*
X167569204Y-158500315D01*
X167732217Y-158256349D01*
X167789460Y-157968571D01*
X167789460Y-157633229D01*
X167732217Y-157345451D01*
X167569204Y-157101485D01*
X167325238Y-156938472D01*
X167037460Y-156881229D01*
X166749682Y-156938472D01*
X166505716Y-157101485D01*
X166342703Y-157345451D01*
X166285460Y-157633229D01*
X126327000Y-157633229D01*
X126327000Y-157600000D01*
X126320717Y-157568413D01*
X126320717Y-157536206D01*
X126282657Y-157344864D01*
X126233831Y-157226987D01*
X126233830Y-157226986D01*
X126233830Y-157226985D01*
X126125443Y-157064774D01*
X126080334Y-157019666D01*
X126035226Y-156974557D01*
X125873015Y-156866170D01*
X125755139Y-156817343D01*
X125755137Y-156817343D01*
X125563794Y-156779283D01*
X125531587Y-156779283D01*
X125500000Y-156773000D01*
X115500000Y-156773000D01*
X115468413Y-156779283D01*
X115436206Y-156779283D01*
X115244864Y-156817343D01*
X115244862Y-156817344D01*
X115244861Y-156817344D01*
X115126985Y-156866170D01*
X114964774Y-156974557D01*
X114919666Y-157019666D01*
X114874557Y-157064774D01*
X114766170Y-157226985D01*
X114717343Y-157344861D01*
X114717343Y-157344863D01*
X114679283Y-157536206D01*
X114679283Y-157568413D01*
X114673000Y-157600000D01*
X97327580Y-157600000D01*
X97327580Y-152633229D01*
X166285460Y-152633229D01*
X166285460Y-152968571D01*
X166342703Y-153256349D01*
X166505716Y-153500315D01*
X166749682Y-153663328D01*
X167037460Y-153720571D01*
X167325238Y-153663328D01*
X167569204Y-153500315D01*
X167732217Y-153256349D01*
X167789460Y-152968571D01*
X167789460Y-152633229D01*
X167732217Y-152345451D01*
X167569204Y-152101485D01*
X167325238Y-151938472D01*
X167037460Y-151881229D01*
X166749682Y-151938472D01*
X166505716Y-152101485D01*
X166342703Y-152345451D01*
X166285460Y-152633229D01*
X97327580Y-152633229D01*
X97327580Y-151800900D01*
X168664850Y-151800900D01*
X168723996Y-152098245D01*
X168892428Y-152350322D01*
X169144505Y-152518754D01*
X169441850Y-152577900D01*
X170033070Y-152577900D01*
X170330415Y-152518754D01*
X170582492Y-152350322D01*
X170750924Y-152098245D01*
X170810070Y-151800900D01*
X170750924Y-151503555D01*
X170582492Y-151251478D01*
X170330415Y-151083046D01*
X170033070Y-151023900D01*
X169441850Y-151023900D01*
X169144505Y-151083046D01*
X168892428Y-151251478D01*
X168723996Y-151503555D01*
X168664850Y-151800900D01*
X97327580Y-151800900D01*
X97327580Y-148030000D01*
X99501669Y-148030000D01*
X99588492Y-148466489D01*
X99835743Y-148836526D01*
X100205780Y-149083777D01*
X100642269Y-149170600D01*
X100997731Y-149170600D01*
X101434220Y-149083777D01*
X101804257Y-148836526D01*
X102051508Y-148466489D01*
X102090000Y-148272977D01*
X102128492Y-148466489D01*
X102375743Y-148836526D01*
X102745780Y-149083777D01*
X103182269Y-149170600D01*
X103537731Y-149170600D01*
X103974220Y-149083777D01*
X104344257Y-148836526D01*
X104591508Y-148466489D01*
X104630000Y-148272977D01*
X104668492Y-148466489D01*
X104915743Y-148836526D01*
X105285780Y-149083777D01*
X105722269Y-149170600D01*
X106077731Y-149170600D01*
X106514220Y-149083777D01*
X106884257Y-148836526D01*
X107131508Y-148466489D01*
X107170000Y-148272977D01*
X107208492Y-148466489D01*
X107455743Y-148836526D01*
X107825780Y-149083777D01*
X108262269Y-149170600D01*
X108617731Y-149170600D01*
X109054220Y-149083777D01*
X109424257Y-148836526D01*
X109671508Y-148466489D01*
X109710000Y-148272977D01*
X109748492Y-148466489D01*
X109995743Y-148836526D01*
X110365780Y-149083777D01*
X110802269Y-149170600D01*
X111157731Y-149170600D01*
X111594220Y-149083777D01*
X111964257Y-148836526D01*
X112211508Y-148466489D01*
X112250000Y-148272977D01*
X112288492Y-148466489D01*
X112535743Y-148836526D01*
X112905780Y-149083777D01*
X113342269Y-149170600D01*
X113697731Y-149170600D01*
X114134220Y-149083777D01*
X114504257Y-148836526D01*
X114751508Y-148466489D01*
X114790000Y-148272977D01*
X114828492Y-148466489D01*
X115075743Y-148836526D01*
X115445780Y-149083777D01*
X115882269Y-149170600D01*
X116237731Y-149170600D01*
X116674220Y-149083777D01*
X117044257Y-148836526D01*
X117291508Y-148466489D01*
X117330000Y-148272977D01*
X117368492Y-148466489D01*
X117615743Y-148836526D01*
X117985780Y-149083777D01*
X118422269Y-149170600D01*
X118777731Y-149170600D01*
X119214220Y-149083777D01*
X119584257Y-148836526D01*
X119831508Y-148466489D01*
X119870000Y-148272977D01*
X119908492Y-148466489D01*
X120155743Y-148836526D01*
X120525780Y-149083777D01*
X120962269Y-149170600D01*
X121317731Y-149170600D01*
X121754220Y-149083777D01*
X122124257Y-148836526D01*
X122371508Y-148466489D01*
X122410000Y-148272977D01*
X122448492Y-148466489D01*
X122695743Y-148836526D01*
X123065780Y-149083777D01*
X123502269Y-149170600D01*
X123857731Y-149170600D01*
X124294220Y-149083777D01*
X124664257Y-148836526D01*
X124911508Y-148466489D01*
X124998331Y-148030000D01*
X124911508Y-147593511D01*
X124664257Y-147223474D01*
X124294220Y-146976223D01*
X123857731Y-146889400D01*
X123502269Y-146889400D01*
X123065780Y-146976223D01*
X122695743Y-147223474D01*
X122448492Y-147593511D01*
X122410000Y-147787023D01*
X122371508Y-147593511D01*
X122124257Y-147223474D01*
X121754220Y-146976223D01*
X121317731Y-146889400D01*
X120962269Y-146889400D01*
X120525780Y-146976223D01*
X120155743Y-147223474D01*
X119908492Y-147593511D01*
X119870000Y-147787023D01*
X119831508Y-147593511D01*
X119584257Y-147223474D01*
X119214220Y-146976223D01*
X118777731Y-146889400D01*
X118422269Y-146889400D01*
X117985780Y-146976223D01*
X117615743Y-147223474D01*
X117368492Y-147593511D01*
X117330000Y-147787023D01*
X117291508Y-147593511D01*
X117044257Y-147223474D01*
X116674220Y-146976223D01*
X116237731Y-146889400D01*
X115882269Y-146889400D01*
X115445780Y-146976223D01*
X115075743Y-147223474D01*
X114828492Y-147593511D01*
X114790000Y-147787023D01*
X114751508Y-147593511D01*
X114504257Y-147223474D01*
X114134220Y-146976223D01*
X113697731Y-146889400D01*
X113342269Y-146889400D01*
X112905780Y-146976223D01*
X112535743Y-147223474D01*
X112288492Y-147593511D01*
X112250000Y-147787023D01*
X112211508Y-147593511D01*
X111964257Y-147223474D01*
X111594220Y-146976223D01*
X111157731Y-146889400D01*
X110802269Y-146889400D01*
X110365780Y-146976223D01*
X109995743Y-147223474D01*
X109748492Y-147593511D01*
X109710000Y-147787023D01*
X109671508Y-147593511D01*
X109424257Y-147223474D01*
X109054220Y-146976223D01*
X108617731Y-146889400D01*
X108262269Y-146889400D01*
X107825780Y-146976223D01*
X107455743Y-147223474D01*
X107208492Y-147593511D01*
X107170000Y-147787023D01*
X107131508Y-147593511D01*
X106884257Y-147223474D01*
X106514220Y-146976223D01*
X106077731Y-146889400D01*
X105722269Y-146889400D01*
X105285780Y-146976223D01*
X104915743Y-147223474D01*
X104668492Y-147593511D01*
X104630000Y-147787023D01*
X104591508Y-147593511D01*
X104344257Y-147223474D01*
X103974220Y-146976223D01*
X103537731Y-146889400D01*
X103182269Y-146889400D01*
X102745780Y-146976223D01*
X102375743Y-147223474D01*
X102128492Y-147593511D01*
X102090000Y-147787023D01*
X102051508Y-147593511D01*
X101804257Y-147223474D01*
X101434220Y-146976223D01*
X100997731Y-146889400D01*
X100642269Y-146889400D01*
X100205780Y-146976223D01*
X99835743Y-147223474D01*
X99588492Y-147593511D01*
X99501669Y-148030000D01*
X97327580Y-148030000D01*
X97327580Y-145490000D01*
X99501669Y-145490000D01*
X99588492Y-145926489D01*
X99835743Y-146296526D01*
X100205780Y-146543777D01*
X100642269Y-146630600D01*
X100997731Y-146630600D01*
X101434220Y-146543777D01*
X101804257Y-146296526D01*
X102051508Y-145926489D01*
X102090000Y-145732977D01*
X102128492Y-145926489D01*
X102375743Y-146296526D01*
X102745780Y-146543777D01*
X103182269Y-146630600D01*
X103537731Y-146630600D01*
X103974220Y-146543777D01*
X104344257Y-146296526D01*
X104591508Y-145926489D01*
X104630000Y-145732977D01*
X104668492Y-145926489D01*
X104915743Y-146296526D01*
X105285780Y-146543777D01*
X105722269Y-146630600D01*
X106077731Y-146630600D01*
X106514220Y-146543777D01*
X106884257Y-146296526D01*
X107131508Y-145926489D01*
X107170000Y-145732977D01*
X107208492Y-145926489D01*
X107455743Y-146296526D01*
X107825780Y-146543777D01*
X108262269Y-146630600D01*
X108617731Y-146630600D01*
X109054220Y-146543777D01*
X109424257Y-146296526D01*
X109671508Y-145926489D01*
X109710000Y-145732977D01*
X109748492Y-145926489D01*
X109995743Y-146296526D01*
X110365780Y-146543777D01*
X110802269Y-146630600D01*
X111157731Y-146630600D01*
X111594220Y-146543777D01*
X111964257Y-146296526D01*
X112211508Y-145926489D01*
X112250000Y-145732977D01*
X112288492Y-145926489D01*
X112535743Y-146296526D01*
X112905780Y-146543777D01*
X113342269Y-146630600D01*
X113697731Y-146630600D01*
X114134220Y-146543777D01*
X114504257Y-146296526D01*
X114751508Y-145926489D01*
X114790000Y-145732977D01*
X114828492Y-145926489D01*
X115075743Y-146296526D01*
X115445780Y-146543777D01*
X115882269Y-146630600D01*
X116237731Y-146630600D01*
X116674220Y-146543777D01*
X117044257Y-146296526D01*
X117291508Y-145926489D01*
X117330000Y-145732977D01*
X117368492Y-145926489D01*
X117615743Y-146296526D01*
X117985780Y-146543777D01*
X118422269Y-146630600D01*
X118777731Y-146630600D01*
X119214220Y-146543777D01*
X119584257Y-146296526D01*
X119831508Y-145926489D01*
X119870000Y-145732977D01*
X119908492Y-145926489D01*
X120155743Y-146296526D01*
X120525780Y-146543777D01*
X120962269Y-146630600D01*
X121317731Y-146630600D01*
X121754220Y-146543777D01*
X122124257Y-146296526D01*
X122371508Y-145926489D01*
X122410000Y-145732977D01*
X122448492Y-145926489D01*
X122695743Y-146296526D01*
X123065780Y-146543777D01*
X123502269Y-146630600D01*
X123857731Y-146630600D01*
X124294220Y-146543777D01*
X124664257Y-146296526D01*
X124911508Y-145926489D01*
X124970483Y-145630000D01*
X126661669Y-145630000D01*
X126748492Y-146066489D01*
X126995743Y-146436526D01*
X127365780Y-146683777D01*
X127802269Y-146770600D01*
X128157731Y-146770600D01*
X128594220Y-146683777D01*
X128964257Y-146436526D01*
X129211508Y-146066489D01*
X129298331Y-145630000D01*
X129226765Y-145270215D01*
X132309980Y-142187000D01*
X133060000Y-142187000D01*
X133242540Y-142150691D01*
X133397290Y-142047290D01*
X133983011Y-141461569D01*
X133983011Y-141704809D01*
X128575350Y-147112470D01*
X128157731Y-147029400D01*
X127802269Y-147029400D01*
X127365780Y-147116223D01*
X126995743Y-147363474D01*
X126748492Y-147733511D01*
X126661669Y-148170000D01*
X126748492Y-148606489D01*
X126995743Y-148976526D01*
X127365780Y-149223777D01*
X127802269Y-149310600D01*
X128157731Y-149310600D01*
X128594220Y-149223777D01*
X128964257Y-148976526D01*
X129211508Y-148606489D01*
X129298331Y-148170000D01*
X129226765Y-147810215D01*
X134797301Y-142239679D01*
X134900702Y-142084929D01*
X134937011Y-141902389D01*
X134937011Y-134632392D01*
X134948882Y-134620542D01*
X135036911Y-134408547D01*
X135037111Y-134179002D01*
X134949453Y-133966854D01*
X134787282Y-133804400D01*
X134575287Y-133716371D01*
X134345742Y-133716171D01*
X134287001Y-133740442D01*
X134287001Y-130331180D01*
X134436417Y-130269442D01*
X134598871Y-130107271D01*
X134686900Y-129895276D01*
X134687100Y-129665731D01*
X134599442Y-129453583D01*
X134437271Y-129291129D01*
X134225276Y-129203100D01*
X133995731Y-129202900D01*
X133783583Y-129290558D01*
X133621129Y-129452729D01*
X133533100Y-129664724D01*
X133533085Y-129682335D01*
X133472711Y-129742709D01*
X133369310Y-129897459D01*
X133333001Y-130079999D01*
X133333001Y-140762419D01*
X132862420Y-141233000D01*
X132112400Y-141233000D01*
X131929859Y-141269309D01*
X131775110Y-141372710D01*
X128575350Y-144572470D01*
X128157731Y-144489400D01*
X127802269Y-144489400D01*
X127365780Y-144576223D01*
X126995743Y-144823474D01*
X126748492Y-145193511D01*
X126661669Y-145630000D01*
X124970483Y-145630000D01*
X124998331Y-145490000D01*
X124911508Y-145053511D01*
X124664257Y-144683474D01*
X124294220Y-144436223D01*
X123857731Y-144349400D01*
X123502269Y-144349400D01*
X123065780Y-144436223D01*
X122695743Y-144683474D01*
X122448492Y-145053511D01*
X122410000Y-145247023D01*
X122371508Y-145053511D01*
X122124257Y-144683474D01*
X121754220Y-144436223D01*
X121317731Y-144349400D01*
X120962269Y-144349400D01*
X120525780Y-144436223D01*
X120155743Y-144683474D01*
X119908492Y-145053511D01*
X119870000Y-145247023D01*
X119831508Y-145053511D01*
X119584257Y-144683474D01*
X119214220Y-144436223D01*
X118777731Y-144349400D01*
X118422269Y-144349400D01*
X117985780Y-144436223D01*
X117615743Y-144683474D01*
X117368492Y-145053511D01*
X117330000Y-145247023D01*
X117291508Y-145053511D01*
X117044257Y-144683474D01*
X116674220Y-144436223D01*
X116237731Y-144349400D01*
X115882269Y-144349400D01*
X115445780Y-144436223D01*
X115075743Y-144683474D01*
X114828492Y-145053511D01*
X114790000Y-145247023D01*
X114751508Y-145053511D01*
X114504257Y-144683474D01*
X114134220Y-144436223D01*
X113697731Y-144349400D01*
X113342269Y-144349400D01*
X112905780Y-144436223D01*
X112535743Y-144683474D01*
X112288492Y-145053511D01*
X112250000Y-145247023D01*
X112211508Y-145053511D01*
X111964257Y-144683474D01*
X111594220Y-144436223D01*
X111157731Y-144349400D01*
X110802269Y-144349400D01*
X110365780Y-144436223D01*
X109995743Y-144683474D01*
X109748492Y-145053511D01*
X109710000Y-145247023D01*
X109671508Y-145053511D01*
X109424257Y-144683474D01*
X109054220Y-144436223D01*
X108617731Y-144349400D01*
X108262269Y-144349400D01*
X107825780Y-144436223D01*
X107455743Y-144683474D01*
X107208492Y-145053511D01*
X107170000Y-145247023D01*
X107131508Y-145053511D01*
X106884257Y-144683474D01*
X106514220Y-144436223D01*
X106077731Y-144349400D01*
X105722269Y-144349400D01*
X105285780Y-144436223D01*
X104915743Y-144683474D01*
X104668492Y-145053511D01*
X104630000Y-145247023D01*
X104591508Y-145053511D01*
X104344257Y-144683474D01*
X103974220Y-144436223D01*
X103537731Y-144349400D01*
X103182269Y-144349400D01*
X102745780Y-144436223D01*
X102375743Y-144683474D01*
X102128492Y-145053511D01*
X102090000Y-145247023D01*
X102051508Y-145053511D01*
X101804257Y-144683474D01*
X101434220Y-144436223D01*
X100997731Y-144349400D01*
X100642269Y-144349400D01*
X100205780Y-144436223D01*
X99835743Y-144683474D01*
X99588492Y-145053511D01*
X99501669Y-145490000D01*
X97327580Y-145490000D01*
X97327580Y-142950000D01*
X99501669Y-142950000D01*
X99588492Y-143386489D01*
X99835743Y-143756526D01*
X100205780Y-144003777D01*
X100642269Y-144090600D01*
X100997731Y-144090600D01*
X101434220Y-144003777D01*
X101804257Y-143756526D01*
X102051508Y-143386489D01*
X102090000Y-143192977D01*
X102128492Y-143386489D01*
X102375743Y-143756526D01*
X102745780Y-144003777D01*
X103182269Y-144090600D01*
X103537731Y-144090600D01*
X103974220Y-144003777D01*
X104344257Y-143756526D01*
X104591508Y-143386489D01*
X104630000Y-143192977D01*
X104668492Y-143386489D01*
X104915743Y-143756526D01*
X105285780Y-144003777D01*
X105722269Y-144090600D01*
X106077731Y-144090600D01*
X106514220Y-144003777D01*
X106884257Y-143756526D01*
X107131508Y-143386489D01*
X107170000Y-143192977D01*
X107208492Y-143386489D01*
X107455743Y-143756526D01*
X107825780Y-144003777D01*
X108262269Y-144090600D01*
X108617731Y-144090600D01*
X109054220Y-144003777D01*
X109424257Y-143756526D01*
X109671508Y-143386489D01*
X109710000Y-143192977D01*
X109748492Y-143386489D01*
X109995743Y-143756526D01*
X110365780Y-144003777D01*
X110802269Y-144090600D01*
X111157731Y-144090600D01*
X111594220Y-144003777D01*
X111964257Y-143756526D01*
X112211508Y-143386489D01*
X112250000Y-143192977D01*
X112288492Y-143386489D01*
X112535743Y-143756526D01*
X112905780Y-144003777D01*
X113342269Y-144090600D01*
X113697731Y-144090600D01*
X114134220Y-144003777D01*
X114504257Y-143756526D01*
X114751508Y-143386489D01*
X114790000Y-143192977D01*
X114828492Y-143386489D01*
X115075743Y-143756526D01*
X115445780Y-144003777D01*
X115882269Y-144090600D01*
X116237731Y-144090600D01*
X116674220Y-144003777D01*
X117044257Y-143756526D01*
X117291508Y-143386489D01*
X117330000Y-143192977D01*
X117368492Y-143386489D01*
X117615743Y-143756526D01*
X117985780Y-144003777D01*
X118422269Y-144090600D01*
X118777731Y-144090600D01*
X119214220Y-144003777D01*
X119584257Y-143756526D01*
X119831508Y-143386489D01*
X119870000Y-143192977D01*
X119908492Y-143386489D01*
X120155743Y-143756526D01*
X120525780Y-144003777D01*
X120962269Y-144090600D01*
X121317731Y-144090600D01*
X121754220Y-144003777D01*
X122124257Y-143756526D01*
X122371508Y-143386489D01*
X122410000Y-143192977D01*
X122448492Y-143386489D01*
X122695743Y-143756526D01*
X123065780Y-144003777D01*
X123502269Y-144090600D01*
X123857731Y-144090600D01*
X124294220Y-144003777D01*
X124664257Y-143756526D01*
X124911508Y-143386489D01*
X124970483Y-143090000D01*
X126661669Y-143090000D01*
X126748492Y-143526489D01*
X126995743Y-143896526D01*
X127365780Y-144143777D01*
X127802269Y-144230600D01*
X128157731Y-144230600D01*
X128594220Y-144143777D01*
X128964257Y-143896526D01*
X129211508Y-143526489D01*
X129298331Y-143090000D01*
X129211508Y-142653511D01*
X128964257Y-142283474D01*
X128594220Y-142036223D01*
X128157731Y-141949400D01*
X127802269Y-141949400D01*
X127365780Y-142036223D01*
X126995743Y-142283474D01*
X126748492Y-142653511D01*
X126661669Y-143090000D01*
X124970483Y-143090000D01*
X124998331Y-142950000D01*
X124911508Y-142513511D01*
X124664257Y-142143474D01*
X124294220Y-141896223D01*
X123857731Y-141809400D01*
X123502269Y-141809400D01*
X123065780Y-141896223D01*
X122695743Y-142143474D01*
X122448492Y-142513511D01*
X122410000Y-142707023D01*
X122371508Y-142513511D01*
X122124257Y-142143474D01*
X121754220Y-141896223D01*
X121317731Y-141809400D01*
X120962269Y-141809400D01*
X120525780Y-141896223D01*
X120155743Y-142143474D01*
X119908492Y-142513511D01*
X119870000Y-142707023D01*
X119831508Y-142513511D01*
X119584257Y-142143474D01*
X119214220Y-141896223D01*
X118777731Y-141809400D01*
X118422269Y-141809400D01*
X117985780Y-141896223D01*
X117615743Y-142143474D01*
X117368492Y-142513511D01*
X117330000Y-142707023D01*
X117291508Y-142513511D01*
X117044257Y-142143474D01*
X116674220Y-141896223D01*
X116237731Y-141809400D01*
X115882269Y-141809400D01*
X115445780Y-141896223D01*
X115075743Y-142143474D01*
X114828492Y-142513511D01*
X114790000Y-142707023D01*
X114751508Y-142513511D01*
X114504257Y-142143474D01*
X114134220Y-141896223D01*
X113697731Y-141809400D01*
X113342269Y-141809400D01*
X112905780Y-141896223D01*
X112535743Y-142143474D01*
X112288492Y-142513511D01*
X112250000Y-142707023D01*
X112211508Y-142513511D01*
X111964257Y-142143474D01*
X111594220Y-141896223D01*
X111157731Y-141809400D01*
X110802269Y-141809400D01*
X110365780Y-141896223D01*
X109995743Y-142143474D01*
X109748492Y-142513511D01*
X109710000Y-142707023D01*
X109671508Y-142513511D01*
X109424257Y-142143474D01*
X109054220Y-141896223D01*
X108617731Y-141809400D01*
X108262269Y-141809400D01*
X107825780Y-141896223D01*
X107455743Y-142143474D01*
X107208492Y-142513511D01*
X107170000Y-142707023D01*
X107131508Y-142513511D01*
X106884257Y-142143474D01*
X106514220Y-141896223D01*
X106077731Y-141809400D01*
X105722269Y-141809400D01*
X105285780Y-141896223D01*
X104915743Y-142143474D01*
X104668492Y-142513511D01*
X104630000Y-142707023D01*
X104591508Y-142513511D01*
X104344257Y-142143474D01*
X103974220Y-141896223D01*
X103537731Y-141809400D01*
X103182269Y-141809400D01*
X102745780Y-141896223D01*
X102375743Y-142143474D01*
X102128492Y-142513511D01*
X102090000Y-142707023D01*
X102051508Y-142513511D01*
X101804257Y-142143474D01*
X101434220Y-141896223D01*
X100997731Y-141809400D01*
X100642269Y-141809400D01*
X100205780Y-141896223D01*
X99835743Y-142143474D01*
X99588492Y-142513511D01*
X99501669Y-142950000D01*
X97327580Y-142950000D01*
X97327580Y-140410000D01*
X99501669Y-140410000D01*
X99588492Y-140846489D01*
X99835743Y-141216526D01*
X100205780Y-141463777D01*
X100642269Y-141550600D01*
X100997731Y-141550600D01*
X101434220Y-141463777D01*
X101804257Y-141216526D01*
X102051508Y-140846489D01*
X102090000Y-140652977D01*
X102128492Y-140846489D01*
X102375743Y-141216526D01*
X102745780Y-141463777D01*
X103182269Y-141550600D01*
X103537731Y-141550600D01*
X103974220Y-141463777D01*
X104344257Y-141216526D01*
X104591508Y-140846489D01*
X104630000Y-140652977D01*
X104668492Y-140846489D01*
X104915743Y-141216526D01*
X105285780Y-141463777D01*
X105722269Y-141550600D01*
X106077731Y-141550600D01*
X106514220Y-141463777D01*
X106884257Y-141216526D01*
X107131508Y-140846489D01*
X107170000Y-140652977D01*
X107208492Y-140846489D01*
X107455743Y-141216526D01*
X107825780Y-141463777D01*
X108262269Y-141550600D01*
X108617731Y-141550600D01*
X109054220Y-141463777D01*
X109424257Y-141216526D01*
X109671508Y-140846489D01*
X109710000Y-140652977D01*
X109748492Y-140846489D01*
X109995743Y-141216526D01*
X110365780Y-141463777D01*
X110802269Y-141550600D01*
X111157731Y-141550600D01*
X111594220Y-141463777D01*
X111964257Y-141216526D01*
X112211508Y-140846489D01*
X112250000Y-140652977D01*
X112288492Y-140846489D01*
X112535743Y-141216526D01*
X112905780Y-141463777D01*
X113342269Y-141550600D01*
X113697731Y-141550600D01*
X114134220Y-141463777D01*
X114504257Y-141216526D01*
X114751508Y-140846489D01*
X114790000Y-140652977D01*
X114828492Y-140846489D01*
X115075743Y-141216526D01*
X115445780Y-141463777D01*
X115882269Y-141550600D01*
X116237731Y-141550600D01*
X116674220Y-141463777D01*
X117044257Y-141216526D01*
X117291508Y-140846489D01*
X117330000Y-140652977D01*
X117368492Y-140846489D01*
X117615743Y-141216526D01*
X117985780Y-141463777D01*
X118422269Y-141550600D01*
X118777731Y-141550600D01*
X119214220Y-141463777D01*
X119584257Y-141216526D01*
X119831508Y-140846489D01*
X119870000Y-140652977D01*
X119908492Y-140846489D01*
X120155743Y-141216526D01*
X120525780Y-141463777D01*
X120962269Y-141550600D01*
X121317731Y-141550600D01*
X121754220Y-141463777D01*
X122124257Y-141216526D01*
X122371508Y-140846489D01*
X122410000Y-140652977D01*
X122448492Y-140846489D01*
X122695743Y-141216526D01*
X123065780Y-141463777D01*
X123502269Y-141550600D01*
X123857731Y-141550600D01*
X124294220Y-141463777D01*
X124664257Y-141216526D01*
X124911508Y-140846489D01*
X124970483Y-140550000D01*
X126661669Y-140550000D01*
X126748492Y-140986489D01*
X126995743Y-141356526D01*
X127365780Y-141603777D01*
X127802269Y-141690600D01*
X128157731Y-141690600D01*
X128594220Y-141603777D01*
X128964257Y-141356526D01*
X129211508Y-140986489D01*
X129298331Y-140550000D01*
X129211508Y-140113511D01*
X128964257Y-139743474D01*
X128594220Y-139496223D01*
X128157731Y-139409400D01*
X127802269Y-139409400D01*
X127365780Y-139496223D01*
X126995743Y-139743474D01*
X126748492Y-140113511D01*
X126661669Y-140550000D01*
X124970483Y-140550000D01*
X124998331Y-140410000D01*
X124911508Y-139973511D01*
X124664257Y-139603474D01*
X124294220Y-139356223D01*
X123857731Y-139269400D01*
X123502269Y-139269400D01*
X123065780Y-139356223D01*
X122695743Y-139603474D01*
X122448492Y-139973511D01*
X122410000Y-140167023D01*
X122371508Y-139973511D01*
X122124257Y-139603474D01*
X121754220Y-139356223D01*
X121317731Y-139269400D01*
X120962269Y-139269400D01*
X120525780Y-139356223D01*
X120155743Y-139603474D01*
X119908492Y-139973511D01*
X119870000Y-140167023D01*
X119831508Y-139973511D01*
X119584257Y-139603474D01*
X119214220Y-139356223D01*
X118777731Y-139269400D01*
X118422269Y-139269400D01*
X117985780Y-139356223D01*
X117615743Y-139603474D01*
X117368492Y-139973511D01*
X117330000Y-140167023D01*
X117291508Y-139973511D01*
X117044257Y-139603474D01*
X116674220Y-139356223D01*
X116237731Y-139269400D01*
X115882269Y-139269400D01*
X115445780Y-139356223D01*
X115075743Y-139603474D01*
X114828492Y-139973511D01*
X114790000Y-140167023D01*
X114751508Y-139973511D01*
X114504257Y-139603474D01*
X114134220Y-139356223D01*
X113697731Y-139269400D01*
X113342269Y-139269400D01*
X112905780Y-139356223D01*
X112535743Y-139603474D01*
X112288492Y-139973511D01*
X112250000Y-140167023D01*
X112211508Y-139973511D01*
X111964257Y-139603474D01*
X111594220Y-139356223D01*
X111157731Y-139269400D01*
X110802269Y-139269400D01*
X110365780Y-139356223D01*
X109995743Y-139603474D01*
X109748492Y-139973511D01*
X109710000Y-140167023D01*
X109671508Y-139973511D01*
X109424257Y-139603474D01*
X109054220Y-139356223D01*
X108617731Y-139269400D01*
X108262269Y-139269400D01*
X107825780Y-139356223D01*
X107455743Y-139603474D01*
X107208492Y-139973511D01*
X107170000Y-140167023D01*
X107131508Y-139973511D01*
X106884257Y-139603474D01*
X106514220Y-139356223D01*
X106077731Y-139269400D01*
X105722269Y-139269400D01*
X105285780Y-139356223D01*
X104915743Y-139603474D01*
X104668492Y-139973511D01*
X104630000Y-140167023D01*
X104591508Y-139973511D01*
X104344257Y-139603474D01*
X103974220Y-139356223D01*
X103537731Y-139269400D01*
X103182269Y-139269400D01*
X102745780Y-139356223D01*
X102375743Y-139603474D01*
X102128492Y-139973511D01*
X102090000Y-140167023D01*
X102051508Y-139973511D01*
X101804257Y-139603474D01*
X101434220Y-139356223D01*
X100997731Y-139269400D01*
X100642269Y-139269400D01*
X100205780Y-139356223D01*
X99835743Y-139603474D01*
X99588492Y-139973511D01*
X99501669Y-140410000D01*
X97327580Y-140410000D01*
X97327580Y-137870000D01*
X99501669Y-137870000D01*
X99588492Y-138306489D01*
X99835743Y-138676526D01*
X100205780Y-138923777D01*
X100642269Y-139010600D01*
X100997731Y-139010600D01*
X101434220Y-138923777D01*
X101804257Y-138676526D01*
X102051508Y-138306489D01*
X102090000Y-138112977D01*
X102128492Y-138306489D01*
X102375743Y-138676526D01*
X102745780Y-138923777D01*
X103182269Y-139010600D01*
X103537731Y-139010600D01*
X103974220Y-138923777D01*
X104344257Y-138676526D01*
X104591508Y-138306489D01*
X104630000Y-138112977D01*
X104668492Y-138306489D01*
X104915743Y-138676526D01*
X105285780Y-138923777D01*
X105722269Y-139010600D01*
X106077731Y-139010600D01*
X106514220Y-138923777D01*
X106884257Y-138676526D01*
X107131508Y-138306489D01*
X107170000Y-138112977D01*
X107208492Y-138306489D01*
X107455743Y-138676526D01*
X107825780Y-138923777D01*
X108262269Y-139010600D01*
X108617731Y-139010600D01*
X109054220Y-138923777D01*
X109424257Y-138676526D01*
X109671508Y-138306489D01*
X109710000Y-138112977D01*
X109748492Y-138306489D01*
X109995743Y-138676526D01*
X110365780Y-138923777D01*
X110802269Y-139010600D01*
X111157731Y-139010600D01*
X111594220Y-138923777D01*
X111964257Y-138676526D01*
X112211508Y-138306489D01*
X112250000Y-138112977D01*
X112288492Y-138306489D01*
X112535743Y-138676526D01*
X112905780Y-138923777D01*
X113342269Y-139010600D01*
X113697731Y-139010600D01*
X114134220Y-138923777D01*
X114504257Y-138676526D01*
X114751508Y-138306489D01*
X114790000Y-138112977D01*
X114828492Y-138306489D01*
X115075743Y-138676526D01*
X115445780Y-138923777D01*
X115882269Y-139010600D01*
X116237731Y-139010600D01*
X116674220Y-138923777D01*
X117044257Y-138676526D01*
X117291508Y-138306489D01*
X117330000Y-138112977D01*
X117368492Y-138306489D01*
X117615743Y-138676526D01*
X117985780Y-138923777D01*
X118422269Y-139010600D01*
X118777731Y-139010600D01*
X119214220Y-138923777D01*
X119584257Y-138676526D01*
X119831508Y-138306489D01*
X119870000Y-138112977D01*
X119908492Y-138306489D01*
X120155743Y-138676526D01*
X120525780Y-138923777D01*
X120962269Y-139010600D01*
X121317731Y-139010600D01*
X121754220Y-138923777D01*
X122124257Y-138676526D01*
X122371508Y-138306489D01*
X122410000Y-138112977D01*
X122448492Y-138306489D01*
X122695743Y-138676526D01*
X123065780Y-138923777D01*
X123502269Y-139010600D01*
X123857731Y-139010600D01*
X124294220Y-138923777D01*
X124664257Y-138676526D01*
X124911508Y-138306489D01*
X124970483Y-138010000D01*
X126661669Y-138010000D01*
X126748492Y-138446489D01*
X126995743Y-138816526D01*
X127365780Y-139063777D01*
X127802269Y-139150600D01*
X128157731Y-139150600D01*
X128594220Y-139063777D01*
X128964257Y-138816526D01*
X129211508Y-138446489D01*
X129298331Y-138010000D01*
X129211508Y-137573511D01*
X128964257Y-137203474D01*
X128594220Y-136956223D01*
X128157731Y-136869400D01*
X127802269Y-136869400D01*
X127365780Y-136956223D01*
X126995743Y-137203474D01*
X126748492Y-137573511D01*
X126661669Y-138010000D01*
X124970483Y-138010000D01*
X124998331Y-137870000D01*
X124911508Y-137433511D01*
X124664257Y-137063474D01*
X124294220Y-136816223D01*
X123857731Y-136729400D01*
X123502269Y-136729400D01*
X123065780Y-136816223D01*
X122695743Y-137063474D01*
X122448492Y-137433511D01*
X122410000Y-137627023D01*
X122371508Y-137433511D01*
X122124257Y-137063474D01*
X121754220Y-136816223D01*
X121317731Y-136729400D01*
X120962269Y-136729400D01*
X120525780Y-136816223D01*
X120155743Y-137063474D01*
X119908492Y-137433511D01*
X119870000Y-137627023D01*
X119831508Y-137433511D01*
X119584257Y-137063474D01*
X119214220Y-136816223D01*
X118777731Y-136729400D01*
X118422269Y-136729400D01*
X117985780Y-136816223D01*
X117615743Y-137063474D01*
X117368492Y-137433511D01*
X117330000Y-137627023D01*
X117291508Y-137433511D01*
X117044257Y-137063474D01*
X116674220Y-136816223D01*
X116237731Y-136729400D01*
X115882269Y-136729400D01*
X115445780Y-136816223D01*
X115075743Y-137063474D01*
X114828492Y-137433511D01*
X114790000Y-137627023D01*
X114751508Y-137433511D01*
X114504257Y-137063474D01*
X114134220Y-136816223D01*
X113697731Y-136729400D01*
X113342269Y-136729400D01*
X112905780Y-136816223D01*
X112535743Y-137063474D01*
X112288492Y-137433511D01*
X112250000Y-137627023D01*
X112211508Y-137433511D01*
X111964257Y-137063474D01*
X111594220Y-136816223D01*
X111157731Y-136729400D01*
X110802269Y-136729400D01*
X110365780Y-136816223D01*
X109995743Y-137063474D01*
X109748492Y-137433511D01*
X109710000Y-137627023D01*
X109671508Y-137433511D01*
X109424257Y-137063474D01*
X109054220Y-136816223D01*
X108617731Y-136729400D01*
X108262269Y-136729400D01*
X107825780Y-136816223D01*
X107455743Y-137063474D01*
X107208492Y-137433511D01*
X107170000Y-137627023D01*
X107131508Y-137433511D01*
X106884257Y-137063474D01*
X106514220Y-136816223D01*
X106077731Y-136729400D01*
X105722269Y-136729400D01*
X105285780Y-136816223D01*
X104915743Y-137063474D01*
X104668492Y-137433511D01*
X104630000Y-137627023D01*
X104591508Y-137433511D01*
X104344257Y-137063474D01*
X103974220Y-136816223D01*
X103537731Y-136729400D01*
X103182269Y-136729400D01*
X102745780Y-136816223D01*
X102375743Y-137063474D01*
X102128492Y-137433511D01*
X102090000Y-137627023D01*
X102051508Y-137433511D01*
X101804257Y-137063474D01*
X101434220Y-136816223D01*
X100997731Y-136729400D01*
X100642269Y-136729400D01*
X100205780Y-136816223D01*
X99835743Y-137063474D01*
X99588492Y-137433511D01*
X99501669Y-137870000D01*
X97327580Y-137870000D01*
X97327580Y-135330000D01*
X99501669Y-135330000D01*
X99588492Y-135766489D01*
X99835743Y-136136526D01*
X100205780Y-136383777D01*
X100642269Y-136470600D01*
X100997731Y-136470600D01*
X101434220Y-136383777D01*
X101804257Y-136136526D01*
X102051508Y-135766489D01*
X102090000Y-135572977D01*
X102128492Y-135766489D01*
X102375743Y-136136526D01*
X102745780Y-136383777D01*
X103182269Y-136470600D01*
X103537731Y-136470600D01*
X103974220Y-136383777D01*
X104344257Y-136136526D01*
X104591508Y-135766489D01*
X104630000Y-135572977D01*
X104668492Y-135766489D01*
X104915743Y-136136526D01*
X105285780Y-136383777D01*
X105722269Y-136470600D01*
X106077731Y-136470600D01*
X106514220Y-136383777D01*
X106884257Y-136136526D01*
X107131508Y-135766489D01*
X107170000Y-135572977D01*
X107208492Y-135766489D01*
X107455743Y-136136526D01*
X107825780Y-136383777D01*
X108262269Y-136470600D01*
X108617731Y-136470600D01*
X109054220Y-136383777D01*
X109424257Y-136136526D01*
X109671508Y-135766489D01*
X109710000Y-135572977D01*
X109748492Y-135766489D01*
X109995743Y-136136526D01*
X110365780Y-136383777D01*
X110802269Y-136470600D01*
X111157731Y-136470600D01*
X111594220Y-136383777D01*
X111964257Y-136136526D01*
X112211508Y-135766489D01*
X112250000Y-135572977D01*
X112288492Y-135766489D01*
X112535743Y-136136526D01*
X112905780Y-136383777D01*
X113342269Y-136470600D01*
X113697731Y-136470600D01*
X114134220Y-136383777D01*
X114504257Y-136136526D01*
X114751508Y-135766489D01*
X114790000Y-135572977D01*
X114828492Y-135766489D01*
X115075743Y-136136526D01*
X115445780Y-136383777D01*
X115882269Y-136470600D01*
X116237731Y-136470600D01*
X116674220Y-136383777D01*
X117044257Y-136136526D01*
X117291508Y-135766489D01*
X117330000Y-135572977D01*
X117368492Y-135766489D01*
X117615743Y-136136526D01*
X117985780Y-136383777D01*
X118422269Y-136470600D01*
X118777731Y-136470600D01*
X119214220Y-136383777D01*
X119584257Y-136136526D01*
X119831508Y-135766489D01*
X119870000Y-135572977D01*
X119908492Y-135766489D01*
X120155743Y-136136526D01*
X120525780Y-136383777D01*
X120962269Y-136470600D01*
X121317731Y-136470600D01*
X121754220Y-136383777D01*
X122124257Y-136136526D01*
X122371508Y-135766489D01*
X122410000Y-135572977D01*
X122448492Y-135766489D01*
X122695743Y-136136526D01*
X123065780Y-136383777D01*
X123502269Y-136470600D01*
X123857731Y-136470600D01*
X124294220Y-136383777D01*
X124664257Y-136136526D01*
X124911508Y-135766489D01*
X124970483Y-135470000D01*
X126661669Y-135470000D01*
X126748492Y-135906489D01*
X126995743Y-136276526D01*
X127365780Y-136523777D01*
X127802269Y-136610600D01*
X128157731Y-136610600D01*
X128594220Y-136523777D01*
X128964257Y-136276526D01*
X129211508Y-135906489D01*
X129298331Y-135470000D01*
X129211508Y-135033511D01*
X128964257Y-134663474D01*
X128594220Y-134416223D01*
X128157731Y-134329400D01*
X127802269Y-134329400D01*
X127365780Y-134416223D01*
X126995743Y-134663474D01*
X126748492Y-135033511D01*
X126661669Y-135470000D01*
X124970483Y-135470000D01*
X124998331Y-135330000D01*
X124911508Y-134893511D01*
X124664257Y-134523474D01*
X124294220Y-134276223D01*
X123857731Y-134189400D01*
X123502269Y-134189400D01*
X123065780Y-134276223D01*
X122695743Y-134523474D01*
X122448492Y-134893511D01*
X122410000Y-135087023D01*
X122371508Y-134893511D01*
X122124257Y-134523474D01*
X121754220Y-134276223D01*
X121317731Y-134189400D01*
X120962269Y-134189400D01*
X120525780Y-134276223D01*
X120155743Y-134523474D01*
X119908492Y-134893511D01*
X119870000Y-135087023D01*
X119831508Y-134893511D01*
X119584257Y-134523474D01*
X119214220Y-134276223D01*
X118777731Y-134189400D01*
X118422269Y-134189400D01*
X117985780Y-134276223D01*
X117615743Y-134523474D01*
X117368492Y-134893511D01*
X117330000Y-135087023D01*
X117291508Y-134893511D01*
X117044257Y-134523474D01*
X116674220Y-134276223D01*
X116237731Y-134189400D01*
X115882269Y-134189400D01*
X115445780Y-134276223D01*
X115075743Y-134523474D01*
X114828492Y-134893511D01*
X114790000Y-135087023D01*
X114751508Y-134893511D01*
X114504257Y-134523474D01*
X114134220Y-134276223D01*
X113697731Y-134189400D01*
X113342269Y-134189400D01*
X112905780Y-134276223D01*
X112535743Y-134523474D01*
X112288492Y-134893511D01*
X112250000Y-135087023D01*
X112211508Y-134893511D01*
X111964257Y-134523474D01*
X111594220Y-134276223D01*
X111157731Y-134189400D01*
X110802269Y-134189400D01*
X110365780Y-134276223D01*
X109995743Y-134523474D01*
X109748492Y-134893511D01*
X109710000Y-135087023D01*
X109671508Y-134893511D01*
X109424257Y-134523474D01*
X109054220Y-134276223D01*
X108617731Y-134189400D01*
X108262269Y-134189400D01*
X107825780Y-134276223D01*
X107455743Y-134523474D01*
X107208492Y-134893511D01*
X107170000Y-135087023D01*
X107131508Y-134893511D01*
X106884257Y-134523474D01*
X106514220Y-134276223D01*
X106077731Y-134189400D01*
X105722269Y-134189400D01*
X105285780Y-134276223D01*
X104915743Y-134523474D01*
X104668492Y-134893511D01*
X104630000Y-135087023D01*
X104591508Y-134893511D01*
X104344257Y-134523474D01*
X103974220Y-134276223D01*
X103537731Y-134189400D01*
X103182269Y-134189400D01*
X102745780Y-134276223D01*
X102375743Y-134523474D01*
X102128492Y-134893511D01*
X102090000Y-135087023D01*
X102051508Y-134893511D01*
X101804257Y-134523474D01*
X101434220Y-134276223D01*
X100997731Y-134189400D01*
X100642269Y-134189400D01*
X100205780Y-134276223D01*
X99835743Y-134523474D01*
X99588492Y-134893511D01*
X99501669Y-135330000D01*
X97327580Y-135330000D01*
X97327580Y-132790000D01*
X99501669Y-132790000D01*
X99588492Y-133226489D01*
X99835743Y-133596526D01*
X100205780Y-133843777D01*
X100642269Y-133930600D01*
X100997731Y-133930600D01*
X101434220Y-133843777D01*
X101804257Y-133596526D01*
X102051508Y-133226489D01*
X102090000Y-133032977D01*
X102128492Y-133226489D01*
X102375743Y-133596526D01*
X102745780Y-133843777D01*
X103182269Y-133930600D01*
X103537731Y-133930600D01*
X103974220Y-133843777D01*
X104344257Y-133596526D01*
X104591508Y-133226489D01*
X104630000Y-133032977D01*
X104668492Y-133226489D01*
X104915743Y-133596526D01*
X105285780Y-133843777D01*
X105722269Y-133930600D01*
X106077731Y-133930600D01*
X106514220Y-133843777D01*
X106884257Y-133596526D01*
X107131508Y-133226489D01*
X107170000Y-133032977D01*
X107208492Y-133226489D01*
X107455743Y-133596526D01*
X107825780Y-133843777D01*
X108262269Y-133930600D01*
X108617731Y-133930600D01*
X109054220Y-133843777D01*
X109424257Y-133596526D01*
X109671508Y-133226489D01*
X109710000Y-133032977D01*
X109748492Y-133226489D01*
X109995743Y-133596526D01*
X110365780Y-133843777D01*
X110802269Y-133930600D01*
X111157731Y-133930600D01*
X111594220Y-133843777D01*
X111964257Y-133596526D01*
X112211508Y-133226489D01*
X112250000Y-133032977D01*
X112288492Y-133226489D01*
X112535743Y-133596526D01*
X112905780Y-133843777D01*
X113342269Y-133930600D01*
X113697731Y-133930600D01*
X114134220Y-133843777D01*
X114504257Y-133596526D01*
X114751508Y-133226489D01*
X114790000Y-133032977D01*
X114828492Y-133226489D01*
X115075743Y-133596526D01*
X115445780Y-133843777D01*
X115882269Y-133930600D01*
X116237731Y-133930600D01*
X116674220Y-133843777D01*
X117044257Y-133596526D01*
X117291508Y-133226489D01*
X117330000Y-133032977D01*
X117368492Y-133226489D01*
X117615743Y-133596526D01*
X117985780Y-133843777D01*
X118422269Y-133930600D01*
X118777731Y-133930600D01*
X119214220Y-133843777D01*
X119584257Y-133596526D01*
X119831508Y-133226489D01*
X119870000Y-133032977D01*
X119908492Y-133226489D01*
X120155743Y-133596526D01*
X120525780Y-133843777D01*
X120962269Y-133930600D01*
X121317731Y-133930600D01*
X121754220Y-133843777D01*
X122124257Y-133596526D01*
X122371508Y-133226489D01*
X122410000Y-133032977D01*
X122448492Y-133226489D01*
X122695743Y-133596526D01*
X123065780Y-133843777D01*
X123502269Y-133930600D01*
X123857731Y-133930600D01*
X124294220Y-133843777D01*
X124664257Y-133596526D01*
X124911508Y-133226489D01*
X124970483Y-132930000D01*
X126661669Y-132930000D01*
X126748492Y-133366489D01*
X126995743Y-133736526D01*
X127365780Y-133983777D01*
X127802269Y-134070600D01*
X128157731Y-134070600D01*
X128594220Y-133983777D01*
X128964257Y-133736526D01*
X129211508Y-133366489D01*
X129298331Y-132930000D01*
X129211508Y-132493511D01*
X128964257Y-132123474D01*
X128594220Y-131876223D01*
X128157731Y-131789400D01*
X127802269Y-131789400D01*
X127365780Y-131876223D01*
X126995743Y-132123474D01*
X126748492Y-132493511D01*
X126661669Y-132930000D01*
X124970483Y-132930000D01*
X124998331Y-132790000D01*
X124911508Y-132353511D01*
X124664257Y-131983474D01*
X124294220Y-131736223D01*
X123857731Y-131649400D01*
X123502269Y-131649400D01*
X123065780Y-131736223D01*
X122695743Y-131983474D01*
X122448492Y-132353511D01*
X122410000Y-132547023D01*
X122371508Y-132353511D01*
X122124257Y-131983474D01*
X121754220Y-131736223D01*
X121317731Y-131649400D01*
X120962269Y-131649400D01*
X120525780Y-131736223D01*
X120155743Y-131983474D01*
X119908492Y-132353511D01*
X119870000Y-132547023D01*
X119831508Y-132353511D01*
X119584257Y-131983474D01*
X119214220Y-131736223D01*
X118777731Y-131649400D01*
X118422269Y-131649400D01*
X117985780Y-131736223D01*
X117615743Y-131983474D01*
X117368492Y-132353511D01*
X117330000Y-132547023D01*
X117291508Y-132353511D01*
X117044257Y-131983474D01*
X116674220Y-131736223D01*
X116237731Y-131649400D01*
X115882269Y-131649400D01*
X115445780Y-131736223D01*
X115075743Y-131983474D01*
X114828492Y-132353511D01*
X114790000Y-132547023D01*
X114751508Y-132353511D01*
X114504257Y-131983474D01*
X114134220Y-131736223D01*
X113697731Y-131649400D01*
X113342269Y-131649400D01*
X112905780Y-131736223D01*
X112535743Y-131983474D01*
X112288492Y-132353511D01*
X112250000Y-132547023D01*
X112211508Y-132353511D01*
X111964257Y-131983474D01*
X111594220Y-131736223D01*
X111157731Y-131649400D01*
X110802269Y-131649400D01*
X110365780Y-131736223D01*
X109995743Y-131983474D01*
X109748492Y-132353511D01*
X109710000Y-132547023D01*
X109671508Y-132353511D01*
X109424257Y-131983474D01*
X109054220Y-131736223D01*
X108617731Y-131649400D01*
X108262269Y-131649400D01*
X107825780Y-131736223D01*
X107455743Y-131983474D01*
X107208492Y-132353511D01*
X107170000Y-132547023D01*
X107131508Y-132353511D01*
X106884257Y-131983474D01*
X106514220Y-131736223D01*
X106077731Y-131649400D01*
X105722269Y-131649400D01*
X105285780Y-131736223D01*
X104915743Y-131983474D01*
X104668492Y-132353511D01*
X104630000Y-132547023D01*
X104591508Y-132353511D01*
X104344257Y-131983474D01*
X103974220Y-131736223D01*
X103537731Y-131649400D01*
X103182269Y-131649400D01*
X102745780Y-131736223D01*
X102375743Y-131983474D01*
X102128492Y-132353511D01*
X102090000Y-132547023D01*
X102051508Y-132353511D01*
X101804257Y-131983474D01*
X101434220Y-131736223D01*
X100997731Y-131649400D01*
X100642269Y-131649400D01*
X100205780Y-131736223D01*
X99835743Y-131983474D01*
X99588492Y-132353511D01*
X99501669Y-132790000D01*
X97327580Y-132790000D01*
X97327580Y-130250000D01*
X99501669Y-130250000D01*
X99588492Y-130686489D01*
X99835743Y-131056526D01*
X100205780Y-131303777D01*
X100642269Y-131390600D01*
X100997731Y-131390600D01*
X101434220Y-131303777D01*
X101804257Y-131056526D01*
X102051508Y-130686489D01*
X102090000Y-130492977D01*
X102128492Y-130686489D01*
X102375743Y-131056526D01*
X102745780Y-131303777D01*
X103182269Y-131390600D01*
X103537731Y-131390600D01*
X103974220Y-131303777D01*
X104344257Y-131056526D01*
X104591508Y-130686489D01*
X104630000Y-130492977D01*
X104668492Y-130686489D01*
X104915743Y-131056526D01*
X105285780Y-131303777D01*
X105722269Y-131390600D01*
X106077731Y-131390600D01*
X106514220Y-131303777D01*
X106884257Y-131056526D01*
X107131508Y-130686489D01*
X107170000Y-130492977D01*
X107208492Y-130686489D01*
X107455743Y-131056526D01*
X107825780Y-131303777D01*
X108262269Y-131390600D01*
X108617731Y-131390600D01*
X109054220Y-131303777D01*
X109424257Y-131056526D01*
X109671508Y-130686489D01*
X109710000Y-130492977D01*
X109748492Y-130686489D01*
X109995743Y-131056526D01*
X110365780Y-131303777D01*
X110802269Y-131390600D01*
X111157731Y-131390600D01*
X111594220Y-131303777D01*
X111964257Y-131056526D01*
X112211508Y-130686489D01*
X112250000Y-130492977D01*
X112288492Y-130686489D01*
X112535743Y-131056526D01*
X112905780Y-131303777D01*
X113342269Y-131390600D01*
X113697731Y-131390600D01*
X114134220Y-131303777D01*
X114504257Y-131056526D01*
X114751508Y-130686489D01*
X114790000Y-130492977D01*
X114828492Y-130686489D01*
X115075743Y-131056526D01*
X115445780Y-131303777D01*
X115882269Y-131390600D01*
X116237731Y-131390600D01*
X116674220Y-131303777D01*
X117044257Y-131056526D01*
X117291508Y-130686489D01*
X117330000Y-130492977D01*
X117368492Y-130686489D01*
X117615743Y-131056526D01*
X117985780Y-131303777D01*
X118422269Y-131390600D01*
X118777731Y-131390600D01*
X119214220Y-131303777D01*
X119584257Y-131056526D01*
X119831508Y-130686489D01*
X119870000Y-130492977D01*
X119908492Y-130686489D01*
X120155743Y-131056526D01*
X120525780Y-131303777D01*
X120962269Y-131390600D01*
X121317731Y-131390600D01*
X121754220Y-131303777D01*
X122124257Y-131056526D01*
X122371508Y-130686489D01*
X122410000Y-130492977D01*
X122448492Y-130686489D01*
X122695743Y-131056526D01*
X123065780Y-131303777D01*
X123502269Y-131390600D01*
X123857731Y-131390600D01*
X124294220Y-131303777D01*
X124664257Y-131056526D01*
X124911508Y-130686489D01*
X124970483Y-130390000D01*
X126661669Y-130390000D01*
X126748492Y-130826489D01*
X126995743Y-131196526D01*
X127365780Y-131443777D01*
X127802269Y-131530600D01*
X128157731Y-131530600D01*
X128594220Y-131443777D01*
X128964257Y-131196526D01*
X129211508Y-130826489D01*
X129298331Y-130390000D01*
X129211508Y-129953511D01*
X128964257Y-129583474D01*
X128594220Y-129336223D01*
X128157731Y-129249400D01*
X127802269Y-129249400D01*
X127365780Y-129336223D01*
X126995743Y-129583474D01*
X126748492Y-129953511D01*
X126661669Y-130390000D01*
X124970483Y-130390000D01*
X124998331Y-130250000D01*
X124911508Y-129813511D01*
X124664257Y-129443474D01*
X124294220Y-129196223D01*
X123857731Y-129109400D01*
X123502269Y-129109400D01*
X123065780Y-129196223D01*
X122695743Y-129443474D01*
X122448492Y-129813511D01*
X122410000Y-130007023D01*
X122371508Y-129813511D01*
X122124257Y-129443474D01*
X121754220Y-129196223D01*
X121317731Y-129109400D01*
X120962269Y-129109400D01*
X120525780Y-129196223D01*
X120155743Y-129443474D01*
X119908492Y-129813511D01*
X119870000Y-130007023D01*
X119831508Y-129813511D01*
X119584257Y-129443474D01*
X119214220Y-129196223D01*
X118777731Y-129109400D01*
X118422269Y-129109400D01*
X117985780Y-129196223D01*
X117615743Y-129443474D01*
X117368492Y-129813511D01*
X117330000Y-130007023D01*
X117291508Y-129813511D01*
X117044257Y-129443474D01*
X116674220Y-129196223D01*
X116237731Y-129109400D01*
X115882269Y-129109400D01*
X115445780Y-129196223D01*
X115075743Y-129443474D01*
X114828492Y-129813511D01*
X114790000Y-130007023D01*
X114751508Y-129813511D01*
X114504257Y-129443474D01*
X114134220Y-129196223D01*
X113697731Y-129109400D01*
X113342269Y-129109400D01*
X112905780Y-129196223D01*
X112535743Y-129443474D01*
X112288492Y-129813511D01*
X112250000Y-130007023D01*
X112211508Y-129813511D01*
X111964257Y-129443474D01*
X111594220Y-129196223D01*
X111157731Y-129109400D01*
X110802269Y-129109400D01*
X110365780Y-129196223D01*
X109995743Y-129443474D01*
X109748492Y-129813511D01*
X109710000Y-130007023D01*
X109671508Y-129813511D01*
X109424257Y-129443474D01*
X109054220Y-129196223D01*
X108617731Y-129109400D01*
X108262269Y-129109400D01*
X107825780Y-129196223D01*
X107455743Y-129443474D01*
X107208492Y-129813511D01*
X107170000Y-130007023D01*
X107131508Y-129813511D01*
X106884257Y-129443474D01*
X106514220Y-129196223D01*
X106077731Y-129109400D01*
X105722269Y-129109400D01*
X105285780Y-129196223D01*
X104915743Y-129443474D01*
X104668492Y-129813511D01*
X104630000Y-130007023D01*
X104591508Y-129813511D01*
X104344257Y-129443474D01*
X103974220Y-129196223D01*
X103537731Y-129109400D01*
X103182269Y-129109400D01*
X102745780Y-129196223D01*
X102375743Y-129443474D01*
X102128492Y-129813511D01*
X102090000Y-130007023D01*
X102051508Y-129813511D01*
X101804257Y-129443474D01*
X101434220Y-129196223D01*
X100997731Y-129109400D01*
X100642269Y-129109400D01*
X100205780Y-129196223D01*
X99835743Y-129443474D01*
X99588492Y-129813511D01*
X99501669Y-130250000D01*
X97327580Y-130250000D01*
X97327580Y-127710000D01*
X99501669Y-127710000D01*
X99588492Y-128146489D01*
X99835743Y-128516526D01*
X100205780Y-128763777D01*
X100642269Y-128850600D01*
X100997731Y-128850600D01*
X101434220Y-128763777D01*
X101804257Y-128516526D01*
X102051508Y-128146489D01*
X102090000Y-127952977D01*
X102128492Y-128146489D01*
X102375743Y-128516526D01*
X102745780Y-128763777D01*
X103182269Y-128850600D01*
X103537731Y-128850600D01*
X103974220Y-128763777D01*
X104344257Y-128516526D01*
X104591508Y-128146489D01*
X104630000Y-127952977D01*
X104668492Y-128146489D01*
X104915743Y-128516526D01*
X105285780Y-128763777D01*
X105722269Y-128850600D01*
X106077731Y-128850600D01*
X106514220Y-128763777D01*
X106884257Y-128516526D01*
X107131508Y-128146489D01*
X107170000Y-127952977D01*
X107208492Y-128146489D01*
X107455743Y-128516526D01*
X107825780Y-128763777D01*
X108262269Y-128850600D01*
X108617731Y-128850600D01*
X109054220Y-128763777D01*
X109424257Y-128516526D01*
X109671508Y-128146489D01*
X109710000Y-127952977D01*
X109748492Y-128146489D01*
X109995743Y-128516526D01*
X110365780Y-128763777D01*
X110802269Y-128850600D01*
X111157731Y-128850600D01*
X111594220Y-128763777D01*
X111964257Y-128516526D01*
X112211508Y-128146489D01*
X112250000Y-127952977D01*
X112288492Y-128146489D01*
X112535743Y-128516526D01*
X112905780Y-128763777D01*
X113342269Y-128850600D01*
X113697731Y-128850600D01*
X114134220Y-128763777D01*
X114504257Y-128516526D01*
X114751508Y-128146489D01*
X114790000Y-127952977D01*
X114828492Y-128146489D01*
X115075743Y-128516526D01*
X115445780Y-128763777D01*
X115882269Y-128850600D01*
X116237731Y-128850600D01*
X116674220Y-128763777D01*
X117044257Y-128516526D01*
X117291508Y-128146489D01*
X117330000Y-127952977D01*
X117368492Y-128146489D01*
X117615743Y-128516526D01*
X117985780Y-128763777D01*
X118422269Y-128850600D01*
X118777731Y-128850600D01*
X119214220Y-128763777D01*
X119584257Y-128516526D01*
X119831508Y-128146489D01*
X119870000Y-127952977D01*
X119908492Y-128146489D01*
X120155743Y-128516526D01*
X120525780Y-128763777D01*
X120962269Y-128850600D01*
X121317731Y-128850600D01*
X121754220Y-128763777D01*
X122124257Y-128516526D01*
X122371508Y-128146489D01*
X122410000Y-127952977D01*
X122448492Y-128146489D01*
X122695743Y-128516526D01*
X123065780Y-128763777D01*
X123502269Y-128850600D01*
X123857731Y-128850600D01*
X124294220Y-128763777D01*
X124664257Y-128516526D01*
X124911508Y-128146489D01*
X124970483Y-127850000D01*
X126661669Y-127850000D01*
X126748492Y-128286489D01*
X126995743Y-128656526D01*
X127365780Y-128903777D01*
X127802269Y-128990600D01*
X128157731Y-128990600D01*
X128594220Y-128903777D01*
X128964257Y-128656526D01*
X129211508Y-128286489D01*
X129298331Y-127850000D01*
X129211508Y-127413511D01*
X128964257Y-127043474D01*
X128594220Y-126796223D01*
X128157731Y-126709400D01*
X127802269Y-126709400D01*
X127365780Y-126796223D01*
X126995743Y-127043474D01*
X126748492Y-127413511D01*
X126661669Y-127850000D01*
X124970483Y-127850000D01*
X124998331Y-127710000D01*
X124911508Y-127273511D01*
X124664257Y-126903474D01*
X124294220Y-126656223D01*
X123857731Y-126569400D01*
X123502269Y-126569400D01*
X123065780Y-126656223D01*
X122695743Y-126903474D01*
X122448492Y-127273511D01*
X122410000Y-127467023D01*
X122371508Y-127273511D01*
X122124257Y-126903474D01*
X121754220Y-126656223D01*
X121317731Y-126569400D01*
X120962269Y-126569400D01*
X120525780Y-126656223D01*
X120155743Y-126903474D01*
X119908492Y-127273511D01*
X119870000Y-127467023D01*
X119831508Y-127273511D01*
X119584257Y-126903474D01*
X119214220Y-126656223D01*
X118777731Y-126569400D01*
X118422269Y-126569400D01*
X117985780Y-126656223D01*
X117615743Y-126903474D01*
X117368492Y-127273511D01*
X117330000Y-127467023D01*
X117291508Y-127273511D01*
X117044257Y-126903474D01*
X116674220Y-126656223D01*
X116237731Y-126569400D01*
X115882269Y-126569400D01*
X115445780Y-126656223D01*
X115075743Y-126903474D01*
X114828492Y-127273511D01*
X114790000Y-127467023D01*
X114751508Y-127273511D01*
X114504257Y-126903474D01*
X114134220Y-126656223D01*
X113697731Y-126569400D01*
X113342269Y-126569400D01*
X112905780Y-126656223D01*
X112535743Y-126903474D01*
X112288492Y-127273511D01*
X112250000Y-127467023D01*
X112211508Y-127273511D01*
X111964257Y-126903474D01*
X111594220Y-126656223D01*
X111157731Y-126569400D01*
X110802269Y-126569400D01*
X110365780Y-126656223D01*
X109995743Y-126903474D01*
X109748492Y-127273511D01*
X109710000Y-127467023D01*
X109671508Y-127273511D01*
X109424257Y-126903474D01*
X109054220Y-126656223D01*
X108617731Y-126569400D01*
X108262269Y-126569400D01*
X107825780Y-126656223D01*
X107455743Y-126903474D01*
X107208492Y-127273511D01*
X107170000Y-127467023D01*
X107131508Y-127273511D01*
X106884257Y-126903474D01*
X106514220Y-126656223D01*
X106077731Y-126569400D01*
X105722269Y-126569400D01*
X105285780Y-126656223D01*
X104915743Y-126903474D01*
X104668492Y-127273511D01*
X104630000Y-127467023D01*
X104591508Y-127273511D01*
X104344257Y-126903474D01*
X103974220Y-126656223D01*
X103537731Y-126569400D01*
X103182269Y-126569400D01*
X102745780Y-126656223D01*
X102375743Y-126903474D01*
X102128492Y-127273511D01*
X102090000Y-127467023D01*
X102051508Y-127273511D01*
X101804257Y-126903474D01*
X101434220Y-126656223D01*
X100997731Y-126569400D01*
X100642269Y-126569400D01*
X100205780Y-126656223D01*
X99835743Y-126903474D01*
X99588492Y-127273511D01*
X99501669Y-127710000D01*
X97327580Y-127710000D01*
X97327580Y-124306400D01*
X99521574Y-124306400D01*
X99521574Y-126033600D01*
X99540889Y-126136250D01*
X99601555Y-126230527D01*
X99694120Y-126293775D01*
X99804000Y-126316026D01*
X101836000Y-126316026D01*
X101938650Y-126296711D01*
X102032927Y-126236045D01*
X102090699Y-126151495D01*
X102141555Y-126230527D01*
X102234120Y-126293775D01*
X102344000Y-126316026D01*
X104376000Y-126316026D01*
X104478650Y-126296711D01*
X104572927Y-126236045D01*
X104630699Y-126151495D01*
X104681555Y-126230527D01*
X104774120Y-126293775D01*
X104884000Y-126316026D01*
X106916000Y-126316026D01*
X107018650Y-126296711D01*
X107112927Y-126236045D01*
X107170699Y-126151495D01*
X107221555Y-126230527D01*
X107314120Y-126293775D01*
X107424000Y-126316026D01*
X109456000Y-126316026D01*
X109558650Y-126296711D01*
X109652927Y-126236045D01*
X109710699Y-126151495D01*
X109761555Y-126230527D01*
X109854120Y-126293775D01*
X109964000Y-126316026D01*
X111996000Y-126316026D01*
X112098650Y-126296711D01*
X112192927Y-126236045D01*
X112250699Y-126151495D01*
X112301555Y-126230527D01*
X112394120Y-126293775D01*
X112504000Y-126316026D01*
X114536000Y-126316026D01*
X114638650Y-126296711D01*
X114732927Y-126236045D01*
X114790699Y-126151495D01*
X114841555Y-126230527D01*
X114934120Y-126293775D01*
X115044000Y-126316026D01*
X117076000Y-126316026D01*
X117178650Y-126296711D01*
X117272927Y-126236045D01*
X117330699Y-126151495D01*
X117381555Y-126230527D01*
X117474120Y-126293775D01*
X117584000Y-126316026D01*
X119616000Y-126316026D01*
X119718650Y-126296711D01*
X119812927Y-126236045D01*
X119870699Y-126151495D01*
X119921555Y-126230527D01*
X120014120Y-126293775D01*
X120124000Y-126316026D01*
X122156000Y-126316026D01*
X122258650Y-126296711D01*
X122352927Y-126236045D01*
X122410699Y-126151495D01*
X122461555Y-126230527D01*
X122554120Y-126293775D01*
X122664000Y-126316026D01*
X124696000Y-126316026D01*
X124798650Y-126296711D01*
X124892927Y-126236045D01*
X124956175Y-126143480D01*
X124978426Y-126033600D01*
X124978426Y-125310000D01*
X126661669Y-125310000D01*
X126748492Y-125746489D01*
X126995743Y-126116526D01*
X127365780Y-126363777D01*
X127802269Y-126450600D01*
X128157731Y-126450600D01*
X128594220Y-126363777D01*
X128964257Y-126116526D01*
X129211508Y-125746489D01*
X129298331Y-125310000D01*
X129211508Y-124873511D01*
X128964257Y-124503474D01*
X128594220Y-124256223D01*
X128157731Y-124169400D01*
X127802269Y-124169400D01*
X127365780Y-124256223D01*
X126995743Y-124503474D01*
X126748492Y-124873511D01*
X126661669Y-125310000D01*
X124978426Y-125310000D01*
X124978426Y-124306400D01*
X124959111Y-124203750D01*
X124898445Y-124109473D01*
X124805880Y-124046225D01*
X124696000Y-124023974D01*
X122664000Y-124023974D01*
X122561350Y-124043289D01*
X122467073Y-124103955D01*
X122409301Y-124188505D01*
X122358445Y-124109473D01*
X122265880Y-124046225D01*
X122156000Y-124023974D01*
X120124000Y-124023974D01*
X120021350Y-124043289D01*
X119927073Y-124103955D01*
X119869301Y-124188505D01*
X119818445Y-124109473D01*
X119725880Y-124046225D01*
X119616000Y-124023974D01*
X117584000Y-124023974D01*
X117481350Y-124043289D01*
X117387073Y-124103955D01*
X117329301Y-124188505D01*
X117278445Y-124109473D01*
X117185880Y-124046225D01*
X117076000Y-124023974D01*
X115044000Y-124023974D01*
X114941350Y-124043289D01*
X114847073Y-124103955D01*
X114789301Y-124188505D01*
X114738445Y-124109473D01*
X114645880Y-124046225D01*
X114536000Y-124023974D01*
X112504000Y-124023974D01*
X112401350Y-124043289D01*
X112307073Y-124103955D01*
X112249301Y-124188505D01*
X112198445Y-124109473D01*
X112105880Y-124046225D01*
X111996000Y-124023974D01*
X109964000Y-124023974D01*
X109861350Y-124043289D01*
X109767073Y-124103955D01*
X109709301Y-124188505D01*
X109658445Y-124109473D01*
X109565880Y-124046225D01*
X109456000Y-124023974D01*
X107424000Y-124023974D01*
X107321350Y-124043289D01*
X107227073Y-124103955D01*
X107169301Y-124188505D01*
X107118445Y-124109473D01*
X107025880Y-124046225D01*
X106916000Y-124023974D01*
X104884000Y-124023974D01*
X104781350Y-124043289D01*
X104687073Y-124103955D01*
X104629301Y-124188505D01*
X104578445Y-124109473D01*
X104485880Y-124046225D01*
X104376000Y-124023974D01*
X102344000Y-124023974D01*
X102241350Y-124043289D01*
X102147073Y-124103955D01*
X102089301Y-124188505D01*
X102038445Y-124109473D01*
X101945880Y-124046225D01*
X101836000Y-124023974D01*
X99804000Y-124023974D01*
X99701350Y-124043289D01*
X99607073Y-124103955D01*
X99543825Y-124196520D01*
X99521574Y-124306400D01*
X97327580Y-124306400D01*
X97327580Y-120515750D01*
X126329000Y-120515750D01*
X126329000Y-121219910D01*
X126425673Y-121453299D01*
X126604302Y-121631927D01*
X126837691Y-121728600D01*
X127347257Y-121728600D01*
X126995743Y-121963474D01*
X126748492Y-122333511D01*
X126661669Y-122770000D01*
X126748492Y-123206489D01*
X126995743Y-123576526D01*
X127365780Y-123823777D01*
X127802269Y-123910600D01*
X128157731Y-123910600D01*
X128594220Y-123823777D01*
X128964257Y-123576526D01*
X129184439Y-123247000D01*
X129396000Y-123247000D01*
X129578540Y-123210691D01*
X129733290Y-123107290D01*
X129960918Y-122879662D01*
X131873660Y-122879662D01*
X142341997Y-133347998D01*
X142341999Y-133348001D01*
X142529192Y-133473078D01*
X142750000Y-133517000D01*
X143207967Y-133517000D01*
X143221999Y-133538001D01*
X148901999Y-139218001D01*
X148902002Y-139218003D01*
X148982729Y-139298871D01*
X149194724Y-139386900D01*
X149309997Y-139387000D01*
X149310000Y-139387001D01*
X149310003Y-139387000D01*
X149424269Y-139387100D01*
X149636417Y-139299442D01*
X149717998Y-139218003D01*
X149718001Y-139218001D01*
X149718003Y-139217998D01*
X149798871Y-139137271D01*
X149870708Y-138964269D01*
X160252900Y-138964269D01*
X160340558Y-139176417D01*
X160367626Y-139203533D01*
X160389309Y-139312540D01*
X160492710Y-139467290D01*
X161392915Y-140367495D01*
X161392900Y-140384269D01*
X161480558Y-140596417D01*
X161642729Y-140758871D01*
X161854724Y-140846900D01*
X162084269Y-140847100D01*
X162296417Y-140759442D01*
X162458871Y-140597271D01*
X162546900Y-140385276D01*
X162547100Y-140155731D01*
X162459442Y-139943583D01*
X162297271Y-139781129D01*
X162085276Y-139693100D01*
X162067665Y-139693085D01*
X161387229Y-139012649D01*
X161406900Y-138965276D01*
X161407100Y-138735731D01*
X161319442Y-138523583D01*
X161157271Y-138361129D01*
X160945276Y-138273100D01*
X160715731Y-138272900D01*
X160503583Y-138360558D01*
X160341129Y-138522729D01*
X160253100Y-138734724D01*
X160252900Y-138964269D01*
X149870708Y-138964269D01*
X149886900Y-138925276D01*
X149887000Y-138810003D01*
X149887001Y-138810000D01*
X149887000Y-138809997D01*
X149887100Y-138695731D01*
X149799442Y-138483583D01*
X149718003Y-138402002D01*
X149718001Y-138401999D01*
X149717497Y-138401495D01*
X149637271Y-138321129D01*
X149637032Y-138321030D01*
X144207043Y-132891041D01*
X144207100Y-132825731D01*
X144119442Y-132613583D01*
X144038003Y-132532002D01*
X144038001Y-132531999D01*
X144037998Y-132531997D01*
X143957271Y-132451129D01*
X143745276Y-132363100D01*
X143515731Y-132362900D01*
X143515489Y-132363000D01*
X142989001Y-132363000D01*
X133200271Y-122574269D01*
X157942900Y-122574269D01*
X158030558Y-122786417D01*
X158192729Y-122948871D01*
X158404724Y-123036900D01*
X158634269Y-123037100D01*
X158846417Y-122949442D01*
X158858881Y-122937000D01*
X160120000Y-122937000D01*
X160302540Y-122900691D01*
X160457290Y-122797290D01*
X160887495Y-122367085D01*
X160904269Y-122367100D01*
X161116417Y-122279442D01*
X161278871Y-122117271D01*
X161366900Y-121905276D01*
X161367100Y-121675731D01*
X161279442Y-121463583D01*
X161117271Y-121301129D01*
X160905276Y-121213100D01*
X160675731Y-121212900D01*
X160463583Y-121300558D01*
X160301129Y-121462729D01*
X160213100Y-121674724D01*
X160213085Y-121692335D01*
X159922420Y-121983000D01*
X158859121Y-121983000D01*
X158847271Y-121971129D01*
X158635276Y-121883100D01*
X158405731Y-121882900D01*
X158193583Y-121970558D01*
X158031129Y-122132729D01*
X157943100Y-122344724D01*
X157942900Y-122574269D01*
X133200271Y-122574269D01*
X132789662Y-122163660D01*
X132789662Y-107532662D01*
X132789762Y-107418393D01*
X132702104Y-107206245D01*
X132620665Y-107124664D01*
X132620663Y-107124661D01*
X132620660Y-107124659D01*
X132539933Y-107043791D01*
X132327938Y-106955762D01*
X132098393Y-106955562D01*
X131886245Y-107043220D01*
X131804664Y-107124659D01*
X131804661Y-107124661D01*
X131804659Y-107124664D01*
X131723791Y-107205391D01*
X131635762Y-107417386D01*
X131635562Y-107646931D01*
X131635662Y-107647173D01*
X131635662Y-121925662D01*
X129763338Y-121925662D01*
X129580797Y-121961971D01*
X129426048Y-122065372D01*
X129198420Y-122293000D01*
X129184439Y-122293000D01*
X128964257Y-121963474D01*
X128612743Y-121728600D01*
X129122309Y-121728600D01*
X129355698Y-121631927D01*
X129534327Y-121453299D01*
X129631000Y-121219910D01*
X129631000Y-120515750D01*
X129472250Y-120357000D01*
X128107000Y-120357000D01*
X128107000Y-120377000D01*
X127853000Y-120377000D01*
X127853000Y-120357000D01*
X126487750Y-120357000D01*
X126329000Y-120515750D01*
X97327580Y-120515750D01*
X97327580Y-119240090D01*
X126329000Y-119240090D01*
X126329000Y-119944250D01*
X126487750Y-120103000D01*
X127853000Y-120103000D01*
X127853000Y-118890150D01*
X128107000Y-118890150D01*
X128107000Y-120103000D01*
X129472250Y-120103000D01*
X129631000Y-119944250D01*
X129631000Y-119240090D01*
X129534327Y-119006701D01*
X129355698Y-118828073D01*
X129122309Y-118731400D01*
X128265750Y-118731400D01*
X128107000Y-118890150D01*
X127853000Y-118890150D01*
X127694250Y-118731400D01*
X126837691Y-118731400D01*
X126604302Y-118828073D01*
X126425673Y-119006701D01*
X126329000Y-119240090D01*
X97327580Y-119240090D01*
X97327580Y-101961338D01*
X98141305Y-102776485D01*
X99345305Y-103276430D01*
X100648976Y-103277567D01*
X101853846Y-102779725D01*
X102776485Y-101858695D01*
X103276430Y-100654695D01*
X103277567Y-99351024D01*
X102779725Y-98146154D01*
X101962168Y-97327169D01*
X136948617Y-97327169D01*
X136948617Y-105068230D01*
X136948617Y-105068230D01*
G37*
X136948617Y-105068230D02*
X136957055Y-105113749D01*
X136984105Y-105156290D01*
X137025575Y-105184955D01*
X137074930Y-105195228D01*
X157419725Y-105305228D01*
X157467098Y-105296338D01*
X157509370Y-105268869D01*
X157537625Y-105227118D01*
X157547411Y-105177664D01*
X157512420Y-97327169D01*
X167039073Y-97327169D01*
X166223515Y-98141305D01*
X165723570Y-99345305D01*
X165722433Y-100648976D01*
X166220275Y-101853846D01*
X167141305Y-102776485D01*
X168345305Y-103276430D01*
X169648976Y-103277567D01*
X170853846Y-102779725D01*
X171673580Y-101961421D01*
X171673580Y-167039824D01*
X170858695Y-166223515D01*
X169654695Y-165723570D01*
X168351024Y-165722433D01*
X167146154Y-166220275D01*
X166223515Y-167141305D01*
X165723570Y-168345305D01*
X165722433Y-169648976D01*
X166220275Y-170853846D01*
X167038169Y-171673169D01*
X101960588Y-171673169D01*
X102776485Y-170858695D01*
X103276430Y-169654695D01*
X103277567Y-168351024D01*
X102779725Y-167146154D01*
X101858695Y-166223515D01*
X100654695Y-165723570D01*
X99351024Y-165722433D01*
X98146154Y-166220275D01*
X97327580Y-167037421D01*
X97327580Y-157600000D01*
X114673000Y-157600000D01*
X114673000Y-169499997D01*
X114679283Y-169531584D01*
X114679283Y-169563791D01*
X114717343Y-169755133D01*
X114717343Y-169755136D01*
X114766170Y-169873012D01*
X114874557Y-170035223D01*
X114919666Y-170080331D01*
X114964774Y-170125440D01*
X115126985Y-170233827D01*
X115244861Y-170282653D01*
X115244862Y-170282653D01*
X115244864Y-170282654D01*
X115436206Y-170320714D01*
X115468413Y-170320714D01*
X115500000Y-170326997D01*
X125500000Y-170326997D01*
X125531587Y-170320714D01*
X125563794Y-170320714D01*
X125755137Y-170282654D01*
X125755139Y-170282654D01*
X125873015Y-170233827D01*
X126035226Y-170125440D01*
X126080334Y-170080331D01*
X126125443Y-170035223D01*
X126233830Y-169873012D01*
X126282656Y-169755136D01*
X126282656Y-169755135D01*
X126282657Y-169755133D01*
X126320717Y-169563791D01*
X126320717Y-169531584D01*
X126327000Y-169499997D01*
X126327000Y-158800900D01*
X168664850Y-158800900D01*
X168723996Y-159098245D01*
X168892428Y-159350322D01*
X169144505Y-159518754D01*
X169441850Y-159577900D01*
X170033070Y-159577900D01*
X170330415Y-159518754D01*
X170582492Y-159350322D01*
X170750924Y-159098245D01*
X170810070Y-158800900D01*
X170750924Y-158503555D01*
X170582492Y-158251478D01*
X170330415Y-158083046D01*
X170033070Y-158023900D01*
X169441850Y-158023900D01*
X169144505Y-158083046D01*
X168892428Y-158251478D01*
X168723996Y-158503555D01*
X168664850Y-158800900D01*
X126327000Y-158800900D01*
X126327000Y-157633229D01*
X166285460Y-157633229D01*
X166285460Y-157968571D01*
X166342703Y-158256349D01*
X166505716Y-158500315D01*
X166749682Y-158663328D01*
X167037460Y-158720571D01*
X167325238Y-158663328D01*
X167569204Y-158500315D01*
X167732217Y-158256349D01*
X167789460Y-157968571D01*
X167789460Y-157633229D01*
X167732217Y-157345451D01*
X167569204Y-157101485D01*
X167325238Y-156938472D01*
X167037460Y-156881229D01*
X166749682Y-156938472D01*
X166505716Y-157101485D01*
X166342703Y-157345451D01*
X166285460Y-157633229D01*
X126327000Y-157633229D01*
X126327000Y-157600000D01*
X126320717Y-157568413D01*
X126320717Y-157536206D01*
X126282657Y-157344864D01*
X126233831Y-157226987D01*
X126233830Y-157226986D01*
X126233830Y-157226985D01*
X126125443Y-157064774D01*
X126080334Y-157019666D01*
X126035226Y-156974557D01*
X125873015Y-156866170D01*
X125755139Y-156817343D01*
X125755137Y-156817343D01*
X125563794Y-156779283D01*
X125531587Y-156779283D01*
X125500000Y-156773000D01*
X115500000Y-156773000D01*
X115468413Y-156779283D01*
X115436206Y-156779283D01*
X115244864Y-156817343D01*
X115244862Y-156817344D01*
X115244861Y-156817344D01*
X115126985Y-156866170D01*
X114964774Y-156974557D01*
X114919666Y-157019666D01*
X114874557Y-157064774D01*
X114766170Y-157226985D01*
X114717343Y-157344861D01*
X114717343Y-157344863D01*
X114679283Y-157536206D01*
X114679283Y-157568413D01*
X114673000Y-157600000D01*
X97327580Y-157600000D01*
X97327580Y-152633229D01*
X166285460Y-152633229D01*
X166285460Y-152968571D01*
X166342703Y-153256349D01*
X166505716Y-153500315D01*
X166749682Y-153663328D01*
X167037460Y-153720571D01*
X167325238Y-153663328D01*
X167569204Y-153500315D01*
X167732217Y-153256349D01*
X167789460Y-152968571D01*
X167789460Y-152633229D01*
X167732217Y-152345451D01*
X167569204Y-152101485D01*
X167325238Y-151938472D01*
X167037460Y-151881229D01*
X166749682Y-151938472D01*
X166505716Y-152101485D01*
X166342703Y-152345451D01*
X166285460Y-152633229D01*
X97327580Y-152633229D01*
X97327580Y-151800900D01*
X168664850Y-151800900D01*
X168723996Y-152098245D01*
X168892428Y-152350322D01*
X169144505Y-152518754D01*
X169441850Y-152577900D01*
X170033070Y-152577900D01*
X170330415Y-152518754D01*
X170582492Y-152350322D01*
X170750924Y-152098245D01*
X170810070Y-151800900D01*
X170750924Y-151503555D01*
X170582492Y-151251478D01*
X170330415Y-151083046D01*
X170033070Y-151023900D01*
X169441850Y-151023900D01*
X169144505Y-151083046D01*
X168892428Y-151251478D01*
X168723996Y-151503555D01*
X168664850Y-151800900D01*
X97327580Y-151800900D01*
X97327580Y-148030000D01*
X99501669Y-148030000D01*
X99588492Y-148466489D01*
X99835743Y-148836526D01*
X100205780Y-149083777D01*
X100642269Y-149170600D01*
X100997731Y-149170600D01*
X101434220Y-149083777D01*
X101804257Y-148836526D01*
X102051508Y-148466489D01*
X102090000Y-148272977D01*
X102128492Y-148466489D01*
X102375743Y-148836526D01*
X102745780Y-149083777D01*
X103182269Y-149170600D01*
X103537731Y-149170600D01*
X103974220Y-149083777D01*
X104344257Y-148836526D01*
X104591508Y-148466489D01*
X104630000Y-148272977D01*
X104668492Y-148466489D01*
X104915743Y-148836526D01*
X105285780Y-149083777D01*
X105722269Y-149170600D01*
X106077731Y-149170600D01*
X106514220Y-149083777D01*
X106884257Y-148836526D01*
X107131508Y-148466489D01*
X107170000Y-148272977D01*
X107208492Y-148466489D01*
X107455743Y-148836526D01*
X107825780Y-149083777D01*
X108262269Y-149170600D01*
X108617731Y-149170600D01*
X109054220Y-149083777D01*
X109424257Y-148836526D01*
X109671508Y-148466489D01*
X109710000Y-148272977D01*
X109748492Y-148466489D01*
X109995743Y-148836526D01*
X110365780Y-149083777D01*
X110802269Y-149170600D01*
X111157731Y-149170600D01*
X111594220Y-149083777D01*
X111964257Y-148836526D01*
X112211508Y-148466489D01*
X112250000Y-148272977D01*
X112288492Y-148466489D01*
X112535743Y-148836526D01*
X112905780Y-149083777D01*
X113342269Y-149170600D01*
X113697731Y-149170600D01*
X114134220Y-149083777D01*
X114504257Y-148836526D01*
X114751508Y-148466489D01*
X114790000Y-148272977D01*
X114828492Y-148466489D01*
X115075743Y-148836526D01*
X115445780Y-149083777D01*
X115882269Y-149170600D01*
X116237731Y-149170600D01*
X116674220Y-149083777D01*
X117044257Y-148836526D01*
X117291508Y-148466489D01*
X117330000Y-148272977D01*
X117368492Y-148466489D01*
X117615743Y-148836526D01*
X117985780Y-149083777D01*
X118422269Y-149170600D01*
X118777731Y-149170600D01*
X119214220Y-149083777D01*
X119584257Y-148836526D01*
X119831508Y-148466489D01*
X119870000Y-148272977D01*
X119908492Y-148466489D01*
X120155743Y-148836526D01*
X120525780Y-149083777D01*
X120962269Y-149170600D01*
X121317731Y-149170600D01*
X121754220Y-149083777D01*
X122124257Y-148836526D01*
X122371508Y-148466489D01*
X122410000Y-148272977D01*
X122448492Y-148466489D01*
X122695743Y-148836526D01*
X123065780Y-149083777D01*
X123502269Y-149170600D01*
X123857731Y-149170600D01*
X124294220Y-149083777D01*
X124664257Y-148836526D01*
X124911508Y-148466489D01*
X124998331Y-148030000D01*
X124911508Y-147593511D01*
X124664257Y-147223474D01*
X124294220Y-146976223D01*
X123857731Y-146889400D01*
X123502269Y-146889400D01*
X123065780Y-146976223D01*
X122695743Y-147223474D01*
X122448492Y-147593511D01*
X122410000Y-147787023D01*
X122371508Y-147593511D01*
X122124257Y-147223474D01*
X121754220Y-146976223D01*
X121317731Y-146889400D01*
X120962269Y-146889400D01*
X120525780Y-146976223D01*
X120155743Y-147223474D01*
X119908492Y-147593511D01*
X119870000Y-147787023D01*
X119831508Y-147593511D01*
X119584257Y-147223474D01*
X119214220Y-146976223D01*
X118777731Y-146889400D01*
X118422269Y-146889400D01*
X117985780Y-146976223D01*
X117615743Y-147223474D01*
X117368492Y-147593511D01*
X117330000Y-147787023D01*
X117291508Y-147593511D01*
X117044257Y-147223474D01*
X116674220Y-146976223D01*
X116237731Y-146889400D01*
X115882269Y-146889400D01*
X115445780Y-146976223D01*
X115075743Y-147223474D01*
X114828492Y-147593511D01*
X114790000Y-147787023D01*
X114751508Y-147593511D01*
X114504257Y-147223474D01*
X114134220Y-146976223D01*
X113697731Y-146889400D01*
X113342269Y-146889400D01*
X112905780Y-146976223D01*
X112535743Y-147223474D01*
X112288492Y-147593511D01*
X112250000Y-147787023D01*
X112211508Y-147593511D01*
X111964257Y-147223474D01*
X111594220Y-146976223D01*
X111157731Y-146889400D01*
X110802269Y-146889400D01*
X110365780Y-146976223D01*
X109995743Y-147223474D01*
X109748492Y-147593511D01*
X109710000Y-147787023D01*
X109671508Y-147593511D01*
X109424257Y-147223474D01*
X109054220Y-146976223D01*
X108617731Y-146889400D01*
X108262269Y-146889400D01*
X107825780Y-146976223D01*
X107455743Y-147223474D01*
X107208492Y-147593511D01*
X107170000Y-147787023D01*
X107131508Y-147593511D01*
X106884257Y-147223474D01*
X106514220Y-146976223D01*
X106077731Y-146889400D01*
X105722269Y-146889400D01*
X105285780Y-146976223D01*
X104915743Y-147223474D01*
X104668492Y-147593511D01*
X104630000Y-147787023D01*
X104591508Y-147593511D01*
X104344257Y-147223474D01*
X103974220Y-146976223D01*
X103537731Y-146889400D01*
X103182269Y-146889400D01*
X102745780Y-146976223D01*
X102375743Y-147223474D01*
X102128492Y-147593511D01*
X102090000Y-147787023D01*
X102051508Y-147593511D01*
X101804257Y-147223474D01*
X101434220Y-146976223D01*
X100997731Y-146889400D01*
X100642269Y-146889400D01*
X100205780Y-146976223D01*
X99835743Y-147223474D01*
X99588492Y-147593511D01*
X99501669Y-148030000D01*
X97327580Y-148030000D01*
X97327580Y-145490000D01*
X99501669Y-145490000D01*
X99588492Y-145926489D01*
X99835743Y-146296526D01*
X100205780Y-146543777D01*
X100642269Y-146630600D01*
X100997731Y-146630600D01*
X101434220Y-146543777D01*
X101804257Y-146296526D01*
X102051508Y-145926489D01*
X102090000Y-145732977D01*
X102128492Y-145926489D01*
X102375743Y-146296526D01*
X102745780Y-146543777D01*
X103182269Y-146630600D01*
X103537731Y-146630600D01*
X103974220Y-146543777D01*
X104344257Y-146296526D01*
X104591508Y-145926489D01*
X104630000Y-145732977D01*
X104668492Y-145926489D01*
X104915743Y-146296526D01*
X105285780Y-146543777D01*
X105722269Y-146630600D01*
X106077731Y-146630600D01*
X106514220Y-146543777D01*
X106884257Y-146296526D01*
X107131508Y-145926489D01*
X107170000Y-145732977D01*
X107208492Y-145926489D01*
X107455743Y-146296526D01*
X107825780Y-146543777D01*
X108262269Y-146630600D01*
X108617731Y-146630600D01*
X109054220Y-146543777D01*
X109424257Y-146296526D01*
X109671508Y-145926489D01*
X109710000Y-145732977D01*
X109748492Y-145926489D01*
X109995743Y-146296526D01*
X110365780Y-146543777D01*
X110802269Y-146630600D01*
X111157731Y-146630600D01*
X111594220Y-146543777D01*
X111964257Y-146296526D01*
X112211508Y-145926489D01*
X112250000Y-145732977D01*
X112288492Y-145926489D01*
X112535743Y-146296526D01*
X112905780Y-146543777D01*
X113342269Y-146630600D01*
X113697731Y-146630600D01*
X114134220Y-146543777D01*
X114504257Y-146296526D01*
X114751508Y-145926489D01*
X114790000Y-145732977D01*
X114828492Y-145926489D01*
X115075743Y-146296526D01*
X115445780Y-146543777D01*
X115882269Y-146630600D01*
X116237731Y-146630600D01*
X116674220Y-146543777D01*
X117044257Y-146296526D01*
X117291508Y-145926489D01*
X117330000Y-145732977D01*
X117368492Y-145926489D01*
X117615743Y-146296526D01*
X117985780Y-146543777D01*
X118422269Y-146630600D01*
X118777731Y-146630600D01*
X119214220Y-146543777D01*
X119584257Y-146296526D01*
X119831508Y-145926489D01*
X119870000Y-145732977D01*
X119908492Y-145926489D01*
X120155743Y-146296526D01*
X120525780Y-146543777D01*
X120962269Y-146630600D01*
X121317731Y-146630600D01*
X121754220Y-146543777D01*
X122124257Y-146296526D01*
X122371508Y-145926489D01*
X122410000Y-145732977D01*
X122448492Y-145926489D01*
X122695743Y-146296526D01*
X123065780Y-146543777D01*
X123502269Y-146630600D01*
X123857731Y-146630600D01*
X124294220Y-146543777D01*
X124664257Y-146296526D01*
X124911508Y-145926489D01*
X124970483Y-145630000D01*
X126661669Y-145630000D01*
X126748492Y-146066489D01*
X126995743Y-146436526D01*
X127365780Y-146683777D01*
X127802269Y-146770600D01*
X128157731Y-146770600D01*
X128594220Y-146683777D01*
X128964257Y-146436526D01*
X129211508Y-146066489D01*
X129298331Y-145630000D01*
X129226765Y-145270215D01*
X132309980Y-142187000D01*
X133060000Y-142187000D01*
X133242540Y-142150691D01*
X133397290Y-142047290D01*
X133983011Y-141461569D01*
X133983011Y-141704809D01*
X128575350Y-147112470D01*
X128157731Y-147029400D01*
X127802269Y-147029400D01*
X127365780Y-147116223D01*
X126995743Y-147363474D01*
X126748492Y-147733511D01*
X126661669Y-148170000D01*
X126748492Y-148606489D01*
X126995743Y-148976526D01*
X127365780Y-149223777D01*
X127802269Y-149310600D01*
X128157731Y-149310600D01*
X128594220Y-149223777D01*
X128964257Y-148976526D01*
X129211508Y-148606489D01*
X129298331Y-148170000D01*
X129226765Y-147810215D01*
X134797301Y-142239679D01*
X134900702Y-142084929D01*
X134937011Y-141902389D01*
X134937011Y-134632392D01*
X134948882Y-134620542D01*
X135036911Y-134408547D01*
X135037111Y-134179002D01*
X134949453Y-133966854D01*
X134787282Y-133804400D01*
X134575287Y-133716371D01*
X134345742Y-133716171D01*
X134287001Y-133740442D01*
X134287001Y-130331180D01*
X134436417Y-130269442D01*
X134598871Y-130107271D01*
X134686900Y-129895276D01*
X134687100Y-129665731D01*
X134599442Y-129453583D01*
X134437271Y-129291129D01*
X134225276Y-129203100D01*
X133995731Y-129202900D01*
X133783583Y-129290558D01*
X133621129Y-129452729D01*
X133533100Y-129664724D01*
X133533085Y-129682335D01*
X133472711Y-129742709D01*
X133369310Y-129897459D01*
X133333001Y-130079999D01*
X133333001Y-140762419D01*
X132862420Y-141233000D01*
X132112400Y-141233000D01*
X131929859Y-141269309D01*
X131775110Y-141372710D01*
X128575350Y-144572470D01*
X128157731Y-144489400D01*
X127802269Y-144489400D01*
X127365780Y-144576223D01*
X126995743Y-144823474D01*
X126748492Y-145193511D01*
X126661669Y-145630000D01*
X124970483Y-145630000D01*
X124998331Y-145490000D01*
X124911508Y-145053511D01*
X124664257Y-144683474D01*
X124294220Y-144436223D01*
X123857731Y-144349400D01*
X123502269Y-144349400D01*
X123065780Y-144436223D01*
X122695743Y-144683474D01*
X122448492Y-145053511D01*
X122410000Y-145247023D01*
X122371508Y-145053511D01*
X122124257Y-144683474D01*
X121754220Y-144436223D01*
X121317731Y-144349400D01*
X120962269Y-144349400D01*
X120525780Y-144436223D01*
X120155743Y-144683474D01*
X119908492Y-145053511D01*
X119870000Y-145247023D01*
X119831508Y-145053511D01*
X119584257Y-144683474D01*
X119214220Y-144436223D01*
X118777731Y-144349400D01*
X118422269Y-144349400D01*
X117985780Y-144436223D01*
X117615743Y-144683474D01*
X117368492Y-145053511D01*
X117330000Y-145247023D01*
X117291508Y-145053511D01*
X117044257Y-144683474D01*
X116674220Y-144436223D01*
X116237731Y-144349400D01*
X115882269Y-144349400D01*
X115445780Y-144436223D01*
X115075743Y-144683474D01*
X114828492Y-145053511D01*
X114790000Y-145247023D01*
X114751508Y-145053511D01*
X114504257Y-144683474D01*
X114134220Y-144436223D01*
X113697731Y-144349400D01*
X113342269Y-144349400D01*
X112905780Y-144436223D01*
X112535743Y-144683474D01*
X112288492Y-145053511D01*
X112250000Y-145247023D01*
X112211508Y-145053511D01*
X111964257Y-144683474D01*
X111594220Y-144436223D01*
X111157731Y-144349400D01*
X110802269Y-144349400D01*
X110365780Y-144436223D01*
X109995743Y-144683474D01*
X109748492Y-145053511D01*
X109710000Y-145247023D01*
X109671508Y-145053511D01*
X109424257Y-144683474D01*
X109054220Y-144436223D01*
X108617731Y-144349400D01*
X108262269Y-144349400D01*
X107825780Y-144436223D01*
X107455743Y-144683474D01*
X107208492Y-145053511D01*
X107170000Y-145247023D01*
X107131508Y-145053511D01*
X106884257Y-144683474D01*
X106514220Y-144436223D01*
X106077731Y-144349400D01*
X105722269Y-144349400D01*
X105285780Y-144436223D01*
X104915743Y-144683474D01*
X104668492Y-145053511D01*
X104630000Y-145247023D01*
X104591508Y-145053511D01*
X104344257Y-144683474D01*
X103974220Y-144436223D01*
X103537731Y-144349400D01*
X103182269Y-144349400D01*
X102745780Y-144436223D01*
X102375743Y-144683474D01*
X102128492Y-145053511D01*
X102090000Y-145247023D01*
X102051508Y-145053511D01*
X101804257Y-144683474D01*
X101434220Y-144436223D01*
X100997731Y-144349400D01*
X100642269Y-144349400D01*
X100205780Y-144436223D01*
X99835743Y-144683474D01*
X99588492Y-145053511D01*
X99501669Y-145490000D01*
X97327580Y-145490000D01*
X97327580Y-142950000D01*
X99501669Y-142950000D01*
X99588492Y-143386489D01*
X99835743Y-143756526D01*
X100205780Y-144003777D01*
X100642269Y-144090600D01*
X100997731Y-144090600D01*
X101434220Y-144003777D01*
X101804257Y-143756526D01*
X102051508Y-143386489D01*
X102090000Y-143192977D01*
X102128492Y-143386489D01*
X102375743Y-143756526D01*
X102745780Y-144003777D01*
X103182269Y-144090600D01*
X103537731Y-144090600D01*
X103974220Y-144003777D01*
X104344257Y-143756526D01*
X104591508Y-143386489D01*
X104630000Y-143192977D01*
X104668492Y-143386489D01*
X104915743Y-143756526D01*
X105285780Y-144003777D01*
X105722269Y-144090600D01*
X106077731Y-144090600D01*
X106514220Y-144003777D01*
X106884257Y-143756526D01*
X107131508Y-143386489D01*
X107170000Y-143192977D01*
X107208492Y-143386489D01*
X107455743Y-143756526D01*
X107825780Y-144003777D01*
X108262269Y-144090600D01*
X108617731Y-144090600D01*
X109054220Y-144003777D01*
X109424257Y-143756526D01*
X109671508Y-143386489D01*
X109710000Y-143192977D01*
X109748492Y-143386489D01*
X109995743Y-143756526D01*
X110365780Y-144003777D01*
X110802269Y-144090600D01*
X111157731Y-144090600D01*
X111594220Y-144003777D01*
X111964257Y-143756526D01*
X112211508Y-143386489D01*
X112250000Y-143192977D01*
X112288492Y-143386489D01*
X112535743Y-143756526D01*
X112905780Y-144003777D01*
X113342269Y-144090600D01*
X113697731Y-144090600D01*
X114134220Y-144003777D01*
X114504257Y-143756526D01*
X114751508Y-143386489D01*
X114790000Y-143192977D01*
X114828492Y-143386489D01*
X115075743Y-143756526D01*
X115445780Y-144003777D01*
X115882269Y-144090600D01*
X116237731Y-144090600D01*
X116674220Y-144003777D01*
X117044257Y-143756526D01*
X117291508Y-143386489D01*
X117330000Y-143192977D01*
X117368492Y-143386489D01*
X117615743Y-143756526D01*
X117985780Y-144003777D01*
X118422269Y-144090600D01*
X118777731Y-144090600D01*
X119214220Y-144003777D01*
X119584257Y-143756526D01*
X119831508Y-143386489D01*
X119870000Y-143192977D01*
X119908492Y-143386489D01*
X120155743Y-143756526D01*
X120525780Y-144003777D01*
X120962269Y-144090600D01*
X121317731Y-144090600D01*
X121754220Y-144003777D01*
X122124257Y-143756526D01*
X122371508Y-143386489D01*
X122410000Y-143192977D01*
X122448492Y-143386489D01*
X122695743Y-143756526D01*
X123065780Y-144003777D01*
X123502269Y-144090600D01*
X123857731Y-144090600D01*
X124294220Y-144003777D01*
X124664257Y-143756526D01*
X124911508Y-143386489D01*
X124970483Y-143090000D01*
X126661669Y-143090000D01*
X126748492Y-143526489D01*
X126995743Y-143896526D01*
X127365780Y-144143777D01*
X127802269Y-144230600D01*
X128157731Y-144230600D01*
X128594220Y-144143777D01*
X128964257Y-143896526D01*
X129211508Y-143526489D01*
X129298331Y-143090000D01*
X129211508Y-142653511D01*
X128964257Y-142283474D01*
X128594220Y-142036223D01*
X128157731Y-141949400D01*
X127802269Y-141949400D01*
X127365780Y-142036223D01*
X126995743Y-142283474D01*
X126748492Y-142653511D01*
X126661669Y-143090000D01*
X124970483Y-143090000D01*
X124998331Y-142950000D01*
X124911508Y-142513511D01*
X124664257Y-142143474D01*
X124294220Y-141896223D01*
X123857731Y-141809400D01*
X123502269Y-141809400D01*
X123065780Y-141896223D01*
X122695743Y-142143474D01*
X122448492Y-142513511D01*
X122410000Y-142707023D01*
X122371508Y-142513511D01*
X122124257Y-142143474D01*
X121754220Y-141896223D01*
X121317731Y-141809400D01*
X120962269Y-141809400D01*
X120525780Y-141896223D01*
X120155743Y-142143474D01*
X119908492Y-142513511D01*
X119870000Y-142707023D01*
X119831508Y-142513511D01*
X119584257Y-142143474D01*
X119214220Y-141896223D01*
X118777731Y-141809400D01*
X118422269Y-141809400D01*
X117985780Y-141896223D01*
X117615743Y-142143474D01*
X117368492Y-142513511D01*
X117330000Y-142707023D01*
X117291508Y-142513511D01*
X117044257Y-142143474D01*
X116674220Y-141896223D01*
X116237731Y-141809400D01*
X115882269Y-141809400D01*
X115445780Y-141896223D01*
X115075743Y-142143474D01*
X114828492Y-142513511D01*
X114790000Y-142707023D01*
X114751508Y-142513511D01*
X114504257Y-142143474D01*
X114134220Y-141896223D01*
X113697731Y-141809400D01*
X113342269Y-141809400D01*
X112905780Y-141896223D01*
X112535743Y-142143474D01*
X112288492Y-142513511D01*
X112250000Y-142707023D01*
X112211508Y-142513511D01*
X111964257Y-142143474D01*
X111594220Y-141896223D01*
X111157731Y-141809400D01*
X110802269Y-141809400D01*
X110365780Y-141896223D01*
X109995743Y-142143474D01*
X109748492Y-142513511D01*
X109710000Y-142707023D01*
X109671508Y-142513511D01*
X109424257Y-142143474D01*
X109054220Y-141896223D01*
X108617731Y-141809400D01*
X108262269Y-141809400D01*
X107825780Y-141896223D01*
X107455743Y-142143474D01*
X107208492Y-142513511D01*
X107170000Y-142707023D01*
X107131508Y-142513511D01*
X106884257Y-142143474D01*
X106514220Y-141896223D01*
X106077731Y-141809400D01*
X105722269Y-141809400D01*
X105285780Y-141896223D01*
X104915743Y-142143474D01*
X104668492Y-142513511D01*
X104630000Y-142707023D01*
X104591508Y-142513511D01*
X104344257Y-142143474D01*
X103974220Y-141896223D01*
X103537731Y-141809400D01*
X103182269Y-141809400D01*
X102745780Y-141896223D01*
X102375743Y-142143474D01*
X102128492Y-142513511D01*
X102090000Y-142707023D01*
X102051508Y-142513511D01*
X101804257Y-142143474D01*
X101434220Y-141896223D01*
X100997731Y-141809400D01*
X100642269Y-141809400D01*
X100205780Y-141896223D01*
X99835743Y-142143474D01*
X99588492Y-142513511D01*
X99501669Y-142950000D01*
X97327580Y-142950000D01*
X97327580Y-140410000D01*
X99501669Y-140410000D01*
X99588492Y-140846489D01*
X99835743Y-141216526D01*
X100205780Y-141463777D01*
X100642269Y-141550600D01*
X100997731Y-141550600D01*
X101434220Y-141463777D01*
X101804257Y-141216526D01*
X102051508Y-140846489D01*
X102090000Y-140652977D01*
X102128492Y-140846489D01*
X102375743Y-141216526D01*
X102745780Y-141463777D01*
X103182269Y-141550600D01*
X103537731Y-141550600D01*
X103974220Y-141463777D01*
X104344257Y-141216526D01*
X104591508Y-140846489D01*
X104630000Y-140652977D01*
X104668492Y-140846489D01*
X104915743Y-141216526D01*
X105285780Y-141463777D01*
X105722269Y-141550600D01*
X106077731Y-141550600D01*
X106514220Y-141463777D01*
X106884257Y-141216526D01*
X107131508Y-140846489D01*
X107170000Y-140652977D01*
X107208492Y-140846489D01*
X107455743Y-141216526D01*
X107825780Y-141463777D01*
X108262269Y-141550600D01*
X108617731Y-141550600D01*
X109054220Y-141463777D01*
X109424257Y-141216526D01*
X109671508Y-140846489D01*
X109710000Y-140652977D01*
X109748492Y-140846489D01*
X109995743Y-141216526D01*
X110365780Y-141463777D01*
X110802269Y-141550600D01*
X111157731Y-141550600D01*
X111594220Y-141463777D01*
X111964257Y-141216526D01*
X112211508Y-140846489D01*
X112250000Y-140652977D01*
X112288492Y-140846489D01*
X112535743Y-141216526D01*
X112905780Y-141463777D01*
X113342269Y-141550600D01*
X113697731Y-141550600D01*
X114134220Y-141463777D01*
X114504257Y-141216526D01*
X114751508Y-140846489D01*
X114790000Y-140652977D01*
X114828492Y-140846489D01*
X115075743Y-141216526D01*
X115445780Y-141463777D01*
X115882269Y-141550600D01*
X116237731Y-141550600D01*
X116674220Y-141463777D01*
X117044257Y-141216526D01*
X117291508Y-140846489D01*
X117330000Y-140652977D01*
X117368492Y-140846489D01*
X117615743Y-141216526D01*
X117985780Y-141463777D01*
X118422269Y-141550600D01*
X118777731Y-141550600D01*
X119214220Y-141463777D01*
X119584257Y-141216526D01*
X119831508Y-140846489D01*
X119870000Y-140652977D01*
X119908492Y-140846489D01*
X120155743Y-141216526D01*
X120525780Y-141463777D01*
X120962269Y-141550600D01*
X121317731Y-141550600D01*
X121754220Y-141463777D01*
X122124257Y-141216526D01*
X122371508Y-140846489D01*
X122410000Y-140652977D01*
X122448492Y-140846489D01*
X122695743Y-141216526D01*
X123065780Y-141463777D01*
X123502269Y-141550600D01*
X123857731Y-141550600D01*
X124294220Y-141463777D01*
X124664257Y-141216526D01*
X124911508Y-140846489D01*
X124970483Y-140550000D01*
X126661669Y-140550000D01*
X126748492Y-140986489D01*
X126995743Y-141356526D01*
X127365780Y-141603777D01*
X127802269Y-141690600D01*
X128157731Y-141690600D01*
X128594220Y-141603777D01*
X128964257Y-141356526D01*
X129211508Y-140986489D01*
X129298331Y-140550000D01*
X129211508Y-140113511D01*
X128964257Y-139743474D01*
X128594220Y-139496223D01*
X128157731Y-139409400D01*
X127802269Y-139409400D01*
X127365780Y-139496223D01*
X126995743Y-139743474D01*
X126748492Y-140113511D01*
X126661669Y-140550000D01*
X124970483Y-140550000D01*
X124998331Y-140410000D01*
X124911508Y-139973511D01*
X124664257Y-139603474D01*
X124294220Y-139356223D01*
X123857731Y-139269400D01*
X123502269Y-139269400D01*
X123065780Y-139356223D01*
X122695743Y-139603474D01*
X122448492Y-139973511D01*
X122410000Y-140167023D01*
X122371508Y-139973511D01*
X122124257Y-139603474D01*
X121754220Y-139356223D01*
X121317731Y-139269400D01*
X120962269Y-139269400D01*
X120525780Y-139356223D01*
X120155743Y-139603474D01*
X119908492Y-139973511D01*
X119870000Y-140167023D01*
X119831508Y-139973511D01*
X119584257Y-139603474D01*
X119214220Y-139356223D01*
X118777731Y-139269400D01*
X118422269Y-139269400D01*
X117985780Y-139356223D01*
X117615743Y-139603474D01*
X117368492Y-139973511D01*
X117330000Y-140167023D01*
X117291508Y-139973511D01*
X117044257Y-139603474D01*
X116674220Y-139356223D01*
X116237731Y-139269400D01*
X115882269Y-139269400D01*
X115445780Y-139356223D01*
X115075743Y-139603474D01*
X114828492Y-139973511D01*
X114790000Y-140167023D01*
X114751508Y-139973511D01*
X114504257Y-139603474D01*
X114134220Y-139356223D01*
X113697731Y-139269400D01*
X113342269Y-139269400D01*
X112905780Y-139356223D01*
X112535743Y-139603474D01*
X112288492Y-139973511D01*
X112250000Y-140167023D01*
X112211508Y-139973511D01*
X111964257Y-139603474D01*
X111594220Y-139356223D01*
X111157731Y-139269400D01*
X110802269Y-139269400D01*
X110365780Y-139356223D01*
X109995743Y-139603474D01*
X109748492Y-139973511D01*
X109710000Y-140167023D01*
X109671508Y-139973511D01*
X109424257Y-139603474D01*
X109054220Y-139356223D01*
X108617731Y-139269400D01*
X108262269Y-139269400D01*
X107825780Y-139356223D01*
X107455743Y-139603474D01*
X107208492Y-139973511D01*
X107170000Y-140167023D01*
X107131508Y-139973511D01*
X106884257Y-139603474D01*
X106514220Y-139356223D01*
X106077731Y-139269400D01*
X105722269Y-139269400D01*
X105285780Y-139356223D01*
X104915743Y-139603474D01*
X104668492Y-139973511D01*
X104630000Y-140167023D01*
X104591508Y-139973511D01*
X104344257Y-139603474D01*
X103974220Y-139356223D01*
X103537731Y-139269400D01*
X103182269Y-139269400D01*
X102745780Y-139356223D01*
X102375743Y-139603474D01*
X102128492Y-139973511D01*
X102090000Y-140167023D01*
X102051508Y-139973511D01*
X101804257Y-139603474D01*
X101434220Y-139356223D01*
X100997731Y-139269400D01*
X100642269Y-139269400D01*
X100205780Y-139356223D01*
X99835743Y-139603474D01*
X99588492Y-139973511D01*
X99501669Y-140410000D01*
X97327580Y-140410000D01*
X97327580Y-137870000D01*
X99501669Y-137870000D01*
X99588492Y-138306489D01*
X99835743Y-138676526D01*
X100205780Y-138923777D01*
X100642269Y-139010600D01*
X100997731Y-139010600D01*
X101434220Y-138923777D01*
X101804257Y-138676526D01*
X102051508Y-138306489D01*
X102090000Y-138112977D01*
X102128492Y-138306489D01*
X102375743Y-138676526D01*
X102745780Y-138923777D01*
X103182269Y-139010600D01*
X103537731Y-139010600D01*
X103974220Y-138923777D01*
X104344257Y-138676526D01*
X104591508Y-138306489D01*
X104630000Y-138112977D01*
X104668492Y-138306489D01*
X104915743Y-138676526D01*
X105285780Y-138923777D01*
X105722269Y-139010600D01*
X106077731Y-139010600D01*
X106514220Y-138923777D01*
X106884257Y-138676526D01*
X107131508Y-138306489D01*
X107170000Y-138112977D01*
X107208492Y-138306489D01*
X107455743Y-138676526D01*
X107825780Y-138923777D01*
X108262269Y-139010600D01*
X108617731Y-139010600D01*
X109054220Y-138923777D01*
X109424257Y-138676526D01*
X109671508Y-138306489D01*
X109710000Y-138112977D01*
X109748492Y-138306489D01*
X109995743Y-138676526D01*
X110365780Y-138923777D01*
X110802269Y-139010600D01*
X111157731Y-139010600D01*
X111594220Y-138923777D01*
X111964257Y-138676526D01*
X112211508Y-138306489D01*
X112250000Y-138112977D01*
X112288492Y-138306489D01*
X112535743Y-138676526D01*
X112905780Y-138923777D01*
X113342269Y-139010600D01*
X113697731Y-139010600D01*
X114134220Y-138923777D01*
X114504257Y-138676526D01*
X114751508Y-138306489D01*
X114790000Y-138112977D01*
X114828492Y-138306489D01*
X115075743Y-138676526D01*
X115445780Y-138923777D01*
X115882269Y-139010600D01*
X116237731Y-139010600D01*
X116674220Y-138923777D01*
X117044257Y-138676526D01*
X117291508Y-138306489D01*
X117330000Y-138112977D01*
X117368492Y-138306489D01*
X117615743Y-138676526D01*
X117985780Y-138923777D01*
X118422269Y-139010600D01*
X118777731Y-139010600D01*
X119214220Y-138923777D01*
X119584257Y-138676526D01*
X119831508Y-138306489D01*
X119870000Y-138112977D01*
X119908492Y-138306489D01*
X120155743Y-138676526D01*
X120525780Y-138923777D01*
X120962269Y-139010600D01*
X121317731Y-139010600D01*
X121754220Y-138923777D01*
X122124257Y-138676526D01*
X122371508Y-138306489D01*
X122410000Y-138112977D01*
X122448492Y-138306489D01*
X122695743Y-138676526D01*
X123065780Y-138923777D01*
X123502269Y-139010600D01*
X123857731Y-139010600D01*
X124294220Y-138923777D01*
X124664257Y-138676526D01*
X124911508Y-138306489D01*
X124970483Y-138010000D01*
X126661669Y-138010000D01*
X126748492Y-138446489D01*
X126995743Y-138816526D01*
X127365780Y-139063777D01*
X127802269Y-139150600D01*
X128157731Y-139150600D01*
X128594220Y-139063777D01*
X128964257Y-138816526D01*
X129211508Y-138446489D01*
X129298331Y-138010000D01*
X129211508Y-137573511D01*
X128964257Y-137203474D01*
X128594220Y-136956223D01*
X128157731Y-136869400D01*
X127802269Y-136869400D01*
X127365780Y-136956223D01*
X126995743Y-137203474D01*
X126748492Y-137573511D01*
X126661669Y-138010000D01*
X124970483Y-138010000D01*
X124998331Y-137870000D01*
X124911508Y-137433511D01*
X124664257Y-137063474D01*
X124294220Y-136816223D01*
X123857731Y-136729400D01*
X123502269Y-136729400D01*
X123065780Y-136816223D01*
X122695743Y-137063474D01*
X122448492Y-137433511D01*
X122410000Y-137627023D01*
X122371508Y-137433511D01*
X122124257Y-137063474D01*
X121754220Y-136816223D01*
X121317731Y-136729400D01*
X120962269Y-136729400D01*
X120525780Y-136816223D01*
X120155743Y-137063474D01*
X119908492Y-137433511D01*
X119870000Y-137627023D01*
X119831508Y-137433511D01*
X119584257Y-137063474D01*
X119214220Y-136816223D01*
X118777731Y-136729400D01*
X118422269Y-136729400D01*
X117985780Y-136816223D01*
X117615743Y-137063474D01*
X117368492Y-137433511D01*
X117330000Y-137627023D01*
X117291508Y-137433511D01*
X117044257Y-137063474D01*
X116674220Y-136816223D01*
X116237731Y-136729400D01*
X115882269Y-136729400D01*
X115445780Y-136816223D01*
X115075743Y-137063474D01*
X114828492Y-137433511D01*
X114790000Y-137627023D01*
X114751508Y-137433511D01*
X114504257Y-137063474D01*
X114134220Y-136816223D01*
X113697731Y-136729400D01*
X113342269Y-136729400D01*
X112905780Y-136816223D01*
X112535743Y-137063474D01*
X112288492Y-137433511D01*
X112250000Y-137627023D01*
X112211508Y-137433511D01*
X111964257Y-137063474D01*
X111594220Y-136816223D01*
X111157731Y-136729400D01*
X110802269Y-136729400D01*
X110365780Y-136816223D01*
X109995743Y-137063474D01*
X109748492Y-137433511D01*
X109710000Y-137627023D01*
X109671508Y-137433511D01*
X109424257Y-137063474D01*
X109054220Y-136816223D01*
X108617731Y-136729400D01*
X108262269Y-136729400D01*
X107825780Y-136816223D01*
X107455743Y-137063474D01*
X107208492Y-137433511D01*
X107170000Y-137627023D01*
X107131508Y-137433511D01*
X106884257Y-137063474D01*
X106514220Y-136816223D01*
X106077731Y-136729400D01*
X105722269Y-136729400D01*
X105285780Y-136816223D01*
X104915743Y-137063474D01*
X104668492Y-137433511D01*
X104630000Y-137627023D01*
X104591508Y-137433511D01*
X104344257Y-137063474D01*
X103974220Y-136816223D01*
X103537731Y-136729400D01*
X103182269Y-136729400D01*
X102745780Y-136816223D01*
X102375743Y-137063474D01*
X102128492Y-137433511D01*
X102090000Y-137627023D01*
X102051508Y-137433511D01*
X101804257Y-137063474D01*
X101434220Y-136816223D01*
X100997731Y-136729400D01*
X100642269Y-136729400D01*
X100205780Y-136816223D01*
X99835743Y-137063474D01*
X99588492Y-137433511D01*
X99501669Y-137870000D01*
X97327580Y-137870000D01*
X97327580Y-135330000D01*
X99501669Y-135330000D01*
X99588492Y-135766489D01*
X99835743Y-136136526D01*
X100205780Y-136383777D01*
X100642269Y-136470600D01*
X100997731Y-136470600D01*
X101434220Y-136383777D01*
X101804257Y-136136526D01*
X102051508Y-135766489D01*
X102090000Y-135572977D01*
X102128492Y-135766489D01*
X102375743Y-136136526D01*
X102745780Y-136383777D01*
X103182269Y-136470600D01*
X103537731Y-136470600D01*
X103974220Y-136383777D01*
X104344257Y-136136526D01*
X104591508Y-135766489D01*
X104630000Y-135572977D01*
X104668492Y-135766489D01*
X104915743Y-136136526D01*
X105285780Y-136383777D01*
X105722269Y-136470600D01*
X106077731Y-136470600D01*
X106514220Y-136383777D01*
X106884257Y-136136526D01*
X107131508Y-135766489D01*
X107170000Y-135572977D01*
X107208492Y-135766489D01*
X107455743Y-136136526D01*
X107825780Y-136383777D01*
X108262269Y-136470600D01*
X108617731Y-136470600D01*
X109054220Y-136383777D01*
X109424257Y-136136526D01*
X109671508Y-135766489D01*
X109710000Y-135572977D01*
X109748492Y-135766489D01*
X109995743Y-136136526D01*
X110365780Y-136383777D01*
X110802269Y-136470600D01*
X111157731Y-136470600D01*
X111594220Y-136383777D01*
X111964257Y-136136526D01*
X112211508Y-135766489D01*
X112250000Y-135572977D01*
X112288492Y-135766489D01*
X112535743Y-136136526D01*
X112905780Y-136383777D01*
X113342269Y-136470600D01*
X113697731Y-136470600D01*
X114134220Y-136383777D01*
X114504257Y-136136526D01*
X114751508Y-135766489D01*
X114790000Y-135572977D01*
X114828492Y-135766489D01*
X115075743Y-136136526D01*
X115445780Y-136383777D01*
X115882269Y-136470600D01*
X116237731Y-136470600D01*
X116674220Y-136383777D01*
X117044257Y-136136526D01*
X117291508Y-135766489D01*
X117330000Y-135572977D01*
X117368492Y-135766489D01*
X117615743Y-136136526D01*
X117985780Y-136383777D01*
X118422269Y-136470600D01*
X118777731Y-136470600D01*
X119214220Y-136383777D01*
X119584257Y-136136526D01*
X119831508Y-135766489D01*
X119870000Y-135572977D01*
X119908492Y-135766489D01*
X120155743Y-136136526D01*
X120525780Y-136383777D01*
X120962269Y-136470600D01*
X121317731Y-136470600D01*
X121754220Y-136383777D01*
X122124257Y-136136526D01*
X122371508Y-135766489D01*
X122410000Y-135572977D01*
X122448492Y-135766489D01*
X122695743Y-136136526D01*
X123065780Y-136383777D01*
X123502269Y-136470600D01*
X123857731Y-136470600D01*
X124294220Y-136383777D01*
X124664257Y-136136526D01*
X124911508Y-135766489D01*
X124970483Y-135470000D01*
X126661669Y-135470000D01*
X126748492Y-135906489D01*
X126995743Y-136276526D01*
X127365780Y-136523777D01*
X127802269Y-136610600D01*
X128157731Y-136610600D01*
X128594220Y-136523777D01*
X128964257Y-136276526D01*
X129211508Y-135906489D01*
X129298331Y-135470000D01*
X129211508Y-135033511D01*
X128964257Y-134663474D01*
X128594220Y-134416223D01*
X128157731Y-134329400D01*
X127802269Y-134329400D01*
X127365780Y-134416223D01*
X126995743Y-134663474D01*
X126748492Y-135033511D01*
X126661669Y-135470000D01*
X124970483Y-135470000D01*
X124998331Y-135330000D01*
X124911508Y-134893511D01*
X124664257Y-134523474D01*
X124294220Y-134276223D01*
X123857731Y-134189400D01*
X123502269Y-134189400D01*
X123065780Y-134276223D01*
X122695743Y-134523474D01*
X122448492Y-134893511D01*
X122410000Y-135087023D01*
X122371508Y-134893511D01*
X122124257Y-134523474D01*
X121754220Y-134276223D01*
X121317731Y-134189400D01*
X120962269Y-134189400D01*
X120525780Y-134276223D01*
X120155743Y-134523474D01*
X119908492Y-134893511D01*
X119870000Y-135087023D01*
X119831508Y-134893511D01*
X119584257Y-134523474D01*
X119214220Y-134276223D01*
X118777731Y-134189400D01*
X118422269Y-134189400D01*
X117985780Y-134276223D01*
X117615743Y-134523474D01*
X117368492Y-134893511D01*
X117330000Y-135087023D01*
X117291508Y-134893511D01*
X117044257Y-134523474D01*
X116674220Y-134276223D01*
X116237731Y-134189400D01*
X115882269Y-134189400D01*
X115445780Y-134276223D01*
X115075743Y-134523474D01*
X114828492Y-134893511D01*
X114790000Y-135087023D01*
X114751508Y-134893511D01*
X114504257Y-134523474D01*
X114134220Y-134276223D01*
X113697731Y-134189400D01*
X113342269Y-134189400D01*
X112905780Y-134276223D01*
X112535743Y-134523474D01*
X112288492Y-134893511D01*
X112250000Y-135087023D01*
X112211508Y-134893511D01*
X111964257Y-134523474D01*
X111594220Y-134276223D01*
X111157731Y-134189400D01*
X110802269Y-134189400D01*
X110365780Y-134276223D01*
X109995743Y-134523474D01*
X109748492Y-134893511D01*
X109710000Y-135087023D01*
X109671508Y-134893511D01*
X109424257Y-134523474D01*
X109054220Y-134276223D01*
X108617731Y-134189400D01*
X108262269Y-134189400D01*
X107825780Y-134276223D01*
X107455743Y-134523474D01*
X107208492Y-134893511D01*
X107170000Y-135087023D01*
X107131508Y-134893511D01*
X106884257Y-134523474D01*
X106514220Y-134276223D01*
X106077731Y-134189400D01*
X105722269Y-134189400D01*
X105285780Y-134276223D01*
X104915743Y-134523474D01*
X104668492Y-134893511D01*
X104630000Y-135087023D01*
X104591508Y-134893511D01*
X104344257Y-134523474D01*
X103974220Y-134276223D01*
X103537731Y-134189400D01*
X103182269Y-134189400D01*
X102745780Y-134276223D01*
X102375743Y-134523474D01*
X102128492Y-134893511D01*
X102090000Y-135087023D01*
X102051508Y-134893511D01*
X101804257Y-134523474D01*
X101434220Y-134276223D01*
X100997731Y-134189400D01*
X100642269Y-134189400D01*
X100205780Y-134276223D01*
X99835743Y-134523474D01*
X99588492Y-134893511D01*
X99501669Y-135330000D01*
X97327580Y-135330000D01*
X97327580Y-132790000D01*
X99501669Y-132790000D01*
X99588492Y-133226489D01*
X99835743Y-133596526D01*
X100205780Y-133843777D01*
X100642269Y-133930600D01*
X100997731Y-133930600D01*
X101434220Y-133843777D01*
X101804257Y-133596526D01*
X102051508Y-133226489D01*
X102090000Y-133032977D01*
X102128492Y-133226489D01*
X102375743Y-133596526D01*
X102745780Y-133843777D01*
X103182269Y-133930600D01*
X103537731Y-133930600D01*
X103974220Y-133843777D01*
X104344257Y-133596526D01*
X104591508Y-133226489D01*
X104630000Y-133032977D01*
X104668492Y-133226489D01*
X104915743Y-133596526D01*
X105285780Y-133843777D01*
X105722269Y-133930600D01*
X106077731Y-133930600D01*
X106514220Y-133843777D01*
X106884257Y-133596526D01*
X107131508Y-133226489D01*
X107170000Y-133032977D01*
X107208492Y-133226489D01*
X107455743Y-133596526D01*
X107825780Y-133843777D01*
X108262269Y-133930600D01*
X108617731Y-133930600D01*
X109054220Y-133843777D01*
X109424257Y-133596526D01*
X109671508Y-133226489D01*
X109710000Y-133032977D01*
X109748492Y-133226489D01*
X109995743Y-133596526D01*
X110365780Y-133843777D01*
X110802269Y-133930600D01*
X111157731Y-133930600D01*
X111594220Y-133843777D01*
X111964257Y-133596526D01*
X112211508Y-133226489D01*
X112250000Y-133032977D01*
X112288492Y-133226489D01*
X112535743Y-133596526D01*
X112905780Y-133843777D01*
X113342269Y-133930600D01*
X113697731Y-133930600D01*
X114134220Y-133843777D01*
X114504257Y-133596526D01*
X114751508Y-133226489D01*
X114790000Y-133032977D01*
X114828492Y-133226489D01*
X115075743Y-133596526D01*
X115445780Y-133843777D01*
X115882269Y-133930600D01*
X116237731Y-133930600D01*
X116674220Y-133843777D01*
X117044257Y-133596526D01*
X117291508Y-133226489D01*
X117330000Y-133032977D01*
X117368492Y-133226489D01*
X117615743Y-133596526D01*
X117985780Y-133843777D01*
X118422269Y-133930600D01*
X118777731Y-133930600D01*
X119214220Y-133843777D01*
X119584257Y-133596526D01*
X119831508Y-133226489D01*
X119870000Y-133032977D01*
X119908492Y-133226489D01*
X120155743Y-133596526D01*
X120525780Y-133843777D01*
X120962269Y-133930600D01*
X121317731Y-133930600D01*
X121754220Y-133843777D01*
X122124257Y-133596526D01*
X122371508Y-133226489D01*
X122410000Y-133032977D01*
X122448492Y-133226489D01*
X122695743Y-133596526D01*
X123065780Y-133843777D01*
X123502269Y-133930600D01*
X123857731Y-133930600D01*
X124294220Y-133843777D01*
X124664257Y-133596526D01*
X124911508Y-133226489D01*
X124970483Y-132930000D01*
X126661669Y-132930000D01*
X126748492Y-133366489D01*
X126995743Y-133736526D01*
X127365780Y-133983777D01*
X127802269Y-134070600D01*
X128157731Y-134070600D01*
X128594220Y-133983777D01*
X128964257Y-133736526D01*
X129211508Y-133366489D01*
X129298331Y-132930000D01*
X129211508Y-132493511D01*
X128964257Y-132123474D01*
X128594220Y-131876223D01*
X128157731Y-131789400D01*
X127802269Y-131789400D01*
X127365780Y-131876223D01*
X126995743Y-132123474D01*
X126748492Y-132493511D01*
X126661669Y-132930000D01*
X124970483Y-132930000D01*
X124998331Y-132790000D01*
X124911508Y-132353511D01*
X124664257Y-131983474D01*
X124294220Y-131736223D01*
X123857731Y-131649400D01*
X123502269Y-131649400D01*
X123065780Y-131736223D01*
X122695743Y-131983474D01*
X122448492Y-132353511D01*
X122410000Y-132547023D01*
X122371508Y-132353511D01*
X122124257Y-131983474D01*
X121754220Y-131736223D01*
X121317731Y-131649400D01*
X120962269Y-131649400D01*
X120525780Y-131736223D01*
X120155743Y-131983474D01*
X119908492Y-132353511D01*
X119870000Y-132547023D01*
X119831508Y-132353511D01*
X119584257Y-131983474D01*
X119214220Y-131736223D01*
X118777731Y-131649400D01*
X118422269Y-131649400D01*
X117985780Y-131736223D01*
X117615743Y-131983474D01*
X117368492Y-132353511D01*
X117330000Y-132547023D01*
X117291508Y-132353511D01*
X117044257Y-131983474D01*
X116674220Y-131736223D01*
X116237731Y-131649400D01*
X115882269Y-131649400D01*
X115445780Y-131736223D01*
X115075743Y-131983474D01*
X114828492Y-132353511D01*
X114790000Y-132547023D01*
X114751508Y-132353511D01*
X114504257Y-131983474D01*
X114134220Y-131736223D01*
X113697731Y-131649400D01*
X113342269Y-131649400D01*
X112905780Y-131736223D01*
X112535743Y-131983474D01*
X112288492Y-132353511D01*
X112250000Y-132547023D01*
X112211508Y-132353511D01*
X111964257Y-131983474D01*
X111594220Y-131736223D01*
X111157731Y-131649400D01*
X110802269Y-131649400D01*
X110365780Y-131736223D01*
X109995743Y-131983474D01*
X109748492Y-132353511D01*
X109710000Y-132547023D01*
X109671508Y-132353511D01*
X109424257Y-131983474D01*
X109054220Y-131736223D01*
X108617731Y-131649400D01*
X108262269Y-131649400D01*
X107825780Y-131736223D01*
X107455743Y-131983474D01*
X107208492Y-132353511D01*
X107170000Y-132547023D01*
X107131508Y-132353511D01*
X106884257Y-131983474D01*
X106514220Y-131736223D01*
X106077731Y-131649400D01*
X105722269Y-131649400D01*
X105285780Y-131736223D01*
X104915743Y-131983474D01*
X104668492Y-132353511D01*
X104630000Y-132547023D01*
X104591508Y-132353511D01*
X104344257Y-131983474D01*
X103974220Y-131736223D01*
X103537731Y-131649400D01*
X103182269Y-131649400D01*
X102745780Y-131736223D01*
X102375743Y-131983474D01*
X102128492Y-132353511D01*
X102090000Y-132547023D01*
X102051508Y-132353511D01*
X101804257Y-131983474D01*
X101434220Y-131736223D01*
X100997731Y-131649400D01*
X100642269Y-131649400D01*
X100205780Y-131736223D01*
X99835743Y-131983474D01*
X99588492Y-132353511D01*
X99501669Y-132790000D01*
X97327580Y-132790000D01*
X97327580Y-130250000D01*
X99501669Y-130250000D01*
X99588492Y-130686489D01*
X99835743Y-131056526D01*
X100205780Y-131303777D01*
X100642269Y-131390600D01*
X100997731Y-131390600D01*
X101434220Y-131303777D01*
X101804257Y-131056526D01*
X102051508Y-130686489D01*
X102090000Y-130492977D01*
X102128492Y-130686489D01*
X102375743Y-131056526D01*
X102745780Y-131303777D01*
X103182269Y-131390600D01*
X103537731Y-131390600D01*
X103974220Y-131303777D01*
X104344257Y-131056526D01*
X104591508Y-130686489D01*
X104630000Y-130492977D01*
X104668492Y-130686489D01*
X104915743Y-131056526D01*
X105285780Y-131303777D01*
X105722269Y-131390600D01*
X106077731Y-131390600D01*
X106514220Y-131303777D01*
X106884257Y-131056526D01*
X107131508Y-130686489D01*
X107170000Y-130492977D01*
X107208492Y-130686489D01*
X107455743Y-131056526D01*
X107825780Y-131303777D01*
X108262269Y-131390600D01*
X108617731Y-131390600D01*
X109054220Y-131303777D01*
X109424257Y-131056526D01*
X109671508Y-130686489D01*
X109710000Y-130492977D01*
X109748492Y-130686489D01*
X109995743Y-131056526D01*
X110365780Y-131303777D01*
X110802269Y-131390600D01*
X111157731Y-131390600D01*
X111594220Y-131303777D01*
X111964257Y-131056526D01*
X112211508Y-130686489D01*
X112250000Y-130492977D01*
X112288492Y-130686489D01*
X112535743Y-131056526D01*
X112905780Y-131303777D01*
X113342269Y-131390600D01*
X113697731Y-131390600D01*
X114134220Y-131303777D01*
X114504257Y-131056526D01*
X114751508Y-130686489D01*
X114790000Y-130492977D01*
X114828492Y-130686489D01*
X115075743Y-131056526D01*
X115445780Y-131303777D01*
X115882269Y-131390600D01*
X116237731Y-131390600D01*
X116674220Y-131303777D01*
X117044257Y-131056526D01*
X117291508Y-130686489D01*
X117330000Y-130492977D01*
X117368492Y-130686489D01*
X117615743Y-131056526D01*
X117985780Y-131303777D01*
X118422269Y-131390600D01*
X118777731Y-131390600D01*
X119214220Y-131303777D01*
X119584257Y-131056526D01*
X119831508Y-130686489D01*
X119870000Y-130492977D01*
X119908492Y-130686489D01*
X120155743Y-131056526D01*
X120525780Y-131303777D01*
X120962269Y-131390600D01*
X121317731Y-131390600D01*
X121754220Y-131303777D01*
X122124257Y-131056526D01*
X122371508Y-130686489D01*
X122410000Y-130492977D01*
X122448492Y-130686489D01*
X122695743Y-131056526D01*
X123065780Y-131303777D01*
X123502269Y-131390600D01*
X123857731Y-131390600D01*
X124294220Y-131303777D01*
X124664257Y-131056526D01*
X124911508Y-130686489D01*
X124970483Y-130390000D01*
X126661669Y-130390000D01*
X126748492Y-130826489D01*
X126995743Y-131196526D01*
X127365780Y-131443777D01*
X127802269Y-131530600D01*
X128157731Y-131530600D01*
X128594220Y-131443777D01*
X128964257Y-131196526D01*
X129211508Y-130826489D01*
X129298331Y-130390000D01*
X129211508Y-129953511D01*
X128964257Y-129583474D01*
X128594220Y-129336223D01*
X128157731Y-129249400D01*
X127802269Y-129249400D01*
X127365780Y-129336223D01*
X126995743Y-129583474D01*
X126748492Y-129953511D01*
X126661669Y-130390000D01*
X124970483Y-130390000D01*
X124998331Y-130250000D01*
X124911508Y-129813511D01*
X124664257Y-129443474D01*
X124294220Y-129196223D01*
X123857731Y-129109400D01*
X123502269Y-129109400D01*
X123065780Y-129196223D01*
X122695743Y-129443474D01*
X122448492Y-129813511D01*
X122410000Y-130007023D01*
X122371508Y-129813511D01*
X122124257Y-129443474D01*
X121754220Y-129196223D01*
X121317731Y-129109400D01*
X120962269Y-129109400D01*
X120525780Y-129196223D01*
X120155743Y-129443474D01*
X119908492Y-129813511D01*
X119870000Y-130007023D01*
X119831508Y-129813511D01*
X119584257Y-129443474D01*
X119214220Y-129196223D01*
X118777731Y-129109400D01*
X118422269Y-129109400D01*
X117985780Y-129196223D01*
X117615743Y-129443474D01*
X117368492Y-129813511D01*
X117330000Y-130007023D01*
X117291508Y-129813511D01*
X117044257Y-129443474D01*
X116674220Y-129196223D01*
X116237731Y-129109400D01*
X115882269Y-129109400D01*
X115445780Y-129196223D01*
X115075743Y-129443474D01*
X114828492Y-129813511D01*
X114790000Y-130007023D01*
X114751508Y-129813511D01*
X114504257Y-129443474D01*
X114134220Y-129196223D01*
X113697731Y-129109400D01*
X113342269Y-129109400D01*
X112905780Y-129196223D01*
X112535743Y-129443474D01*
X112288492Y-129813511D01*
X112250000Y-130007023D01*
X112211508Y-129813511D01*
X111964257Y-129443474D01*
X111594220Y-129196223D01*
X111157731Y-129109400D01*
X110802269Y-129109400D01*
X110365780Y-129196223D01*
X109995743Y-129443474D01*
X109748492Y-129813511D01*
X109710000Y-130007023D01*
X109671508Y-129813511D01*
X109424257Y-129443474D01*
X109054220Y-129196223D01*
X108617731Y-129109400D01*
X108262269Y-129109400D01*
X107825780Y-129196223D01*
X107455743Y-129443474D01*
X107208492Y-129813511D01*
X107170000Y-130007023D01*
X107131508Y-129813511D01*
X106884257Y-129443474D01*
X106514220Y-129196223D01*
X106077731Y-129109400D01*
X105722269Y-129109400D01*
X105285780Y-129196223D01*
X104915743Y-129443474D01*
X104668492Y-129813511D01*
X104630000Y-130007023D01*
X104591508Y-129813511D01*
X104344257Y-129443474D01*
X103974220Y-129196223D01*
X103537731Y-129109400D01*
X103182269Y-129109400D01*
X102745780Y-129196223D01*
X102375743Y-129443474D01*
X102128492Y-129813511D01*
X102090000Y-130007023D01*
X102051508Y-129813511D01*
X101804257Y-129443474D01*
X101434220Y-129196223D01*
X100997731Y-129109400D01*
X100642269Y-129109400D01*
X100205780Y-129196223D01*
X99835743Y-129443474D01*
X99588492Y-129813511D01*
X99501669Y-130250000D01*
X97327580Y-130250000D01*
X97327580Y-127710000D01*
X99501669Y-127710000D01*
X99588492Y-128146489D01*
X99835743Y-128516526D01*
X100205780Y-128763777D01*
X100642269Y-128850600D01*
X100997731Y-128850600D01*
X101434220Y-128763777D01*
X101804257Y-128516526D01*
X102051508Y-128146489D01*
X102090000Y-127952977D01*
X102128492Y-128146489D01*
X102375743Y-128516526D01*
X102745780Y-128763777D01*
X103182269Y-128850600D01*
X103537731Y-128850600D01*
X103974220Y-128763777D01*
X104344257Y-128516526D01*
X104591508Y-128146489D01*
X104630000Y-127952977D01*
X104668492Y-128146489D01*
X104915743Y-128516526D01*
X105285780Y-128763777D01*
X105722269Y-128850600D01*
X106077731Y-128850600D01*
X106514220Y-128763777D01*
X106884257Y-128516526D01*
X107131508Y-128146489D01*
X107170000Y-127952977D01*
X107208492Y-128146489D01*
X107455743Y-128516526D01*
X107825780Y-128763777D01*
X108262269Y-128850600D01*
X108617731Y-128850600D01*
X109054220Y-128763777D01*
X109424257Y-128516526D01*
X109671508Y-128146489D01*
X109710000Y-127952977D01*
X109748492Y-128146489D01*
X109995743Y-128516526D01*
X110365780Y-128763777D01*
X110802269Y-128850600D01*
X111157731Y-128850600D01*
X111594220Y-128763777D01*
X111964257Y-128516526D01*
X112211508Y-128146489D01*
X112250000Y-127952977D01*
X112288492Y-128146489D01*
X112535743Y-128516526D01*
X112905780Y-128763777D01*
X113342269Y-128850600D01*
X113697731Y-128850600D01*
X114134220Y-128763777D01*
X114504257Y-128516526D01*
X114751508Y-128146489D01*
X114790000Y-127952977D01*
X114828492Y-128146489D01*
X115075743Y-128516526D01*
X115445780Y-128763777D01*
X115882269Y-128850600D01*
X116237731Y-128850600D01*
X116674220Y-128763777D01*
X117044257Y-128516526D01*
X117291508Y-128146489D01*
X117330000Y-127952977D01*
X117368492Y-128146489D01*
X117615743Y-128516526D01*
X117985780Y-128763777D01*
X118422269Y-128850600D01*
X118777731Y-128850600D01*
X119214220Y-128763777D01*
X119584257Y-128516526D01*
X119831508Y-128146489D01*
X119870000Y-127952977D01*
X119908492Y-128146489D01*
X120155743Y-128516526D01*
X120525780Y-128763777D01*
X120962269Y-128850600D01*
X121317731Y-128850600D01*
X121754220Y-128763777D01*
X122124257Y-128516526D01*
X122371508Y-128146489D01*
X122410000Y-127952977D01*
X122448492Y-128146489D01*
X122695743Y-128516526D01*
X123065780Y-128763777D01*
X123502269Y-128850600D01*
X123857731Y-128850600D01*
X124294220Y-128763777D01*
X124664257Y-128516526D01*
X124911508Y-128146489D01*
X124970483Y-127850000D01*
X126661669Y-127850000D01*
X126748492Y-128286489D01*
X126995743Y-128656526D01*
X127365780Y-128903777D01*
X127802269Y-128990600D01*
X128157731Y-128990600D01*
X128594220Y-128903777D01*
X128964257Y-128656526D01*
X129211508Y-128286489D01*
X129298331Y-127850000D01*
X129211508Y-127413511D01*
X128964257Y-127043474D01*
X128594220Y-126796223D01*
X128157731Y-126709400D01*
X127802269Y-126709400D01*
X127365780Y-126796223D01*
X126995743Y-127043474D01*
X126748492Y-127413511D01*
X126661669Y-127850000D01*
X124970483Y-127850000D01*
X124998331Y-127710000D01*
X124911508Y-127273511D01*
X124664257Y-126903474D01*
X124294220Y-126656223D01*
X123857731Y-126569400D01*
X123502269Y-126569400D01*
X123065780Y-126656223D01*
X122695743Y-126903474D01*
X122448492Y-127273511D01*
X122410000Y-127467023D01*
X122371508Y-127273511D01*
X122124257Y-126903474D01*
X121754220Y-126656223D01*
X121317731Y-126569400D01*
X120962269Y-126569400D01*
X120525780Y-126656223D01*
X120155743Y-126903474D01*
X119908492Y-127273511D01*
X119870000Y-127467023D01*
X119831508Y-127273511D01*
X119584257Y-126903474D01*
X119214220Y-126656223D01*
X118777731Y-126569400D01*
X118422269Y-126569400D01*
X117985780Y-126656223D01*
X117615743Y-126903474D01*
X117368492Y-127273511D01*
X117330000Y-127467023D01*
X117291508Y-127273511D01*
X117044257Y-126903474D01*
X116674220Y-126656223D01*
X116237731Y-126569400D01*
X115882269Y-126569400D01*
X115445780Y-126656223D01*
X115075743Y-126903474D01*
X114828492Y-127273511D01*
X114790000Y-127467023D01*
X114751508Y-127273511D01*
X114504257Y-126903474D01*
X114134220Y-126656223D01*
X113697731Y-126569400D01*
X113342269Y-126569400D01*
X112905780Y-126656223D01*
X112535743Y-126903474D01*
X112288492Y-127273511D01*
X112250000Y-127467023D01*
X112211508Y-127273511D01*
X111964257Y-126903474D01*
X111594220Y-126656223D01*
X111157731Y-126569400D01*
X110802269Y-126569400D01*
X110365780Y-126656223D01*
X109995743Y-126903474D01*
X109748492Y-127273511D01*
X109710000Y-127467023D01*
X109671508Y-127273511D01*
X109424257Y-126903474D01*
X109054220Y-126656223D01*
X108617731Y-126569400D01*
X108262269Y-126569400D01*
X107825780Y-126656223D01*
X107455743Y-126903474D01*
X107208492Y-127273511D01*
X107170000Y-127467023D01*
X107131508Y-127273511D01*
X106884257Y-126903474D01*
X106514220Y-126656223D01*
X106077731Y-126569400D01*
X105722269Y-126569400D01*
X105285780Y-126656223D01*
X104915743Y-126903474D01*
X104668492Y-127273511D01*
X104630000Y-127467023D01*
X104591508Y-127273511D01*
X104344257Y-126903474D01*
X103974220Y-126656223D01*
X103537731Y-126569400D01*
X103182269Y-126569400D01*
X102745780Y-126656223D01*
X102375743Y-126903474D01*
X102128492Y-127273511D01*
X102090000Y-127467023D01*
X102051508Y-127273511D01*
X101804257Y-126903474D01*
X101434220Y-126656223D01*
X100997731Y-126569400D01*
X100642269Y-126569400D01*
X100205780Y-126656223D01*
X99835743Y-126903474D01*
X99588492Y-127273511D01*
X99501669Y-127710000D01*
X97327580Y-127710000D01*
X97327580Y-124306400D01*
X99521574Y-124306400D01*
X99521574Y-126033600D01*
X99540889Y-126136250D01*
X99601555Y-126230527D01*
X99694120Y-126293775D01*
X99804000Y-126316026D01*
X101836000Y-126316026D01*
X101938650Y-126296711D01*
X102032927Y-126236045D01*
X102090699Y-126151495D01*
X102141555Y-126230527D01*
X102234120Y-126293775D01*
X102344000Y-126316026D01*
X104376000Y-126316026D01*
X104478650Y-126296711D01*
X104572927Y-126236045D01*
X104630699Y-126151495D01*
X104681555Y-126230527D01*
X104774120Y-126293775D01*
X104884000Y-126316026D01*
X106916000Y-126316026D01*
X107018650Y-126296711D01*
X107112927Y-126236045D01*
X107170699Y-126151495D01*
X107221555Y-126230527D01*
X107314120Y-126293775D01*
X107424000Y-126316026D01*
X109456000Y-126316026D01*
X109558650Y-126296711D01*
X109652927Y-126236045D01*
X109710699Y-126151495D01*
X109761555Y-126230527D01*
X109854120Y-126293775D01*
X109964000Y-126316026D01*
X111996000Y-126316026D01*
X112098650Y-126296711D01*
X112192927Y-126236045D01*
X112250699Y-126151495D01*
X112301555Y-126230527D01*
X112394120Y-126293775D01*
X112504000Y-126316026D01*
X114536000Y-126316026D01*
X114638650Y-126296711D01*
X114732927Y-126236045D01*
X114790699Y-126151495D01*
X114841555Y-126230527D01*
X114934120Y-126293775D01*
X115044000Y-126316026D01*
X117076000Y-126316026D01*
X117178650Y-126296711D01*
X117272927Y-126236045D01*
X117330699Y-126151495D01*
X117381555Y-126230527D01*
X117474120Y-126293775D01*
X117584000Y-126316026D01*
X119616000Y-126316026D01*
X119718650Y-126296711D01*
X119812927Y-126236045D01*
X119870699Y-126151495D01*
X119921555Y-126230527D01*
X120014120Y-126293775D01*
X120124000Y-126316026D01*
X122156000Y-126316026D01*
X122258650Y-126296711D01*
X122352927Y-126236045D01*
X122410699Y-126151495D01*
X122461555Y-126230527D01*
X122554120Y-126293775D01*
X122664000Y-126316026D01*
X124696000Y-126316026D01*
X124798650Y-126296711D01*
X124892927Y-126236045D01*
X124956175Y-126143480D01*
X124978426Y-126033600D01*
X124978426Y-125310000D01*
X126661669Y-125310000D01*
X126748492Y-125746489D01*
X126995743Y-126116526D01*
X127365780Y-126363777D01*
X127802269Y-126450600D01*
X128157731Y-126450600D01*
X128594220Y-126363777D01*
X128964257Y-126116526D01*
X129211508Y-125746489D01*
X129298331Y-125310000D01*
X129211508Y-124873511D01*
X128964257Y-124503474D01*
X128594220Y-124256223D01*
X128157731Y-124169400D01*
X127802269Y-124169400D01*
X127365780Y-124256223D01*
X126995743Y-124503474D01*
X126748492Y-124873511D01*
X126661669Y-125310000D01*
X124978426Y-125310000D01*
X124978426Y-124306400D01*
X124959111Y-124203750D01*
X124898445Y-124109473D01*
X124805880Y-124046225D01*
X124696000Y-124023974D01*
X122664000Y-124023974D01*
X122561350Y-124043289D01*
X122467073Y-124103955D01*
X122409301Y-124188505D01*
X122358445Y-124109473D01*
X122265880Y-124046225D01*
X122156000Y-124023974D01*
X120124000Y-124023974D01*
X120021350Y-124043289D01*
X119927073Y-124103955D01*
X119869301Y-124188505D01*
X119818445Y-124109473D01*
X119725880Y-124046225D01*
X119616000Y-124023974D01*
X117584000Y-124023974D01*
X117481350Y-124043289D01*
X117387073Y-124103955D01*
X117329301Y-124188505D01*
X117278445Y-124109473D01*
X117185880Y-124046225D01*
X117076000Y-124023974D01*
X115044000Y-124023974D01*
X114941350Y-124043289D01*
X114847073Y-124103955D01*
X114789301Y-124188505D01*
X114738445Y-124109473D01*
X114645880Y-124046225D01*
X114536000Y-124023974D01*
X112504000Y-124023974D01*
X112401350Y-124043289D01*
X112307073Y-124103955D01*
X112249301Y-124188505D01*
X112198445Y-124109473D01*
X112105880Y-124046225D01*
X111996000Y-124023974D01*
X109964000Y-124023974D01*
X109861350Y-124043289D01*
X109767073Y-124103955D01*
X109709301Y-124188505D01*
X109658445Y-124109473D01*
X109565880Y-124046225D01*
X109456000Y-124023974D01*
X107424000Y-124023974D01*
X107321350Y-124043289D01*
X107227073Y-124103955D01*
X107169301Y-124188505D01*
X107118445Y-124109473D01*
X107025880Y-124046225D01*
X106916000Y-124023974D01*
X104884000Y-124023974D01*
X104781350Y-124043289D01*
X104687073Y-124103955D01*
X104629301Y-124188505D01*
X104578445Y-124109473D01*
X104485880Y-124046225D01*
X104376000Y-124023974D01*
X102344000Y-124023974D01*
X102241350Y-124043289D01*
X102147073Y-124103955D01*
X102089301Y-124188505D01*
X102038445Y-124109473D01*
X101945880Y-124046225D01*
X101836000Y-124023974D01*
X99804000Y-124023974D01*
X99701350Y-124043289D01*
X99607073Y-124103955D01*
X99543825Y-124196520D01*
X99521574Y-124306400D01*
X97327580Y-124306400D01*
X97327580Y-120515750D01*
X126329000Y-120515750D01*
X126329000Y-121219910D01*
X126425673Y-121453299D01*
X126604302Y-121631927D01*
X126837691Y-121728600D01*
X127347257Y-121728600D01*
X126995743Y-121963474D01*
X126748492Y-122333511D01*
X126661669Y-122770000D01*
X126748492Y-123206489D01*
X126995743Y-123576526D01*
X127365780Y-123823777D01*
X127802269Y-123910600D01*
X128157731Y-123910600D01*
X128594220Y-123823777D01*
X128964257Y-123576526D01*
X129184439Y-123247000D01*
X129396000Y-123247000D01*
X129578540Y-123210691D01*
X129733290Y-123107290D01*
X129960918Y-122879662D01*
X131873660Y-122879662D01*
X142341997Y-133347998D01*
X142341999Y-133348001D01*
X142529192Y-133473078D01*
X142750000Y-133517000D01*
X143207967Y-133517000D01*
X143221999Y-133538001D01*
X148901999Y-139218001D01*
X148902002Y-139218003D01*
X148982729Y-139298871D01*
X149194724Y-139386900D01*
X149309997Y-139387000D01*
X149310000Y-139387001D01*
X149310003Y-139387000D01*
X149424269Y-139387100D01*
X149636417Y-139299442D01*
X149717998Y-139218003D01*
X149718001Y-139218001D01*
X149718003Y-139217998D01*
X149798871Y-139137271D01*
X149870708Y-138964269D01*
X160252900Y-138964269D01*
X160340558Y-139176417D01*
X160367626Y-139203533D01*
X160389309Y-139312540D01*
X160492710Y-139467290D01*
X161392915Y-140367495D01*
X161392900Y-140384269D01*
X161480558Y-140596417D01*
X161642729Y-140758871D01*
X161854724Y-140846900D01*
X162084269Y-140847100D01*
X162296417Y-140759442D01*
X162458871Y-140597271D01*
X162546900Y-140385276D01*
X162547100Y-140155731D01*
X162459442Y-139943583D01*
X162297271Y-139781129D01*
X162085276Y-139693100D01*
X162067665Y-139693085D01*
X161387229Y-139012649D01*
X161406900Y-138965276D01*
X161407100Y-138735731D01*
X161319442Y-138523583D01*
X161157271Y-138361129D01*
X160945276Y-138273100D01*
X160715731Y-138272900D01*
X160503583Y-138360558D01*
X160341129Y-138522729D01*
X160253100Y-138734724D01*
X160252900Y-138964269D01*
X149870708Y-138964269D01*
X149886900Y-138925276D01*
X149887000Y-138810003D01*
X149887001Y-138810000D01*
X149887000Y-138809997D01*
X149887100Y-138695731D01*
X149799442Y-138483583D01*
X149718003Y-138402002D01*
X149718001Y-138401999D01*
X149717497Y-138401495D01*
X149637271Y-138321129D01*
X149637032Y-138321030D01*
X144207043Y-132891041D01*
X144207100Y-132825731D01*
X144119442Y-132613583D01*
X144038003Y-132532002D01*
X144038001Y-132531999D01*
X144037998Y-132531997D01*
X143957271Y-132451129D01*
X143745276Y-132363100D01*
X143515731Y-132362900D01*
X143515489Y-132363000D01*
X142989001Y-132363000D01*
X133200271Y-122574269D01*
X157942900Y-122574269D01*
X158030558Y-122786417D01*
X158192729Y-122948871D01*
X158404724Y-123036900D01*
X158634269Y-123037100D01*
X158846417Y-122949442D01*
X158858881Y-122937000D01*
X160120000Y-122937000D01*
X160302540Y-122900691D01*
X160457290Y-122797290D01*
X160887495Y-122367085D01*
X160904269Y-122367100D01*
X161116417Y-122279442D01*
X161278871Y-122117271D01*
X161366900Y-121905276D01*
X161367100Y-121675731D01*
X161279442Y-121463583D01*
X161117271Y-121301129D01*
X160905276Y-121213100D01*
X160675731Y-121212900D01*
X160463583Y-121300558D01*
X160301129Y-121462729D01*
X160213100Y-121674724D01*
X160213085Y-121692335D01*
X159922420Y-121983000D01*
X158859121Y-121983000D01*
X158847271Y-121971129D01*
X158635276Y-121883100D01*
X158405731Y-121882900D01*
X158193583Y-121970558D01*
X158031129Y-122132729D01*
X157943100Y-122344724D01*
X157942900Y-122574269D01*
X133200271Y-122574269D01*
X132789662Y-122163660D01*
X132789662Y-107532662D01*
X132789762Y-107418393D01*
X132702104Y-107206245D01*
X132620665Y-107124664D01*
X132620663Y-107124661D01*
X132620660Y-107124659D01*
X132539933Y-107043791D01*
X132327938Y-106955762D01*
X132098393Y-106955562D01*
X131886245Y-107043220D01*
X131804664Y-107124659D01*
X131804661Y-107124661D01*
X131804659Y-107124664D01*
X131723791Y-107205391D01*
X131635762Y-107417386D01*
X131635562Y-107646931D01*
X131635662Y-107647173D01*
X131635662Y-121925662D01*
X129763338Y-121925662D01*
X129580797Y-121961971D01*
X129426048Y-122065372D01*
X129198420Y-122293000D01*
X129184439Y-122293000D01*
X128964257Y-121963474D01*
X128612743Y-121728600D01*
X129122309Y-121728600D01*
X129355698Y-121631927D01*
X129534327Y-121453299D01*
X129631000Y-121219910D01*
X129631000Y-120515750D01*
X129472250Y-120357000D01*
X128107000Y-120357000D01*
X128107000Y-120377000D01*
X127853000Y-120377000D01*
X127853000Y-120357000D01*
X126487750Y-120357000D01*
X126329000Y-120515750D01*
X97327580Y-120515750D01*
X97327580Y-119240090D01*
X126329000Y-119240090D01*
X126329000Y-119944250D01*
X126487750Y-120103000D01*
X127853000Y-120103000D01*
X127853000Y-118890150D01*
X128107000Y-118890150D01*
X128107000Y-120103000D01*
X129472250Y-120103000D01*
X129631000Y-119944250D01*
X129631000Y-119240090D01*
X129534327Y-119006701D01*
X129355698Y-118828073D01*
X129122309Y-118731400D01*
X128265750Y-118731400D01*
X128107000Y-118890150D01*
X127853000Y-118890150D01*
X127694250Y-118731400D01*
X126837691Y-118731400D01*
X126604302Y-118828073D01*
X126425673Y-119006701D01*
X126329000Y-119240090D01*
X97327580Y-119240090D01*
X97327580Y-101961338D01*
X98141305Y-102776485D01*
X99345305Y-103276430D01*
X100648976Y-103277567D01*
X101853846Y-102779725D01*
X102776485Y-101858695D01*
X103276430Y-100654695D01*
X103277567Y-99351024D01*
X102779725Y-98146154D01*
X101962168Y-97327169D01*
X136948617Y-97327169D01*
X136948617Y-105068230D01*
M02*
