G04 #@! TF.FileFunction,Soldermask,Bot*
%FSLAX46Y46*%
G04 Gerber Fmt 4.6, Leading zero omitted, Abs format (unit mm)*
G04 Created by KiCad (PCBNEW 4.0.4-stable) date 01/17/18 01:46:41*
%MOMM*%
%LPD*%
G01*
G04 APERTURE LIST*
%ADD10C,0.100000*%
%ADD11C,6.000000*%
%ADD12R,2.032000X1.727200*%
%ADD13O,2.032000X1.727200*%
%ADD14O,0.950000X1.250000*%
%ADD15O,1.550000X1.000000*%
G04 APERTURE END LIST*
D10*
D11*
X100000000Y-100000000D03*
X100000000Y-169000000D03*
X169000000Y-169000000D03*
D12*
X123680000Y-125170000D03*
D13*
X123680000Y-127710000D03*
X123680000Y-130250000D03*
X123680000Y-132790000D03*
X123680000Y-135330000D03*
X123680000Y-137870000D03*
X123680000Y-140410000D03*
X123680000Y-142950000D03*
X123680000Y-145490000D03*
X123680000Y-148030000D03*
D12*
X121140000Y-125170000D03*
D13*
X121140000Y-127710000D03*
X121140000Y-130250000D03*
X121140000Y-132790000D03*
X121140000Y-135330000D03*
X121140000Y-137870000D03*
X121140000Y-140410000D03*
X121140000Y-142950000D03*
X121140000Y-145490000D03*
X121140000Y-148030000D03*
D12*
X118600000Y-125170000D03*
D13*
X118600000Y-127710000D03*
X118600000Y-130250000D03*
X118600000Y-132790000D03*
X118600000Y-135330000D03*
X118600000Y-137870000D03*
X118600000Y-140410000D03*
X118600000Y-142950000D03*
X118600000Y-145490000D03*
X118600000Y-148030000D03*
D12*
X116060000Y-125170000D03*
D13*
X116060000Y-127710000D03*
X116060000Y-130250000D03*
X116060000Y-132790000D03*
X116060000Y-135330000D03*
X116060000Y-137870000D03*
X116060000Y-140410000D03*
X116060000Y-142950000D03*
X116060000Y-145490000D03*
X116060000Y-148030000D03*
D12*
X113520000Y-125170000D03*
D13*
X113520000Y-127710000D03*
X113520000Y-130250000D03*
X113520000Y-132790000D03*
X113520000Y-135330000D03*
X113520000Y-137870000D03*
X113520000Y-140410000D03*
X113520000Y-142950000D03*
X113520000Y-145490000D03*
X113520000Y-148030000D03*
D12*
X110980000Y-125170000D03*
D13*
X110980000Y-127710000D03*
X110980000Y-130250000D03*
X110980000Y-132790000D03*
X110980000Y-135330000D03*
X110980000Y-137870000D03*
X110980000Y-140410000D03*
X110980000Y-142950000D03*
X110980000Y-145490000D03*
X110980000Y-148030000D03*
D12*
X108440000Y-125170000D03*
D13*
X108440000Y-127710000D03*
X108440000Y-130250000D03*
X108440000Y-132790000D03*
X108440000Y-135330000D03*
X108440000Y-137870000D03*
X108440000Y-140410000D03*
X108440000Y-142950000D03*
X108440000Y-145490000D03*
X108440000Y-148030000D03*
D12*
X105900000Y-125170000D03*
D13*
X105900000Y-127710000D03*
X105900000Y-130250000D03*
X105900000Y-132790000D03*
X105900000Y-135330000D03*
X105900000Y-137870000D03*
X105900000Y-140410000D03*
X105900000Y-142950000D03*
X105900000Y-145490000D03*
X105900000Y-148030000D03*
D12*
X103360000Y-125170000D03*
D13*
X103360000Y-127710000D03*
X103360000Y-130250000D03*
X103360000Y-132790000D03*
X103360000Y-135330000D03*
X103360000Y-137870000D03*
X103360000Y-140410000D03*
X103360000Y-142950000D03*
X103360000Y-145490000D03*
X103360000Y-148030000D03*
D14*
X167037460Y-157800900D03*
X167037460Y-152800900D03*
D15*
X169737460Y-158800900D03*
X169737460Y-151800900D03*
D12*
X127980000Y-120230000D03*
D13*
X127980000Y-122770000D03*
X127980000Y-125310000D03*
X127980000Y-127850000D03*
X127980000Y-130390000D03*
X127980000Y-132930000D03*
X127980000Y-135470000D03*
X127980000Y-138010000D03*
X127980000Y-140550000D03*
X127980000Y-143090000D03*
X127980000Y-145630000D03*
X127980000Y-148170000D03*
D12*
X100820000Y-125170000D03*
D13*
X100820000Y-127710000D03*
X100820000Y-130250000D03*
X100820000Y-132790000D03*
X100820000Y-135330000D03*
X100820000Y-137870000D03*
X100820000Y-140410000D03*
X100820000Y-142950000D03*
X100820000Y-145490000D03*
X100820000Y-148030000D03*
D11*
X169000000Y-100000000D03*
M02*
