G04 #@! TF.FileFunction,Copper,L2,Bot,Signal*
%FSLAX46Y46*%
G04 Gerber Fmt 4.6, Leading zero omitted, Abs format (unit mm)*
G04 Created by KiCad (PCBNEW 4.0.7) date 02/28/18 12:52:47*
%MOMM*%
%LPD*%
G01*
G04 APERTURE LIST*
%ADD10C,0.100000*%
%ADD11C,6.000000*%
%ADD12R,2.032000X1.727200*%
%ADD13O,2.032000X1.727200*%
%ADD14O,0.950000X1.250000*%
%ADD15O,1.550000X1.000000*%
%ADD16R,1.727200X2.032000*%
%ADD17O,1.727200X2.032000*%
%ADD18C,0.600000*%
%ADD19C,0.400000*%
%ADD20C,0.600000*%
%ADD21C,0.200000*%
%ADD22C,0.254000*%
G04 APERTURE END LIST*
D10*
D11*
X100000000Y-100000000D03*
X100000000Y-169000000D03*
X169000000Y-169000000D03*
D12*
X123630000Y-125220000D03*
D13*
X123630000Y-127760000D03*
X123630000Y-130300000D03*
X123630000Y-132840000D03*
X123630000Y-135380000D03*
X123630000Y-137920000D03*
X123630000Y-140460000D03*
X123630000Y-143000000D03*
X123630000Y-145540000D03*
X123630000Y-148080000D03*
D12*
X121090000Y-125220000D03*
D13*
X121090000Y-127760000D03*
X121090000Y-130300000D03*
X121090000Y-132840000D03*
X121090000Y-135380000D03*
X121090000Y-137920000D03*
X121090000Y-140460000D03*
X121090000Y-143000000D03*
X121090000Y-145540000D03*
X121090000Y-148080000D03*
D12*
X118550000Y-125220000D03*
D13*
X118550000Y-127760000D03*
X118550000Y-130300000D03*
X118550000Y-132840000D03*
X118550000Y-135380000D03*
X118550000Y-137920000D03*
X118550000Y-140460000D03*
X118550000Y-143000000D03*
X118550000Y-145540000D03*
X118550000Y-148080000D03*
D12*
X116010000Y-125220000D03*
D13*
X116010000Y-127760000D03*
X116010000Y-130300000D03*
X116010000Y-132840000D03*
X116010000Y-135380000D03*
X116010000Y-137920000D03*
X116010000Y-140460000D03*
X116010000Y-143000000D03*
X116010000Y-145540000D03*
X116010000Y-148080000D03*
D12*
X113470000Y-125220000D03*
D13*
X113470000Y-127760000D03*
X113470000Y-130300000D03*
X113470000Y-132840000D03*
X113470000Y-135380000D03*
X113470000Y-137920000D03*
X113470000Y-140460000D03*
X113470000Y-143000000D03*
X113470000Y-145540000D03*
X113470000Y-148080000D03*
D12*
X110930000Y-125220000D03*
D13*
X110930000Y-127760000D03*
X110930000Y-130300000D03*
X110930000Y-132840000D03*
X110930000Y-135380000D03*
X110930000Y-137920000D03*
X110930000Y-140460000D03*
X110930000Y-143000000D03*
X110930000Y-145540000D03*
X110930000Y-148080000D03*
D12*
X108390000Y-125220000D03*
D13*
X108390000Y-127760000D03*
X108390000Y-130300000D03*
X108390000Y-132840000D03*
X108390000Y-135380000D03*
X108390000Y-137920000D03*
X108390000Y-140460000D03*
X108390000Y-143000000D03*
X108390000Y-145540000D03*
X108390000Y-148080000D03*
D12*
X105850000Y-125220000D03*
D13*
X105850000Y-127760000D03*
X105850000Y-130300000D03*
X105850000Y-132840000D03*
X105850000Y-135380000D03*
X105850000Y-137920000D03*
X105850000Y-140460000D03*
X105850000Y-143000000D03*
X105850000Y-145540000D03*
X105850000Y-148080000D03*
D12*
X103310000Y-125220000D03*
D13*
X103310000Y-127760000D03*
X103310000Y-130300000D03*
X103310000Y-132840000D03*
X103310000Y-135380000D03*
X103310000Y-137920000D03*
X103310000Y-140460000D03*
X103310000Y-143000000D03*
X103310000Y-145540000D03*
X103310000Y-148080000D03*
D14*
X167037460Y-157800900D03*
X167037460Y-152800900D03*
D15*
X169737460Y-158800900D03*
X169737460Y-151800900D03*
D12*
X127980000Y-120230000D03*
D13*
X127980000Y-122770000D03*
X127980000Y-125310000D03*
X127980000Y-127850000D03*
X127980000Y-130390000D03*
X127980000Y-132930000D03*
X127980000Y-135470000D03*
X127980000Y-138010000D03*
X127980000Y-140550000D03*
X127980000Y-143090000D03*
X127980000Y-145630000D03*
X127980000Y-148170000D03*
D12*
X100770000Y-125220000D03*
D13*
X100770000Y-127760000D03*
X100770000Y-130300000D03*
X100770000Y-132840000D03*
X100770000Y-135380000D03*
X100770000Y-137920000D03*
X100770000Y-140460000D03*
X100770000Y-143000000D03*
X100770000Y-145540000D03*
X100770000Y-148080000D03*
D11*
X169000000Y-100000000D03*
D16*
X106480000Y-120300000D03*
D17*
X109020000Y-120300000D03*
X111560000Y-120300000D03*
X114100000Y-120300000D03*
X116640000Y-120300000D03*
X119180000Y-120300000D03*
X121720000Y-120300000D03*
X124260000Y-120300000D03*
D18*
X121460000Y-109330000D03*
X98750000Y-112900000D03*
X165250000Y-107450000D03*
X154250000Y-106200000D03*
X165290000Y-118660000D03*
X158350000Y-106310000D03*
X169970000Y-131990000D03*
X170060000Y-136840000D03*
X169110000Y-143250000D03*
X165890000Y-138840000D03*
X157650000Y-139680000D03*
X143650000Y-170120000D03*
X143700000Y-165020000D03*
X141510000Y-126280000D03*
X146917434Y-113962662D03*
X140320000Y-106220000D03*
X135790000Y-106250000D03*
X126740000Y-106610000D03*
X150290000Y-148260000D03*
X150260000Y-145790000D03*
X152800000Y-142370000D03*
X153020000Y-143470000D03*
X157760000Y-145780000D03*
X157820000Y-150620000D03*
X159010000Y-154540000D03*
X165580000Y-153570000D03*
X168410000Y-153990000D03*
X161970000Y-140270000D03*
X160830000Y-138850000D03*
X132212662Y-107532662D03*
X143630000Y-132940000D03*
X149310000Y-138810000D03*
X160790000Y-121790000D03*
X158520000Y-122460000D03*
X134110000Y-129780000D03*
X134460011Y-134293271D03*
X145450000Y-129100000D03*
X154350000Y-120200000D03*
X142000000Y-130219999D03*
X154250000Y-119250000D03*
D19*
X98750000Y-112900000D02*
X98700000Y-112950000D01*
X98700000Y-112950000D02*
X98700000Y-113200000D01*
X127980000Y-122770000D02*
X129396000Y-122770000D01*
X129396000Y-122770000D02*
X129763338Y-122402662D01*
X129763338Y-122402662D02*
X132212662Y-122402662D01*
X160830000Y-138850000D02*
X160830000Y-139130000D01*
X160830000Y-139130000D02*
X161970000Y-140270000D01*
D20*
X142750000Y-132940000D02*
X132212662Y-122402662D01*
X132212662Y-122402662D02*
X132212662Y-107532662D01*
X143630000Y-132940000D02*
X142750000Y-132940000D01*
X149310000Y-138810000D02*
X143630000Y-133130000D01*
X143630000Y-133130000D02*
X143630000Y-132940000D01*
D19*
X158520000Y-122460000D02*
X160120000Y-122460000D01*
X160120000Y-122460000D02*
X160790000Y-121790000D01*
D21*
X120293610Y-121566010D02*
X119180000Y-120452400D01*
X123416010Y-121566010D02*
X120293610Y-121566010D01*
X127827600Y-145630000D02*
X126600011Y-144402411D01*
X126600011Y-124750011D02*
X123416010Y-121566010D01*
X127980000Y-145630000D02*
X127827600Y-145630000D01*
X119180000Y-120452400D02*
X119180000Y-120300000D01*
X126600011Y-144402411D02*
X126600011Y-124750011D01*
D19*
X133060000Y-141710000D02*
X132112400Y-141710000D01*
X132112400Y-141710000D02*
X128172400Y-145650000D01*
X128172400Y-145650000D02*
X128020000Y-145650000D01*
X133810001Y-140959999D02*
X133060000Y-141710000D01*
X133810001Y-130079999D02*
X133810001Y-140959999D01*
X134110000Y-129780000D02*
X133810001Y-130079999D01*
D21*
X127980000Y-148170000D02*
X127827600Y-148170000D01*
X127827600Y-148170000D02*
X126250000Y-146592400D01*
X123116021Y-121916021D02*
X118103621Y-121916021D01*
X126250000Y-146592400D02*
X126250000Y-125050000D01*
X126250000Y-125050000D02*
X123116021Y-121916021D01*
X118103621Y-121916021D02*
X116640000Y-120452400D01*
X116640000Y-120452400D02*
X116640000Y-120300000D01*
D19*
X128172400Y-148190000D02*
X134460011Y-141902389D01*
X134460011Y-141902389D02*
X134460011Y-134717535D01*
X128020000Y-148190000D02*
X128172400Y-148190000D01*
X134460011Y-134717535D02*
X134460011Y-134293271D01*
D21*
X154350000Y-120200000D02*
X145450000Y-129100000D01*
X154250000Y-119250000D02*
X143280001Y-130219999D01*
X143280001Y-130219999D02*
X142000000Y-130219999D01*
D22*
G36*
X129873000Y-105000000D02*
X129881685Y-105046159D01*
X129908965Y-105088553D01*
X129950590Y-105116994D01*
X130000000Y-105127000D01*
X165000000Y-105127000D01*
X165046159Y-105118315D01*
X165088553Y-105091035D01*
X165116994Y-105049410D01*
X165127000Y-105000000D01*
X165127000Y-97327169D01*
X167039073Y-97327169D01*
X166223515Y-98141305D01*
X165723570Y-99345305D01*
X165722433Y-100648976D01*
X166220275Y-101853846D01*
X167141305Y-102776485D01*
X168345305Y-103276430D01*
X169648976Y-103277567D01*
X170853846Y-102779725D01*
X171673580Y-101961421D01*
X171673580Y-167039824D01*
X170858695Y-166223515D01*
X169654695Y-165723570D01*
X168351024Y-165722433D01*
X167146154Y-166220275D01*
X166223515Y-167141305D01*
X165723570Y-168345305D01*
X165722433Y-169648976D01*
X166220275Y-170853846D01*
X167038169Y-171673169D01*
X101960588Y-171673169D01*
X102776485Y-170858695D01*
X103276430Y-169654695D01*
X103277567Y-168351024D01*
X102779725Y-167146154D01*
X101858695Y-166223515D01*
X100654695Y-165723570D01*
X99351024Y-165722433D01*
X98146154Y-166220275D01*
X97327580Y-167037421D01*
X97327580Y-157600000D01*
X114673000Y-157600000D01*
X114673000Y-169499997D01*
X114679283Y-169531584D01*
X114679283Y-169563791D01*
X114717343Y-169755133D01*
X114717343Y-169755136D01*
X114766170Y-169873012D01*
X114874557Y-170035223D01*
X114919666Y-170080331D01*
X114964774Y-170125440D01*
X115126985Y-170233827D01*
X115244861Y-170282653D01*
X115244862Y-170282653D01*
X115244864Y-170282654D01*
X115436206Y-170320714D01*
X115468413Y-170320714D01*
X115500000Y-170326997D01*
X125500000Y-170326997D01*
X125531587Y-170320714D01*
X125563794Y-170320714D01*
X125755137Y-170282654D01*
X125755139Y-170282654D01*
X125873015Y-170233827D01*
X126035226Y-170125440D01*
X126080334Y-170080331D01*
X126125443Y-170035223D01*
X126233830Y-169873012D01*
X126282656Y-169755136D01*
X126282656Y-169755135D01*
X126282657Y-169755133D01*
X126320717Y-169563791D01*
X126320717Y-169531584D01*
X126327000Y-169499997D01*
X126327000Y-158800900D01*
X168664850Y-158800900D01*
X168723996Y-159098245D01*
X168892428Y-159350322D01*
X169144505Y-159518754D01*
X169441850Y-159577900D01*
X170033070Y-159577900D01*
X170330415Y-159518754D01*
X170582492Y-159350322D01*
X170750924Y-159098245D01*
X170810070Y-158800900D01*
X170750924Y-158503555D01*
X170582492Y-158251478D01*
X170330415Y-158083046D01*
X170033070Y-158023900D01*
X169441850Y-158023900D01*
X169144505Y-158083046D01*
X168892428Y-158251478D01*
X168723996Y-158503555D01*
X168664850Y-158800900D01*
X126327000Y-158800900D01*
X126327000Y-157633229D01*
X166285460Y-157633229D01*
X166285460Y-157968571D01*
X166342703Y-158256349D01*
X166505716Y-158500315D01*
X166749682Y-158663328D01*
X167037460Y-158720571D01*
X167325238Y-158663328D01*
X167569204Y-158500315D01*
X167732217Y-158256349D01*
X167789460Y-157968571D01*
X167789460Y-157633229D01*
X167732217Y-157345451D01*
X167569204Y-157101485D01*
X167325238Y-156938472D01*
X167037460Y-156881229D01*
X166749682Y-156938472D01*
X166505716Y-157101485D01*
X166342703Y-157345451D01*
X166285460Y-157633229D01*
X126327000Y-157633229D01*
X126327000Y-157600000D01*
X126320717Y-157568413D01*
X126320717Y-157536206D01*
X126282657Y-157344864D01*
X126233831Y-157226987D01*
X126233830Y-157226986D01*
X126233830Y-157226985D01*
X126125443Y-157064774D01*
X126080334Y-157019666D01*
X126035226Y-156974557D01*
X125873015Y-156866170D01*
X125755139Y-156817343D01*
X125755137Y-156817343D01*
X125563794Y-156779283D01*
X125531587Y-156779283D01*
X125500000Y-156773000D01*
X115500000Y-156773000D01*
X115468413Y-156779283D01*
X115436206Y-156779283D01*
X115244864Y-156817343D01*
X115244862Y-156817344D01*
X115244861Y-156817344D01*
X115126985Y-156866170D01*
X114964774Y-156974557D01*
X114919666Y-157019666D01*
X114874557Y-157064774D01*
X114766170Y-157226985D01*
X114717343Y-157344861D01*
X114717343Y-157344863D01*
X114679283Y-157536206D01*
X114679283Y-157568413D01*
X114673000Y-157600000D01*
X97327580Y-157600000D01*
X97327580Y-152633229D01*
X166285460Y-152633229D01*
X166285460Y-152968571D01*
X166342703Y-153256349D01*
X166505716Y-153500315D01*
X166749682Y-153663328D01*
X167037460Y-153720571D01*
X167325238Y-153663328D01*
X167569204Y-153500315D01*
X167732217Y-153256349D01*
X167789460Y-152968571D01*
X167789460Y-152633229D01*
X167732217Y-152345451D01*
X167569204Y-152101485D01*
X167325238Y-151938472D01*
X167037460Y-151881229D01*
X166749682Y-151938472D01*
X166505716Y-152101485D01*
X166342703Y-152345451D01*
X166285460Y-152633229D01*
X97327580Y-152633229D01*
X97327580Y-151800900D01*
X168664850Y-151800900D01*
X168723996Y-152098245D01*
X168892428Y-152350322D01*
X169144505Y-152518754D01*
X169441850Y-152577900D01*
X170033070Y-152577900D01*
X170330415Y-152518754D01*
X170582492Y-152350322D01*
X170750924Y-152098245D01*
X170810070Y-151800900D01*
X170750924Y-151503555D01*
X170582492Y-151251478D01*
X170330415Y-151083046D01*
X170033070Y-151023900D01*
X169441850Y-151023900D01*
X169144505Y-151083046D01*
X168892428Y-151251478D01*
X168723996Y-151503555D01*
X168664850Y-151800900D01*
X97327580Y-151800900D01*
X97327580Y-148080000D01*
X99451669Y-148080000D01*
X99538492Y-148516489D01*
X99785743Y-148886526D01*
X100155780Y-149133777D01*
X100592269Y-149220600D01*
X100947731Y-149220600D01*
X101384220Y-149133777D01*
X101754257Y-148886526D01*
X102001508Y-148516489D01*
X102040000Y-148322977D01*
X102078492Y-148516489D01*
X102325743Y-148886526D01*
X102695780Y-149133777D01*
X103132269Y-149220600D01*
X103487731Y-149220600D01*
X103924220Y-149133777D01*
X104294257Y-148886526D01*
X104541508Y-148516489D01*
X104580000Y-148322977D01*
X104618492Y-148516489D01*
X104865743Y-148886526D01*
X105235780Y-149133777D01*
X105672269Y-149220600D01*
X106027731Y-149220600D01*
X106464220Y-149133777D01*
X106834257Y-148886526D01*
X107081508Y-148516489D01*
X107120000Y-148322977D01*
X107158492Y-148516489D01*
X107405743Y-148886526D01*
X107775780Y-149133777D01*
X108212269Y-149220600D01*
X108567731Y-149220600D01*
X109004220Y-149133777D01*
X109374257Y-148886526D01*
X109621508Y-148516489D01*
X109660000Y-148322977D01*
X109698492Y-148516489D01*
X109945743Y-148886526D01*
X110315780Y-149133777D01*
X110752269Y-149220600D01*
X111107731Y-149220600D01*
X111544220Y-149133777D01*
X111914257Y-148886526D01*
X112161508Y-148516489D01*
X112200000Y-148322977D01*
X112238492Y-148516489D01*
X112485743Y-148886526D01*
X112855780Y-149133777D01*
X113292269Y-149220600D01*
X113647731Y-149220600D01*
X114084220Y-149133777D01*
X114454257Y-148886526D01*
X114701508Y-148516489D01*
X114740000Y-148322977D01*
X114778492Y-148516489D01*
X115025743Y-148886526D01*
X115395780Y-149133777D01*
X115832269Y-149220600D01*
X116187731Y-149220600D01*
X116624220Y-149133777D01*
X116994257Y-148886526D01*
X117241508Y-148516489D01*
X117280000Y-148322977D01*
X117318492Y-148516489D01*
X117565743Y-148886526D01*
X117935780Y-149133777D01*
X118372269Y-149220600D01*
X118727731Y-149220600D01*
X119164220Y-149133777D01*
X119534257Y-148886526D01*
X119781508Y-148516489D01*
X119820000Y-148322977D01*
X119858492Y-148516489D01*
X120105743Y-148886526D01*
X120475780Y-149133777D01*
X120912269Y-149220600D01*
X121267731Y-149220600D01*
X121704220Y-149133777D01*
X122074257Y-148886526D01*
X122321508Y-148516489D01*
X122360000Y-148322977D01*
X122398492Y-148516489D01*
X122645743Y-148886526D01*
X123015780Y-149133777D01*
X123452269Y-149220600D01*
X123807731Y-149220600D01*
X124244220Y-149133777D01*
X124614257Y-148886526D01*
X124861508Y-148516489D01*
X124948331Y-148080000D01*
X124861508Y-147643511D01*
X124614257Y-147273474D01*
X124244220Y-147026223D01*
X123807731Y-146939400D01*
X123452269Y-146939400D01*
X123015780Y-147026223D01*
X122645743Y-147273474D01*
X122398492Y-147643511D01*
X122360000Y-147837023D01*
X122321508Y-147643511D01*
X122074257Y-147273474D01*
X121704220Y-147026223D01*
X121267731Y-146939400D01*
X120912269Y-146939400D01*
X120475780Y-147026223D01*
X120105743Y-147273474D01*
X119858492Y-147643511D01*
X119820000Y-147837023D01*
X119781508Y-147643511D01*
X119534257Y-147273474D01*
X119164220Y-147026223D01*
X118727731Y-146939400D01*
X118372269Y-146939400D01*
X117935780Y-147026223D01*
X117565743Y-147273474D01*
X117318492Y-147643511D01*
X117280000Y-147837023D01*
X117241508Y-147643511D01*
X116994257Y-147273474D01*
X116624220Y-147026223D01*
X116187731Y-146939400D01*
X115832269Y-146939400D01*
X115395780Y-147026223D01*
X115025743Y-147273474D01*
X114778492Y-147643511D01*
X114740000Y-147837023D01*
X114701508Y-147643511D01*
X114454257Y-147273474D01*
X114084220Y-147026223D01*
X113647731Y-146939400D01*
X113292269Y-146939400D01*
X112855780Y-147026223D01*
X112485743Y-147273474D01*
X112238492Y-147643511D01*
X112200000Y-147837023D01*
X112161508Y-147643511D01*
X111914257Y-147273474D01*
X111544220Y-147026223D01*
X111107731Y-146939400D01*
X110752269Y-146939400D01*
X110315780Y-147026223D01*
X109945743Y-147273474D01*
X109698492Y-147643511D01*
X109660000Y-147837023D01*
X109621508Y-147643511D01*
X109374257Y-147273474D01*
X109004220Y-147026223D01*
X108567731Y-146939400D01*
X108212269Y-146939400D01*
X107775780Y-147026223D01*
X107405743Y-147273474D01*
X107158492Y-147643511D01*
X107120000Y-147837023D01*
X107081508Y-147643511D01*
X106834257Y-147273474D01*
X106464220Y-147026223D01*
X106027731Y-146939400D01*
X105672269Y-146939400D01*
X105235780Y-147026223D01*
X104865743Y-147273474D01*
X104618492Y-147643511D01*
X104580000Y-147837023D01*
X104541508Y-147643511D01*
X104294257Y-147273474D01*
X103924220Y-147026223D01*
X103487731Y-146939400D01*
X103132269Y-146939400D01*
X102695780Y-147026223D01*
X102325743Y-147273474D01*
X102078492Y-147643511D01*
X102040000Y-147837023D01*
X102001508Y-147643511D01*
X101754257Y-147273474D01*
X101384220Y-147026223D01*
X100947731Y-146939400D01*
X100592269Y-146939400D01*
X100155780Y-147026223D01*
X99785743Y-147273474D01*
X99538492Y-147643511D01*
X99451669Y-148080000D01*
X97327580Y-148080000D01*
X97327580Y-145540000D01*
X99451669Y-145540000D01*
X99538492Y-145976489D01*
X99785743Y-146346526D01*
X100155780Y-146593777D01*
X100592269Y-146680600D01*
X100947731Y-146680600D01*
X101384220Y-146593777D01*
X101754257Y-146346526D01*
X102001508Y-145976489D01*
X102040000Y-145782977D01*
X102078492Y-145976489D01*
X102325743Y-146346526D01*
X102695780Y-146593777D01*
X103132269Y-146680600D01*
X103487731Y-146680600D01*
X103924220Y-146593777D01*
X104294257Y-146346526D01*
X104541508Y-145976489D01*
X104580000Y-145782977D01*
X104618492Y-145976489D01*
X104865743Y-146346526D01*
X105235780Y-146593777D01*
X105672269Y-146680600D01*
X106027731Y-146680600D01*
X106464220Y-146593777D01*
X106834257Y-146346526D01*
X107081508Y-145976489D01*
X107120000Y-145782977D01*
X107158492Y-145976489D01*
X107405743Y-146346526D01*
X107775780Y-146593777D01*
X108212269Y-146680600D01*
X108567731Y-146680600D01*
X109004220Y-146593777D01*
X109374257Y-146346526D01*
X109621508Y-145976489D01*
X109660000Y-145782977D01*
X109698492Y-145976489D01*
X109945743Y-146346526D01*
X110315780Y-146593777D01*
X110752269Y-146680600D01*
X111107731Y-146680600D01*
X111544220Y-146593777D01*
X111914257Y-146346526D01*
X112161508Y-145976489D01*
X112200000Y-145782977D01*
X112238492Y-145976489D01*
X112485743Y-146346526D01*
X112855780Y-146593777D01*
X113292269Y-146680600D01*
X113647731Y-146680600D01*
X114084220Y-146593777D01*
X114454257Y-146346526D01*
X114701508Y-145976489D01*
X114740000Y-145782977D01*
X114778492Y-145976489D01*
X115025743Y-146346526D01*
X115395780Y-146593777D01*
X115832269Y-146680600D01*
X116187731Y-146680600D01*
X116624220Y-146593777D01*
X116994257Y-146346526D01*
X117241508Y-145976489D01*
X117280000Y-145782977D01*
X117318492Y-145976489D01*
X117565743Y-146346526D01*
X117935780Y-146593777D01*
X118372269Y-146680600D01*
X118727731Y-146680600D01*
X119164220Y-146593777D01*
X119534257Y-146346526D01*
X119781508Y-145976489D01*
X119820000Y-145782977D01*
X119858492Y-145976489D01*
X120105743Y-146346526D01*
X120475780Y-146593777D01*
X120912269Y-146680600D01*
X121267731Y-146680600D01*
X121704220Y-146593777D01*
X122074257Y-146346526D01*
X122321508Y-145976489D01*
X122360000Y-145782977D01*
X122398492Y-145976489D01*
X122645743Y-146346526D01*
X123015780Y-146593777D01*
X123452269Y-146680600D01*
X123807731Y-146680600D01*
X124244220Y-146593777D01*
X124614257Y-146346526D01*
X124861508Y-145976489D01*
X124948331Y-145540000D01*
X124861508Y-145103511D01*
X124614257Y-144733474D01*
X124244220Y-144486223D01*
X123807731Y-144399400D01*
X123452269Y-144399400D01*
X123015780Y-144486223D01*
X122645743Y-144733474D01*
X122398492Y-145103511D01*
X122360000Y-145297023D01*
X122321508Y-145103511D01*
X122074257Y-144733474D01*
X121704220Y-144486223D01*
X121267731Y-144399400D01*
X120912269Y-144399400D01*
X120475780Y-144486223D01*
X120105743Y-144733474D01*
X119858492Y-145103511D01*
X119820000Y-145297023D01*
X119781508Y-145103511D01*
X119534257Y-144733474D01*
X119164220Y-144486223D01*
X118727731Y-144399400D01*
X118372269Y-144399400D01*
X117935780Y-144486223D01*
X117565743Y-144733474D01*
X117318492Y-145103511D01*
X117280000Y-145297023D01*
X117241508Y-145103511D01*
X116994257Y-144733474D01*
X116624220Y-144486223D01*
X116187731Y-144399400D01*
X115832269Y-144399400D01*
X115395780Y-144486223D01*
X115025743Y-144733474D01*
X114778492Y-145103511D01*
X114740000Y-145297023D01*
X114701508Y-145103511D01*
X114454257Y-144733474D01*
X114084220Y-144486223D01*
X113647731Y-144399400D01*
X113292269Y-144399400D01*
X112855780Y-144486223D01*
X112485743Y-144733474D01*
X112238492Y-145103511D01*
X112200000Y-145297023D01*
X112161508Y-145103511D01*
X111914257Y-144733474D01*
X111544220Y-144486223D01*
X111107731Y-144399400D01*
X110752269Y-144399400D01*
X110315780Y-144486223D01*
X109945743Y-144733474D01*
X109698492Y-145103511D01*
X109660000Y-145297023D01*
X109621508Y-145103511D01*
X109374257Y-144733474D01*
X109004220Y-144486223D01*
X108567731Y-144399400D01*
X108212269Y-144399400D01*
X107775780Y-144486223D01*
X107405743Y-144733474D01*
X107158492Y-145103511D01*
X107120000Y-145297023D01*
X107081508Y-145103511D01*
X106834257Y-144733474D01*
X106464220Y-144486223D01*
X106027731Y-144399400D01*
X105672269Y-144399400D01*
X105235780Y-144486223D01*
X104865743Y-144733474D01*
X104618492Y-145103511D01*
X104580000Y-145297023D01*
X104541508Y-145103511D01*
X104294257Y-144733474D01*
X103924220Y-144486223D01*
X103487731Y-144399400D01*
X103132269Y-144399400D01*
X102695780Y-144486223D01*
X102325743Y-144733474D01*
X102078492Y-145103511D01*
X102040000Y-145297023D01*
X102001508Y-145103511D01*
X101754257Y-144733474D01*
X101384220Y-144486223D01*
X100947731Y-144399400D01*
X100592269Y-144399400D01*
X100155780Y-144486223D01*
X99785743Y-144733474D01*
X99538492Y-145103511D01*
X99451669Y-145540000D01*
X97327580Y-145540000D01*
X97327580Y-143000000D01*
X99451669Y-143000000D01*
X99538492Y-143436489D01*
X99785743Y-143806526D01*
X100155780Y-144053777D01*
X100592269Y-144140600D01*
X100947731Y-144140600D01*
X101384220Y-144053777D01*
X101754257Y-143806526D01*
X102001508Y-143436489D01*
X102040000Y-143242977D01*
X102078492Y-143436489D01*
X102325743Y-143806526D01*
X102695780Y-144053777D01*
X103132269Y-144140600D01*
X103487731Y-144140600D01*
X103924220Y-144053777D01*
X104294257Y-143806526D01*
X104541508Y-143436489D01*
X104580000Y-143242977D01*
X104618492Y-143436489D01*
X104865743Y-143806526D01*
X105235780Y-144053777D01*
X105672269Y-144140600D01*
X106027731Y-144140600D01*
X106464220Y-144053777D01*
X106834257Y-143806526D01*
X107081508Y-143436489D01*
X107120000Y-143242977D01*
X107158492Y-143436489D01*
X107405743Y-143806526D01*
X107775780Y-144053777D01*
X108212269Y-144140600D01*
X108567731Y-144140600D01*
X109004220Y-144053777D01*
X109374257Y-143806526D01*
X109621508Y-143436489D01*
X109660000Y-143242977D01*
X109698492Y-143436489D01*
X109945743Y-143806526D01*
X110315780Y-144053777D01*
X110752269Y-144140600D01*
X111107731Y-144140600D01*
X111544220Y-144053777D01*
X111914257Y-143806526D01*
X112161508Y-143436489D01*
X112200000Y-143242977D01*
X112238492Y-143436489D01*
X112485743Y-143806526D01*
X112855780Y-144053777D01*
X113292269Y-144140600D01*
X113647731Y-144140600D01*
X114084220Y-144053777D01*
X114454257Y-143806526D01*
X114701508Y-143436489D01*
X114740000Y-143242977D01*
X114778492Y-143436489D01*
X115025743Y-143806526D01*
X115395780Y-144053777D01*
X115832269Y-144140600D01*
X116187731Y-144140600D01*
X116624220Y-144053777D01*
X116994257Y-143806526D01*
X117241508Y-143436489D01*
X117280000Y-143242977D01*
X117318492Y-143436489D01*
X117565743Y-143806526D01*
X117935780Y-144053777D01*
X118372269Y-144140600D01*
X118727731Y-144140600D01*
X119164220Y-144053777D01*
X119534257Y-143806526D01*
X119781508Y-143436489D01*
X119820000Y-143242977D01*
X119858492Y-143436489D01*
X120105743Y-143806526D01*
X120475780Y-144053777D01*
X120912269Y-144140600D01*
X121267731Y-144140600D01*
X121704220Y-144053777D01*
X122074257Y-143806526D01*
X122321508Y-143436489D01*
X122360000Y-143242977D01*
X122398492Y-143436489D01*
X122645743Y-143806526D01*
X123015780Y-144053777D01*
X123452269Y-144140600D01*
X123807731Y-144140600D01*
X124244220Y-144053777D01*
X124614257Y-143806526D01*
X124861508Y-143436489D01*
X124948331Y-143000000D01*
X124861508Y-142563511D01*
X124614257Y-142193474D01*
X124244220Y-141946223D01*
X123807731Y-141859400D01*
X123452269Y-141859400D01*
X123015780Y-141946223D01*
X122645743Y-142193474D01*
X122398492Y-142563511D01*
X122360000Y-142757023D01*
X122321508Y-142563511D01*
X122074257Y-142193474D01*
X121704220Y-141946223D01*
X121267731Y-141859400D01*
X120912269Y-141859400D01*
X120475780Y-141946223D01*
X120105743Y-142193474D01*
X119858492Y-142563511D01*
X119820000Y-142757023D01*
X119781508Y-142563511D01*
X119534257Y-142193474D01*
X119164220Y-141946223D01*
X118727731Y-141859400D01*
X118372269Y-141859400D01*
X117935780Y-141946223D01*
X117565743Y-142193474D01*
X117318492Y-142563511D01*
X117280000Y-142757023D01*
X117241508Y-142563511D01*
X116994257Y-142193474D01*
X116624220Y-141946223D01*
X116187731Y-141859400D01*
X115832269Y-141859400D01*
X115395780Y-141946223D01*
X115025743Y-142193474D01*
X114778492Y-142563511D01*
X114740000Y-142757023D01*
X114701508Y-142563511D01*
X114454257Y-142193474D01*
X114084220Y-141946223D01*
X113647731Y-141859400D01*
X113292269Y-141859400D01*
X112855780Y-141946223D01*
X112485743Y-142193474D01*
X112238492Y-142563511D01*
X112200000Y-142757023D01*
X112161508Y-142563511D01*
X111914257Y-142193474D01*
X111544220Y-141946223D01*
X111107731Y-141859400D01*
X110752269Y-141859400D01*
X110315780Y-141946223D01*
X109945743Y-142193474D01*
X109698492Y-142563511D01*
X109660000Y-142757023D01*
X109621508Y-142563511D01*
X109374257Y-142193474D01*
X109004220Y-141946223D01*
X108567731Y-141859400D01*
X108212269Y-141859400D01*
X107775780Y-141946223D01*
X107405743Y-142193474D01*
X107158492Y-142563511D01*
X107120000Y-142757023D01*
X107081508Y-142563511D01*
X106834257Y-142193474D01*
X106464220Y-141946223D01*
X106027731Y-141859400D01*
X105672269Y-141859400D01*
X105235780Y-141946223D01*
X104865743Y-142193474D01*
X104618492Y-142563511D01*
X104580000Y-142757023D01*
X104541508Y-142563511D01*
X104294257Y-142193474D01*
X103924220Y-141946223D01*
X103487731Y-141859400D01*
X103132269Y-141859400D01*
X102695780Y-141946223D01*
X102325743Y-142193474D01*
X102078492Y-142563511D01*
X102040000Y-142757023D01*
X102001508Y-142563511D01*
X101754257Y-142193474D01*
X101384220Y-141946223D01*
X100947731Y-141859400D01*
X100592269Y-141859400D01*
X100155780Y-141946223D01*
X99785743Y-142193474D01*
X99538492Y-142563511D01*
X99451669Y-143000000D01*
X97327580Y-143000000D01*
X97327580Y-140460000D01*
X99451669Y-140460000D01*
X99538492Y-140896489D01*
X99785743Y-141266526D01*
X100155780Y-141513777D01*
X100592269Y-141600600D01*
X100947731Y-141600600D01*
X101384220Y-141513777D01*
X101754257Y-141266526D01*
X102001508Y-140896489D01*
X102040000Y-140702977D01*
X102078492Y-140896489D01*
X102325743Y-141266526D01*
X102695780Y-141513777D01*
X103132269Y-141600600D01*
X103487731Y-141600600D01*
X103924220Y-141513777D01*
X104294257Y-141266526D01*
X104541508Y-140896489D01*
X104580000Y-140702977D01*
X104618492Y-140896489D01*
X104865743Y-141266526D01*
X105235780Y-141513777D01*
X105672269Y-141600600D01*
X106027731Y-141600600D01*
X106464220Y-141513777D01*
X106834257Y-141266526D01*
X107081508Y-140896489D01*
X107120000Y-140702977D01*
X107158492Y-140896489D01*
X107405743Y-141266526D01*
X107775780Y-141513777D01*
X108212269Y-141600600D01*
X108567731Y-141600600D01*
X109004220Y-141513777D01*
X109374257Y-141266526D01*
X109621508Y-140896489D01*
X109660000Y-140702977D01*
X109698492Y-140896489D01*
X109945743Y-141266526D01*
X110315780Y-141513777D01*
X110752269Y-141600600D01*
X111107731Y-141600600D01*
X111544220Y-141513777D01*
X111914257Y-141266526D01*
X112161508Y-140896489D01*
X112200000Y-140702977D01*
X112238492Y-140896489D01*
X112485743Y-141266526D01*
X112855780Y-141513777D01*
X113292269Y-141600600D01*
X113647731Y-141600600D01*
X114084220Y-141513777D01*
X114454257Y-141266526D01*
X114701508Y-140896489D01*
X114740000Y-140702977D01*
X114778492Y-140896489D01*
X115025743Y-141266526D01*
X115395780Y-141513777D01*
X115832269Y-141600600D01*
X116187731Y-141600600D01*
X116624220Y-141513777D01*
X116994257Y-141266526D01*
X117241508Y-140896489D01*
X117280000Y-140702977D01*
X117318492Y-140896489D01*
X117565743Y-141266526D01*
X117935780Y-141513777D01*
X118372269Y-141600600D01*
X118727731Y-141600600D01*
X119164220Y-141513777D01*
X119534257Y-141266526D01*
X119781508Y-140896489D01*
X119820000Y-140702977D01*
X119858492Y-140896489D01*
X120105743Y-141266526D01*
X120475780Y-141513777D01*
X120912269Y-141600600D01*
X121267731Y-141600600D01*
X121704220Y-141513777D01*
X122074257Y-141266526D01*
X122321508Y-140896489D01*
X122360000Y-140702977D01*
X122398492Y-140896489D01*
X122645743Y-141266526D01*
X123015780Y-141513777D01*
X123452269Y-141600600D01*
X123807731Y-141600600D01*
X124244220Y-141513777D01*
X124614257Y-141266526D01*
X124861508Y-140896489D01*
X124948331Y-140460000D01*
X124861508Y-140023511D01*
X124614257Y-139653474D01*
X124244220Y-139406223D01*
X123807731Y-139319400D01*
X123452269Y-139319400D01*
X123015780Y-139406223D01*
X122645743Y-139653474D01*
X122398492Y-140023511D01*
X122360000Y-140217023D01*
X122321508Y-140023511D01*
X122074257Y-139653474D01*
X121704220Y-139406223D01*
X121267731Y-139319400D01*
X120912269Y-139319400D01*
X120475780Y-139406223D01*
X120105743Y-139653474D01*
X119858492Y-140023511D01*
X119820000Y-140217023D01*
X119781508Y-140023511D01*
X119534257Y-139653474D01*
X119164220Y-139406223D01*
X118727731Y-139319400D01*
X118372269Y-139319400D01*
X117935780Y-139406223D01*
X117565743Y-139653474D01*
X117318492Y-140023511D01*
X117280000Y-140217023D01*
X117241508Y-140023511D01*
X116994257Y-139653474D01*
X116624220Y-139406223D01*
X116187731Y-139319400D01*
X115832269Y-139319400D01*
X115395780Y-139406223D01*
X115025743Y-139653474D01*
X114778492Y-140023511D01*
X114740000Y-140217023D01*
X114701508Y-140023511D01*
X114454257Y-139653474D01*
X114084220Y-139406223D01*
X113647731Y-139319400D01*
X113292269Y-139319400D01*
X112855780Y-139406223D01*
X112485743Y-139653474D01*
X112238492Y-140023511D01*
X112200000Y-140217023D01*
X112161508Y-140023511D01*
X111914257Y-139653474D01*
X111544220Y-139406223D01*
X111107731Y-139319400D01*
X110752269Y-139319400D01*
X110315780Y-139406223D01*
X109945743Y-139653474D01*
X109698492Y-140023511D01*
X109660000Y-140217023D01*
X109621508Y-140023511D01*
X109374257Y-139653474D01*
X109004220Y-139406223D01*
X108567731Y-139319400D01*
X108212269Y-139319400D01*
X107775780Y-139406223D01*
X107405743Y-139653474D01*
X107158492Y-140023511D01*
X107120000Y-140217023D01*
X107081508Y-140023511D01*
X106834257Y-139653474D01*
X106464220Y-139406223D01*
X106027731Y-139319400D01*
X105672269Y-139319400D01*
X105235780Y-139406223D01*
X104865743Y-139653474D01*
X104618492Y-140023511D01*
X104580000Y-140217023D01*
X104541508Y-140023511D01*
X104294257Y-139653474D01*
X103924220Y-139406223D01*
X103487731Y-139319400D01*
X103132269Y-139319400D01*
X102695780Y-139406223D01*
X102325743Y-139653474D01*
X102078492Y-140023511D01*
X102040000Y-140217023D01*
X102001508Y-140023511D01*
X101754257Y-139653474D01*
X101384220Y-139406223D01*
X100947731Y-139319400D01*
X100592269Y-139319400D01*
X100155780Y-139406223D01*
X99785743Y-139653474D01*
X99538492Y-140023511D01*
X99451669Y-140460000D01*
X97327580Y-140460000D01*
X97327580Y-137920000D01*
X99451669Y-137920000D01*
X99538492Y-138356489D01*
X99785743Y-138726526D01*
X100155780Y-138973777D01*
X100592269Y-139060600D01*
X100947731Y-139060600D01*
X101384220Y-138973777D01*
X101754257Y-138726526D01*
X102001508Y-138356489D01*
X102040000Y-138162977D01*
X102078492Y-138356489D01*
X102325743Y-138726526D01*
X102695780Y-138973777D01*
X103132269Y-139060600D01*
X103487731Y-139060600D01*
X103924220Y-138973777D01*
X104294257Y-138726526D01*
X104541508Y-138356489D01*
X104580000Y-138162977D01*
X104618492Y-138356489D01*
X104865743Y-138726526D01*
X105235780Y-138973777D01*
X105672269Y-139060600D01*
X106027731Y-139060600D01*
X106464220Y-138973777D01*
X106834257Y-138726526D01*
X107081508Y-138356489D01*
X107120000Y-138162977D01*
X107158492Y-138356489D01*
X107405743Y-138726526D01*
X107775780Y-138973777D01*
X108212269Y-139060600D01*
X108567731Y-139060600D01*
X109004220Y-138973777D01*
X109374257Y-138726526D01*
X109621508Y-138356489D01*
X109660000Y-138162977D01*
X109698492Y-138356489D01*
X109945743Y-138726526D01*
X110315780Y-138973777D01*
X110752269Y-139060600D01*
X111107731Y-139060600D01*
X111544220Y-138973777D01*
X111914257Y-138726526D01*
X112161508Y-138356489D01*
X112200000Y-138162977D01*
X112238492Y-138356489D01*
X112485743Y-138726526D01*
X112855780Y-138973777D01*
X113292269Y-139060600D01*
X113647731Y-139060600D01*
X114084220Y-138973777D01*
X114454257Y-138726526D01*
X114701508Y-138356489D01*
X114740000Y-138162977D01*
X114778492Y-138356489D01*
X115025743Y-138726526D01*
X115395780Y-138973777D01*
X115832269Y-139060600D01*
X116187731Y-139060600D01*
X116624220Y-138973777D01*
X116994257Y-138726526D01*
X117241508Y-138356489D01*
X117280000Y-138162977D01*
X117318492Y-138356489D01*
X117565743Y-138726526D01*
X117935780Y-138973777D01*
X118372269Y-139060600D01*
X118727731Y-139060600D01*
X119164220Y-138973777D01*
X119534257Y-138726526D01*
X119781508Y-138356489D01*
X119820000Y-138162977D01*
X119858492Y-138356489D01*
X120105743Y-138726526D01*
X120475780Y-138973777D01*
X120912269Y-139060600D01*
X121267731Y-139060600D01*
X121704220Y-138973777D01*
X122074257Y-138726526D01*
X122321508Y-138356489D01*
X122360000Y-138162977D01*
X122398492Y-138356489D01*
X122645743Y-138726526D01*
X123015780Y-138973777D01*
X123452269Y-139060600D01*
X123807731Y-139060600D01*
X124244220Y-138973777D01*
X124614257Y-138726526D01*
X124861508Y-138356489D01*
X124948331Y-137920000D01*
X124861508Y-137483511D01*
X124614257Y-137113474D01*
X124244220Y-136866223D01*
X123807731Y-136779400D01*
X123452269Y-136779400D01*
X123015780Y-136866223D01*
X122645743Y-137113474D01*
X122398492Y-137483511D01*
X122360000Y-137677023D01*
X122321508Y-137483511D01*
X122074257Y-137113474D01*
X121704220Y-136866223D01*
X121267731Y-136779400D01*
X120912269Y-136779400D01*
X120475780Y-136866223D01*
X120105743Y-137113474D01*
X119858492Y-137483511D01*
X119820000Y-137677023D01*
X119781508Y-137483511D01*
X119534257Y-137113474D01*
X119164220Y-136866223D01*
X118727731Y-136779400D01*
X118372269Y-136779400D01*
X117935780Y-136866223D01*
X117565743Y-137113474D01*
X117318492Y-137483511D01*
X117280000Y-137677023D01*
X117241508Y-137483511D01*
X116994257Y-137113474D01*
X116624220Y-136866223D01*
X116187731Y-136779400D01*
X115832269Y-136779400D01*
X115395780Y-136866223D01*
X115025743Y-137113474D01*
X114778492Y-137483511D01*
X114740000Y-137677023D01*
X114701508Y-137483511D01*
X114454257Y-137113474D01*
X114084220Y-136866223D01*
X113647731Y-136779400D01*
X113292269Y-136779400D01*
X112855780Y-136866223D01*
X112485743Y-137113474D01*
X112238492Y-137483511D01*
X112200000Y-137677023D01*
X112161508Y-137483511D01*
X111914257Y-137113474D01*
X111544220Y-136866223D01*
X111107731Y-136779400D01*
X110752269Y-136779400D01*
X110315780Y-136866223D01*
X109945743Y-137113474D01*
X109698492Y-137483511D01*
X109660000Y-137677023D01*
X109621508Y-137483511D01*
X109374257Y-137113474D01*
X109004220Y-136866223D01*
X108567731Y-136779400D01*
X108212269Y-136779400D01*
X107775780Y-136866223D01*
X107405743Y-137113474D01*
X107158492Y-137483511D01*
X107120000Y-137677023D01*
X107081508Y-137483511D01*
X106834257Y-137113474D01*
X106464220Y-136866223D01*
X106027731Y-136779400D01*
X105672269Y-136779400D01*
X105235780Y-136866223D01*
X104865743Y-137113474D01*
X104618492Y-137483511D01*
X104580000Y-137677023D01*
X104541508Y-137483511D01*
X104294257Y-137113474D01*
X103924220Y-136866223D01*
X103487731Y-136779400D01*
X103132269Y-136779400D01*
X102695780Y-136866223D01*
X102325743Y-137113474D01*
X102078492Y-137483511D01*
X102040000Y-137677023D01*
X102001508Y-137483511D01*
X101754257Y-137113474D01*
X101384220Y-136866223D01*
X100947731Y-136779400D01*
X100592269Y-136779400D01*
X100155780Y-136866223D01*
X99785743Y-137113474D01*
X99538492Y-137483511D01*
X99451669Y-137920000D01*
X97327580Y-137920000D01*
X97327580Y-135380000D01*
X99451669Y-135380000D01*
X99538492Y-135816489D01*
X99785743Y-136186526D01*
X100155780Y-136433777D01*
X100592269Y-136520600D01*
X100947731Y-136520600D01*
X101384220Y-136433777D01*
X101754257Y-136186526D01*
X102001508Y-135816489D01*
X102040000Y-135622977D01*
X102078492Y-135816489D01*
X102325743Y-136186526D01*
X102695780Y-136433777D01*
X103132269Y-136520600D01*
X103487731Y-136520600D01*
X103924220Y-136433777D01*
X104294257Y-136186526D01*
X104541508Y-135816489D01*
X104580000Y-135622977D01*
X104618492Y-135816489D01*
X104865743Y-136186526D01*
X105235780Y-136433777D01*
X105672269Y-136520600D01*
X106027731Y-136520600D01*
X106464220Y-136433777D01*
X106834257Y-136186526D01*
X107081508Y-135816489D01*
X107120000Y-135622977D01*
X107158492Y-135816489D01*
X107405743Y-136186526D01*
X107775780Y-136433777D01*
X108212269Y-136520600D01*
X108567731Y-136520600D01*
X109004220Y-136433777D01*
X109374257Y-136186526D01*
X109621508Y-135816489D01*
X109660000Y-135622977D01*
X109698492Y-135816489D01*
X109945743Y-136186526D01*
X110315780Y-136433777D01*
X110752269Y-136520600D01*
X111107731Y-136520600D01*
X111544220Y-136433777D01*
X111914257Y-136186526D01*
X112161508Y-135816489D01*
X112200000Y-135622977D01*
X112238492Y-135816489D01*
X112485743Y-136186526D01*
X112855780Y-136433777D01*
X113292269Y-136520600D01*
X113647731Y-136520600D01*
X114084220Y-136433777D01*
X114454257Y-136186526D01*
X114701508Y-135816489D01*
X114740000Y-135622977D01*
X114778492Y-135816489D01*
X115025743Y-136186526D01*
X115395780Y-136433777D01*
X115832269Y-136520600D01*
X116187731Y-136520600D01*
X116624220Y-136433777D01*
X116994257Y-136186526D01*
X117241508Y-135816489D01*
X117280000Y-135622977D01*
X117318492Y-135816489D01*
X117565743Y-136186526D01*
X117935780Y-136433777D01*
X118372269Y-136520600D01*
X118727731Y-136520600D01*
X119164220Y-136433777D01*
X119534257Y-136186526D01*
X119781508Y-135816489D01*
X119820000Y-135622977D01*
X119858492Y-135816489D01*
X120105743Y-136186526D01*
X120475780Y-136433777D01*
X120912269Y-136520600D01*
X121267731Y-136520600D01*
X121704220Y-136433777D01*
X122074257Y-136186526D01*
X122321508Y-135816489D01*
X122360000Y-135622977D01*
X122398492Y-135816489D01*
X122645743Y-136186526D01*
X123015780Y-136433777D01*
X123452269Y-136520600D01*
X123807731Y-136520600D01*
X124244220Y-136433777D01*
X124614257Y-136186526D01*
X124861508Y-135816489D01*
X124948331Y-135380000D01*
X124861508Y-134943511D01*
X124614257Y-134573474D01*
X124244220Y-134326223D01*
X123807731Y-134239400D01*
X123452269Y-134239400D01*
X123015780Y-134326223D01*
X122645743Y-134573474D01*
X122398492Y-134943511D01*
X122360000Y-135137023D01*
X122321508Y-134943511D01*
X122074257Y-134573474D01*
X121704220Y-134326223D01*
X121267731Y-134239400D01*
X120912269Y-134239400D01*
X120475780Y-134326223D01*
X120105743Y-134573474D01*
X119858492Y-134943511D01*
X119820000Y-135137023D01*
X119781508Y-134943511D01*
X119534257Y-134573474D01*
X119164220Y-134326223D01*
X118727731Y-134239400D01*
X118372269Y-134239400D01*
X117935780Y-134326223D01*
X117565743Y-134573474D01*
X117318492Y-134943511D01*
X117280000Y-135137023D01*
X117241508Y-134943511D01*
X116994257Y-134573474D01*
X116624220Y-134326223D01*
X116187731Y-134239400D01*
X115832269Y-134239400D01*
X115395780Y-134326223D01*
X115025743Y-134573474D01*
X114778492Y-134943511D01*
X114740000Y-135137023D01*
X114701508Y-134943511D01*
X114454257Y-134573474D01*
X114084220Y-134326223D01*
X113647731Y-134239400D01*
X113292269Y-134239400D01*
X112855780Y-134326223D01*
X112485743Y-134573474D01*
X112238492Y-134943511D01*
X112200000Y-135137023D01*
X112161508Y-134943511D01*
X111914257Y-134573474D01*
X111544220Y-134326223D01*
X111107731Y-134239400D01*
X110752269Y-134239400D01*
X110315780Y-134326223D01*
X109945743Y-134573474D01*
X109698492Y-134943511D01*
X109660000Y-135137023D01*
X109621508Y-134943511D01*
X109374257Y-134573474D01*
X109004220Y-134326223D01*
X108567731Y-134239400D01*
X108212269Y-134239400D01*
X107775780Y-134326223D01*
X107405743Y-134573474D01*
X107158492Y-134943511D01*
X107120000Y-135137023D01*
X107081508Y-134943511D01*
X106834257Y-134573474D01*
X106464220Y-134326223D01*
X106027731Y-134239400D01*
X105672269Y-134239400D01*
X105235780Y-134326223D01*
X104865743Y-134573474D01*
X104618492Y-134943511D01*
X104580000Y-135137023D01*
X104541508Y-134943511D01*
X104294257Y-134573474D01*
X103924220Y-134326223D01*
X103487731Y-134239400D01*
X103132269Y-134239400D01*
X102695780Y-134326223D01*
X102325743Y-134573474D01*
X102078492Y-134943511D01*
X102040000Y-135137023D01*
X102001508Y-134943511D01*
X101754257Y-134573474D01*
X101384220Y-134326223D01*
X100947731Y-134239400D01*
X100592269Y-134239400D01*
X100155780Y-134326223D01*
X99785743Y-134573474D01*
X99538492Y-134943511D01*
X99451669Y-135380000D01*
X97327580Y-135380000D01*
X97327580Y-132840000D01*
X99451669Y-132840000D01*
X99538492Y-133276489D01*
X99785743Y-133646526D01*
X100155780Y-133893777D01*
X100592269Y-133980600D01*
X100947731Y-133980600D01*
X101384220Y-133893777D01*
X101754257Y-133646526D01*
X102001508Y-133276489D01*
X102040000Y-133082977D01*
X102078492Y-133276489D01*
X102325743Y-133646526D01*
X102695780Y-133893777D01*
X103132269Y-133980600D01*
X103487731Y-133980600D01*
X103924220Y-133893777D01*
X104294257Y-133646526D01*
X104541508Y-133276489D01*
X104580000Y-133082977D01*
X104618492Y-133276489D01*
X104865743Y-133646526D01*
X105235780Y-133893777D01*
X105672269Y-133980600D01*
X106027731Y-133980600D01*
X106464220Y-133893777D01*
X106834257Y-133646526D01*
X107081508Y-133276489D01*
X107120000Y-133082977D01*
X107158492Y-133276489D01*
X107405743Y-133646526D01*
X107775780Y-133893777D01*
X108212269Y-133980600D01*
X108567731Y-133980600D01*
X109004220Y-133893777D01*
X109374257Y-133646526D01*
X109621508Y-133276489D01*
X109660000Y-133082977D01*
X109698492Y-133276489D01*
X109945743Y-133646526D01*
X110315780Y-133893777D01*
X110752269Y-133980600D01*
X111107731Y-133980600D01*
X111544220Y-133893777D01*
X111914257Y-133646526D01*
X112161508Y-133276489D01*
X112200000Y-133082977D01*
X112238492Y-133276489D01*
X112485743Y-133646526D01*
X112855780Y-133893777D01*
X113292269Y-133980600D01*
X113647731Y-133980600D01*
X114084220Y-133893777D01*
X114454257Y-133646526D01*
X114701508Y-133276489D01*
X114740000Y-133082977D01*
X114778492Y-133276489D01*
X115025743Y-133646526D01*
X115395780Y-133893777D01*
X115832269Y-133980600D01*
X116187731Y-133980600D01*
X116624220Y-133893777D01*
X116994257Y-133646526D01*
X117241508Y-133276489D01*
X117280000Y-133082977D01*
X117318492Y-133276489D01*
X117565743Y-133646526D01*
X117935780Y-133893777D01*
X118372269Y-133980600D01*
X118727731Y-133980600D01*
X119164220Y-133893777D01*
X119534257Y-133646526D01*
X119781508Y-133276489D01*
X119820000Y-133082977D01*
X119858492Y-133276489D01*
X120105743Y-133646526D01*
X120475780Y-133893777D01*
X120912269Y-133980600D01*
X121267731Y-133980600D01*
X121704220Y-133893777D01*
X122074257Y-133646526D01*
X122321508Y-133276489D01*
X122360000Y-133082977D01*
X122398492Y-133276489D01*
X122645743Y-133646526D01*
X123015780Y-133893777D01*
X123452269Y-133980600D01*
X123807731Y-133980600D01*
X124244220Y-133893777D01*
X124614257Y-133646526D01*
X124861508Y-133276489D01*
X124948331Y-132840000D01*
X124861508Y-132403511D01*
X124614257Y-132033474D01*
X124244220Y-131786223D01*
X123807731Y-131699400D01*
X123452269Y-131699400D01*
X123015780Y-131786223D01*
X122645743Y-132033474D01*
X122398492Y-132403511D01*
X122360000Y-132597023D01*
X122321508Y-132403511D01*
X122074257Y-132033474D01*
X121704220Y-131786223D01*
X121267731Y-131699400D01*
X120912269Y-131699400D01*
X120475780Y-131786223D01*
X120105743Y-132033474D01*
X119858492Y-132403511D01*
X119820000Y-132597023D01*
X119781508Y-132403511D01*
X119534257Y-132033474D01*
X119164220Y-131786223D01*
X118727731Y-131699400D01*
X118372269Y-131699400D01*
X117935780Y-131786223D01*
X117565743Y-132033474D01*
X117318492Y-132403511D01*
X117280000Y-132597023D01*
X117241508Y-132403511D01*
X116994257Y-132033474D01*
X116624220Y-131786223D01*
X116187731Y-131699400D01*
X115832269Y-131699400D01*
X115395780Y-131786223D01*
X115025743Y-132033474D01*
X114778492Y-132403511D01*
X114740000Y-132597023D01*
X114701508Y-132403511D01*
X114454257Y-132033474D01*
X114084220Y-131786223D01*
X113647731Y-131699400D01*
X113292269Y-131699400D01*
X112855780Y-131786223D01*
X112485743Y-132033474D01*
X112238492Y-132403511D01*
X112200000Y-132597023D01*
X112161508Y-132403511D01*
X111914257Y-132033474D01*
X111544220Y-131786223D01*
X111107731Y-131699400D01*
X110752269Y-131699400D01*
X110315780Y-131786223D01*
X109945743Y-132033474D01*
X109698492Y-132403511D01*
X109660000Y-132597023D01*
X109621508Y-132403511D01*
X109374257Y-132033474D01*
X109004220Y-131786223D01*
X108567731Y-131699400D01*
X108212269Y-131699400D01*
X107775780Y-131786223D01*
X107405743Y-132033474D01*
X107158492Y-132403511D01*
X107120000Y-132597023D01*
X107081508Y-132403511D01*
X106834257Y-132033474D01*
X106464220Y-131786223D01*
X106027731Y-131699400D01*
X105672269Y-131699400D01*
X105235780Y-131786223D01*
X104865743Y-132033474D01*
X104618492Y-132403511D01*
X104580000Y-132597023D01*
X104541508Y-132403511D01*
X104294257Y-132033474D01*
X103924220Y-131786223D01*
X103487731Y-131699400D01*
X103132269Y-131699400D01*
X102695780Y-131786223D01*
X102325743Y-132033474D01*
X102078492Y-132403511D01*
X102040000Y-132597023D01*
X102001508Y-132403511D01*
X101754257Y-132033474D01*
X101384220Y-131786223D01*
X100947731Y-131699400D01*
X100592269Y-131699400D01*
X100155780Y-131786223D01*
X99785743Y-132033474D01*
X99538492Y-132403511D01*
X99451669Y-132840000D01*
X97327580Y-132840000D01*
X97327580Y-130300000D01*
X99451669Y-130300000D01*
X99538492Y-130736489D01*
X99785743Y-131106526D01*
X100155780Y-131353777D01*
X100592269Y-131440600D01*
X100947731Y-131440600D01*
X101384220Y-131353777D01*
X101754257Y-131106526D01*
X102001508Y-130736489D01*
X102040000Y-130542977D01*
X102078492Y-130736489D01*
X102325743Y-131106526D01*
X102695780Y-131353777D01*
X103132269Y-131440600D01*
X103487731Y-131440600D01*
X103924220Y-131353777D01*
X104294257Y-131106526D01*
X104541508Y-130736489D01*
X104580000Y-130542977D01*
X104618492Y-130736489D01*
X104865743Y-131106526D01*
X105235780Y-131353777D01*
X105672269Y-131440600D01*
X106027731Y-131440600D01*
X106464220Y-131353777D01*
X106834257Y-131106526D01*
X107081508Y-130736489D01*
X107120000Y-130542977D01*
X107158492Y-130736489D01*
X107405743Y-131106526D01*
X107775780Y-131353777D01*
X108212269Y-131440600D01*
X108567731Y-131440600D01*
X109004220Y-131353777D01*
X109374257Y-131106526D01*
X109621508Y-130736489D01*
X109660000Y-130542977D01*
X109698492Y-130736489D01*
X109945743Y-131106526D01*
X110315780Y-131353777D01*
X110752269Y-131440600D01*
X111107731Y-131440600D01*
X111544220Y-131353777D01*
X111914257Y-131106526D01*
X112161508Y-130736489D01*
X112200000Y-130542977D01*
X112238492Y-130736489D01*
X112485743Y-131106526D01*
X112855780Y-131353777D01*
X113292269Y-131440600D01*
X113647731Y-131440600D01*
X114084220Y-131353777D01*
X114454257Y-131106526D01*
X114701508Y-130736489D01*
X114740000Y-130542977D01*
X114778492Y-130736489D01*
X115025743Y-131106526D01*
X115395780Y-131353777D01*
X115832269Y-131440600D01*
X116187731Y-131440600D01*
X116624220Y-131353777D01*
X116994257Y-131106526D01*
X117241508Y-130736489D01*
X117280000Y-130542977D01*
X117318492Y-130736489D01*
X117565743Y-131106526D01*
X117935780Y-131353777D01*
X118372269Y-131440600D01*
X118727731Y-131440600D01*
X119164220Y-131353777D01*
X119534257Y-131106526D01*
X119781508Y-130736489D01*
X119820000Y-130542977D01*
X119858492Y-130736489D01*
X120105743Y-131106526D01*
X120475780Y-131353777D01*
X120912269Y-131440600D01*
X121267731Y-131440600D01*
X121704220Y-131353777D01*
X122074257Y-131106526D01*
X122321508Y-130736489D01*
X122360000Y-130542977D01*
X122398492Y-130736489D01*
X122645743Y-131106526D01*
X123015780Y-131353777D01*
X123452269Y-131440600D01*
X123807731Y-131440600D01*
X124244220Y-131353777D01*
X124614257Y-131106526D01*
X124861508Y-130736489D01*
X124948331Y-130300000D01*
X124861508Y-129863511D01*
X124614257Y-129493474D01*
X124244220Y-129246223D01*
X123807731Y-129159400D01*
X123452269Y-129159400D01*
X123015780Y-129246223D01*
X122645743Y-129493474D01*
X122398492Y-129863511D01*
X122360000Y-130057023D01*
X122321508Y-129863511D01*
X122074257Y-129493474D01*
X121704220Y-129246223D01*
X121267731Y-129159400D01*
X120912269Y-129159400D01*
X120475780Y-129246223D01*
X120105743Y-129493474D01*
X119858492Y-129863511D01*
X119820000Y-130057023D01*
X119781508Y-129863511D01*
X119534257Y-129493474D01*
X119164220Y-129246223D01*
X118727731Y-129159400D01*
X118372269Y-129159400D01*
X117935780Y-129246223D01*
X117565743Y-129493474D01*
X117318492Y-129863511D01*
X117280000Y-130057023D01*
X117241508Y-129863511D01*
X116994257Y-129493474D01*
X116624220Y-129246223D01*
X116187731Y-129159400D01*
X115832269Y-129159400D01*
X115395780Y-129246223D01*
X115025743Y-129493474D01*
X114778492Y-129863511D01*
X114740000Y-130057023D01*
X114701508Y-129863511D01*
X114454257Y-129493474D01*
X114084220Y-129246223D01*
X113647731Y-129159400D01*
X113292269Y-129159400D01*
X112855780Y-129246223D01*
X112485743Y-129493474D01*
X112238492Y-129863511D01*
X112200000Y-130057023D01*
X112161508Y-129863511D01*
X111914257Y-129493474D01*
X111544220Y-129246223D01*
X111107731Y-129159400D01*
X110752269Y-129159400D01*
X110315780Y-129246223D01*
X109945743Y-129493474D01*
X109698492Y-129863511D01*
X109660000Y-130057023D01*
X109621508Y-129863511D01*
X109374257Y-129493474D01*
X109004220Y-129246223D01*
X108567731Y-129159400D01*
X108212269Y-129159400D01*
X107775780Y-129246223D01*
X107405743Y-129493474D01*
X107158492Y-129863511D01*
X107120000Y-130057023D01*
X107081508Y-129863511D01*
X106834257Y-129493474D01*
X106464220Y-129246223D01*
X106027731Y-129159400D01*
X105672269Y-129159400D01*
X105235780Y-129246223D01*
X104865743Y-129493474D01*
X104618492Y-129863511D01*
X104580000Y-130057023D01*
X104541508Y-129863511D01*
X104294257Y-129493474D01*
X103924220Y-129246223D01*
X103487731Y-129159400D01*
X103132269Y-129159400D01*
X102695780Y-129246223D01*
X102325743Y-129493474D01*
X102078492Y-129863511D01*
X102040000Y-130057023D01*
X102001508Y-129863511D01*
X101754257Y-129493474D01*
X101384220Y-129246223D01*
X100947731Y-129159400D01*
X100592269Y-129159400D01*
X100155780Y-129246223D01*
X99785743Y-129493474D01*
X99538492Y-129863511D01*
X99451669Y-130300000D01*
X97327580Y-130300000D01*
X97327580Y-127760000D01*
X99451669Y-127760000D01*
X99538492Y-128196489D01*
X99785743Y-128566526D01*
X100155780Y-128813777D01*
X100592269Y-128900600D01*
X100947731Y-128900600D01*
X101384220Y-128813777D01*
X101754257Y-128566526D01*
X102001508Y-128196489D01*
X102040000Y-128002977D01*
X102078492Y-128196489D01*
X102325743Y-128566526D01*
X102695780Y-128813777D01*
X103132269Y-128900600D01*
X103487731Y-128900600D01*
X103924220Y-128813777D01*
X104294257Y-128566526D01*
X104541508Y-128196489D01*
X104580000Y-128002977D01*
X104618492Y-128196489D01*
X104865743Y-128566526D01*
X105235780Y-128813777D01*
X105672269Y-128900600D01*
X106027731Y-128900600D01*
X106464220Y-128813777D01*
X106834257Y-128566526D01*
X107081508Y-128196489D01*
X107120000Y-128002977D01*
X107158492Y-128196489D01*
X107405743Y-128566526D01*
X107775780Y-128813777D01*
X108212269Y-128900600D01*
X108567731Y-128900600D01*
X109004220Y-128813777D01*
X109374257Y-128566526D01*
X109621508Y-128196489D01*
X109660000Y-128002977D01*
X109698492Y-128196489D01*
X109945743Y-128566526D01*
X110315780Y-128813777D01*
X110752269Y-128900600D01*
X111107731Y-128900600D01*
X111544220Y-128813777D01*
X111914257Y-128566526D01*
X112161508Y-128196489D01*
X112200000Y-128002977D01*
X112238492Y-128196489D01*
X112485743Y-128566526D01*
X112855780Y-128813777D01*
X113292269Y-128900600D01*
X113647731Y-128900600D01*
X114084220Y-128813777D01*
X114454257Y-128566526D01*
X114701508Y-128196489D01*
X114740000Y-128002977D01*
X114778492Y-128196489D01*
X115025743Y-128566526D01*
X115395780Y-128813777D01*
X115832269Y-128900600D01*
X116187731Y-128900600D01*
X116624220Y-128813777D01*
X116994257Y-128566526D01*
X117241508Y-128196489D01*
X117280000Y-128002977D01*
X117318492Y-128196489D01*
X117565743Y-128566526D01*
X117935780Y-128813777D01*
X118372269Y-128900600D01*
X118727731Y-128900600D01*
X119164220Y-128813777D01*
X119534257Y-128566526D01*
X119781508Y-128196489D01*
X119820000Y-128002977D01*
X119858492Y-128196489D01*
X120105743Y-128566526D01*
X120475780Y-128813777D01*
X120912269Y-128900600D01*
X121267731Y-128900600D01*
X121704220Y-128813777D01*
X122074257Y-128566526D01*
X122321508Y-128196489D01*
X122360000Y-128002977D01*
X122398492Y-128196489D01*
X122645743Y-128566526D01*
X123015780Y-128813777D01*
X123452269Y-128900600D01*
X123807731Y-128900600D01*
X124244220Y-128813777D01*
X124614257Y-128566526D01*
X124861508Y-128196489D01*
X124948331Y-127760000D01*
X124861508Y-127323511D01*
X124614257Y-126953474D01*
X124244220Y-126706223D01*
X123807731Y-126619400D01*
X123452269Y-126619400D01*
X123015780Y-126706223D01*
X122645743Y-126953474D01*
X122398492Y-127323511D01*
X122360000Y-127517023D01*
X122321508Y-127323511D01*
X122074257Y-126953474D01*
X121704220Y-126706223D01*
X121267731Y-126619400D01*
X120912269Y-126619400D01*
X120475780Y-126706223D01*
X120105743Y-126953474D01*
X119858492Y-127323511D01*
X119820000Y-127517023D01*
X119781508Y-127323511D01*
X119534257Y-126953474D01*
X119164220Y-126706223D01*
X118727731Y-126619400D01*
X118372269Y-126619400D01*
X117935780Y-126706223D01*
X117565743Y-126953474D01*
X117318492Y-127323511D01*
X117280000Y-127517023D01*
X117241508Y-127323511D01*
X116994257Y-126953474D01*
X116624220Y-126706223D01*
X116187731Y-126619400D01*
X115832269Y-126619400D01*
X115395780Y-126706223D01*
X115025743Y-126953474D01*
X114778492Y-127323511D01*
X114740000Y-127517023D01*
X114701508Y-127323511D01*
X114454257Y-126953474D01*
X114084220Y-126706223D01*
X113647731Y-126619400D01*
X113292269Y-126619400D01*
X112855780Y-126706223D01*
X112485743Y-126953474D01*
X112238492Y-127323511D01*
X112200000Y-127517023D01*
X112161508Y-127323511D01*
X111914257Y-126953474D01*
X111544220Y-126706223D01*
X111107731Y-126619400D01*
X110752269Y-126619400D01*
X110315780Y-126706223D01*
X109945743Y-126953474D01*
X109698492Y-127323511D01*
X109660000Y-127517023D01*
X109621508Y-127323511D01*
X109374257Y-126953474D01*
X109004220Y-126706223D01*
X108567731Y-126619400D01*
X108212269Y-126619400D01*
X107775780Y-126706223D01*
X107405743Y-126953474D01*
X107158492Y-127323511D01*
X107120000Y-127517023D01*
X107081508Y-127323511D01*
X106834257Y-126953474D01*
X106464220Y-126706223D01*
X106027731Y-126619400D01*
X105672269Y-126619400D01*
X105235780Y-126706223D01*
X104865743Y-126953474D01*
X104618492Y-127323511D01*
X104580000Y-127517023D01*
X104541508Y-127323511D01*
X104294257Y-126953474D01*
X103924220Y-126706223D01*
X103487731Y-126619400D01*
X103132269Y-126619400D01*
X102695780Y-126706223D01*
X102325743Y-126953474D01*
X102078492Y-127323511D01*
X102040000Y-127517023D01*
X102001508Y-127323511D01*
X101754257Y-126953474D01*
X101384220Y-126706223D01*
X100947731Y-126619400D01*
X100592269Y-126619400D01*
X100155780Y-126706223D01*
X99785743Y-126953474D01*
X99538492Y-127323511D01*
X99451669Y-127760000D01*
X97327580Y-127760000D01*
X97327580Y-124356400D01*
X99471574Y-124356400D01*
X99471574Y-126083600D01*
X99490889Y-126186250D01*
X99551555Y-126280527D01*
X99644120Y-126343775D01*
X99754000Y-126366026D01*
X101786000Y-126366026D01*
X101888650Y-126346711D01*
X101982927Y-126286045D01*
X102040699Y-126201495D01*
X102091555Y-126280527D01*
X102184120Y-126343775D01*
X102294000Y-126366026D01*
X104326000Y-126366026D01*
X104428650Y-126346711D01*
X104522927Y-126286045D01*
X104580699Y-126201495D01*
X104631555Y-126280527D01*
X104724120Y-126343775D01*
X104834000Y-126366026D01*
X106866000Y-126366026D01*
X106968650Y-126346711D01*
X107062927Y-126286045D01*
X107120699Y-126201495D01*
X107171555Y-126280527D01*
X107264120Y-126343775D01*
X107374000Y-126366026D01*
X109406000Y-126366026D01*
X109508650Y-126346711D01*
X109602927Y-126286045D01*
X109660699Y-126201495D01*
X109711555Y-126280527D01*
X109804120Y-126343775D01*
X109914000Y-126366026D01*
X111946000Y-126366026D01*
X112048650Y-126346711D01*
X112142927Y-126286045D01*
X112200699Y-126201495D01*
X112251555Y-126280527D01*
X112344120Y-126343775D01*
X112454000Y-126366026D01*
X114486000Y-126366026D01*
X114588650Y-126346711D01*
X114682927Y-126286045D01*
X114740699Y-126201495D01*
X114791555Y-126280527D01*
X114884120Y-126343775D01*
X114994000Y-126366026D01*
X117026000Y-126366026D01*
X117128650Y-126346711D01*
X117222927Y-126286045D01*
X117280699Y-126201495D01*
X117331555Y-126280527D01*
X117424120Y-126343775D01*
X117534000Y-126366026D01*
X119566000Y-126366026D01*
X119668650Y-126346711D01*
X119762927Y-126286045D01*
X119820699Y-126201495D01*
X119871555Y-126280527D01*
X119964120Y-126343775D01*
X120074000Y-126366026D01*
X122106000Y-126366026D01*
X122208650Y-126346711D01*
X122302927Y-126286045D01*
X122360699Y-126201495D01*
X122411555Y-126280527D01*
X122504120Y-126343775D01*
X122614000Y-126366026D01*
X124646000Y-126366026D01*
X124748650Y-126346711D01*
X124842927Y-126286045D01*
X124906175Y-126193480D01*
X124928426Y-126083600D01*
X124928426Y-124356400D01*
X124909111Y-124253750D01*
X124888390Y-124221548D01*
X125873000Y-125206159D01*
X125873000Y-146592400D01*
X125901697Y-146736672D01*
X125983421Y-146858979D01*
X126792336Y-147667894D01*
X126748492Y-147733511D01*
X126661669Y-148170000D01*
X126748492Y-148606489D01*
X126995743Y-148976526D01*
X127365780Y-149223777D01*
X127802269Y-149310600D01*
X128157731Y-149310600D01*
X128594220Y-149223777D01*
X128964257Y-148976526D01*
X129211508Y-148606489D01*
X129298331Y-148170000D01*
X129226765Y-147810215D01*
X134797301Y-142239679D01*
X134900702Y-142084929D01*
X134937011Y-141902389D01*
X134937011Y-134632392D01*
X134948882Y-134620542D01*
X135036911Y-134408547D01*
X135037111Y-134179002D01*
X134949453Y-133966854D01*
X134787282Y-133804400D01*
X134575287Y-133716371D01*
X134345742Y-133716171D01*
X134287001Y-133740442D01*
X134287001Y-130331180D01*
X134436417Y-130269442D01*
X134598871Y-130107271D01*
X134686900Y-129895276D01*
X134687100Y-129665731D01*
X134599442Y-129453583D01*
X134437271Y-129291129D01*
X134225276Y-129203100D01*
X133995731Y-129202900D01*
X133783583Y-129290558D01*
X133621129Y-129452729D01*
X133533100Y-129664724D01*
X133533085Y-129682335D01*
X133472711Y-129742709D01*
X133369310Y-129897459D01*
X133333001Y-130079999D01*
X133333001Y-140762419D01*
X132862420Y-141233000D01*
X132112400Y-141233000D01*
X131929859Y-141269309D01*
X131775110Y-141372710D01*
X128575350Y-144572470D01*
X128157731Y-144489400D01*
X127802269Y-144489400D01*
X127365780Y-144576223D01*
X127330533Y-144599775D01*
X126977011Y-144246253D01*
X126977011Y-143868492D01*
X126995743Y-143896526D01*
X127365780Y-144143777D01*
X127802269Y-144230600D01*
X128157731Y-144230600D01*
X128594220Y-144143777D01*
X128964257Y-143896526D01*
X129211508Y-143526489D01*
X129298331Y-143090000D01*
X129211508Y-142653511D01*
X128964257Y-142283474D01*
X128594220Y-142036223D01*
X128157731Y-141949400D01*
X127802269Y-141949400D01*
X127365780Y-142036223D01*
X126995743Y-142283474D01*
X126977011Y-142311508D01*
X126977011Y-141328492D01*
X126995743Y-141356526D01*
X127365780Y-141603777D01*
X127802269Y-141690600D01*
X128157731Y-141690600D01*
X128594220Y-141603777D01*
X128964257Y-141356526D01*
X129211508Y-140986489D01*
X129298331Y-140550000D01*
X129211508Y-140113511D01*
X128964257Y-139743474D01*
X128594220Y-139496223D01*
X128157731Y-139409400D01*
X127802269Y-139409400D01*
X127365780Y-139496223D01*
X126995743Y-139743474D01*
X126977011Y-139771508D01*
X126977011Y-138788492D01*
X126995743Y-138816526D01*
X127365780Y-139063777D01*
X127802269Y-139150600D01*
X128157731Y-139150600D01*
X128594220Y-139063777D01*
X128964257Y-138816526D01*
X129211508Y-138446489D01*
X129298331Y-138010000D01*
X129211508Y-137573511D01*
X128964257Y-137203474D01*
X128594220Y-136956223D01*
X128157731Y-136869400D01*
X127802269Y-136869400D01*
X127365780Y-136956223D01*
X126995743Y-137203474D01*
X126977011Y-137231508D01*
X126977011Y-136248492D01*
X126995743Y-136276526D01*
X127365780Y-136523777D01*
X127802269Y-136610600D01*
X128157731Y-136610600D01*
X128594220Y-136523777D01*
X128964257Y-136276526D01*
X129211508Y-135906489D01*
X129298331Y-135470000D01*
X129211508Y-135033511D01*
X128964257Y-134663474D01*
X128594220Y-134416223D01*
X128157731Y-134329400D01*
X127802269Y-134329400D01*
X127365780Y-134416223D01*
X126995743Y-134663474D01*
X126977011Y-134691508D01*
X126977011Y-133708492D01*
X126995743Y-133736526D01*
X127365780Y-133983777D01*
X127802269Y-134070600D01*
X128157731Y-134070600D01*
X128594220Y-133983777D01*
X128964257Y-133736526D01*
X129211508Y-133366489D01*
X129298331Y-132930000D01*
X129211508Y-132493511D01*
X128964257Y-132123474D01*
X128594220Y-131876223D01*
X128157731Y-131789400D01*
X127802269Y-131789400D01*
X127365780Y-131876223D01*
X126995743Y-132123474D01*
X126977011Y-132151508D01*
X126977011Y-131168492D01*
X126995743Y-131196526D01*
X127365780Y-131443777D01*
X127802269Y-131530600D01*
X128157731Y-131530600D01*
X128594220Y-131443777D01*
X128964257Y-131196526D01*
X129211508Y-130826489D01*
X129298331Y-130390000D01*
X129211508Y-129953511D01*
X128964257Y-129583474D01*
X128594220Y-129336223D01*
X128157731Y-129249400D01*
X127802269Y-129249400D01*
X127365780Y-129336223D01*
X126995743Y-129583474D01*
X126977011Y-129611508D01*
X126977011Y-128628492D01*
X126995743Y-128656526D01*
X127365780Y-128903777D01*
X127802269Y-128990600D01*
X128157731Y-128990600D01*
X128594220Y-128903777D01*
X128964257Y-128656526D01*
X129211508Y-128286489D01*
X129298331Y-127850000D01*
X129211508Y-127413511D01*
X128964257Y-127043474D01*
X128594220Y-126796223D01*
X128157731Y-126709400D01*
X127802269Y-126709400D01*
X127365780Y-126796223D01*
X126995743Y-127043474D01*
X126977011Y-127071508D01*
X126977011Y-126088492D01*
X126995743Y-126116526D01*
X127365780Y-126363777D01*
X127802269Y-126450600D01*
X128157731Y-126450600D01*
X128594220Y-126363777D01*
X128964257Y-126116526D01*
X129211508Y-125746489D01*
X129298331Y-125310000D01*
X129211508Y-124873511D01*
X128964257Y-124503474D01*
X128594220Y-124256223D01*
X128157731Y-124169400D01*
X127802269Y-124169400D01*
X127365780Y-124256223D01*
X126995743Y-124503474D01*
X126937863Y-124590098D01*
X126879982Y-124503474D01*
X126866590Y-124483431D01*
X123937300Y-121554142D01*
X124260000Y-121618331D01*
X124696489Y-121531508D01*
X125066526Y-121284257D01*
X125313777Y-120914220D01*
X125393037Y-120515750D01*
X126329000Y-120515750D01*
X126329000Y-121219910D01*
X126425673Y-121453299D01*
X126604302Y-121631927D01*
X126837691Y-121728600D01*
X127347257Y-121728600D01*
X126995743Y-121963474D01*
X126748492Y-122333511D01*
X126661669Y-122770000D01*
X126748492Y-123206489D01*
X126995743Y-123576526D01*
X127365780Y-123823777D01*
X127802269Y-123910600D01*
X128157731Y-123910600D01*
X128594220Y-123823777D01*
X128964257Y-123576526D01*
X129184439Y-123247000D01*
X129396000Y-123247000D01*
X129578540Y-123210691D01*
X129733290Y-123107290D01*
X129960918Y-122879662D01*
X131873660Y-122879662D01*
X142341997Y-133347998D01*
X142341999Y-133348001D01*
X142529192Y-133473078D01*
X142750000Y-133517000D01*
X143207967Y-133517000D01*
X143221999Y-133538001D01*
X148901999Y-139218001D01*
X148902002Y-139218003D01*
X148982729Y-139298871D01*
X149194724Y-139386900D01*
X149309997Y-139387000D01*
X149310000Y-139387001D01*
X149310003Y-139387000D01*
X149424269Y-139387100D01*
X149636417Y-139299442D01*
X149717998Y-139218003D01*
X149718001Y-139218001D01*
X149718003Y-139217998D01*
X149798871Y-139137271D01*
X149870708Y-138964269D01*
X160252900Y-138964269D01*
X160340558Y-139176417D01*
X160367626Y-139203533D01*
X160389309Y-139312540D01*
X160492710Y-139467290D01*
X161392915Y-140367495D01*
X161392900Y-140384269D01*
X161480558Y-140596417D01*
X161642729Y-140758871D01*
X161854724Y-140846900D01*
X162084269Y-140847100D01*
X162296417Y-140759442D01*
X162458871Y-140597271D01*
X162546900Y-140385276D01*
X162547100Y-140155731D01*
X162459442Y-139943583D01*
X162297271Y-139781129D01*
X162085276Y-139693100D01*
X162067665Y-139693085D01*
X161387229Y-139012649D01*
X161406900Y-138965276D01*
X161407100Y-138735731D01*
X161319442Y-138523583D01*
X161157271Y-138361129D01*
X160945276Y-138273100D01*
X160715731Y-138272900D01*
X160503583Y-138360558D01*
X160341129Y-138522729D01*
X160253100Y-138734724D01*
X160252900Y-138964269D01*
X149870708Y-138964269D01*
X149886900Y-138925276D01*
X149887000Y-138810003D01*
X149887001Y-138810000D01*
X149887000Y-138809997D01*
X149887100Y-138695731D01*
X149799442Y-138483583D01*
X149718003Y-138402002D01*
X149718001Y-138401999D01*
X149717497Y-138401495D01*
X149637271Y-138321129D01*
X149637032Y-138321030D01*
X144207043Y-132891041D01*
X144207100Y-132825731D01*
X144119442Y-132613583D01*
X144038003Y-132532002D01*
X144038001Y-132531999D01*
X144037998Y-132531997D01*
X143957271Y-132451129D01*
X143745276Y-132363100D01*
X143515731Y-132362900D01*
X143515489Y-132363000D01*
X142989001Y-132363000D01*
X140960270Y-130334268D01*
X141422900Y-130334268D01*
X141510558Y-130546416D01*
X141672729Y-130708870D01*
X141884724Y-130796899D01*
X142114269Y-130797099D01*
X142326417Y-130709441D01*
X142439055Y-130596999D01*
X143280001Y-130596999D01*
X143424273Y-130568302D01*
X143546580Y-130486578D01*
X144872947Y-129160211D01*
X144872900Y-129214269D01*
X144960558Y-129426417D01*
X145122729Y-129588871D01*
X145334724Y-129676900D01*
X145564269Y-129677100D01*
X145776417Y-129589442D01*
X145938871Y-129427271D01*
X146026900Y-129215276D01*
X146027039Y-129056119D01*
X152508889Y-122574269D01*
X157942900Y-122574269D01*
X158030558Y-122786417D01*
X158192729Y-122948871D01*
X158404724Y-123036900D01*
X158634269Y-123037100D01*
X158846417Y-122949442D01*
X158858881Y-122937000D01*
X160120000Y-122937000D01*
X160302540Y-122900691D01*
X160457290Y-122797290D01*
X160887495Y-122367085D01*
X160904269Y-122367100D01*
X161116417Y-122279442D01*
X161278871Y-122117271D01*
X161366900Y-121905276D01*
X161367100Y-121675731D01*
X161279442Y-121463583D01*
X161117271Y-121301129D01*
X160905276Y-121213100D01*
X160675731Y-121212900D01*
X160463583Y-121300558D01*
X160301129Y-121462729D01*
X160213100Y-121674724D01*
X160213085Y-121692335D01*
X159922420Y-121983000D01*
X158859121Y-121983000D01*
X158847271Y-121971129D01*
X158635276Y-121883100D01*
X158405731Y-121882900D01*
X158193583Y-121970558D01*
X158031129Y-122132729D01*
X157943100Y-122344724D01*
X157942900Y-122574269D01*
X152508889Y-122574269D01*
X154306196Y-120776962D01*
X154464269Y-120777100D01*
X154676417Y-120689442D01*
X154838871Y-120527271D01*
X154926900Y-120315276D01*
X154927100Y-120085731D01*
X154839442Y-119873583D01*
X154677271Y-119711129D01*
X154626075Y-119689870D01*
X154738871Y-119577271D01*
X154826900Y-119365276D01*
X154827100Y-119135731D01*
X154739442Y-118923583D01*
X154577271Y-118761129D01*
X154365276Y-118673100D01*
X154135731Y-118672900D01*
X153923583Y-118760558D01*
X153761129Y-118922729D01*
X153673100Y-119134724D01*
X153672961Y-119293880D01*
X143123843Y-129842999D01*
X142438947Y-129842999D01*
X142327271Y-129731128D01*
X142115276Y-129643099D01*
X141885731Y-129642899D01*
X141673583Y-129730557D01*
X141511129Y-129892728D01*
X141423100Y-130104723D01*
X141422900Y-130334268D01*
X140960270Y-130334268D01*
X132789662Y-122163660D01*
X132789662Y-107532662D01*
X132789762Y-107418393D01*
X132702104Y-107206245D01*
X132620665Y-107124664D01*
X132620663Y-107124661D01*
X132620660Y-107124659D01*
X132539933Y-107043791D01*
X132327938Y-106955762D01*
X132098393Y-106955562D01*
X131886245Y-107043220D01*
X131804664Y-107124659D01*
X131804661Y-107124661D01*
X131804659Y-107124664D01*
X131723791Y-107205391D01*
X131635762Y-107417386D01*
X131635562Y-107646931D01*
X131635662Y-107647173D01*
X131635662Y-121925662D01*
X129763338Y-121925662D01*
X129580797Y-121961971D01*
X129426048Y-122065372D01*
X129198420Y-122293000D01*
X129184439Y-122293000D01*
X128964257Y-121963474D01*
X128612743Y-121728600D01*
X129122309Y-121728600D01*
X129355698Y-121631927D01*
X129534327Y-121453299D01*
X129631000Y-121219910D01*
X129631000Y-120515750D01*
X129472250Y-120357000D01*
X128107000Y-120357000D01*
X128107000Y-120377000D01*
X127853000Y-120377000D01*
X127853000Y-120357000D01*
X126487750Y-120357000D01*
X126329000Y-120515750D01*
X125393037Y-120515750D01*
X125400600Y-120477731D01*
X125400600Y-120122269D01*
X125313777Y-119685780D01*
X125066526Y-119315743D01*
X124953304Y-119240090D01*
X126329000Y-119240090D01*
X126329000Y-119944250D01*
X126487750Y-120103000D01*
X127853000Y-120103000D01*
X127853000Y-118890150D01*
X128107000Y-118890150D01*
X128107000Y-120103000D01*
X129472250Y-120103000D01*
X129631000Y-119944250D01*
X129631000Y-119240090D01*
X129534327Y-119006701D01*
X129355698Y-118828073D01*
X129122309Y-118731400D01*
X128265750Y-118731400D01*
X128107000Y-118890150D01*
X127853000Y-118890150D01*
X127694250Y-118731400D01*
X126837691Y-118731400D01*
X126604302Y-118828073D01*
X126425673Y-119006701D01*
X126329000Y-119240090D01*
X124953304Y-119240090D01*
X124696489Y-119068492D01*
X124260000Y-118981669D01*
X123823511Y-119068492D01*
X123453474Y-119315743D01*
X123206223Y-119685780D01*
X123173853Y-119848517D01*
X123011954Y-119385680D01*
X122622036Y-118949268D01*
X122094791Y-118695291D01*
X122079026Y-118692642D01*
X121847000Y-118813783D01*
X121847000Y-120173000D01*
X121867000Y-120173000D01*
X121867000Y-120427000D01*
X121847000Y-120427000D01*
X121847000Y-120447000D01*
X121593000Y-120447000D01*
X121593000Y-120427000D01*
X121573000Y-120427000D01*
X121573000Y-120173000D01*
X121593000Y-120173000D01*
X121593000Y-118813783D01*
X121360974Y-118692642D01*
X121345209Y-118695291D01*
X120817964Y-118949268D01*
X120428046Y-119385680D01*
X120266147Y-119848517D01*
X120233777Y-119685780D01*
X119986526Y-119315743D01*
X119616489Y-119068492D01*
X119180000Y-118981669D01*
X118743511Y-119068492D01*
X118373474Y-119315743D01*
X118126223Y-119685780D01*
X118039400Y-120122269D01*
X118039400Y-120477731D01*
X118126223Y-120914220D01*
X118373474Y-121284257D01*
X118743511Y-121531508D01*
X118781281Y-121539021D01*
X118259779Y-121539021D01*
X117670225Y-120949467D01*
X117693777Y-120914220D01*
X117780600Y-120477731D01*
X117780600Y-120122269D01*
X117693777Y-119685780D01*
X117446526Y-119315743D01*
X117076489Y-119068492D01*
X116640000Y-118981669D01*
X116203511Y-119068492D01*
X115833474Y-119315743D01*
X115586223Y-119685780D01*
X115499400Y-120122269D01*
X115499400Y-120477731D01*
X115586223Y-120914220D01*
X115833474Y-121284257D01*
X116203511Y-121531508D01*
X116640000Y-121618331D01*
X117076489Y-121531508D01*
X117142106Y-121487664D01*
X117837042Y-122182600D01*
X117959349Y-122264324D01*
X118103621Y-122293021D01*
X122959863Y-122293021D01*
X124778570Y-124111729D01*
X124755880Y-124096225D01*
X124646000Y-124073974D01*
X122614000Y-124073974D01*
X122511350Y-124093289D01*
X122417073Y-124153955D01*
X122359301Y-124238505D01*
X122308445Y-124159473D01*
X122215880Y-124096225D01*
X122106000Y-124073974D01*
X120074000Y-124073974D01*
X119971350Y-124093289D01*
X119877073Y-124153955D01*
X119819301Y-124238505D01*
X119768445Y-124159473D01*
X119675880Y-124096225D01*
X119566000Y-124073974D01*
X117534000Y-124073974D01*
X117431350Y-124093289D01*
X117337073Y-124153955D01*
X117279301Y-124238505D01*
X117228445Y-124159473D01*
X117135880Y-124096225D01*
X117026000Y-124073974D01*
X114994000Y-124073974D01*
X114891350Y-124093289D01*
X114797073Y-124153955D01*
X114739301Y-124238505D01*
X114688445Y-124159473D01*
X114595880Y-124096225D01*
X114486000Y-124073974D01*
X112454000Y-124073974D01*
X112351350Y-124093289D01*
X112257073Y-124153955D01*
X112199301Y-124238505D01*
X112148445Y-124159473D01*
X112055880Y-124096225D01*
X111946000Y-124073974D01*
X109914000Y-124073974D01*
X109811350Y-124093289D01*
X109717073Y-124153955D01*
X109659301Y-124238505D01*
X109608445Y-124159473D01*
X109515880Y-124096225D01*
X109406000Y-124073974D01*
X107374000Y-124073974D01*
X107271350Y-124093289D01*
X107177073Y-124153955D01*
X107119301Y-124238505D01*
X107068445Y-124159473D01*
X106975880Y-124096225D01*
X106866000Y-124073974D01*
X104834000Y-124073974D01*
X104731350Y-124093289D01*
X104637073Y-124153955D01*
X104579301Y-124238505D01*
X104528445Y-124159473D01*
X104435880Y-124096225D01*
X104326000Y-124073974D01*
X102294000Y-124073974D01*
X102191350Y-124093289D01*
X102097073Y-124153955D01*
X102039301Y-124238505D01*
X101988445Y-124159473D01*
X101895880Y-124096225D01*
X101786000Y-124073974D01*
X99754000Y-124073974D01*
X99651350Y-124093289D01*
X99557073Y-124153955D01*
X99493825Y-124246520D01*
X99471574Y-124356400D01*
X97327580Y-124356400D01*
X97327580Y-119284000D01*
X105333974Y-119284000D01*
X105333974Y-121316000D01*
X105353289Y-121418650D01*
X105413955Y-121512927D01*
X105506520Y-121576175D01*
X105616400Y-121598426D01*
X107343600Y-121598426D01*
X107446250Y-121579111D01*
X107540527Y-121518445D01*
X107603775Y-121425880D01*
X107626026Y-121316000D01*
X107626026Y-120122269D01*
X107879400Y-120122269D01*
X107879400Y-120477731D01*
X107966223Y-120914220D01*
X108213474Y-121284257D01*
X108583511Y-121531508D01*
X109020000Y-121618331D01*
X109456489Y-121531508D01*
X109826526Y-121284257D01*
X110073777Y-120914220D01*
X110160600Y-120477731D01*
X110160600Y-120122269D01*
X110419400Y-120122269D01*
X110419400Y-120477731D01*
X110506223Y-120914220D01*
X110753474Y-121284257D01*
X111123511Y-121531508D01*
X111560000Y-121618331D01*
X111996489Y-121531508D01*
X112366526Y-121284257D01*
X112613777Y-120914220D01*
X112700600Y-120477731D01*
X112700600Y-120122269D01*
X112959400Y-120122269D01*
X112959400Y-120477731D01*
X113046223Y-120914220D01*
X113293474Y-121284257D01*
X113663511Y-121531508D01*
X114100000Y-121618331D01*
X114536489Y-121531508D01*
X114906526Y-121284257D01*
X115153777Y-120914220D01*
X115240600Y-120477731D01*
X115240600Y-120122269D01*
X115153777Y-119685780D01*
X114906526Y-119315743D01*
X114536489Y-119068492D01*
X114100000Y-118981669D01*
X113663511Y-119068492D01*
X113293474Y-119315743D01*
X113046223Y-119685780D01*
X112959400Y-120122269D01*
X112700600Y-120122269D01*
X112613777Y-119685780D01*
X112366526Y-119315743D01*
X111996489Y-119068492D01*
X111560000Y-118981669D01*
X111123511Y-119068492D01*
X110753474Y-119315743D01*
X110506223Y-119685780D01*
X110419400Y-120122269D01*
X110160600Y-120122269D01*
X110073777Y-119685780D01*
X109826526Y-119315743D01*
X109456489Y-119068492D01*
X109020000Y-118981669D01*
X108583511Y-119068492D01*
X108213474Y-119315743D01*
X107966223Y-119685780D01*
X107879400Y-120122269D01*
X107626026Y-120122269D01*
X107626026Y-119284000D01*
X107606711Y-119181350D01*
X107546045Y-119087073D01*
X107453480Y-119023825D01*
X107343600Y-119001574D01*
X105616400Y-119001574D01*
X105513750Y-119020889D01*
X105419473Y-119081555D01*
X105356225Y-119174120D01*
X105333974Y-119284000D01*
X97327580Y-119284000D01*
X97327580Y-101961338D01*
X98141305Y-102776485D01*
X99345305Y-103276430D01*
X100648976Y-103277567D01*
X101853846Y-102779725D01*
X102776485Y-101858695D01*
X103276430Y-100654695D01*
X103277567Y-99351024D01*
X102779725Y-98146154D01*
X101962168Y-97327169D01*
X129873000Y-97327169D01*
X129873000Y-105000000D01*
X129873000Y-105000000D01*
G37*
X129873000Y-105000000D02*
X129881685Y-105046159D01*
X129908965Y-105088553D01*
X129950590Y-105116994D01*
X130000000Y-105127000D01*
X165000000Y-105127000D01*
X165046159Y-105118315D01*
X165088553Y-105091035D01*
X165116994Y-105049410D01*
X165127000Y-105000000D01*
X165127000Y-97327169D01*
X167039073Y-97327169D01*
X166223515Y-98141305D01*
X165723570Y-99345305D01*
X165722433Y-100648976D01*
X166220275Y-101853846D01*
X167141305Y-102776485D01*
X168345305Y-103276430D01*
X169648976Y-103277567D01*
X170853846Y-102779725D01*
X171673580Y-101961421D01*
X171673580Y-167039824D01*
X170858695Y-166223515D01*
X169654695Y-165723570D01*
X168351024Y-165722433D01*
X167146154Y-166220275D01*
X166223515Y-167141305D01*
X165723570Y-168345305D01*
X165722433Y-169648976D01*
X166220275Y-170853846D01*
X167038169Y-171673169D01*
X101960588Y-171673169D01*
X102776485Y-170858695D01*
X103276430Y-169654695D01*
X103277567Y-168351024D01*
X102779725Y-167146154D01*
X101858695Y-166223515D01*
X100654695Y-165723570D01*
X99351024Y-165722433D01*
X98146154Y-166220275D01*
X97327580Y-167037421D01*
X97327580Y-157600000D01*
X114673000Y-157600000D01*
X114673000Y-169499997D01*
X114679283Y-169531584D01*
X114679283Y-169563791D01*
X114717343Y-169755133D01*
X114717343Y-169755136D01*
X114766170Y-169873012D01*
X114874557Y-170035223D01*
X114919666Y-170080331D01*
X114964774Y-170125440D01*
X115126985Y-170233827D01*
X115244861Y-170282653D01*
X115244862Y-170282653D01*
X115244864Y-170282654D01*
X115436206Y-170320714D01*
X115468413Y-170320714D01*
X115500000Y-170326997D01*
X125500000Y-170326997D01*
X125531587Y-170320714D01*
X125563794Y-170320714D01*
X125755137Y-170282654D01*
X125755139Y-170282654D01*
X125873015Y-170233827D01*
X126035226Y-170125440D01*
X126080334Y-170080331D01*
X126125443Y-170035223D01*
X126233830Y-169873012D01*
X126282656Y-169755136D01*
X126282656Y-169755135D01*
X126282657Y-169755133D01*
X126320717Y-169563791D01*
X126320717Y-169531584D01*
X126327000Y-169499997D01*
X126327000Y-158800900D01*
X168664850Y-158800900D01*
X168723996Y-159098245D01*
X168892428Y-159350322D01*
X169144505Y-159518754D01*
X169441850Y-159577900D01*
X170033070Y-159577900D01*
X170330415Y-159518754D01*
X170582492Y-159350322D01*
X170750924Y-159098245D01*
X170810070Y-158800900D01*
X170750924Y-158503555D01*
X170582492Y-158251478D01*
X170330415Y-158083046D01*
X170033070Y-158023900D01*
X169441850Y-158023900D01*
X169144505Y-158083046D01*
X168892428Y-158251478D01*
X168723996Y-158503555D01*
X168664850Y-158800900D01*
X126327000Y-158800900D01*
X126327000Y-157633229D01*
X166285460Y-157633229D01*
X166285460Y-157968571D01*
X166342703Y-158256349D01*
X166505716Y-158500315D01*
X166749682Y-158663328D01*
X167037460Y-158720571D01*
X167325238Y-158663328D01*
X167569204Y-158500315D01*
X167732217Y-158256349D01*
X167789460Y-157968571D01*
X167789460Y-157633229D01*
X167732217Y-157345451D01*
X167569204Y-157101485D01*
X167325238Y-156938472D01*
X167037460Y-156881229D01*
X166749682Y-156938472D01*
X166505716Y-157101485D01*
X166342703Y-157345451D01*
X166285460Y-157633229D01*
X126327000Y-157633229D01*
X126327000Y-157600000D01*
X126320717Y-157568413D01*
X126320717Y-157536206D01*
X126282657Y-157344864D01*
X126233831Y-157226987D01*
X126233830Y-157226986D01*
X126233830Y-157226985D01*
X126125443Y-157064774D01*
X126080334Y-157019666D01*
X126035226Y-156974557D01*
X125873015Y-156866170D01*
X125755139Y-156817343D01*
X125755137Y-156817343D01*
X125563794Y-156779283D01*
X125531587Y-156779283D01*
X125500000Y-156773000D01*
X115500000Y-156773000D01*
X115468413Y-156779283D01*
X115436206Y-156779283D01*
X115244864Y-156817343D01*
X115244862Y-156817344D01*
X115244861Y-156817344D01*
X115126985Y-156866170D01*
X114964774Y-156974557D01*
X114919666Y-157019666D01*
X114874557Y-157064774D01*
X114766170Y-157226985D01*
X114717343Y-157344861D01*
X114717343Y-157344863D01*
X114679283Y-157536206D01*
X114679283Y-157568413D01*
X114673000Y-157600000D01*
X97327580Y-157600000D01*
X97327580Y-152633229D01*
X166285460Y-152633229D01*
X166285460Y-152968571D01*
X166342703Y-153256349D01*
X166505716Y-153500315D01*
X166749682Y-153663328D01*
X167037460Y-153720571D01*
X167325238Y-153663328D01*
X167569204Y-153500315D01*
X167732217Y-153256349D01*
X167789460Y-152968571D01*
X167789460Y-152633229D01*
X167732217Y-152345451D01*
X167569204Y-152101485D01*
X167325238Y-151938472D01*
X167037460Y-151881229D01*
X166749682Y-151938472D01*
X166505716Y-152101485D01*
X166342703Y-152345451D01*
X166285460Y-152633229D01*
X97327580Y-152633229D01*
X97327580Y-151800900D01*
X168664850Y-151800900D01*
X168723996Y-152098245D01*
X168892428Y-152350322D01*
X169144505Y-152518754D01*
X169441850Y-152577900D01*
X170033070Y-152577900D01*
X170330415Y-152518754D01*
X170582492Y-152350322D01*
X170750924Y-152098245D01*
X170810070Y-151800900D01*
X170750924Y-151503555D01*
X170582492Y-151251478D01*
X170330415Y-151083046D01*
X170033070Y-151023900D01*
X169441850Y-151023900D01*
X169144505Y-151083046D01*
X168892428Y-151251478D01*
X168723996Y-151503555D01*
X168664850Y-151800900D01*
X97327580Y-151800900D01*
X97327580Y-148080000D01*
X99451669Y-148080000D01*
X99538492Y-148516489D01*
X99785743Y-148886526D01*
X100155780Y-149133777D01*
X100592269Y-149220600D01*
X100947731Y-149220600D01*
X101384220Y-149133777D01*
X101754257Y-148886526D01*
X102001508Y-148516489D01*
X102040000Y-148322977D01*
X102078492Y-148516489D01*
X102325743Y-148886526D01*
X102695780Y-149133777D01*
X103132269Y-149220600D01*
X103487731Y-149220600D01*
X103924220Y-149133777D01*
X104294257Y-148886526D01*
X104541508Y-148516489D01*
X104580000Y-148322977D01*
X104618492Y-148516489D01*
X104865743Y-148886526D01*
X105235780Y-149133777D01*
X105672269Y-149220600D01*
X106027731Y-149220600D01*
X106464220Y-149133777D01*
X106834257Y-148886526D01*
X107081508Y-148516489D01*
X107120000Y-148322977D01*
X107158492Y-148516489D01*
X107405743Y-148886526D01*
X107775780Y-149133777D01*
X108212269Y-149220600D01*
X108567731Y-149220600D01*
X109004220Y-149133777D01*
X109374257Y-148886526D01*
X109621508Y-148516489D01*
X109660000Y-148322977D01*
X109698492Y-148516489D01*
X109945743Y-148886526D01*
X110315780Y-149133777D01*
X110752269Y-149220600D01*
X111107731Y-149220600D01*
X111544220Y-149133777D01*
X111914257Y-148886526D01*
X112161508Y-148516489D01*
X112200000Y-148322977D01*
X112238492Y-148516489D01*
X112485743Y-148886526D01*
X112855780Y-149133777D01*
X113292269Y-149220600D01*
X113647731Y-149220600D01*
X114084220Y-149133777D01*
X114454257Y-148886526D01*
X114701508Y-148516489D01*
X114740000Y-148322977D01*
X114778492Y-148516489D01*
X115025743Y-148886526D01*
X115395780Y-149133777D01*
X115832269Y-149220600D01*
X116187731Y-149220600D01*
X116624220Y-149133777D01*
X116994257Y-148886526D01*
X117241508Y-148516489D01*
X117280000Y-148322977D01*
X117318492Y-148516489D01*
X117565743Y-148886526D01*
X117935780Y-149133777D01*
X118372269Y-149220600D01*
X118727731Y-149220600D01*
X119164220Y-149133777D01*
X119534257Y-148886526D01*
X119781508Y-148516489D01*
X119820000Y-148322977D01*
X119858492Y-148516489D01*
X120105743Y-148886526D01*
X120475780Y-149133777D01*
X120912269Y-149220600D01*
X121267731Y-149220600D01*
X121704220Y-149133777D01*
X122074257Y-148886526D01*
X122321508Y-148516489D01*
X122360000Y-148322977D01*
X122398492Y-148516489D01*
X122645743Y-148886526D01*
X123015780Y-149133777D01*
X123452269Y-149220600D01*
X123807731Y-149220600D01*
X124244220Y-149133777D01*
X124614257Y-148886526D01*
X124861508Y-148516489D01*
X124948331Y-148080000D01*
X124861508Y-147643511D01*
X124614257Y-147273474D01*
X124244220Y-147026223D01*
X123807731Y-146939400D01*
X123452269Y-146939400D01*
X123015780Y-147026223D01*
X122645743Y-147273474D01*
X122398492Y-147643511D01*
X122360000Y-147837023D01*
X122321508Y-147643511D01*
X122074257Y-147273474D01*
X121704220Y-147026223D01*
X121267731Y-146939400D01*
X120912269Y-146939400D01*
X120475780Y-147026223D01*
X120105743Y-147273474D01*
X119858492Y-147643511D01*
X119820000Y-147837023D01*
X119781508Y-147643511D01*
X119534257Y-147273474D01*
X119164220Y-147026223D01*
X118727731Y-146939400D01*
X118372269Y-146939400D01*
X117935780Y-147026223D01*
X117565743Y-147273474D01*
X117318492Y-147643511D01*
X117280000Y-147837023D01*
X117241508Y-147643511D01*
X116994257Y-147273474D01*
X116624220Y-147026223D01*
X116187731Y-146939400D01*
X115832269Y-146939400D01*
X115395780Y-147026223D01*
X115025743Y-147273474D01*
X114778492Y-147643511D01*
X114740000Y-147837023D01*
X114701508Y-147643511D01*
X114454257Y-147273474D01*
X114084220Y-147026223D01*
X113647731Y-146939400D01*
X113292269Y-146939400D01*
X112855780Y-147026223D01*
X112485743Y-147273474D01*
X112238492Y-147643511D01*
X112200000Y-147837023D01*
X112161508Y-147643511D01*
X111914257Y-147273474D01*
X111544220Y-147026223D01*
X111107731Y-146939400D01*
X110752269Y-146939400D01*
X110315780Y-147026223D01*
X109945743Y-147273474D01*
X109698492Y-147643511D01*
X109660000Y-147837023D01*
X109621508Y-147643511D01*
X109374257Y-147273474D01*
X109004220Y-147026223D01*
X108567731Y-146939400D01*
X108212269Y-146939400D01*
X107775780Y-147026223D01*
X107405743Y-147273474D01*
X107158492Y-147643511D01*
X107120000Y-147837023D01*
X107081508Y-147643511D01*
X106834257Y-147273474D01*
X106464220Y-147026223D01*
X106027731Y-146939400D01*
X105672269Y-146939400D01*
X105235780Y-147026223D01*
X104865743Y-147273474D01*
X104618492Y-147643511D01*
X104580000Y-147837023D01*
X104541508Y-147643511D01*
X104294257Y-147273474D01*
X103924220Y-147026223D01*
X103487731Y-146939400D01*
X103132269Y-146939400D01*
X102695780Y-147026223D01*
X102325743Y-147273474D01*
X102078492Y-147643511D01*
X102040000Y-147837023D01*
X102001508Y-147643511D01*
X101754257Y-147273474D01*
X101384220Y-147026223D01*
X100947731Y-146939400D01*
X100592269Y-146939400D01*
X100155780Y-147026223D01*
X99785743Y-147273474D01*
X99538492Y-147643511D01*
X99451669Y-148080000D01*
X97327580Y-148080000D01*
X97327580Y-145540000D01*
X99451669Y-145540000D01*
X99538492Y-145976489D01*
X99785743Y-146346526D01*
X100155780Y-146593777D01*
X100592269Y-146680600D01*
X100947731Y-146680600D01*
X101384220Y-146593777D01*
X101754257Y-146346526D01*
X102001508Y-145976489D01*
X102040000Y-145782977D01*
X102078492Y-145976489D01*
X102325743Y-146346526D01*
X102695780Y-146593777D01*
X103132269Y-146680600D01*
X103487731Y-146680600D01*
X103924220Y-146593777D01*
X104294257Y-146346526D01*
X104541508Y-145976489D01*
X104580000Y-145782977D01*
X104618492Y-145976489D01*
X104865743Y-146346526D01*
X105235780Y-146593777D01*
X105672269Y-146680600D01*
X106027731Y-146680600D01*
X106464220Y-146593777D01*
X106834257Y-146346526D01*
X107081508Y-145976489D01*
X107120000Y-145782977D01*
X107158492Y-145976489D01*
X107405743Y-146346526D01*
X107775780Y-146593777D01*
X108212269Y-146680600D01*
X108567731Y-146680600D01*
X109004220Y-146593777D01*
X109374257Y-146346526D01*
X109621508Y-145976489D01*
X109660000Y-145782977D01*
X109698492Y-145976489D01*
X109945743Y-146346526D01*
X110315780Y-146593777D01*
X110752269Y-146680600D01*
X111107731Y-146680600D01*
X111544220Y-146593777D01*
X111914257Y-146346526D01*
X112161508Y-145976489D01*
X112200000Y-145782977D01*
X112238492Y-145976489D01*
X112485743Y-146346526D01*
X112855780Y-146593777D01*
X113292269Y-146680600D01*
X113647731Y-146680600D01*
X114084220Y-146593777D01*
X114454257Y-146346526D01*
X114701508Y-145976489D01*
X114740000Y-145782977D01*
X114778492Y-145976489D01*
X115025743Y-146346526D01*
X115395780Y-146593777D01*
X115832269Y-146680600D01*
X116187731Y-146680600D01*
X116624220Y-146593777D01*
X116994257Y-146346526D01*
X117241508Y-145976489D01*
X117280000Y-145782977D01*
X117318492Y-145976489D01*
X117565743Y-146346526D01*
X117935780Y-146593777D01*
X118372269Y-146680600D01*
X118727731Y-146680600D01*
X119164220Y-146593777D01*
X119534257Y-146346526D01*
X119781508Y-145976489D01*
X119820000Y-145782977D01*
X119858492Y-145976489D01*
X120105743Y-146346526D01*
X120475780Y-146593777D01*
X120912269Y-146680600D01*
X121267731Y-146680600D01*
X121704220Y-146593777D01*
X122074257Y-146346526D01*
X122321508Y-145976489D01*
X122360000Y-145782977D01*
X122398492Y-145976489D01*
X122645743Y-146346526D01*
X123015780Y-146593777D01*
X123452269Y-146680600D01*
X123807731Y-146680600D01*
X124244220Y-146593777D01*
X124614257Y-146346526D01*
X124861508Y-145976489D01*
X124948331Y-145540000D01*
X124861508Y-145103511D01*
X124614257Y-144733474D01*
X124244220Y-144486223D01*
X123807731Y-144399400D01*
X123452269Y-144399400D01*
X123015780Y-144486223D01*
X122645743Y-144733474D01*
X122398492Y-145103511D01*
X122360000Y-145297023D01*
X122321508Y-145103511D01*
X122074257Y-144733474D01*
X121704220Y-144486223D01*
X121267731Y-144399400D01*
X120912269Y-144399400D01*
X120475780Y-144486223D01*
X120105743Y-144733474D01*
X119858492Y-145103511D01*
X119820000Y-145297023D01*
X119781508Y-145103511D01*
X119534257Y-144733474D01*
X119164220Y-144486223D01*
X118727731Y-144399400D01*
X118372269Y-144399400D01*
X117935780Y-144486223D01*
X117565743Y-144733474D01*
X117318492Y-145103511D01*
X117280000Y-145297023D01*
X117241508Y-145103511D01*
X116994257Y-144733474D01*
X116624220Y-144486223D01*
X116187731Y-144399400D01*
X115832269Y-144399400D01*
X115395780Y-144486223D01*
X115025743Y-144733474D01*
X114778492Y-145103511D01*
X114740000Y-145297023D01*
X114701508Y-145103511D01*
X114454257Y-144733474D01*
X114084220Y-144486223D01*
X113647731Y-144399400D01*
X113292269Y-144399400D01*
X112855780Y-144486223D01*
X112485743Y-144733474D01*
X112238492Y-145103511D01*
X112200000Y-145297023D01*
X112161508Y-145103511D01*
X111914257Y-144733474D01*
X111544220Y-144486223D01*
X111107731Y-144399400D01*
X110752269Y-144399400D01*
X110315780Y-144486223D01*
X109945743Y-144733474D01*
X109698492Y-145103511D01*
X109660000Y-145297023D01*
X109621508Y-145103511D01*
X109374257Y-144733474D01*
X109004220Y-144486223D01*
X108567731Y-144399400D01*
X108212269Y-144399400D01*
X107775780Y-144486223D01*
X107405743Y-144733474D01*
X107158492Y-145103511D01*
X107120000Y-145297023D01*
X107081508Y-145103511D01*
X106834257Y-144733474D01*
X106464220Y-144486223D01*
X106027731Y-144399400D01*
X105672269Y-144399400D01*
X105235780Y-144486223D01*
X104865743Y-144733474D01*
X104618492Y-145103511D01*
X104580000Y-145297023D01*
X104541508Y-145103511D01*
X104294257Y-144733474D01*
X103924220Y-144486223D01*
X103487731Y-144399400D01*
X103132269Y-144399400D01*
X102695780Y-144486223D01*
X102325743Y-144733474D01*
X102078492Y-145103511D01*
X102040000Y-145297023D01*
X102001508Y-145103511D01*
X101754257Y-144733474D01*
X101384220Y-144486223D01*
X100947731Y-144399400D01*
X100592269Y-144399400D01*
X100155780Y-144486223D01*
X99785743Y-144733474D01*
X99538492Y-145103511D01*
X99451669Y-145540000D01*
X97327580Y-145540000D01*
X97327580Y-143000000D01*
X99451669Y-143000000D01*
X99538492Y-143436489D01*
X99785743Y-143806526D01*
X100155780Y-144053777D01*
X100592269Y-144140600D01*
X100947731Y-144140600D01*
X101384220Y-144053777D01*
X101754257Y-143806526D01*
X102001508Y-143436489D01*
X102040000Y-143242977D01*
X102078492Y-143436489D01*
X102325743Y-143806526D01*
X102695780Y-144053777D01*
X103132269Y-144140600D01*
X103487731Y-144140600D01*
X103924220Y-144053777D01*
X104294257Y-143806526D01*
X104541508Y-143436489D01*
X104580000Y-143242977D01*
X104618492Y-143436489D01*
X104865743Y-143806526D01*
X105235780Y-144053777D01*
X105672269Y-144140600D01*
X106027731Y-144140600D01*
X106464220Y-144053777D01*
X106834257Y-143806526D01*
X107081508Y-143436489D01*
X107120000Y-143242977D01*
X107158492Y-143436489D01*
X107405743Y-143806526D01*
X107775780Y-144053777D01*
X108212269Y-144140600D01*
X108567731Y-144140600D01*
X109004220Y-144053777D01*
X109374257Y-143806526D01*
X109621508Y-143436489D01*
X109660000Y-143242977D01*
X109698492Y-143436489D01*
X109945743Y-143806526D01*
X110315780Y-144053777D01*
X110752269Y-144140600D01*
X111107731Y-144140600D01*
X111544220Y-144053777D01*
X111914257Y-143806526D01*
X112161508Y-143436489D01*
X112200000Y-143242977D01*
X112238492Y-143436489D01*
X112485743Y-143806526D01*
X112855780Y-144053777D01*
X113292269Y-144140600D01*
X113647731Y-144140600D01*
X114084220Y-144053777D01*
X114454257Y-143806526D01*
X114701508Y-143436489D01*
X114740000Y-143242977D01*
X114778492Y-143436489D01*
X115025743Y-143806526D01*
X115395780Y-144053777D01*
X115832269Y-144140600D01*
X116187731Y-144140600D01*
X116624220Y-144053777D01*
X116994257Y-143806526D01*
X117241508Y-143436489D01*
X117280000Y-143242977D01*
X117318492Y-143436489D01*
X117565743Y-143806526D01*
X117935780Y-144053777D01*
X118372269Y-144140600D01*
X118727731Y-144140600D01*
X119164220Y-144053777D01*
X119534257Y-143806526D01*
X119781508Y-143436489D01*
X119820000Y-143242977D01*
X119858492Y-143436489D01*
X120105743Y-143806526D01*
X120475780Y-144053777D01*
X120912269Y-144140600D01*
X121267731Y-144140600D01*
X121704220Y-144053777D01*
X122074257Y-143806526D01*
X122321508Y-143436489D01*
X122360000Y-143242977D01*
X122398492Y-143436489D01*
X122645743Y-143806526D01*
X123015780Y-144053777D01*
X123452269Y-144140600D01*
X123807731Y-144140600D01*
X124244220Y-144053777D01*
X124614257Y-143806526D01*
X124861508Y-143436489D01*
X124948331Y-143000000D01*
X124861508Y-142563511D01*
X124614257Y-142193474D01*
X124244220Y-141946223D01*
X123807731Y-141859400D01*
X123452269Y-141859400D01*
X123015780Y-141946223D01*
X122645743Y-142193474D01*
X122398492Y-142563511D01*
X122360000Y-142757023D01*
X122321508Y-142563511D01*
X122074257Y-142193474D01*
X121704220Y-141946223D01*
X121267731Y-141859400D01*
X120912269Y-141859400D01*
X120475780Y-141946223D01*
X120105743Y-142193474D01*
X119858492Y-142563511D01*
X119820000Y-142757023D01*
X119781508Y-142563511D01*
X119534257Y-142193474D01*
X119164220Y-141946223D01*
X118727731Y-141859400D01*
X118372269Y-141859400D01*
X117935780Y-141946223D01*
X117565743Y-142193474D01*
X117318492Y-142563511D01*
X117280000Y-142757023D01*
X117241508Y-142563511D01*
X116994257Y-142193474D01*
X116624220Y-141946223D01*
X116187731Y-141859400D01*
X115832269Y-141859400D01*
X115395780Y-141946223D01*
X115025743Y-142193474D01*
X114778492Y-142563511D01*
X114740000Y-142757023D01*
X114701508Y-142563511D01*
X114454257Y-142193474D01*
X114084220Y-141946223D01*
X113647731Y-141859400D01*
X113292269Y-141859400D01*
X112855780Y-141946223D01*
X112485743Y-142193474D01*
X112238492Y-142563511D01*
X112200000Y-142757023D01*
X112161508Y-142563511D01*
X111914257Y-142193474D01*
X111544220Y-141946223D01*
X111107731Y-141859400D01*
X110752269Y-141859400D01*
X110315780Y-141946223D01*
X109945743Y-142193474D01*
X109698492Y-142563511D01*
X109660000Y-142757023D01*
X109621508Y-142563511D01*
X109374257Y-142193474D01*
X109004220Y-141946223D01*
X108567731Y-141859400D01*
X108212269Y-141859400D01*
X107775780Y-141946223D01*
X107405743Y-142193474D01*
X107158492Y-142563511D01*
X107120000Y-142757023D01*
X107081508Y-142563511D01*
X106834257Y-142193474D01*
X106464220Y-141946223D01*
X106027731Y-141859400D01*
X105672269Y-141859400D01*
X105235780Y-141946223D01*
X104865743Y-142193474D01*
X104618492Y-142563511D01*
X104580000Y-142757023D01*
X104541508Y-142563511D01*
X104294257Y-142193474D01*
X103924220Y-141946223D01*
X103487731Y-141859400D01*
X103132269Y-141859400D01*
X102695780Y-141946223D01*
X102325743Y-142193474D01*
X102078492Y-142563511D01*
X102040000Y-142757023D01*
X102001508Y-142563511D01*
X101754257Y-142193474D01*
X101384220Y-141946223D01*
X100947731Y-141859400D01*
X100592269Y-141859400D01*
X100155780Y-141946223D01*
X99785743Y-142193474D01*
X99538492Y-142563511D01*
X99451669Y-143000000D01*
X97327580Y-143000000D01*
X97327580Y-140460000D01*
X99451669Y-140460000D01*
X99538492Y-140896489D01*
X99785743Y-141266526D01*
X100155780Y-141513777D01*
X100592269Y-141600600D01*
X100947731Y-141600600D01*
X101384220Y-141513777D01*
X101754257Y-141266526D01*
X102001508Y-140896489D01*
X102040000Y-140702977D01*
X102078492Y-140896489D01*
X102325743Y-141266526D01*
X102695780Y-141513777D01*
X103132269Y-141600600D01*
X103487731Y-141600600D01*
X103924220Y-141513777D01*
X104294257Y-141266526D01*
X104541508Y-140896489D01*
X104580000Y-140702977D01*
X104618492Y-140896489D01*
X104865743Y-141266526D01*
X105235780Y-141513777D01*
X105672269Y-141600600D01*
X106027731Y-141600600D01*
X106464220Y-141513777D01*
X106834257Y-141266526D01*
X107081508Y-140896489D01*
X107120000Y-140702977D01*
X107158492Y-140896489D01*
X107405743Y-141266526D01*
X107775780Y-141513777D01*
X108212269Y-141600600D01*
X108567731Y-141600600D01*
X109004220Y-141513777D01*
X109374257Y-141266526D01*
X109621508Y-140896489D01*
X109660000Y-140702977D01*
X109698492Y-140896489D01*
X109945743Y-141266526D01*
X110315780Y-141513777D01*
X110752269Y-141600600D01*
X111107731Y-141600600D01*
X111544220Y-141513777D01*
X111914257Y-141266526D01*
X112161508Y-140896489D01*
X112200000Y-140702977D01*
X112238492Y-140896489D01*
X112485743Y-141266526D01*
X112855780Y-141513777D01*
X113292269Y-141600600D01*
X113647731Y-141600600D01*
X114084220Y-141513777D01*
X114454257Y-141266526D01*
X114701508Y-140896489D01*
X114740000Y-140702977D01*
X114778492Y-140896489D01*
X115025743Y-141266526D01*
X115395780Y-141513777D01*
X115832269Y-141600600D01*
X116187731Y-141600600D01*
X116624220Y-141513777D01*
X116994257Y-141266526D01*
X117241508Y-140896489D01*
X117280000Y-140702977D01*
X117318492Y-140896489D01*
X117565743Y-141266526D01*
X117935780Y-141513777D01*
X118372269Y-141600600D01*
X118727731Y-141600600D01*
X119164220Y-141513777D01*
X119534257Y-141266526D01*
X119781508Y-140896489D01*
X119820000Y-140702977D01*
X119858492Y-140896489D01*
X120105743Y-141266526D01*
X120475780Y-141513777D01*
X120912269Y-141600600D01*
X121267731Y-141600600D01*
X121704220Y-141513777D01*
X122074257Y-141266526D01*
X122321508Y-140896489D01*
X122360000Y-140702977D01*
X122398492Y-140896489D01*
X122645743Y-141266526D01*
X123015780Y-141513777D01*
X123452269Y-141600600D01*
X123807731Y-141600600D01*
X124244220Y-141513777D01*
X124614257Y-141266526D01*
X124861508Y-140896489D01*
X124948331Y-140460000D01*
X124861508Y-140023511D01*
X124614257Y-139653474D01*
X124244220Y-139406223D01*
X123807731Y-139319400D01*
X123452269Y-139319400D01*
X123015780Y-139406223D01*
X122645743Y-139653474D01*
X122398492Y-140023511D01*
X122360000Y-140217023D01*
X122321508Y-140023511D01*
X122074257Y-139653474D01*
X121704220Y-139406223D01*
X121267731Y-139319400D01*
X120912269Y-139319400D01*
X120475780Y-139406223D01*
X120105743Y-139653474D01*
X119858492Y-140023511D01*
X119820000Y-140217023D01*
X119781508Y-140023511D01*
X119534257Y-139653474D01*
X119164220Y-139406223D01*
X118727731Y-139319400D01*
X118372269Y-139319400D01*
X117935780Y-139406223D01*
X117565743Y-139653474D01*
X117318492Y-140023511D01*
X117280000Y-140217023D01*
X117241508Y-140023511D01*
X116994257Y-139653474D01*
X116624220Y-139406223D01*
X116187731Y-139319400D01*
X115832269Y-139319400D01*
X115395780Y-139406223D01*
X115025743Y-139653474D01*
X114778492Y-140023511D01*
X114740000Y-140217023D01*
X114701508Y-140023511D01*
X114454257Y-139653474D01*
X114084220Y-139406223D01*
X113647731Y-139319400D01*
X113292269Y-139319400D01*
X112855780Y-139406223D01*
X112485743Y-139653474D01*
X112238492Y-140023511D01*
X112200000Y-140217023D01*
X112161508Y-140023511D01*
X111914257Y-139653474D01*
X111544220Y-139406223D01*
X111107731Y-139319400D01*
X110752269Y-139319400D01*
X110315780Y-139406223D01*
X109945743Y-139653474D01*
X109698492Y-140023511D01*
X109660000Y-140217023D01*
X109621508Y-140023511D01*
X109374257Y-139653474D01*
X109004220Y-139406223D01*
X108567731Y-139319400D01*
X108212269Y-139319400D01*
X107775780Y-139406223D01*
X107405743Y-139653474D01*
X107158492Y-140023511D01*
X107120000Y-140217023D01*
X107081508Y-140023511D01*
X106834257Y-139653474D01*
X106464220Y-139406223D01*
X106027731Y-139319400D01*
X105672269Y-139319400D01*
X105235780Y-139406223D01*
X104865743Y-139653474D01*
X104618492Y-140023511D01*
X104580000Y-140217023D01*
X104541508Y-140023511D01*
X104294257Y-139653474D01*
X103924220Y-139406223D01*
X103487731Y-139319400D01*
X103132269Y-139319400D01*
X102695780Y-139406223D01*
X102325743Y-139653474D01*
X102078492Y-140023511D01*
X102040000Y-140217023D01*
X102001508Y-140023511D01*
X101754257Y-139653474D01*
X101384220Y-139406223D01*
X100947731Y-139319400D01*
X100592269Y-139319400D01*
X100155780Y-139406223D01*
X99785743Y-139653474D01*
X99538492Y-140023511D01*
X99451669Y-140460000D01*
X97327580Y-140460000D01*
X97327580Y-137920000D01*
X99451669Y-137920000D01*
X99538492Y-138356489D01*
X99785743Y-138726526D01*
X100155780Y-138973777D01*
X100592269Y-139060600D01*
X100947731Y-139060600D01*
X101384220Y-138973777D01*
X101754257Y-138726526D01*
X102001508Y-138356489D01*
X102040000Y-138162977D01*
X102078492Y-138356489D01*
X102325743Y-138726526D01*
X102695780Y-138973777D01*
X103132269Y-139060600D01*
X103487731Y-139060600D01*
X103924220Y-138973777D01*
X104294257Y-138726526D01*
X104541508Y-138356489D01*
X104580000Y-138162977D01*
X104618492Y-138356489D01*
X104865743Y-138726526D01*
X105235780Y-138973777D01*
X105672269Y-139060600D01*
X106027731Y-139060600D01*
X106464220Y-138973777D01*
X106834257Y-138726526D01*
X107081508Y-138356489D01*
X107120000Y-138162977D01*
X107158492Y-138356489D01*
X107405743Y-138726526D01*
X107775780Y-138973777D01*
X108212269Y-139060600D01*
X108567731Y-139060600D01*
X109004220Y-138973777D01*
X109374257Y-138726526D01*
X109621508Y-138356489D01*
X109660000Y-138162977D01*
X109698492Y-138356489D01*
X109945743Y-138726526D01*
X110315780Y-138973777D01*
X110752269Y-139060600D01*
X111107731Y-139060600D01*
X111544220Y-138973777D01*
X111914257Y-138726526D01*
X112161508Y-138356489D01*
X112200000Y-138162977D01*
X112238492Y-138356489D01*
X112485743Y-138726526D01*
X112855780Y-138973777D01*
X113292269Y-139060600D01*
X113647731Y-139060600D01*
X114084220Y-138973777D01*
X114454257Y-138726526D01*
X114701508Y-138356489D01*
X114740000Y-138162977D01*
X114778492Y-138356489D01*
X115025743Y-138726526D01*
X115395780Y-138973777D01*
X115832269Y-139060600D01*
X116187731Y-139060600D01*
X116624220Y-138973777D01*
X116994257Y-138726526D01*
X117241508Y-138356489D01*
X117280000Y-138162977D01*
X117318492Y-138356489D01*
X117565743Y-138726526D01*
X117935780Y-138973777D01*
X118372269Y-139060600D01*
X118727731Y-139060600D01*
X119164220Y-138973777D01*
X119534257Y-138726526D01*
X119781508Y-138356489D01*
X119820000Y-138162977D01*
X119858492Y-138356489D01*
X120105743Y-138726526D01*
X120475780Y-138973777D01*
X120912269Y-139060600D01*
X121267731Y-139060600D01*
X121704220Y-138973777D01*
X122074257Y-138726526D01*
X122321508Y-138356489D01*
X122360000Y-138162977D01*
X122398492Y-138356489D01*
X122645743Y-138726526D01*
X123015780Y-138973777D01*
X123452269Y-139060600D01*
X123807731Y-139060600D01*
X124244220Y-138973777D01*
X124614257Y-138726526D01*
X124861508Y-138356489D01*
X124948331Y-137920000D01*
X124861508Y-137483511D01*
X124614257Y-137113474D01*
X124244220Y-136866223D01*
X123807731Y-136779400D01*
X123452269Y-136779400D01*
X123015780Y-136866223D01*
X122645743Y-137113474D01*
X122398492Y-137483511D01*
X122360000Y-137677023D01*
X122321508Y-137483511D01*
X122074257Y-137113474D01*
X121704220Y-136866223D01*
X121267731Y-136779400D01*
X120912269Y-136779400D01*
X120475780Y-136866223D01*
X120105743Y-137113474D01*
X119858492Y-137483511D01*
X119820000Y-137677023D01*
X119781508Y-137483511D01*
X119534257Y-137113474D01*
X119164220Y-136866223D01*
X118727731Y-136779400D01*
X118372269Y-136779400D01*
X117935780Y-136866223D01*
X117565743Y-137113474D01*
X117318492Y-137483511D01*
X117280000Y-137677023D01*
X117241508Y-137483511D01*
X116994257Y-137113474D01*
X116624220Y-136866223D01*
X116187731Y-136779400D01*
X115832269Y-136779400D01*
X115395780Y-136866223D01*
X115025743Y-137113474D01*
X114778492Y-137483511D01*
X114740000Y-137677023D01*
X114701508Y-137483511D01*
X114454257Y-137113474D01*
X114084220Y-136866223D01*
X113647731Y-136779400D01*
X113292269Y-136779400D01*
X112855780Y-136866223D01*
X112485743Y-137113474D01*
X112238492Y-137483511D01*
X112200000Y-137677023D01*
X112161508Y-137483511D01*
X111914257Y-137113474D01*
X111544220Y-136866223D01*
X111107731Y-136779400D01*
X110752269Y-136779400D01*
X110315780Y-136866223D01*
X109945743Y-137113474D01*
X109698492Y-137483511D01*
X109660000Y-137677023D01*
X109621508Y-137483511D01*
X109374257Y-137113474D01*
X109004220Y-136866223D01*
X108567731Y-136779400D01*
X108212269Y-136779400D01*
X107775780Y-136866223D01*
X107405743Y-137113474D01*
X107158492Y-137483511D01*
X107120000Y-137677023D01*
X107081508Y-137483511D01*
X106834257Y-137113474D01*
X106464220Y-136866223D01*
X106027731Y-136779400D01*
X105672269Y-136779400D01*
X105235780Y-136866223D01*
X104865743Y-137113474D01*
X104618492Y-137483511D01*
X104580000Y-137677023D01*
X104541508Y-137483511D01*
X104294257Y-137113474D01*
X103924220Y-136866223D01*
X103487731Y-136779400D01*
X103132269Y-136779400D01*
X102695780Y-136866223D01*
X102325743Y-137113474D01*
X102078492Y-137483511D01*
X102040000Y-137677023D01*
X102001508Y-137483511D01*
X101754257Y-137113474D01*
X101384220Y-136866223D01*
X100947731Y-136779400D01*
X100592269Y-136779400D01*
X100155780Y-136866223D01*
X99785743Y-137113474D01*
X99538492Y-137483511D01*
X99451669Y-137920000D01*
X97327580Y-137920000D01*
X97327580Y-135380000D01*
X99451669Y-135380000D01*
X99538492Y-135816489D01*
X99785743Y-136186526D01*
X100155780Y-136433777D01*
X100592269Y-136520600D01*
X100947731Y-136520600D01*
X101384220Y-136433777D01*
X101754257Y-136186526D01*
X102001508Y-135816489D01*
X102040000Y-135622977D01*
X102078492Y-135816489D01*
X102325743Y-136186526D01*
X102695780Y-136433777D01*
X103132269Y-136520600D01*
X103487731Y-136520600D01*
X103924220Y-136433777D01*
X104294257Y-136186526D01*
X104541508Y-135816489D01*
X104580000Y-135622977D01*
X104618492Y-135816489D01*
X104865743Y-136186526D01*
X105235780Y-136433777D01*
X105672269Y-136520600D01*
X106027731Y-136520600D01*
X106464220Y-136433777D01*
X106834257Y-136186526D01*
X107081508Y-135816489D01*
X107120000Y-135622977D01*
X107158492Y-135816489D01*
X107405743Y-136186526D01*
X107775780Y-136433777D01*
X108212269Y-136520600D01*
X108567731Y-136520600D01*
X109004220Y-136433777D01*
X109374257Y-136186526D01*
X109621508Y-135816489D01*
X109660000Y-135622977D01*
X109698492Y-135816489D01*
X109945743Y-136186526D01*
X110315780Y-136433777D01*
X110752269Y-136520600D01*
X111107731Y-136520600D01*
X111544220Y-136433777D01*
X111914257Y-136186526D01*
X112161508Y-135816489D01*
X112200000Y-135622977D01*
X112238492Y-135816489D01*
X112485743Y-136186526D01*
X112855780Y-136433777D01*
X113292269Y-136520600D01*
X113647731Y-136520600D01*
X114084220Y-136433777D01*
X114454257Y-136186526D01*
X114701508Y-135816489D01*
X114740000Y-135622977D01*
X114778492Y-135816489D01*
X115025743Y-136186526D01*
X115395780Y-136433777D01*
X115832269Y-136520600D01*
X116187731Y-136520600D01*
X116624220Y-136433777D01*
X116994257Y-136186526D01*
X117241508Y-135816489D01*
X117280000Y-135622977D01*
X117318492Y-135816489D01*
X117565743Y-136186526D01*
X117935780Y-136433777D01*
X118372269Y-136520600D01*
X118727731Y-136520600D01*
X119164220Y-136433777D01*
X119534257Y-136186526D01*
X119781508Y-135816489D01*
X119820000Y-135622977D01*
X119858492Y-135816489D01*
X120105743Y-136186526D01*
X120475780Y-136433777D01*
X120912269Y-136520600D01*
X121267731Y-136520600D01*
X121704220Y-136433777D01*
X122074257Y-136186526D01*
X122321508Y-135816489D01*
X122360000Y-135622977D01*
X122398492Y-135816489D01*
X122645743Y-136186526D01*
X123015780Y-136433777D01*
X123452269Y-136520600D01*
X123807731Y-136520600D01*
X124244220Y-136433777D01*
X124614257Y-136186526D01*
X124861508Y-135816489D01*
X124948331Y-135380000D01*
X124861508Y-134943511D01*
X124614257Y-134573474D01*
X124244220Y-134326223D01*
X123807731Y-134239400D01*
X123452269Y-134239400D01*
X123015780Y-134326223D01*
X122645743Y-134573474D01*
X122398492Y-134943511D01*
X122360000Y-135137023D01*
X122321508Y-134943511D01*
X122074257Y-134573474D01*
X121704220Y-134326223D01*
X121267731Y-134239400D01*
X120912269Y-134239400D01*
X120475780Y-134326223D01*
X120105743Y-134573474D01*
X119858492Y-134943511D01*
X119820000Y-135137023D01*
X119781508Y-134943511D01*
X119534257Y-134573474D01*
X119164220Y-134326223D01*
X118727731Y-134239400D01*
X118372269Y-134239400D01*
X117935780Y-134326223D01*
X117565743Y-134573474D01*
X117318492Y-134943511D01*
X117280000Y-135137023D01*
X117241508Y-134943511D01*
X116994257Y-134573474D01*
X116624220Y-134326223D01*
X116187731Y-134239400D01*
X115832269Y-134239400D01*
X115395780Y-134326223D01*
X115025743Y-134573474D01*
X114778492Y-134943511D01*
X114740000Y-135137023D01*
X114701508Y-134943511D01*
X114454257Y-134573474D01*
X114084220Y-134326223D01*
X113647731Y-134239400D01*
X113292269Y-134239400D01*
X112855780Y-134326223D01*
X112485743Y-134573474D01*
X112238492Y-134943511D01*
X112200000Y-135137023D01*
X112161508Y-134943511D01*
X111914257Y-134573474D01*
X111544220Y-134326223D01*
X111107731Y-134239400D01*
X110752269Y-134239400D01*
X110315780Y-134326223D01*
X109945743Y-134573474D01*
X109698492Y-134943511D01*
X109660000Y-135137023D01*
X109621508Y-134943511D01*
X109374257Y-134573474D01*
X109004220Y-134326223D01*
X108567731Y-134239400D01*
X108212269Y-134239400D01*
X107775780Y-134326223D01*
X107405743Y-134573474D01*
X107158492Y-134943511D01*
X107120000Y-135137023D01*
X107081508Y-134943511D01*
X106834257Y-134573474D01*
X106464220Y-134326223D01*
X106027731Y-134239400D01*
X105672269Y-134239400D01*
X105235780Y-134326223D01*
X104865743Y-134573474D01*
X104618492Y-134943511D01*
X104580000Y-135137023D01*
X104541508Y-134943511D01*
X104294257Y-134573474D01*
X103924220Y-134326223D01*
X103487731Y-134239400D01*
X103132269Y-134239400D01*
X102695780Y-134326223D01*
X102325743Y-134573474D01*
X102078492Y-134943511D01*
X102040000Y-135137023D01*
X102001508Y-134943511D01*
X101754257Y-134573474D01*
X101384220Y-134326223D01*
X100947731Y-134239400D01*
X100592269Y-134239400D01*
X100155780Y-134326223D01*
X99785743Y-134573474D01*
X99538492Y-134943511D01*
X99451669Y-135380000D01*
X97327580Y-135380000D01*
X97327580Y-132840000D01*
X99451669Y-132840000D01*
X99538492Y-133276489D01*
X99785743Y-133646526D01*
X100155780Y-133893777D01*
X100592269Y-133980600D01*
X100947731Y-133980600D01*
X101384220Y-133893777D01*
X101754257Y-133646526D01*
X102001508Y-133276489D01*
X102040000Y-133082977D01*
X102078492Y-133276489D01*
X102325743Y-133646526D01*
X102695780Y-133893777D01*
X103132269Y-133980600D01*
X103487731Y-133980600D01*
X103924220Y-133893777D01*
X104294257Y-133646526D01*
X104541508Y-133276489D01*
X104580000Y-133082977D01*
X104618492Y-133276489D01*
X104865743Y-133646526D01*
X105235780Y-133893777D01*
X105672269Y-133980600D01*
X106027731Y-133980600D01*
X106464220Y-133893777D01*
X106834257Y-133646526D01*
X107081508Y-133276489D01*
X107120000Y-133082977D01*
X107158492Y-133276489D01*
X107405743Y-133646526D01*
X107775780Y-133893777D01*
X108212269Y-133980600D01*
X108567731Y-133980600D01*
X109004220Y-133893777D01*
X109374257Y-133646526D01*
X109621508Y-133276489D01*
X109660000Y-133082977D01*
X109698492Y-133276489D01*
X109945743Y-133646526D01*
X110315780Y-133893777D01*
X110752269Y-133980600D01*
X111107731Y-133980600D01*
X111544220Y-133893777D01*
X111914257Y-133646526D01*
X112161508Y-133276489D01*
X112200000Y-133082977D01*
X112238492Y-133276489D01*
X112485743Y-133646526D01*
X112855780Y-133893777D01*
X113292269Y-133980600D01*
X113647731Y-133980600D01*
X114084220Y-133893777D01*
X114454257Y-133646526D01*
X114701508Y-133276489D01*
X114740000Y-133082977D01*
X114778492Y-133276489D01*
X115025743Y-133646526D01*
X115395780Y-133893777D01*
X115832269Y-133980600D01*
X116187731Y-133980600D01*
X116624220Y-133893777D01*
X116994257Y-133646526D01*
X117241508Y-133276489D01*
X117280000Y-133082977D01*
X117318492Y-133276489D01*
X117565743Y-133646526D01*
X117935780Y-133893777D01*
X118372269Y-133980600D01*
X118727731Y-133980600D01*
X119164220Y-133893777D01*
X119534257Y-133646526D01*
X119781508Y-133276489D01*
X119820000Y-133082977D01*
X119858492Y-133276489D01*
X120105743Y-133646526D01*
X120475780Y-133893777D01*
X120912269Y-133980600D01*
X121267731Y-133980600D01*
X121704220Y-133893777D01*
X122074257Y-133646526D01*
X122321508Y-133276489D01*
X122360000Y-133082977D01*
X122398492Y-133276489D01*
X122645743Y-133646526D01*
X123015780Y-133893777D01*
X123452269Y-133980600D01*
X123807731Y-133980600D01*
X124244220Y-133893777D01*
X124614257Y-133646526D01*
X124861508Y-133276489D01*
X124948331Y-132840000D01*
X124861508Y-132403511D01*
X124614257Y-132033474D01*
X124244220Y-131786223D01*
X123807731Y-131699400D01*
X123452269Y-131699400D01*
X123015780Y-131786223D01*
X122645743Y-132033474D01*
X122398492Y-132403511D01*
X122360000Y-132597023D01*
X122321508Y-132403511D01*
X122074257Y-132033474D01*
X121704220Y-131786223D01*
X121267731Y-131699400D01*
X120912269Y-131699400D01*
X120475780Y-131786223D01*
X120105743Y-132033474D01*
X119858492Y-132403511D01*
X119820000Y-132597023D01*
X119781508Y-132403511D01*
X119534257Y-132033474D01*
X119164220Y-131786223D01*
X118727731Y-131699400D01*
X118372269Y-131699400D01*
X117935780Y-131786223D01*
X117565743Y-132033474D01*
X117318492Y-132403511D01*
X117280000Y-132597023D01*
X117241508Y-132403511D01*
X116994257Y-132033474D01*
X116624220Y-131786223D01*
X116187731Y-131699400D01*
X115832269Y-131699400D01*
X115395780Y-131786223D01*
X115025743Y-132033474D01*
X114778492Y-132403511D01*
X114740000Y-132597023D01*
X114701508Y-132403511D01*
X114454257Y-132033474D01*
X114084220Y-131786223D01*
X113647731Y-131699400D01*
X113292269Y-131699400D01*
X112855780Y-131786223D01*
X112485743Y-132033474D01*
X112238492Y-132403511D01*
X112200000Y-132597023D01*
X112161508Y-132403511D01*
X111914257Y-132033474D01*
X111544220Y-131786223D01*
X111107731Y-131699400D01*
X110752269Y-131699400D01*
X110315780Y-131786223D01*
X109945743Y-132033474D01*
X109698492Y-132403511D01*
X109660000Y-132597023D01*
X109621508Y-132403511D01*
X109374257Y-132033474D01*
X109004220Y-131786223D01*
X108567731Y-131699400D01*
X108212269Y-131699400D01*
X107775780Y-131786223D01*
X107405743Y-132033474D01*
X107158492Y-132403511D01*
X107120000Y-132597023D01*
X107081508Y-132403511D01*
X106834257Y-132033474D01*
X106464220Y-131786223D01*
X106027731Y-131699400D01*
X105672269Y-131699400D01*
X105235780Y-131786223D01*
X104865743Y-132033474D01*
X104618492Y-132403511D01*
X104580000Y-132597023D01*
X104541508Y-132403511D01*
X104294257Y-132033474D01*
X103924220Y-131786223D01*
X103487731Y-131699400D01*
X103132269Y-131699400D01*
X102695780Y-131786223D01*
X102325743Y-132033474D01*
X102078492Y-132403511D01*
X102040000Y-132597023D01*
X102001508Y-132403511D01*
X101754257Y-132033474D01*
X101384220Y-131786223D01*
X100947731Y-131699400D01*
X100592269Y-131699400D01*
X100155780Y-131786223D01*
X99785743Y-132033474D01*
X99538492Y-132403511D01*
X99451669Y-132840000D01*
X97327580Y-132840000D01*
X97327580Y-130300000D01*
X99451669Y-130300000D01*
X99538492Y-130736489D01*
X99785743Y-131106526D01*
X100155780Y-131353777D01*
X100592269Y-131440600D01*
X100947731Y-131440600D01*
X101384220Y-131353777D01*
X101754257Y-131106526D01*
X102001508Y-130736489D01*
X102040000Y-130542977D01*
X102078492Y-130736489D01*
X102325743Y-131106526D01*
X102695780Y-131353777D01*
X103132269Y-131440600D01*
X103487731Y-131440600D01*
X103924220Y-131353777D01*
X104294257Y-131106526D01*
X104541508Y-130736489D01*
X104580000Y-130542977D01*
X104618492Y-130736489D01*
X104865743Y-131106526D01*
X105235780Y-131353777D01*
X105672269Y-131440600D01*
X106027731Y-131440600D01*
X106464220Y-131353777D01*
X106834257Y-131106526D01*
X107081508Y-130736489D01*
X107120000Y-130542977D01*
X107158492Y-130736489D01*
X107405743Y-131106526D01*
X107775780Y-131353777D01*
X108212269Y-131440600D01*
X108567731Y-131440600D01*
X109004220Y-131353777D01*
X109374257Y-131106526D01*
X109621508Y-130736489D01*
X109660000Y-130542977D01*
X109698492Y-130736489D01*
X109945743Y-131106526D01*
X110315780Y-131353777D01*
X110752269Y-131440600D01*
X111107731Y-131440600D01*
X111544220Y-131353777D01*
X111914257Y-131106526D01*
X112161508Y-130736489D01*
X112200000Y-130542977D01*
X112238492Y-130736489D01*
X112485743Y-131106526D01*
X112855780Y-131353777D01*
X113292269Y-131440600D01*
X113647731Y-131440600D01*
X114084220Y-131353777D01*
X114454257Y-131106526D01*
X114701508Y-130736489D01*
X114740000Y-130542977D01*
X114778492Y-130736489D01*
X115025743Y-131106526D01*
X115395780Y-131353777D01*
X115832269Y-131440600D01*
X116187731Y-131440600D01*
X116624220Y-131353777D01*
X116994257Y-131106526D01*
X117241508Y-130736489D01*
X117280000Y-130542977D01*
X117318492Y-130736489D01*
X117565743Y-131106526D01*
X117935780Y-131353777D01*
X118372269Y-131440600D01*
X118727731Y-131440600D01*
X119164220Y-131353777D01*
X119534257Y-131106526D01*
X119781508Y-130736489D01*
X119820000Y-130542977D01*
X119858492Y-130736489D01*
X120105743Y-131106526D01*
X120475780Y-131353777D01*
X120912269Y-131440600D01*
X121267731Y-131440600D01*
X121704220Y-131353777D01*
X122074257Y-131106526D01*
X122321508Y-130736489D01*
X122360000Y-130542977D01*
X122398492Y-130736489D01*
X122645743Y-131106526D01*
X123015780Y-131353777D01*
X123452269Y-131440600D01*
X123807731Y-131440600D01*
X124244220Y-131353777D01*
X124614257Y-131106526D01*
X124861508Y-130736489D01*
X124948331Y-130300000D01*
X124861508Y-129863511D01*
X124614257Y-129493474D01*
X124244220Y-129246223D01*
X123807731Y-129159400D01*
X123452269Y-129159400D01*
X123015780Y-129246223D01*
X122645743Y-129493474D01*
X122398492Y-129863511D01*
X122360000Y-130057023D01*
X122321508Y-129863511D01*
X122074257Y-129493474D01*
X121704220Y-129246223D01*
X121267731Y-129159400D01*
X120912269Y-129159400D01*
X120475780Y-129246223D01*
X120105743Y-129493474D01*
X119858492Y-129863511D01*
X119820000Y-130057023D01*
X119781508Y-129863511D01*
X119534257Y-129493474D01*
X119164220Y-129246223D01*
X118727731Y-129159400D01*
X118372269Y-129159400D01*
X117935780Y-129246223D01*
X117565743Y-129493474D01*
X117318492Y-129863511D01*
X117280000Y-130057023D01*
X117241508Y-129863511D01*
X116994257Y-129493474D01*
X116624220Y-129246223D01*
X116187731Y-129159400D01*
X115832269Y-129159400D01*
X115395780Y-129246223D01*
X115025743Y-129493474D01*
X114778492Y-129863511D01*
X114740000Y-130057023D01*
X114701508Y-129863511D01*
X114454257Y-129493474D01*
X114084220Y-129246223D01*
X113647731Y-129159400D01*
X113292269Y-129159400D01*
X112855780Y-129246223D01*
X112485743Y-129493474D01*
X112238492Y-129863511D01*
X112200000Y-130057023D01*
X112161508Y-129863511D01*
X111914257Y-129493474D01*
X111544220Y-129246223D01*
X111107731Y-129159400D01*
X110752269Y-129159400D01*
X110315780Y-129246223D01*
X109945743Y-129493474D01*
X109698492Y-129863511D01*
X109660000Y-130057023D01*
X109621508Y-129863511D01*
X109374257Y-129493474D01*
X109004220Y-129246223D01*
X108567731Y-129159400D01*
X108212269Y-129159400D01*
X107775780Y-129246223D01*
X107405743Y-129493474D01*
X107158492Y-129863511D01*
X107120000Y-130057023D01*
X107081508Y-129863511D01*
X106834257Y-129493474D01*
X106464220Y-129246223D01*
X106027731Y-129159400D01*
X105672269Y-129159400D01*
X105235780Y-129246223D01*
X104865743Y-129493474D01*
X104618492Y-129863511D01*
X104580000Y-130057023D01*
X104541508Y-129863511D01*
X104294257Y-129493474D01*
X103924220Y-129246223D01*
X103487731Y-129159400D01*
X103132269Y-129159400D01*
X102695780Y-129246223D01*
X102325743Y-129493474D01*
X102078492Y-129863511D01*
X102040000Y-130057023D01*
X102001508Y-129863511D01*
X101754257Y-129493474D01*
X101384220Y-129246223D01*
X100947731Y-129159400D01*
X100592269Y-129159400D01*
X100155780Y-129246223D01*
X99785743Y-129493474D01*
X99538492Y-129863511D01*
X99451669Y-130300000D01*
X97327580Y-130300000D01*
X97327580Y-127760000D01*
X99451669Y-127760000D01*
X99538492Y-128196489D01*
X99785743Y-128566526D01*
X100155780Y-128813777D01*
X100592269Y-128900600D01*
X100947731Y-128900600D01*
X101384220Y-128813777D01*
X101754257Y-128566526D01*
X102001508Y-128196489D01*
X102040000Y-128002977D01*
X102078492Y-128196489D01*
X102325743Y-128566526D01*
X102695780Y-128813777D01*
X103132269Y-128900600D01*
X103487731Y-128900600D01*
X103924220Y-128813777D01*
X104294257Y-128566526D01*
X104541508Y-128196489D01*
X104580000Y-128002977D01*
X104618492Y-128196489D01*
X104865743Y-128566526D01*
X105235780Y-128813777D01*
X105672269Y-128900600D01*
X106027731Y-128900600D01*
X106464220Y-128813777D01*
X106834257Y-128566526D01*
X107081508Y-128196489D01*
X107120000Y-128002977D01*
X107158492Y-128196489D01*
X107405743Y-128566526D01*
X107775780Y-128813777D01*
X108212269Y-128900600D01*
X108567731Y-128900600D01*
X109004220Y-128813777D01*
X109374257Y-128566526D01*
X109621508Y-128196489D01*
X109660000Y-128002977D01*
X109698492Y-128196489D01*
X109945743Y-128566526D01*
X110315780Y-128813777D01*
X110752269Y-128900600D01*
X111107731Y-128900600D01*
X111544220Y-128813777D01*
X111914257Y-128566526D01*
X112161508Y-128196489D01*
X112200000Y-128002977D01*
X112238492Y-128196489D01*
X112485743Y-128566526D01*
X112855780Y-128813777D01*
X113292269Y-128900600D01*
X113647731Y-128900600D01*
X114084220Y-128813777D01*
X114454257Y-128566526D01*
X114701508Y-128196489D01*
X114740000Y-128002977D01*
X114778492Y-128196489D01*
X115025743Y-128566526D01*
X115395780Y-128813777D01*
X115832269Y-128900600D01*
X116187731Y-128900600D01*
X116624220Y-128813777D01*
X116994257Y-128566526D01*
X117241508Y-128196489D01*
X117280000Y-128002977D01*
X117318492Y-128196489D01*
X117565743Y-128566526D01*
X117935780Y-128813777D01*
X118372269Y-128900600D01*
X118727731Y-128900600D01*
X119164220Y-128813777D01*
X119534257Y-128566526D01*
X119781508Y-128196489D01*
X119820000Y-128002977D01*
X119858492Y-128196489D01*
X120105743Y-128566526D01*
X120475780Y-128813777D01*
X120912269Y-128900600D01*
X121267731Y-128900600D01*
X121704220Y-128813777D01*
X122074257Y-128566526D01*
X122321508Y-128196489D01*
X122360000Y-128002977D01*
X122398492Y-128196489D01*
X122645743Y-128566526D01*
X123015780Y-128813777D01*
X123452269Y-128900600D01*
X123807731Y-128900600D01*
X124244220Y-128813777D01*
X124614257Y-128566526D01*
X124861508Y-128196489D01*
X124948331Y-127760000D01*
X124861508Y-127323511D01*
X124614257Y-126953474D01*
X124244220Y-126706223D01*
X123807731Y-126619400D01*
X123452269Y-126619400D01*
X123015780Y-126706223D01*
X122645743Y-126953474D01*
X122398492Y-127323511D01*
X122360000Y-127517023D01*
X122321508Y-127323511D01*
X122074257Y-126953474D01*
X121704220Y-126706223D01*
X121267731Y-126619400D01*
X120912269Y-126619400D01*
X120475780Y-126706223D01*
X120105743Y-126953474D01*
X119858492Y-127323511D01*
X119820000Y-127517023D01*
X119781508Y-127323511D01*
X119534257Y-126953474D01*
X119164220Y-126706223D01*
X118727731Y-126619400D01*
X118372269Y-126619400D01*
X117935780Y-126706223D01*
X117565743Y-126953474D01*
X117318492Y-127323511D01*
X117280000Y-127517023D01*
X117241508Y-127323511D01*
X116994257Y-126953474D01*
X116624220Y-126706223D01*
X116187731Y-126619400D01*
X115832269Y-126619400D01*
X115395780Y-126706223D01*
X115025743Y-126953474D01*
X114778492Y-127323511D01*
X114740000Y-127517023D01*
X114701508Y-127323511D01*
X114454257Y-126953474D01*
X114084220Y-126706223D01*
X113647731Y-126619400D01*
X113292269Y-126619400D01*
X112855780Y-126706223D01*
X112485743Y-126953474D01*
X112238492Y-127323511D01*
X112200000Y-127517023D01*
X112161508Y-127323511D01*
X111914257Y-126953474D01*
X111544220Y-126706223D01*
X111107731Y-126619400D01*
X110752269Y-126619400D01*
X110315780Y-126706223D01*
X109945743Y-126953474D01*
X109698492Y-127323511D01*
X109660000Y-127517023D01*
X109621508Y-127323511D01*
X109374257Y-126953474D01*
X109004220Y-126706223D01*
X108567731Y-126619400D01*
X108212269Y-126619400D01*
X107775780Y-126706223D01*
X107405743Y-126953474D01*
X107158492Y-127323511D01*
X107120000Y-127517023D01*
X107081508Y-127323511D01*
X106834257Y-126953474D01*
X106464220Y-126706223D01*
X106027731Y-126619400D01*
X105672269Y-126619400D01*
X105235780Y-126706223D01*
X104865743Y-126953474D01*
X104618492Y-127323511D01*
X104580000Y-127517023D01*
X104541508Y-127323511D01*
X104294257Y-126953474D01*
X103924220Y-126706223D01*
X103487731Y-126619400D01*
X103132269Y-126619400D01*
X102695780Y-126706223D01*
X102325743Y-126953474D01*
X102078492Y-127323511D01*
X102040000Y-127517023D01*
X102001508Y-127323511D01*
X101754257Y-126953474D01*
X101384220Y-126706223D01*
X100947731Y-126619400D01*
X100592269Y-126619400D01*
X100155780Y-126706223D01*
X99785743Y-126953474D01*
X99538492Y-127323511D01*
X99451669Y-127760000D01*
X97327580Y-127760000D01*
X97327580Y-124356400D01*
X99471574Y-124356400D01*
X99471574Y-126083600D01*
X99490889Y-126186250D01*
X99551555Y-126280527D01*
X99644120Y-126343775D01*
X99754000Y-126366026D01*
X101786000Y-126366026D01*
X101888650Y-126346711D01*
X101982927Y-126286045D01*
X102040699Y-126201495D01*
X102091555Y-126280527D01*
X102184120Y-126343775D01*
X102294000Y-126366026D01*
X104326000Y-126366026D01*
X104428650Y-126346711D01*
X104522927Y-126286045D01*
X104580699Y-126201495D01*
X104631555Y-126280527D01*
X104724120Y-126343775D01*
X104834000Y-126366026D01*
X106866000Y-126366026D01*
X106968650Y-126346711D01*
X107062927Y-126286045D01*
X107120699Y-126201495D01*
X107171555Y-126280527D01*
X107264120Y-126343775D01*
X107374000Y-126366026D01*
X109406000Y-126366026D01*
X109508650Y-126346711D01*
X109602927Y-126286045D01*
X109660699Y-126201495D01*
X109711555Y-126280527D01*
X109804120Y-126343775D01*
X109914000Y-126366026D01*
X111946000Y-126366026D01*
X112048650Y-126346711D01*
X112142927Y-126286045D01*
X112200699Y-126201495D01*
X112251555Y-126280527D01*
X112344120Y-126343775D01*
X112454000Y-126366026D01*
X114486000Y-126366026D01*
X114588650Y-126346711D01*
X114682927Y-126286045D01*
X114740699Y-126201495D01*
X114791555Y-126280527D01*
X114884120Y-126343775D01*
X114994000Y-126366026D01*
X117026000Y-126366026D01*
X117128650Y-126346711D01*
X117222927Y-126286045D01*
X117280699Y-126201495D01*
X117331555Y-126280527D01*
X117424120Y-126343775D01*
X117534000Y-126366026D01*
X119566000Y-126366026D01*
X119668650Y-126346711D01*
X119762927Y-126286045D01*
X119820699Y-126201495D01*
X119871555Y-126280527D01*
X119964120Y-126343775D01*
X120074000Y-126366026D01*
X122106000Y-126366026D01*
X122208650Y-126346711D01*
X122302927Y-126286045D01*
X122360699Y-126201495D01*
X122411555Y-126280527D01*
X122504120Y-126343775D01*
X122614000Y-126366026D01*
X124646000Y-126366026D01*
X124748650Y-126346711D01*
X124842927Y-126286045D01*
X124906175Y-126193480D01*
X124928426Y-126083600D01*
X124928426Y-124356400D01*
X124909111Y-124253750D01*
X124888390Y-124221548D01*
X125873000Y-125206159D01*
X125873000Y-146592400D01*
X125901697Y-146736672D01*
X125983421Y-146858979D01*
X126792336Y-147667894D01*
X126748492Y-147733511D01*
X126661669Y-148170000D01*
X126748492Y-148606489D01*
X126995743Y-148976526D01*
X127365780Y-149223777D01*
X127802269Y-149310600D01*
X128157731Y-149310600D01*
X128594220Y-149223777D01*
X128964257Y-148976526D01*
X129211508Y-148606489D01*
X129298331Y-148170000D01*
X129226765Y-147810215D01*
X134797301Y-142239679D01*
X134900702Y-142084929D01*
X134937011Y-141902389D01*
X134937011Y-134632392D01*
X134948882Y-134620542D01*
X135036911Y-134408547D01*
X135037111Y-134179002D01*
X134949453Y-133966854D01*
X134787282Y-133804400D01*
X134575287Y-133716371D01*
X134345742Y-133716171D01*
X134287001Y-133740442D01*
X134287001Y-130331180D01*
X134436417Y-130269442D01*
X134598871Y-130107271D01*
X134686900Y-129895276D01*
X134687100Y-129665731D01*
X134599442Y-129453583D01*
X134437271Y-129291129D01*
X134225276Y-129203100D01*
X133995731Y-129202900D01*
X133783583Y-129290558D01*
X133621129Y-129452729D01*
X133533100Y-129664724D01*
X133533085Y-129682335D01*
X133472711Y-129742709D01*
X133369310Y-129897459D01*
X133333001Y-130079999D01*
X133333001Y-140762419D01*
X132862420Y-141233000D01*
X132112400Y-141233000D01*
X131929859Y-141269309D01*
X131775110Y-141372710D01*
X128575350Y-144572470D01*
X128157731Y-144489400D01*
X127802269Y-144489400D01*
X127365780Y-144576223D01*
X127330533Y-144599775D01*
X126977011Y-144246253D01*
X126977011Y-143868492D01*
X126995743Y-143896526D01*
X127365780Y-144143777D01*
X127802269Y-144230600D01*
X128157731Y-144230600D01*
X128594220Y-144143777D01*
X128964257Y-143896526D01*
X129211508Y-143526489D01*
X129298331Y-143090000D01*
X129211508Y-142653511D01*
X128964257Y-142283474D01*
X128594220Y-142036223D01*
X128157731Y-141949400D01*
X127802269Y-141949400D01*
X127365780Y-142036223D01*
X126995743Y-142283474D01*
X126977011Y-142311508D01*
X126977011Y-141328492D01*
X126995743Y-141356526D01*
X127365780Y-141603777D01*
X127802269Y-141690600D01*
X128157731Y-141690600D01*
X128594220Y-141603777D01*
X128964257Y-141356526D01*
X129211508Y-140986489D01*
X129298331Y-140550000D01*
X129211508Y-140113511D01*
X128964257Y-139743474D01*
X128594220Y-139496223D01*
X128157731Y-139409400D01*
X127802269Y-139409400D01*
X127365780Y-139496223D01*
X126995743Y-139743474D01*
X126977011Y-139771508D01*
X126977011Y-138788492D01*
X126995743Y-138816526D01*
X127365780Y-139063777D01*
X127802269Y-139150600D01*
X128157731Y-139150600D01*
X128594220Y-139063777D01*
X128964257Y-138816526D01*
X129211508Y-138446489D01*
X129298331Y-138010000D01*
X129211508Y-137573511D01*
X128964257Y-137203474D01*
X128594220Y-136956223D01*
X128157731Y-136869400D01*
X127802269Y-136869400D01*
X127365780Y-136956223D01*
X126995743Y-137203474D01*
X126977011Y-137231508D01*
X126977011Y-136248492D01*
X126995743Y-136276526D01*
X127365780Y-136523777D01*
X127802269Y-136610600D01*
X128157731Y-136610600D01*
X128594220Y-136523777D01*
X128964257Y-136276526D01*
X129211508Y-135906489D01*
X129298331Y-135470000D01*
X129211508Y-135033511D01*
X128964257Y-134663474D01*
X128594220Y-134416223D01*
X128157731Y-134329400D01*
X127802269Y-134329400D01*
X127365780Y-134416223D01*
X126995743Y-134663474D01*
X126977011Y-134691508D01*
X126977011Y-133708492D01*
X126995743Y-133736526D01*
X127365780Y-133983777D01*
X127802269Y-134070600D01*
X128157731Y-134070600D01*
X128594220Y-133983777D01*
X128964257Y-133736526D01*
X129211508Y-133366489D01*
X129298331Y-132930000D01*
X129211508Y-132493511D01*
X128964257Y-132123474D01*
X128594220Y-131876223D01*
X128157731Y-131789400D01*
X127802269Y-131789400D01*
X127365780Y-131876223D01*
X126995743Y-132123474D01*
X126977011Y-132151508D01*
X126977011Y-131168492D01*
X126995743Y-131196526D01*
X127365780Y-131443777D01*
X127802269Y-131530600D01*
X128157731Y-131530600D01*
X128594220Y-131443777D01*
X128964257Y-131196526D01*
X129211508Y-130826489D01*
X129298331Y-130390000D01*
X129211508Y-129953511D01*
X128964257Y-129583474D01*
X128594220Y-129336223D01*
X128157731Y-129249400D01*
X127802269Y-129249400D01*
X127365780Y-129336223D01*
X126995743Y-129583474D01*
X126977011Y-129611508D01*
X126977011Y-128628492D01*
X126995743Y-128656526D01*
X127365780Y-128903777D01*
X127802269Y-128990600D01*
X128157731Y-128990600D01*
X128594220Y-128903777D01*
X128964257Y-128656526D01*
X129211508Y-128286489D01*
X129298331Y-127850000D01*
X129211508Y-127413511D01*
X128964257Y-127043474D01*
X128594220Y-126796223D01*
X128157731Y-126709400D01*
X127802269Y-126709400D01*
X127365780Y-126796223D01*
X126995743Y-127043474D01*
X126977011Y-127071508D01*
X126977011Y-126088492D01*
X126995743Y-126116526D01*
X127365780Y-126363777D01*
X127802269Y-126450600D01*
X128157731Y-126450600D01*
X128594220Y-126363777D01*
X128964257Y-126116526D01*
X129211508Y-125746489D01*
X129298331Y-125310000D01*
X129211508Y-124873511D01*
X128964257Y-124503474D01*
X128594220Y-124256223D01*
X128157731Y-124169400D01*
X127802269Y-124169400D01*
X127365780Y-124256223D01*
X126995743Y-124503474D01*
X126937863Y-124590098D01*
X126879982Y-124503474D01*
X126866590Y-124483431D01*
X123937300Y-121554142D01*
X124260000Y-121618331D01*
X124696489Y-121531508D01*
X125066526Y-121284257D01*
X125313777Y-120914220D01*
X125393037Y-120515750D01*
X126329000Y-120515750D01*
X126329000Y-121219910D01*
X126425673Y-121453299D01*
X126604302Y-121631927D01*
X126837691Y-121728600D01*
X127347257Y-121728600D01*
X126995743Y-121963474D01*
X126748492Y-122333511D01*
X126661669Y-122770000D01*
X126748492Y-123206489D01*
X126995743Y-123576526D01*
X127365780Y-123823777D01*
X127802269Y-123910600D01*
X128157731Y-123910600D01*
X128594220Y-123823777D01*
X128964257Y-123576526D01*
X129184439Y-123247000D01*
X129396000Y-123247000D01*
X129578540Y-123210691D01*
X129733290Y-123107290D01*
X129960918Y-122879662D01*
X131873660Y-122879662D01*
X142341997Y-133347998D01*
X142341999Y-133348001D01*
X142529192Y-133473078D01*
X142750000Y-133517000D01*
X143207967Y-133517000D01*
X143221999Y-133538001D01*
X148901999Y-139218001D01*
X148902002Y-139218003D01*
X148982729Y-139298871D01*
X149194724Y-139386900D01*
X149309997Y-139387000D01*
X149310000Y-139387001D01*
X149310003Y-139387000D01*
X149424269Y-139387100D01*
X149636417Y-139299442D01*
X149717998Y-139218003D01*
X149718001Y-139218001D01*
X149718003Y-139217998D01*
X149798871Y-139137271D01*
X149870708Y-138964269D01*
X160252900Y-138964269D01*
X160340558Y-139176417D01*
X160367626Y-139203533D01*
X160389309Y-139312540D01*
X160492710Y-139467290D01*
X161392915Y-140367495D01*
X161392900Y-140384269D01*
X161480558Y-140596417D01*
X161642729Y-140758871D01*
X161854724Y-140846900D01*
X162084269Y-140847100D01*
X162296417Y-140759442D01*
X162458871Y-140597271D01*
X162546900Y-140385276D01*
X162547100Y-140155731D01*
X162459442Y-139943583D01*
X162297271Y-139781129D01*
X162085276Y-139693100D01*
X162067665Y-139693085D01*
X161387229Y-139012649D01*
X161406900Y-138965276D01*
X161407100Y-138735731D01*
X161319442Y-138523583D01*
X161157271Y-138361129D01*
X160945276Y-138273100D01*
X160715731Y-138272900D01*
X160503583Y-138360558D01*
X160341129Y-138522729D01*
X160253100Y-138734724D01*
X160252900Y-138964269D01*
X149870708Y-138964269D01*
X149886900Y-138925276D01*
X149887000Y-138810003D01*
X149887001Y-138810000D01*
X149887000Y-138809997D01*
X149887100Y-138695731D01*
X149799442Y-138483583D01*
X149718003Y-138402002D01*
X149718001Y-138401999D01*
X149717497Y-138401495D01*
X149637271Y-138321129D01*
X149637032Y-138321030D01*
X144207043Y-132891041D01*
X144207100Y-132825731D01*
X144119442Y-132613583D01*
X144038003Y-132532002D01*
X144038001Y-132531999D01*
X144037998Y-132531997D01*
X143957271Y-132451129D01*
X143745276Y-132363100D01*
X143515731Y-132362900D01*
X143515489Y-132363000D01*
X142989001Y-132363000D01*
X140960270Y-130334268D01*
X141422900Y-130334268D01*
X141510558Y-130546416D01*
X141672729Y-130708870D01*
X141884724Y-130796899D01*
X142114269Y-130797099D01*
X142326417Y-130709441D01*
X142439055Y-130596999D01*
X143280001Y-130596999D01*
X143424273Y-130568302D01*
X143546580Y-130486578D01*
X144872947Y-129160211D01*
X144872900Y-129214269D01*
X144960558Y-129426417D01*
X145122729Y-129588871D01*
X145334724Y-129676900D01*
X145564269Y-129677100D01*
X145776417Y-129589442D01*
X145938871Y-129427271D01*
X146026900Y-129215276D01*
X146027039Y-129056119D01*
X152508889Y-122574269D01*
X157942900Y-122574269D01*
X158030558Y-122786417D01*
X158192729Y-122948871D01*
X158404724Y-123036900D01*
X158634269Y-123037100D01*
X158846417Y-122949442D01*
X158858881Y-122937000D01*
X160120000Y-122937000D01*
X160302540Y-122900691D01*
X160457290Y-122797290D01*
X160887495Y-122367085D01*
X160904269Y-122367100D01*
X161116417Y-122279442D01*
X161278871Y-122117271D01*
X161366900Y-121905276D01*
X161367100Y-121675731D01*
X161279442Y-121463583D01*
X161117271Y-121301129D01*
X160905276Y-121213100D01*
X160675731Y-121212900D01*
X160463583Y-121300558D01*
X160301129Y-121462729D01*
X160213100Y-121674724D01*
X160213085Y-121692335D01*
X159922420Y-121983000D01*
X158859121Y-121983000D01*
X158847271Y-121971129D01*
X158635276Y-121883100D01*
X158405731Y-121882900D01*
X158193583Y-121970558D01*
X158031129Y-122132729D01*
X157943100Y-122344724D01*
X157942900Y-122574269D01*
X152508889Y-122574269D01*
X154306196Y-120776962D01*
X154464269Y-120777100D01*
X154676417Y-120689442D01*
X154838871Y-120527271D01*
X154926900Y-120315276D01*
X154927100Y-120085731D01*
X154839442Y-119873583D01*
X154677271Y-119711129D01*
X154626075Y-119689870D01*
X154738871Y-119577271D01*
X154826900Y-119365276D01*
X154827100Y-119135731D01*
X154739442Y-118923583D01*
X154577271Y-118761129D01*
X154365276Y-118673100D01*
X154135731Y-118672900D01*
X153923583Y-118760558D01*
X153761129Y-118922729D01*
X153673100Y-119134724D01*
X153672961Y-119293880D01*
X143123843Y-129842999D01*
X142438947Y-129842999D01*
X142327271Y-129731128D01*
X142115276Y-129643099D01*
X141885731Y-129642899D01*
X141673583Y-129730557D01*
X141511129Y-129892728D01*
X141423100Y-130104723D01*
X141422900Y-130334268D01*
X140960270Y-130334268D01*
X132789662Y-122163660D01*
X132789662Y-107532662D01*
X132789762Y-107418393D01*
X132702104Y-107206245D01*
X132620665Y-107124664D01*
X132620663Y-107124661D01*
X132620660Y-107124659D01*
X132539933Y-107043791D01*
X132327938Y-106955762D01*
X132098393Y-106955562D01*
X131886245Y-107043220D01*
X131804664Y-107124659D01*
X131804661Y-107124661D01*
X131804659Y-107124664D01*
X131723791Y-107205391D01*
X131635762Y-107417386D01*
X131635562Y-107646931D01*
X131635662Y-107647173D01*
X131635662Y-121925662D01*
X129763338Y-121925662D01*
X129580797Y-121961971D01*
X129426048Y-122065372D01*
X129198420Y-122293000D01*
X129184439Y-122293000D01*
X128964257Y-121963474D01*
X128612743Y-121728600D01*
X129122309Y-121728600D01*
X129355698Y-121631927D01*
X129534327Y-121453299D01*
X129631000Y-121219910D01*
X129631000Y-120515750D01*
X129472250Y-120357000D01*
X128107000Y-120357000D01*
X128107000Y-120377000D01*
X127853000Y-120377000D01*
X127853000Y-120357000D01*
X126487750Y-120357000D01*
X126329000Y-120515750D01*
X125393037Y-120515750D01*
X125400600Y-120477731D01*
X125400600Y-120122269D01*
X125313777Y-119685780D01*
X125066526Y-119315743D01*
X124953304Y-119240090D01*
X126329000Y-119240090D01*
X126329000Y-119944250D01*
X126487750Y-120103000D01*
X127853000Y-120103000D01*
X127853000Y-118890150D01*
X128107000Y-118890150D01*
X128107000Y-120103000D01*
X129472250Y-120103000D01*
X129631000Y-119944250D01*
X129631000Y-119240090D01*
X129534327Y-119006701D01*
X129355698Y-118828073D01*
X129122309Y-118731400D01*
X128265750Y-118731400D01*
X128107000Y-118890150D01*
X127853000Y-118890150D01*
X127694250Y-118731400D01*
X126837691Y-118731400D01*
X126604302Y-118828073D01*
X126425673Y-119006701D01*
X126329000Y-119240090D01*
X124953304Y-119240090D01*
X124696489Y-119068492D01*
X124260000Y-118981669D01*
X123823511Y-119068492D01*
X123453474Y-119315743D01*
X123206223Y-119685780D01*
X123173853Y-119848517D01*
X123011954Y-119385680D01*
X122622036Y-118949268D01*
X122094791Y-118695291D01*
X122079026Y-118692642D01*
X121847000Y-118813783D01*
X121847000Y-120173000D01*
X121867000Y-120173000D01*
X121867000Y-120427000D01*
X121847000Y-120427000D01*
X121847000Y-120447000D01*
X121593000Y-120447000D01*
X121593000Y-120427000D01*
X121573000Y-120427000D01*
X121573000Y-120173000D01*
X121593000Y-120173000D01*
X121593000Y-118813783D01*
X121360974Y-118692642D01*
X121345209Y-118695291D01*
X120817964Y-118949268D01*
X120428046Y-119385680D01*
X120266147Y-119848517D01*
X120233777Y-119685780D01*
X119986526Y-119315743D01*
X119616489Y-119068492D01*
X119180000Y-118981669D01*
X118743511Y-119068492D01*
X118373474Y-119315743D01*
X118126223Y-119685780D01*
X118039400Y-120122269D01*
X118039400Y-120477731D01*
X118126223Y-120914220D01*
X118373474Y-121284257D01*
X118743511Y-121531508D01*
X118781281Y-121539021D01*
X118259779Y-121539021D01*
X117670225Y-120949467D01*
X117693777Y-120914220D01*
X117780600Y-120477731D01*
X117780600Y-120122269D01*
X117693777Y-119685780D01*
X117446526Y-119315743D01*
X117076489Y-119068492D01*
X116640000Y-118981669D01*
X116203511Y-119068492D01*
X115833474Y-119315743D01*
X115586223Y-119685780D01*
X115499400Y-120122269D01*
X115499400Y-120477731D01*
X115586223Y-120914220D01*
X115833474Y-121284257D01*
X116203511Y-121531508D01*
X116640000Y-121618331D01*
X117076489Y-121531508D01*
X117142106Y-121487664D01*
X117837042Y-122182600D01*
X117959349Y-122264324D01*
X118103621Y-122293021D01*
X122959863Y-122293021D01*
X124778570Y-124111729D01*
X124755880Y-124096225D01*
X124646000Y-124073974D01*
X122614000Y-124073974D01*
X122511350Y-124093289D01*
X122417073Y-124153955D01*
X122359301Y-124238505D01*
X122308445Y-124159473D01*
X122215880Y-124096225D01*
X122106000Y-124073974D01*
X120074000Y-124073974D01*
X119971350Y-124093289D01*
X119877073Y-124153955D01*
X119819301Y-124238505D01*
X119768445Y-124159473D01*
X119675880Y-124096225D01*
X119566000Y-124073974D01*
X117534000Y-124073974D01*
X117431350Y-124093289D01*
X117337073Y-124153955D01*
X117279301Y-124238505D01*
X117228445Y-124159473D01*
X117135880Y-124096225D01*
X117026000Y-124073974D01*
X114994000Y-124073974D01*
X114891350Y-124093289D01*
X114797073Y-124153955D01*
X114739301Y-124238505D01*
X114688445Y-124159473D01*
X114595880Y-124096225D01*
X114486000Y-124073974D01*
X112454000Y-124073974D01*
X112351350Y-124093289D01*
X112257073Y-124153955D01*
X112199301Y-124238505D01*
X112148445Y-124159473D01*
X112055880Y-124096225D01*
X111946000Y-124073974D01*
X109914000Y-124073974D01*
X109811350Y-124093289D01*
X109717073Y-124153955D01*
X109659301Y-124238505D01*
X109608445Y-124159473D01*
X109515880Y-124096225D01*
X109406000Y-124073974D01*
X107374000Y-124073974D01*
X107271350Y-124093289D01*
X107177073Y-124153955D01*
X107119301Y-124238505D01*
X107068445Y-124159473D01*
X106975880Y-124096225D01*
X106866000Y-124073974D01*
X104834000Y-124073974D01*
X104731350Y-124093289D01*
X104637073Y-124153955D01*
X104579301Y-124238505D01*
X104528445Y-124159473D01*
X104435880Y-124096225D01*
X104326000Y-124073974D01*
X102294000Y-124073974D01*
X102191350Y-124093289D01*
X102097073Y-124153955D01*
X102039301Y-124238505D01*
X101988445Y-124159473D01*
X101895880Y-124096225D01*
X101786000Y-124073974D01*
X99754000Y-124073974D01*
X99651350Y-124093289D01*
X99557073Y-124153955D01*
X99493825Y-124246520D01*
X99471574Y-124356400D01*
X97327580Y-124356400D01*
X97327580Y-119284000D01*
X105333974Y-119284000D01*
X105333974Y-121316000D01*
X105353289Y-121418650D01*
X105413955Y-121512927D01*
X105506520Y-121576175D01*
X105616400Y-121598426D01*
X107343600Y-121598426D01*
X107446250Y-121579111D01*
X107540527Y-121518445D01*
X107603775Y-121425880D01*
X107626026Y-121316000D01*
X107626026Y-120122269D01*
X107879400Y-120122269D01*
X107879400Y-120477731D01*
X107966223Y-120914220D01*
X108213474Y-121284257D01*
X108583511Y-121531508D01*
X109020000Y-121618331D01*
X109456489Y-121531508D01*
X109826526Y-121284257D01*
X110073777Y-120914220D01*
X110160600Y-120477731D01*
X110160600Y-120122269D01*
X110419400Y-120122269D01*
X110419400Y-120477731D01*
X110506223Y-120914220D01*
X110753474Y-121284257D01*
X111123511Y-121531508D01*
X111560000Y-121618331D01*
X111996489Y-121531508D01*
X112366526Y-121284257D01*
X112613777Y-120914220D01*
X112700600Y-120477731D01*
X112700600Y-120122269D01*
X112959400Y-120122269D01*
X112959400Y-120477731D01*
X113046223Y-120914220D01*
X113293474Y-121284257D01*
X113663511Y-121531508D01*
X114100000Y-121618331D01*
X114536489Y-121531508D01*
X114906526Y-121284257D01*
X115153777Y-120914220D01*
X115240600Y-120477731D01*
X115240600Y-120122269D01*
X115153777Y-119685780D01*
X114906526Y-119315743D01*
X114536489Y-119068492D01*
X114100000Y-118981669D01*
X113663511Y-119068492D01*
X113293474Y-119315743D01*
X113046223Y-119685780D01*
X112959400Y-120122269D01*
X112700600Y-120122269D01*
X112613777Y-119685780D01*
X112366526Y-119315743D01*
X111996489Y-119068492D01*
X111560000Y-118981669D01*
X111123511Y-119068492D01*
X110753474Y-119315743D01*
X110506223Y-119685780D01*
X110419400Y-120122269D01*
X110160600Y-120122269D01*
X110073777Y-119685780D01*
X109826526Y-119315743D01*
X109456489Y-119068492D01*
X109020000Y-118981669D01*
X108583511Y-119068492D01*
X108213474Y-119315743D01*
X107966223Y-119685780D01*
X107879400Y-120122269D01*
X107626026Y-120122269D01*
X107626026Y-119284000D01*
X107606711Y-119181350D01*
X107546045Y-119087073D01*
X107453480Y-119023825D01*
X107343600Y-119001574D01*
X105616400Y-119001574D01*
X105513750Y-119020889D01*
X105419473Y-119081555D01*
X105356225Y-119174120D01*
X105333974Y-119284000D01*
X97327580Y-119284000D01*
X97327580Y-101961338D01*
X98141305Y-102776485D01*
X99345305Y-103276430D01*
X100648976Y-103277567D01*
X101853846Y-102779725D01*
X102776485Y-101858695D01*
X103276430Y-100654695D01*
X103277567Y-99351024D01*
X102779725Y-98146154D01*
X101962168Y-97327169D01*
X129873000Y-97327169D01*
X129873000Y-105000000D01*
M02*
