G04 #@! TF.FileFunction,Soldermask,Top*
%FSLAX46Y46*%
G04 Gerber Fmt 4.6, Leading zero omitted, Abs format (unit mm)*
G04 Created by KiCad (PCBNEW 4.0.4-stable) date 01/17/18 01:46:41*
%MOMM*%
%LPD*%
G01*
G04 APERTURE LIST*
%ADD10C,0.100000*%
%ADD11C,0.010000*%
%ADD12C,6.000000*%
%ADD13R,2.032000X1.727200*%
%ADD14O,2.032000X1.727200*%
%ADD15R,1.000000X1.250000*%
%ADD16R,0.797560X0.797560*%
%ADD17R,1.803400X1.600200*%
%ADD18R,1.000000X3.500000*%
%ADD19R,1.600000X3.400000*%
%ADD20R,1.350000X0.400000*%
%ADD21O,0.950000X1.250000*%
%ADD22O,1.550000X1.000000*%
%ADD23R,1.300000X1.550000*%
%ADD24R,0.650000X1.060000*%
%ADD25R,1.200000X0.400000*%
%ADD26O,2.500000X0.900000*%
%ADD27O,0.900000X2.500000*%
%ADD28R,6.000000X6.000000*%
%ADD29R,1.250000X1.000000*%
%ADD30R,0.700000X1.300000*%
%ADD31R,1.300000X0.700000*%
%ADD32R,1.200000X1.500000*%
G04 APERTURE END LIST*
D10*
D11*
G36*
X160015781Y-165605526D02*
X160068434Y-165634793D01*
X160109432Y-165658469D01*
X160141237Y-165678221D01*
X160166312Y-165695719D01*
X160187120Y-165712630D01*
X160206123Y-165730624D01*
X160216887Y-165741787D01*
X160232248Y-165760174D01*
X160248604Y-165782913D01*
X160263554Y-165806174D01*
X160274701Y-165826130D01*
X160279643Y-165838952D01*
X160279260Y-165841322D01*
X160271215Y-165840370D01*
X160251209Y-165836152D01*
X160222638Y-165829416D01*
X160201627Y-165824182D01*
X160108252Y-165803474D01*
X160003734Y-165785641D01*
X159892661Y-165771399D01*
X159816333Y-165764178D01*
X159756176Y-165760695D01*
X159683871Y-165758745D01*
X159603064Y-165758258D01*
X159517400Y-165759160D01*
X159430524Y-165761381D01*
X159346082Y-165764848D01*
X159267720Y-165769490D01*
X159199082Y-165775236D01*
X159186312Y-165776569D01*
X158935744Y-165809933D01*
X158676662Y-165856462D01*
X158409335Y-165916095D01*
X158134030Y-165988771D01*
X157851014Y-166074429D01*
X157799691Y-166091084D01*
X157732196Y-166113512D01*
X157662564Y-166137205D01*
X157592403Y-166161567D01*
X157523323Y-166186004D01*
X157456935Y-166209921D01*
X157394846Y-166232721D01*
X157338668Y-166253810D01*
X157290009Y-166272593D01*
X157250479Y-166288474D01*
X157221688Y-166300859D01*
X157205245Y-166309152D01*
X157201937Y-166312127D01*
X157204755Y-166314310D01*
X157213698Y-166318303D01*
X157229501Y-166324348D01*
X157252896Y-166332685D01*
X157284619Y-166343557D01*
X157325404Y-166357205D01*
X157375984Y-166373870D01*
X157437094Y-166393794D01*
X157509467Y-166417218D01*
X157593838Y-166444383D01*
X157690940Y-166475532D01*
X157801509Y-166510905D01*
X157926277Y-166550743D01*
X157963937Y-166562757D01*
X158119342Y-166612465D01*
X158260842Y-166658047D01*
X158389735Y-166699948D01*
X158507318Y-166738618D01*
X158614887Y-166774503D01*
X158713741Y-166808050D01*
X158805177Y-166839707D01*
X158890490Y-166869922D01*
X158970980Y-166899142D01*
X159047942Y-166927814D01*
X159122674Y-166956386D01*
X159196474Y-166985305D01*
X159243978Y-167004267D01*
X159466854Y-167097607D01*
X159674730Y-167192599D01*
X159868440Y-167289766D01*
X160048819Y-167389632D01*
X160216701Y-167492719D01*
X160372921Y-167599551D01*
X160518314Y-167710651D01*
X160653715Y-167826543D01*
X160779957Y-167947749D01*
X160827023Y-167996716D01*
X160856834Y-168028822D01*
X160885262Y-168060116D01*
X160909149Y-168087082D01*
X160925338Y-168106203D01*
X160925720Y-168106679D01*
X160952406Y-168140014D01*
X161015906Y-168135951D01*
X161048058Y-168132287D01*
X161090267Y-168125198D01*
X161137339Y-168115661D01*
X161184078Y-168104656D01*
X161189694Y-168103211D01*
X161249647Y-168088753D01*
X161307071Y-168077014D01*
X161359306Y-168068387D01*
X161403692Y-168063268D01*
X161437569Y-168062050D01*
X161454682Y-168063983D01*
X161473953Y-168068820D01*
X161468833Y-167990363D01*
X161460619Y-167883435D01*
X161449994Y-167780586D01*
X161436417Y-167678284D01*
X161419344Y-167572994D01*
X161398235Y-167461184D01*
X161372548Y-167339318D01*
X161361279Y-167288775D01*
X161337692Y-167183941D01*
X161317482Y-167093172D01*
X161300355Y-167015089D01*
X161286016Y-166948311D01*
X161274172Y-166891459D01*
X161264529Y-166843153D01*
X161256792Y-166802014D01*
X161253287Y-166782199D01*
X161246627Y-166743789D01*
X161243836Y-166717839D01*
X161247024Y-166701031D01*
X161258304Y-166690046D01*
X161279787Y-166681566D01*
X161313586Y-166672275D01*
X161325235Y-166669159D01*
X161400263Y-166655390D01*
X161470230Y-166655656D01*
X161534200Y-166669791D01*
X161591234Y-166697628D01*
X161623458Y-166722371D01*
X161657009Y-166756775D01*
X161687432Y-166797339D01*
X161714979Y-166845008D01*
X161739900Y-166900729D01*
X161762446Y-166965448D01*
X161782868Y-167040111D01*
X161801418Y-167125664D01*
X161818345Y-167223054D01*
X161833901Y-167333225D01*
X161848337Y-167457124D01*
X161861904Y-167595698D01*
X161865307Y-167634093D01*
X161870859Y-167697048D01*
X161876350Y-167757611D01*
X161881535Y-167813203D01*
X161886168Y-167861246D01*
X161890004Y-167899162D01*
X161892799Y-167924374D01*
X161893226Y-167927781D01*
X161896903Y-167957875D01*
X161899586Y-167983246D01*
X161900692Y-167998332D01*
X161901571Y-168003801D01*
X161905490Y-168007626D01*
X161914681Y-168009982D01*
X161931374Y-168011042D01*
X161957804Y-168010980D01*
X161996202Y-168009969D01*
X162033890Y-168008705D01*
X162161231Y-168000278D01*
X162286233Y-167984409D01*
X162293843Y-167983173D01*
X162379479Y-167970972D01*
X162464533Y-167963055D01*
X162556836Y-167958706D01*
X162563718Y-167958518D01*
X162706593Y-167954780D01*
X162705995Y-167885718D01*
X162705228Y-167860228D01*
X162703092Y-167834423D01*
X162699159Y-167806543D01*
X162693001Y-167774825D01*
X162684192Y-167737509D01*
X162672303Y-167692835D01*
X162656907Y-167639042D01*
X162637577Y-167574368D01*
X162613885Y-167497053D01*
X162603477Y-167463437D01*
X162568890Y-167349415D01*
X162540148Y-167249034D01*
X162516995Y-167161281D01*
X162499172Y-167085141D01*
X162486422Y-167019602D01*
X162480415Y-166979787D01*
X162474675Y-166902287D01*
X162479032Y-166836633D01*
X162493435Y-166782946D01*
X162517837Y-166741346D01*
X162552187Y-166711953D01*
X162596436Y-166694888D01*
X162597496Y-166694657D01*
X162645552Y-166690721D01*
X162691216Y-166700377D01*
X162734975Y-166724029D01*
X162777314Y-166762080D01*
X162818718Y-166814937D01*
X162859674Y-166883002D01*
X162885836Y-166934650D01*
X162916550Y-167004357D01*
X162946201Y-167082979D01*
X162975151Y-167171751D01*
X163003762Y-167271910D01*
X163032396Y-167384693D01*
X163061416Y-167511335D01*
X163079337Y-167595321D01*
X163090742Y-167650001D01*
X163101899Y-167703319D01*
X163112110Y-167751965D01*
X163120681Y-167792626D01*
X163126916Y-167821991D01*
X163128159Y-167827787D01*
X163140808Y-167886542D01*
X163281962Y-167881243D01*
X163362458Y-167877433D01*
X163442046Y-167871945D01*
X163522566Y-167864512D01*
X163605860Y-167854861D01*
X163693767Y-167842725D01*
X163788129Y-167827832D01*
X163890785Y-167809913D01*
X164003578Y-167788699D01*
X164128346Y-167763918D01*
X164242500Y-167740411D01*
X164375014Y-167713216D01*
X164493451Y-167689855D01*
X164597584Y-167670368D01*
X164687183Y-167654794D01*
X164762019Y-167643176D01*
X164821863Y-167635552D01*
X164848526Y-167633060D01*
X164915012Y-167627950D01*
X164920089Y-167655010D01*
X164920283Y-167688086D01*
X164910917Y-167732229D01*
X164892312Y-167786082D01*
X164884627Y-167804750D01*
X164874484Y-167828392D01*
X164867081Y-167845326D01*
X164864385Y-167851157D01*
X164855954Y-167853360D01*
X164833058Y-167857296D01*
X164796995Y-167862800D01*
X164749062Y-167869705D01*
X164690554Y-167877845D01*
X164622769Y-167887054D01*
X164547003Y-167897166D01*
X164464553Y-167908013D01*
X164376716Y-167919429D01*
X164284788Y-167931249D01*
X164190066Y-167943305D01*
X164093846Y-167955432D01*
X163997426Y-167967463D01*
X163902102Y-167979232D01*
X163809171Y-167990571D01*
X163719929Y-168001316D01*
X163635674Y-168011300D01*
X163557701Y-168020355D01*
X163487307Y-168028317D01*
X163460750Y-168031247D01*
X163398130Y-168038154D01*
X163340744Y-168044597D01*
X163290445Y-168050359D01*
X163249091Y-168055222D01*
X163218536Y-168058969D01*
X163200635Y-168061383D01*
X163196635Y-168062156D01*
X163198309Y-168070025D01*
X163204327Y-168090567D01*
X163213949Y-168121416D01*
X163226438Y-168160206D01*
X163241054Y-168204571D01*
X163241679Y-168206448D01*
X163261259Y-168266689D01*
X163280060Y-168327807D01*
X163298571Y-168391691D01*
X163317285Y-168460229D01*
X163336691Y-168535308D01*
X163357281Y-168618817D01*
X163379544Y-168712644D01*
X163403973Y-168818678D01*
X163425050Y-168911982D01*
X163445698Y-169003792D01*
X163463464Y-169082156D01*
X163478851Y-169149137D01*
X163492364Y-169206800D01*
X163504507Y-169257208D01*
X163515786Y-169302424D01*
X163526703Y-169344511D01*
X163537765Y-169385534D01*
X163549476Y-169427555D01*
X163560906Y-169467656D01*
X163580699Y-169534288D01*
X163598707Y-169589184D01*
X163616450Y-169636136D01*
X163635442Y-169678935D01*
X163657200Y-169721375D01*
X163675181Y-169753406D01*
X163709182Y-169813616D01*
X163735405Y-169863218D01*
X163755029Y-169904710D01*
X163769236Y-169940589D01*
X163779205Y-169973352D01*
X163779308Y-169973750D01*
X163786700Y-170016826D01*
X163787841Y-170060256D01*
X163783303Y-170100751D01*
X163773663Y-170135025D01*
X163759492Y-170159791D01*
X163744915Y-170170691D01*
X163713034Y-170176817D01*
X163672732Y-170175740D01*
X163629601Y-170167714D01*
X163620320Y-170165051D01*
X163583959Y-170147260D01*
X163546408Y-170117248D01*
X163510798Y-170078070D01*
X163480258Y-170032783D01*
X163474996Y-170023188D01*
X163462177Y-169996949D01*
X163445803Y-169960643D01*
X163427967Y-169919038D01*
X163410763Y-169876905D01*
X163410540Y-169876344D01*
X163393386Y-169833617D01*
X163372170Y-169781599D01*
X163349073Y-169725596D01*
X163326278Y-169670914D01*
X163315595Y-169645534D01*
X163275368Y-169547662D01*
X163231380Y-169435500D01*
X163183544Y-169308819D01*
X163131777Y-169167394D01*
X163075994Y-169010997D01*
X163043466Y-168918217D01*
X162999775Y-168792977D01*
X162960939Y-168681832D01*
X162926633Y-168583867D01*
X162896538Y-168498170D01*
X162870330Y-168423827D01*
X162847687Y-168359925D01*
X162828287Y-168305550D01*
X162811808Y-168259789D01*
X162797927Y-168221730D01*
X162794907Y-168213531D01*
X162759737Y-168118281D01*
X162721259Y-168119618D01*
X162702284Y-168120934D01*
X162669728Y-168123921D01*
X162625771Y-168128334D01*
X162572589Y-168133924D01*
X162512362Y-168140445D01*
X162447267Y-168147650D01*
X162379484Y-168155293D01*
X162311189Y-168163127D01*
X162244562Y-168170904D01*
X162181781Y-168178378D01*
X162125023Y-168185302D01*
X162076468Y-168191429D01*
X162038293Y-168196513D01*
X162021984Y-168198854D01*
X161932687Y-168212223D01*
X161932687Y-168257342D01*
X161934066Y-168280121D01*
X161937886Y-168314904D01*
X161943672Y-168358092D01*
X161950951Y-168406086D01*
X161957356Y-168444528D01*
X161969153Y-168517899D01*
X161977133Y-168581684D01*
X161981885Y-168641545D01*
X161983952Y-168700218D01*
X161985120Y-168747827D01*
X161986927Y-168781923D01*
X161989638Y-168804867D01*
X161993515Y-168819015D01*
X161997982Y-168825946D01*
X162008843Y-168834737D01*
X162030070Y-168850295D01*
X162058817Y-168870587D01*
X162092239Y-168893580D01*
X162100042Y-168898870D01*
X162147967Y-168932983D01*
X162183599Y-168962992D01*
X162209038Y-168991497D01*
X162226382Y-169021094D01*
X162237730Y-169054383D01*
X162242093Y-169074750D01*
X162246772Y-169132621D01*
X162238130Y-169181885D01*
X162216171Y-169222523D01*
X162206502Y-169233529D01*
X162175272Y-169261242D01*
X162142235Y-169280655D01*
X162103897Y-169292929D01*
X162056767Y-169299223D01*
X162004125Y-169300734D01*
X161956818Y-169299622D01*
X161913485Y-169296066D01*
X161870331Y-169289343D01*
X161823563Y-169278735D01*
X161769389Y-169263519D01*
X161709540Y-169244766D01*
X161624303Y-169217210D01*
X161612325Y-169163839D01*
X161595141Y-169081270D01*
X161577872Y-168987085D01*
X161561212Y-168885523D01*
X161545856Y-168780824D01*
X161532497Y-168677227D01*
X161532102Y-168673906D01*
X161528188Y-168639360D01*
X161523622Y-168596570D01*
X161518679Y-168548375D01*
X161513630Y-168497613D01*
X161508748Y-168447123D01*
X161504305Y-168399744D01*
X161500576Y-168358316D01*
X161497831Y-168325676D01*
X161496344Y-168304664D01*
X161496157Y-168299644D01*
X161490469Y-168296077D01*
X161472601Y-168297018D01*
X161441286Y-168302576D01*
X161427384Y-168305530D01*
X161403560Y-168311064D01*
X161370320Y-168319234D01*
X161330338Y-168329336D01*
X161286290Y-168340665D01*
X161240850Y-168352518D01*
X161196696Y-168364192D01*
X161156500Y-168374982D01*
X161122940Y-168384184D01*
X161098689Y-168391096D01*
X161086424Y-168395012D01*
X161085510Y-168395468D01*
X161087497Y-168402992D01*
X161094400Y-168421523D01*
X161104865Y-168447485D01*
X161108259Y-168455621D01*
X161139965Y-168551114D01*
X161158042Y-168653208D01*
X161162485Y-168760350D01*
X161153287Y-168870991D01*
X161130444Y-168983581D01*
X161110407Y-169050767D01*
X161059640Y-169178675D01*
X160994874Y-169302186D01*
X160917552Y-169419404D01*
X160829119Y-169528434D01*
X160731020Y-169627381D01*
X160624699Y-169714350D01*
X160581629Y-169744405D01*
X160442256Y-169827618D01*
X160294127Y-169897645D01*
X160137355Y-169954467D01*
X159972052Y-169998063D01*
X159798329Y-170028415D01*
X159616300Y-170045503D01*
X159426077Y-170049309D01*
X159227771Y-170039812D01*
X159021496Y-170016993D01*
X159007718Y-170015035D01*
X158835689Y-169986165D01*
X158678323Y-169951234D01*
X158535608Y-169910239D01*
X158407535Y-169863176D01*
X158338574Y-169832437D01*
X158261257Y-169793437D01*
X158196124Y-169755978D01*
X158139908Y-169717947D01*
X158089345Y-169677229D01*
X158065973Y-169655968D01*
X158020157Y-169608586D01*
X157986826Y-169563788D01*
X157963765Y-169518174D01*
X157951689Y-169480659D01*
X157947356Y-169461921D01*
X158378114Y-169461921D01*
X158385085Y-169498101D01*
X158400875Y-169530992D01*
X158427269Y-169564585D01*
X158456829Y-169594277D01*
X158508675Y-169635554D01*
X158574419Y-169675469D01*
X158652096Y-169713359D01*
X158739745Y-169748560D01*
X158835401Y-169780411D01*
X158937103Y-169808249D01*
X159042888Y-169831410D01*
X159150792Y-169849232D01*
X159242956Y-169859710D01*
X159302485Y-169864426D01*
X159351848Y-169866767D01*
X159396578Y-169866743D01*
X159442203Y-169864365D01*
X159489080Y-169860172D01*
X159622172Y-169840317D01*
X159753600Y-169808392D01*
X159882099Y-169765285D01*
X160006406Y-169711884D01*
X160125255Y-169649077D01*
X160237382Y-169577752D01*
X160341522Y-169498796D01*
X160436412Y-169413097D01*
X160520785Y-169321543D01*
X160593378Y-169225021D01*
X160652927Y-169124420D01*
X160698166Y-169020628D01*
X160702460Y-169008332D01*
X160722660Y-168941745D01*
X160735416Y-168880148D01*
X160741892Y-168816372D01*
X160743329Y-168756359D01*
X160735321Y-168650091D01*
X160711668Y-168546459D01*
X160686454Y-168477000D01*
X160671719Y-168442134D01*
X160661284Y-168419732D01*
X160653207Y-168407663D01*
X160645548Y-168403795D01*
X160636368Y-168405994D01*
X160626271Y-168410865D01*
X160608124Y-168417884D01*
X160579525Y-168426714D01*
X160545543Y-168435834D01*
X160531718Y-168439191D01*
X160382290Y-168474357D01*
X160247226Y-168506303D01*
X160125417Y-168535348D01*
X160015750Y-168561811D01*
X159917115Y-168586011D01*
X159828402Y-168608267D01*
X159748498Y-168628896D01*
X159676294Y-168648219D01*
X159610679Y-168666554D01*
X159550541Y-168684219D01*
X159494770Y-168701534D01*
X159442255Y-168718816D01*
X159391885Y-168736386D01*
X159342549Y-168754562D01*
X159293135Y-168773663D01*
X159242535Y-168794006D01*
X159189635Y-168815912D01*
X159133326Y-168839699D01*
X159127675Y-168842104D01*
X158993852Y-168900976D01*
X158875023Y-168957306D01*
X158770572Y-169011447D01*
X158679883Y-169063754D01*
X158602341Y-169114580D01*
X158537332Y-169164278D01*
X158487812Y-169209560D01*
X158442262Y-169260286D01*
X158409973Y-169307901D01*
X158389476Y-169355205D01*
X158379299Y-169405001D01*
X158378177Y-169418463D01*
X158378114Y-169461921D01*
X157947356Y-169461921D01*
X157945349Y-169453244D01*
X157942898Y-169431394D01*
X157944311Y-169408610D01*
X157949567Y-169378395D01*
X157951299Y-169369798D01*
X157969651Y-169306298D01*
X157999229Y-169237038D01*
X158038213Y-169165307D01*
X158084786Y-169094394D01*
X158137129Y-169027587D01*
X158146451Y-169016896D01*
X158197873Y-168966085D01*
X158263127Y-168913478D01*
X158340438Y-168860173D01*
X158428030Y-168807267D01*
X158524125Y-168755858D01*
X158626948Y-168707043D01*
X158695582Y-168677621D01*
X158763074Y-168650793D01*
X158832758Y-168625011D01*
X158905840Y-168599959D01*
X158983521Y-168575321D01*
X159067008Y-168550781D01*
X159157503Y-168526022D01*
X159256211Y-168500726D01*
X159364336Y-168474579D01*
X159483083Y-168447263D01*
X159613654Y-168418462D01*
X159757255Y-168387859D01*
X159915090Y-168355138D01*
X159948312Y-168348344D01*
X160056775Y-168326036D01*
X160157765Y-168304919D01*
X160249983Y-168285277D01*
X160332133Y-168267392D01*
X160402916Y-168251549D01*
X160461035Y-168238030D01*
X160505192Y-168227119D01*
X160514209Y-168224750D01*
X160544325Y-168216699D01*
X160518240Y-168183365D01*
X160495503Y-168156426D01*
X160463308Y-168121196D01*
X160423997Y-168080002D01*
X160379909Y-168035175D01*
X160333386Y-167989043D01*
X160286769Y-167943937D01*
X160242397Y-167902184D01*
X160202613Y-167866116D01*
X160178500Y-167845289D01*
X159993732Y-167700124D01*
X159795772Y-167563567D01*
X159584842Y-167435737D01*
X159361165Y-167316754D01*
X159124962Y-167206739D01*
X158876458Y-167105809D01*
X158658468Y-167028171D01*
X158594612Y-167007075D01*
X158533783Y-166987628D01*
X158473728Y-166969202D01*
X158412192Y-166951169D01*
X158346921Y-166932903D01*
X158275661Y-166913773D01*
X158196158Y-166893154D01*
X158106158Y-166870416D01*
X158003406Y-166844932D01*
X157979812Y-166839127D01*
X157870804Y-166812177D01*
X157774975Y-166788095D01*
X157690017Y-166766244D01*
X157613627Y-166745988D01*
X157543498Y-166726690D01*
X157477325Y-166707715D01*
X157412803Y-166688425D01*
X157347625Y-166668184D01*
X157279487Y-166646357D01*
X157268466Y-166642775D01*
X157214028Y-166625244D01*
X157158071Y-166607553D01*
X157104762Y-166590997D01*
X157058270Y-166576871D01*
X157023343Y-166566634D01*
X156926105Y-166537898D01*
X156843483Y-166510808D01*
X156774382Y-166484739D01*
X156717708Y-166459063D01*
X156672365Y-166433155D01*
X156637259Y-166406389D01*
X156611294Y-166378138D01*
X156593375Y-166347776D01*
X156582408Y-166314678D01*
X156582366Y-166314490D01*
X156579293Y-166274166D01*
X156590442Y-166239592D01*
X156610475Y-166213928D01*
X156640204Y-166190204D01*
X156683927Y-166163915D01*
X156740097Y-166135736D01*
X156807167Y-166106343D01*
X156883591Y-166076410D01*
X156967821Y-166046615D01*
X157058312Y-166017631D01*
X157063834Y-166015955D01*
X157121619Y-165998922D01*
X157192626Y-165978741D01*
X157274645Y-165955987D01*
X157365465Y-165931237D01*
X157462877Y-165905069D01*
X157564671Y-165878060D01*
X157668637Y-165850785D01*
X157772565Y-165823823D01*
X157874245Y-165797751D01*
X157971468Y-165773144D01*
X158062022Y-165750580D01*
X158143699Y-165730637D01*
X158214289Y-165713890D01*
X158265562Y-165702237D01*
X158486209Y-165656443D01*
X158696665Y-165618832D01*
X158900117Y-165589033D01*
X159099748Y-165566679D01*
X159298745Y-165551401D01*
X159500292Y-165542831D01*
X159662562Y-165540562D01*
X159896718Y-165540034D01*
X160015781Y-165605526D01*
X160015781Y-165605526D01*
G37*
X160015781Y-165605526D02*
X160068434Y-165634793D01*
X160109432Y-165658469D01*
X160141237Y-165678221D01*
X160166312Y-165695719D01*
X160187120Y-165712630D01*
X160206123Y-165730624D01*
X160216887Y-165741787D01*
X160232248Y-165760174D01*
X160248604Y-165782913D01*
X160263554Y-165806174D01*
X160274701Y-165826130D01*
X160279643Y-165838952D01*
X160279260Y-165841322D01*
X160271215Y-165840370D01*
X160251209Y-165836152D01*
X160222638Y-165829416D01*
X160201627Y-165824182D01*
X160108252Y-165803474D01*
X160003734Y-165785641D01*
X159892661Y-165771399D01*
X159816333Y-165764178D01*
X159756176Y-165760695D01*
X159683871Y-165758745D01*
X159603064Y-165758258D01*
X159517400Y-165759160D01*
X159430524Y-165761381D01*
X159346082Y-165764848D01*
X159267720Y-165769490D01*
X159199082Y-165775236D01*
X159186312Y-165776569D01*
X158935744Y-165809933D01*
X158676662Y-165856462D01*
X158409335Y-165916095D01*
X158134030Y-165988771D01*
X157851014Y-166074429D01*
X157799691Y-166091084D01*
X157732196Y-166113512D01*
X157662564Y-166137205D01*
X157592403Y-166161567D01*
X157523323Y-166186004D01*
X157456935Y-166209921D01*
X157394846Y-166232721D01*
X157338668Y-166253810D01*
X157290009Y-166272593D01*
X157250479Y-166288474D01*
X157221688Y-166300859D01*
X157205245Y-166309152D01*
X157201937Y-166312127D01*
X157204755Y-166314310D01*
X157213698Y-166318303D01*
X157229501Y-166324348D01*
X157252896Y-166332685D01*
X157284619Y-166343557D01*
X157325404Y-166357205D01*
X157375984Y-166373870D01*
X157437094Y-166393794D01*
X157509467Y-166417218D01*
X157593838Y-166444383D01*
X157690940Y-166475532D01*
X157801509Y-166510905D01*
X157926277Y-166550743D01*
X157963937Y-166562757D01*
X158119342Y-166612465D01*
X158260842Y-166658047D01*
X158389735Y-166699948D01*
X158507318Y-166738618D01*
X158614887Y-166774503D01*
X158713741Y-166808050D01*
X158805177Y-166839707D01*
X158890490Y-166869922D01*
X158970980Y-166899142D01*
X159047942Y-166927814D01*
X159122674Y-166956386D01*
X159196474Y-166985305D01*
X159243978Y-167004267D01*
X159466854Y-167097607D01*
X159674730Y-167192599D01*
X159868440Y-167289766D01*
X160048819Y-167389632D01*
X160216701Y-167492719D01*
X160372921Y-167599551D01*
X160518314Y-167710651D01*
X160653715Y-167826543D01*
X160779957Y-167947749D01*
X160827023Y-167996716D01*
X160856834Y-168028822D01*
X160885262Y-168060116D01*
X160909149Y-168087082D01*
X160925338Y-168106203D01*
X160925720Y-168106679D01*
X160952406Y-168140014D01*
X161015906Y-168135951D01*
X161048058Y-168132287D01*
X161090267Y-168125198D01*
X161137339Y-168115661D01*
X161184078Y-168104656D01*
X161189694Y-168103211D01*
X161249647Y-168088753D01*
X161307071Y-168077014D01*
X161359306Y-168068387D01*
X161403692Y-168063268D01*
X161437569Y-168062050D01*
X161454682Y-168063983D01*
X161473953Y-168068820D01*
X161468833Y-167990363D01*
X161460619Y-167883435D01*
X161449994Y-167780586D01*
X161436417Y-167678284D01*
X161419344Y-167572994D01*
X161398235Y-167461184D01*
X161372548Y-167339318D01*
X161361279Y-167288775D01*
X161337692Y-167183941D01*
X161317482Y-167093172D01*
X161300355Y-167015089D01*
X161286016Y-166948311D01*
X161274172Y-166891459D01*
X161264529Y-166843153D01*
X161256792Y-166802014D01*
X161253287Y-166782199D01*
X161246627Y-166743789D01*
X161243836Y-166717839D01*
X161247024Y-166701031D01*
X161258304Y-166690046D01*
X161279787Y-166681566D01*
X161313586Y-166672275D01*
X161325235Y-166669159D01*
X161400263Y-166655390D01*
X161470230Y-166655656D01*
X161534200Y-166669791D01*
X161591234Y-166697628D01*
X161623458Y-166722371D01*
X161657009Y-166756775D01*
X161687432Y-166797339D01*
X161714979Y-166845008D01*
X161739900Y-166900729D01*
X161762446Y-166965448D01*
X161782868Y-167040111D01*
X161801418Y-167125664D01*
X161818345Y-167223054D01*
X161833901Y-167333225D01*
X161848337Y-167457124D01*
X161861904Y-167595698D01*
X161865307Y-167634093D01*
X161870859Y-167697048D01*
X161876350Y-167757611D01*
X161881535Y-167813203D01*
X161886168Y-167861246D01*
X161890004Y-167899162D01*
X161892799Y-167924374D01*
X161893226Y-167927781D01*
X161896903Y-167957875D01*
X161899586Y-167983246D01*
X161900692Y-167998332D01*
X161901571Y-168003801D01*
X161905490Y-168007626D01*
X161914681Y-168009982D01*
X161931374Y-168011042D01*
X161957804Y-168010980D01*
X161996202Y-168009969D01*
X162033890Y-168008705D01*
X162161231Y-168000278D01*
X162286233Y-167984409D01*
X162293843Y-167983173D01*
X162379479Y-167970972D01*
X162464533Y-167963055D01*
X162556836Y-167958706D01*
X162563718Y-167958518D01*
X162706593Y-167954780D01*
X162705995Y-167885718D01*
X162705228Y-167860228D01*
X162703092Y-167834423D01*
X162699159Y-167806543D01*
X162693001Y-167774825D01*
X162684192Y-167737509D01*
X162672303Y-167692835D01*
X162656907Y-167639042D01*
X162637577Y-167574368D01*
X162613885Y-167497053D01*
X162603477Y-167463437D01*
X162568890Y-167349415D01*
X162540148Y-167249034D01*
X162516995Y-167161281D01*
X162499172Y-167085141D01*
X162486422Y-167019602D01*
X162480415Y-166979787D01*
X162474675Y-166902287D01*
X162479032Y-166836633D01*
X162493435Y-166782946D01*
X162517837Y-166741346D01*
X162552187Y-166711953D01*
X162596436Y-166694888D01*
X162597496Y-166694657D01*
X162645552Y-166690721D01*
X162691216Y-166700377D01*
X162734975Y-166724029D01*
X162777314Y-166762080D01*
X162818718Y-166814937D01*
X162859674Y-166883002D01*
X162885836Y-166934650D01*
X162916550Y-167004357D01*
X162946201Y-167082979D01*
X162975151Y-167171751D01*
X163003762Y-167271910D01*
X163032396Y-167384693D01*
X163061416Y-167511335D01*
X163079337Y-167595321D01*
X163090742Y-167650001D01*
X163101899Y-167703319D01*
X163112110Y-167751965D01*
X163120681Y-167792626D01*
X163126916Y-167821991D01*
X163128159Y-167827787D01*
X163140808Y-167886542D01*
X163281962Y-167881243D01*
X163362458Y-167877433D01*
X163442046Y-167871945D01*
X163522566Y-167864512D01*
X163605860Y-167854861D01*
X163693767Y-167842725D01*
X163788129Y-167827832D01*
X163890785Y-167809913D01*
X164003578Y-167788699D01*
X164128346Y-167763918D01*
X164242500Y-167740411D01*
X164375014Y-167713216D01*
X164493451Y-167689855D01*
X164597584Y-167670368D01*
X164687183Y-167654794D01*
X164762019Y-167643176D01*
X164821863Y-167635552D01*
X164848526Y-167633060D01*
X164915012Y-167627950D01*
X164920089Y-167655010D01*
X164920283Y-167688086D01*
X164910917Y-167732229D01*
X164892312Y-167786082D01*
X164884627Y-167804750D01*
X164874484Y-167828392D01*
X164867081Y-167845326D01*
X164864385Y-167851157D01*
X164855954Y-167853360D01*
X164833058Y-167857296D01*
X164796995Y-167862800D01*
X164749062Y-167869705D01*
X164690554Y-167877845D01*
X164622769Y-167887054D01*
X164547003Y-167897166D01*
X164464553Y-167908013D01*
X164376716Y-167919429D01*
X164284788Y-167931249D01*
X164190066Y-167943305D01*
X164093846Y-167955432D01*
X163997426Y-167967463D01*
X163902102Y-167979232D01*
X163809171Y-167990571D01*
X163719929Y-168001316D01*
X163635674Y-168011300D01*
X163557701Y-168020355D01*
X163487307Y-168028317D01*
X163460750Y-168031247D01*
X163398130Y-168038154D01*
X163340744Y-168044597D01*
X163290445Y-168050359D01*
X163249091Y-168055222D01*
X163218536Y-168058969D01*
X163200635Y-168061383D01*
X163196635Y-168062156D01*
X163198309Y-168070025D01*
X163204327Y-168090567D01*
X163213949Y-168121416D01*
X163226438Y-168160206D01*
X163241054Y-168204571D01*
X163241679Y-168206448D01*
X163261259Y-168266689D01*
X163280060Y-168327807D01*
X163298571Y-168391691D01*
X163317285Y-168460229D01*
X163336691Y-168535308D01*
X163357281Y-168618817D01*
X163379544Y-168712644D01*
X163403973Y-168818678D01*
X163425050Y-168911982D01*
X163445698Y-169003792D01*
X163463464Y-169082156D01*
X163478851Y-169149137D01*
X163492364Y-169206800D01*
X163504507Y-169257208D01*
X163515786Y-169302424D01*
X163526703Y-169344511D01*
X163537765Y-169385534D01*
X163549476Y-169427555D01*
X163560906Y-169467656D01*
X163580699Y-169534288D01*
X163598707Y-169589184D01*
X163616450Y-169636136D01*
X163635442Y-169678935D01*
X163657200Y-169721375D01*
X163675181Y-169753406D01*
X163709182Y-169813616D01*
X163735405Y-169863218D01*
X163755029Y-169904710D01*
X163769236Y-169940589D01*
X163779205Y-169973352D01*
X163779308Y-169973750D01*
X163786700Y-170016826D01*
X163787841Y-170060256D01*
X163783303Y-170100751D01*
X163773663Y-170135025D01*
X163759492Y-170159791D01*
X163744915Y-170170691D01*
X163713034Y-170176817D01*
X163672732Y-170175740D01*
X163629601Y-170167714D01*
X163620320Y-170165051D01*
X163583959Y-170147260D01*
X163546408Y-170117248D01*
X163510798Y-170078070D01*
X163480258Y-170032783D01*
X163474996Y-170023188D01*
X163462177Y-169996949D01*
X163445803Y-169960643D01*
X163427967Y-169919038D01*
X163410763Y-169876905D01*
X163410540Y-169876344D01*
X163393386Y-169833617D01*
X163372170Y-169781599D01*
X163349073Y-169725596D01*
X163326278Y-169670914D01*
X163315595Y-169645534D01*
X163275368Y-169547662D01*
X163231380Y-169435500D01*
X163183544Y-169308819D01*
X163131777Y-169167394D01*
X163075994Y-169010997D01*
X163043466Y-168918217D01*
X162999775Y-168792977D01*
X162960939Y-168681832D01*
X162926633Y-168583867D01*
X162896538Y-168498170D01*
X162870330Y-168423827D01*
X162847687Y-168359925D01*
X162828287Y-168305550D01*
X162811808Y-168259789D01*
X162797927Y-168221730D01*
X162794907Y-168213531D01*
X162759737Y-168118281D01*
X162721259Y-168119618D01*
X162702284Y-168120934D01*
X162669728Y-168123921D01*
X162625771Y-168128334D01*
X162572589Y-168133924D01*
X162512362Y-168140445D01*
X162447267Y-168147650D01*
X162379484Y-168155293D01*
X162311189Y-168163127D01*
X162244562Y-168170904D01*
X162181781Y-168178378D01*
X162125023Y-168185302D01*
X162076468Y-168191429D01*
X162038293Y-168196513D01*
X162021984Y-168198854D01*
X161932687Y-168212223D01*
X161932687Y-168257342D01*
X161934066Y-168280121D01*
X161937886Y-168314904D01*
X161943672Y-168358092D01*
X161950951Y-168406086D01*
X161957356Y-168444528D01*
X161969153Y-168517899D01*
X161977133Y-168581684D01*
X161981885Y-168641545D01*
X161983952Y-168700218D01*
X161985120Y-168747827D01*
X161986927Y-168781923D01*
X161989638Y-168804867D01*
X161993515Y-168819015D01*
X161997982Y-168825946D01*
X162008843Y-168834737D01*
X162030070Y-168850295D01*
X162058817Y-168870587D01*
X162092239Y-168893580D01*
X162100042Y-168898870D01*
X162147967Y-168932983D01*
X162183599Y-168962992D01*
X162209038Y-168991497D01*
X162226382Y-169021094D01*
X162237730Y-169054383D01*
X162242093Y-169074750D01*
X162246772Y-169132621D01*
X162238130Y-169181885D01*
X162216171Y-169222523D01*
X162206502Y-169233529D01*
X162175272Y-169261242D01*
X162142235Y-169280655D01*
X162103897Y-169292929D01*
X162056767Y-169299223D01*
X162004125Y-169300734D01*
X161956818Y-169299622D01*
X161913485Y-169296066D01*
X161870331Y-169289343D01*
X161823563Y-169278735D01*
X161769389Y-169263519D01*
X161709540Y-169244766D01*
X161624303Y-169217210D01*
X161612325Y-169163839D01*
X161595141Y-169081270D01*
X161577872Y-168987085D01*
X161561212Y-168885523D01*
X161545856Y-168780824D01*
X161532497Y-168677227D01*
X161532102Y-168673906D01*
X161528188Y-168639360D01*
X161523622Y-168596570D01*
X161518679Y-168548375D01*
X161513630Y-168497613D01*
X161508748Y-168447123D01*
X161504305Y-168399744D01*
X161500576Y-168358316D01*
X161497831Y-168325676D01*
X161496344Y-168304664D01*
X161496157Y-168299644D01*
X161490469Y-168296077D01*
X161472601Y-168297018D01*
X161441286Y-168302576D01*
X161427384Y-168305530D01*
X161403560Y-168311064D01*
X161370320Y-168319234D01*
X161330338Y-168329336D01*
X161286290Y-168340665D01*
X161240850Y-168352518D01*
X161196696Y-168364192D01*
X161156500Y-168374982D01*
X161122940Y-168384184D01*
X161098689Y-168391096D01*
X161086424Y-168395012D01*
X161085510Y-168395468D01*
X161087497Y-168402992D01*
X161094400Y-168421523D01*
X161104865Y-168447485D01*
X161108259Y-168455621D01*
X161139965Y-168551114D01*
X161158042Y-168653208D01*
X161162485Y-168760350D01*
X161153287Y-168870991D01*
X161130444Y-168983581D01*
X161110407Y-169050767D01*
X161059640Y-169178675D01*
X160994874Y-169302186D01*
X160917552Y-169419404D01*
X160829119Y-169528434D01*
X160731020Y-169627381D01*
X160624699Y-169714350D01*
X160581629Y-169744405D01*
X160442256Y-169827618D01*
X160294127Y-169897645D01*
X160137355Y-169954467D01*
X159972052Y-169998063D01*
X159798329Y-170028415D01*
X159616300Y-170045503D01*
X159426077Y-170049309D01*
X159227771Y-170039812D01*
X159021496Y-170016993D01*
X159007718Y-170015035D01*
X158835689Y-169986165D01*
X158678323Y-169951234D01*
X158535608Y-169910239D01*
X158407535Y-169863176D01*
X158338574Y-169832437D01*
X158261257Y-169793437D01*
X158196124Y-169755978D01*
X158139908Y-169717947D01*
X158089345Y-169677229D01*
X158065973Y-169655968D01*
X158020157Y-169608586D01*
X157986826Y-169563788D01*
X157963765Y-169518174D01*
X157951689Y-169480659D01*
X157947356Y-169461921D01*
X158378114Y-169461921D01*
X158385085Y-169498101D01*
X158400875Y-169530992D01*
X158427269Y-169564585D01*
X158456829Y-169594277D01*
X158508675Y-169635554D01*
X158574419Y-169675469D01*
X158652096Y-169713359D01*
X158739745Y-169748560D01*
X158835401Y-169780411D01*
X158937103Y-169808249D01*
X159042888Y-169831410D01*
X159150792Y-169849232D01*
X159242956Y-169859710D01*
X159302485Y-169864426D01*
X159351848Y-169866767D01*
X159396578Y-169866743D01*
X159442203Y-169864365D01*
X159489080Y-169860172D01*
X159622172Y-169840317D01*
X159753600Y-169808392D01*
X159882099Y-169765285D01*
X160006406Y-169711884D01*
X160125255Y-169649077D01*
X160237382Y-169577752D01*
X160341522Y-169498796D01*
X160436412Y-169413097D01*
X160520785Y-169321543D01*
X160593378Y-169225021D01*
X160652927Y-169124420D01*
X160698166Y-169020628D01*
X160702460Y-169008332D01*
X160722660Y-168941745D01*
X160735416Y-168880148D01*
X160741892Y-168816372D01*
X160743329Y-168756359D01*
X160735321Y-168650091D01*
X160711668Y-168546459D01*
X160686454Y-168477000D01*
X160671719Y-168442134D01*
X160661284Y-168419732D01*
X160653207Y-168407663D01*
X160645548Y-168403795D01*
X160636368Y-168405994D01*
X160626271Y-168410865D01*
X160608124Y-168417884D01*
X160579525Y-168426714D01*
X160545543Y-168435834D01*
X160531718Y-168439191D01*
X160382290Y-168474357D01*
X160247226Y-168506303D01*
X160125417Y-168535348D01*
X160015750Y-168561811D01*
X159917115Y-168586011D01*
X159828402Y-168608267D01*
X159748498Y-168628896D01*
X159676294Y-168648219D01*
X159610679Y-168666554D01*
X159550541Y-168684219D01*
X159494770Y-168701534D01*
X159442255Y-168718816D01*
X159391885Y-168736386D01*
X159342549Y-168754562D01*
X159293135Y-168773663D01*
X159242535Y-168794006D01*
X159189635Y-168815912D01*
X159133326Y-168839699D01*
X159127675Y-168842104D01*
X158993852Y-168900976D01*
X158875023Y-168957306D01*
X158770572Y-169011447D01*
X158679883Y-169063754D01*
X158602341Y-169114580D01*
X158537332Y-169164278D01*
X158487812Y-169209560D01*
X158442262Y-169260286D01*
X158409973Y-169307901D01*
X158389476Y-169355205D01*
X158379299Y-169405001D01*
X158378177Y-169418463D01*
X158378114Y-169461921D01*
X157947356Y-169461921D01*
X157945349Y-169453244D01*
X157942898Y-169431394D01*
X157944311Y-169408610D01*
X157949567Y-169378395D01*
X157951299Y-169369798D01*
X157969651Y-169306298D01*
X157999229Y-169237038D01*
X158038213Y-169165307D01*
X158084786Y-169094394D01*
X158137129Y-169027587D01*
X158146451Y-169016896D01*
X158197873Y-168966085D01*
X158263127Y-168913478D01*
X158340438Y-168860173D01*
X158428030Y-168807267D01*
X158524125Y-168755858D01*
X158626948Y-168707043D01*
X158695582Y-168677621D01*
X158763074Y-168650793D01*
X158832758Y-168625011D01*
X158905840Y-168599959D01*
X158983521Y-168575321D01*
X159067008Y-168550781D01*
X159157503Y-168526022D01*
X159256211Y-168500726D01*
X159364336Y-168474579D01*
X159483083Y-168447263D01*
X159613654Y-168418462D01*
X159757255Y-168387859D01*
X159915090Y-168355138D01*
X159948312Y-168348344D01*
X160056775Y-168326036D01*
X160157765Y-168304919D01*
X160249983Y-168285277D01*
X160332133Y-168267392D01*
X160402916Y-168251549D01*
X160461035Y-168238030D01*
X160505192Y-168227119D01*
X160514209Y-168224750D01*
X160544325Y-168216699D01*
X160518240Y-168183365D01*
X160495503Y-168156426D01*
X160463308Y-168121196D01*
X160423997Y-168080002D01*
X160379909Y-168035175D01*
X160333386Y-167989043D01*
X160286769Y-167943937D01*
X160242397Y-167902184D01*
X160202613Y-167866116D01*
X160178500Y-167845289D01*
X159993732Y-167700124D01*
X159795772Y-167563567D01*
X159584842Y-167435737D01*
X159361165Y-167316754D01*
X159124962Y-167206739D01*
X158876458Y-167105809D01*
X158658468Y-167028171D01*
X158594612Y-167007075D01*
X158533783Y-166987628D01*
X158473728Y-166969202D01*
X158412192Y-166951169D01*
X158346921Y-166932903D01*
X158275661Y-166913773D01*
X158196158Y-166893154D01*
X158106158Y-166870416D01*
X158003406Y-166844932D01*
X157979812Y-166839127D01*
X157870804Y-166812177D01*
X157774975Y-166788095D01*
X157690017Y-166766244D01*
X157613627Y-166745988D01*
X157543498Y-166726690D01*
X157477325Y-166707715D01*
X157412803Y-166688425D01*
X157347625Y-166668184D01*
X157279487Y-166646357D01*
X157268466Y-166642775D01*
X157214028Y-166625244D01*
X157158071Y-166607553D01*
X157104762Y-166590997D01*
X157058270Y-166576871D01*
X157023343Y-166566634D01*
X156926105Y-166537898D01*
X156843483Y-166510808D01*
X156774382Y-166484739D01*
X156717708Y-166459063D01*
X156672365Y-166433155D01*
X156637259Y-166406389D01*
X156611294Y-166378138D01*
X156593375Y-166347776D01*
X156582408Y-166314678D01*
X156582366Y-166314490D01*
X156579293Y-166274166D01*
X156590442Y-166239592D01*
X156610475Y-166213928D01*
X156640204Y-166190204D01*
X156683927Y-166163915D01*
X156740097Y-166135736D01*
X156807167Y-166106343D01*
X156883591Y-166076410D01*
X156967821Y-166046615D01*
X157058312Y-166017631D01*
X157063834Y-166015955D01*
X157121619Y-165998922D01*
X157192626Y-165978741D01*
X157274645Y-165955987D01*
X157365465Y-165931237D01*
X157462877Y-165905069D01*
X157564671Y-165878060D01*
X157668637Y-165850785D01*
X157772565Y-165823823D01*
X157874245Y-165797751D01*
X157971468Y-165773144D01*
X158062022Y-165750580D01*
X158143699Y-165730637D01*
X158214289Y-165713890D01*
X158265562Y-165702237D01*
X158486209Y-165656443D01*
X158696665Y-165618832D01*
X158900117Y-165589033D01*
X159099748Y-165566679D01*
X159298745Y-165551401D01*
X159500292Y-165542831D01*
X159662562Y-165540562D01*
X159896718Y-165540034D01*
X160015781Y-165605526D01*
D12*
X100000000Y-100000000D03*
X100000000Y-169000000D03*
X169000000Y-169000000D03*
D13*
X123680000Y-125170000D03*
D14*
X123680000Y-127710000D03*
X123680000Y-130250000D03*
X123680000Y-132790000D03*
X123680000Y-135330000D03*
X123680000Y-137870000D03*
X123680000Y-140410000D03*
X123680000Y-142950000D03*
X123680000Y-145490000D03*
X123680000Y-148030000D03*
D13*
X121140000Y-125170000D03*
D14*
X121140000Y-127710000D03*
X121140000Y-130250000D03*
X121140000Y-132790000D03*
X121140000Y-135330000D03*
X121140000Y-137870000D03*
X121140000Y-140410000D03*
X121140000Y-142950000D03*
X121140000Y-145490000D03*
X121140000Y-148030000D03*
D13*
X118600000Y-125170000D03*
D14*
X118600000Y-127710000D03*
X118600000Y-130250000D03*
X118600000Y-132790000D03*
X118600000Y-135330000D03*
X118600000Y-137870000D03*
X118600000Y-140410000D03*
X118600000Y-142950000D03*
X118600000Y-145490000D03*
X118600000Y-148030000D03*
D13*
X116060000Y-125170000D03*
D14*
X116060000Y-127710000D03*
X116060000Y-130250000D03*
X116060000Y-132790000D03*
X116060000Y-135330000D03*
X116060000Y-137870000D03*
X116060000Y-140410000D03*
X116060000Y-142950000D03*
X116060000Y-145490000D03*
X116060000Y-148030000D03*
D13*
X113520000Y-125170000D03*
D14*
X113520000Y-127710000D03*
X113520000Y-130250000D03*
X113520000Y-132790000D03*
X113520000Y-135330000D03*
X113520000Y-137870000D03*
X113520000Y-140410000D03*
X113520000Y-142950000D03*
X113520000Y-145490000D03*
X113520000Y-148030000D03*
D13*
X110980000Y-125170000D03*
D14*
X110980000Y-127710000D03*
X110980000Y-130250000D03*
X110980000Y-132790000D03*
X110980000Y-135330000D03*
X110980000Y-137870000D03*
X110980000Y-140410000D03*
X110980000Y-142950000D03*
X110980000Y-145490000D03*
X110980000Y-148030000D03*
D13*
X108440000Y-125170000D03*
D14*
X108440000Y-127710000D03*
X108440000Y-130250000D03*
X108440000Y-132790000D03*
X108440000Y-135330000D03*
X108440000Y-137870000D03*
X108440000Y-140410000D03*
X108440000Y-142950000D03*
X108440000Y-145490000D03*
X108440000Y-148030000D03*
D13*
X105900000Y-125170000D03*
D14*
X105900000Y-127710000D03*
X105900000Y-130250000D03*
X105900000Y-132790000D03*
X105900000Y-135330000D03*
X105900000Y-137870000D03*
X105900000Y-140410000D03*
X105900000Y-142950000D03*
X105900000Y-145490000D03*
X105900000Y-148030000D03*
D13*
X103360000Y-125170000D03*
D14*
X103360000Y-127710000D03*
X103360000Y-130250000D03*
X103360000Y-132790000D03*
X103360000Y-135330000D03*
X103360000Y-137870000D03*
X103360000Y-140410000D03*
X103360000Y-142950000D03*
X103360000Y-145490000D03*
X103360000Y-148030000D03*
D15*
X170000000Y-133400000D03*
X168000000Y-133400000D03*
X130210000Y-106630000D03*
X128210000Y-106630000D03*
D16*
X123380000Y-106410000D03*
X123380000Y-107908600D03*
X162910000Y-132240700D03*
X162910000Y-133739300D03*
X160430000Y-132270700D03*
X160430000Y-133769300D03*
D17*
X155460000Y-154203000D03*
X155460000Y-156997000D03*
D18*
X143670000Y-167705000D03*
X141670000Y-167705000D03*
X139670000Y-167705000D03*
X137670000Y-167705000D03*
D19*
X146070000Y-162155000D03*
X135270000Y-162155000D03*
D20*
X167037460Y-156600900D03*
X167037460Y-155950900D03*
X167037460Y-155300900D03*
X167037460Y-154650900D03*
X167037460Y-154000900D03*
D21*
X167037460Y-157800900D03*
X167037460Y-152800900D03*
D22*
X169737460Y-158800900D03*
X169737460Y-151800900D03*
D23*
X165290000Y-116975000D03*
X169790000Y-116975000D03*
X169790000Y-109025000D03*
X165290000Y-109025000D03*
X98810000Y-116975000D03*
X103310000Y-116975000D03*
X103310000Y-109025000D03*
X98810000Y-109025000D03*
D24*
X149320000Y-146960000D03*
X150270000Y-146960000D03*
X151220000Y-146960000D03*
X151220000Y-144760000D03*
X149320000Y-144760000D03*
D25*
X159200000Y-137077500D03*
X159200000Y-137712500D03*
X159200000Y-138347500D03*
X159200000Y-138982500D03*
X159200000Y-139617500D03*
X159200000Y-140252500D03*
X159200000Y-140887500D03*
X159200000Y-141522500D03*
X164400000Y-141522500D03*
X164400000Y-140887500D03*
X164400000Y-140252500D03*
X164400000Y-139617500D03*
X164400000Y-138982500D03*
X164400000Y-138347500D03*
X164400000Y-137712500D03*
X164400000Y-137077500D03*
D26*
X156217434Y-106262662D03*
X156217434Y-107532662D03*
X156217434Y-108802662D03*
X156217434Y-110072662D03*
X156217434Y-111342662D03*
X156217434Y-112612662D03*
X156217434Y-113882662D03*
X156217434Y-115152662D03*
X156217434Y-116422662D03*
X156217434Y-117692662D03*
X156217434Y-118962662D03*
X156217434Y-120232662D03*
X156217434Y-121502662D03*
X156217434Y-122772662D03*
D27*
X152932434Y-124262662D03*
X151662434Y-124262662D03*
X150392434Y-124262662D03*
X149122434Y-124262662D03*
X147852434Y-124262662D03*
X146582434Y-124262662D03*
X145312434Y-124262662D03*
X144042434Y-124262662D03*
X142772434Y-124262662D03*
X141502434Y-124262662D03*
D26*
X138217434Y-122772662D03*
X138217434Y-121502662D03*
X138217434Y-120232662D03*
X138217434Y-118962662D03*
X138217434Y-117692662D03*
X138217434Y-116422662D03*
X138217434Y-115152662D03*
X138217434Y-113882662D03*
X138217434Y-112612662D03*
X138217434Y-111342662D03*
X138217434Y-110072662D03*
X138217434Y-108802662D03*
X138217434Y-107532662D03*
X138217434Y-106262662D03*
D28*
X146917434Y-113962662D03*
D29*
X157560000Y-154600000D03*
X157560000Y-156600000D03*
X153070000Y-146860000D03*
X153070000Y-144860000D03*
D15*
X149270000Y-142760000D03*
X151270000Y-142760000D03*
X157820000Y-149330000D03*
X159820000Y-149330000D03*
X157670000Y-147050000D03*
X159670000Y-147050000D03*
D29*
X167600000Y-143200000D03*
X167600000Y-141200000D03*
D15*
X170000000Y-135400000D03*
X168000000Y-135400000D03*
X130240000Y-108770000D03*
X128240000Y-108770000D03*
D30*
X143680000Y-131120000D03*
X145580000Y-131120000D03*
D31*
X121500000Y-106080000D03*
X121500000Y-107980000D03*
X105840000Y-113040000D03*
X105840000Y-114940000D03*
X162030000Y-123690000D03*
X162030000Y-121790000D03*
X154600000Y-131160000D03*
X154600000Y-133060000D03*
X152300000Y-131150000D03*
X152300000Y-133050000D03*
D30*
X163280000Y-149190000D03*
X161380000Y-149190000D03*
X163300000Y-147010000D03*
X161400000Y-147010000D03*
D31*
X162870000Y-129200000D03*
X162870000Y-131100000D03*
X160580000Y-129200000D03*
X160580000Y-131100000D03*
D32*
X151470000Y-152510000D03*
X151470000Y-149610000D03*
X149270000Y-152510000D03*
X149270000Y-149610000D03*
D30*
X167950000Y-138700000D03*
X169850000Y-138700000D03*
D13*
X127980000Y-120230000D03*
D14*
X127980000Y-122770000D03*
X127980000Y-125310000D03*
X127980000Y-127850000D03*
X127980000Y-130390000D03*
X127980000Y-132930000D03*
X127980000Y-135470000D03*
X127980000Y-138010000D03*
X127980000Y-140550000D03*
X127980000Y-143090000D03*
X127980000Y-145630000D03*
X127980000Y-148170000D03*
D13*
X100820000Y-125170000D03*
D14*
X100820000Y-127710000D03*
X100820000Y-130250000D03*
X100820000Y-132790000D03*
X100820000Y-135330000D03*
X100820000Y-137870000D03*
X100820000Y-140410000D03*
X100820000Y-142950000D03*
X100820000Y-145490000D03*
X100820000Y-148030000D03*
D12*
X169000000Y-100000000D03*
M02*
