M48
;DRILL file {KiCad 4.0.7} date 02/28/18 12:52:51
;FORMAT={-:-/ absolute / inch / decimal}
FMAT,2
INCH,TZ
T1C0.016
T2C0.020
T3C0.022
T4C0.040
T5C0.126
%
G90
G05
M72
T1
X3.8878Y-4.4449
X4.7819Y-4.3043
X4.9898Y-4.1972
X5.2052Y-4.2336
X5.2799Y-5.1094
X5.2937Y-5.2871
X5.3461Y-4.1831
X5.5244Y-4.1819
X5.5713Y-4.9717
X5.5906Y-5.1268
X5.6547Y-5.2339
X5.6555Y-6.6976
X5.6575Y-6.4969
X5.7264Y-5.0827
X5.7842Y-4.4867
X5.8783Y-5.465
X5.9157Y-5.7398
X5.9169Y-5.837
X6.0157Y-5.6051
X6.0244Y-5.6484
X6.0728Y-4.1811
X6.0728Y-4.6949
X6.0768Y-4.7323
X6.2067Y-5.4992
X6.211Y-5.7394
X6.2134Y-5.9299
X6.2343Y-4.1854
X6.2409Y-4.8213
X6.2602Y-6.0843
X6.3303Y-4.7949
X6.3319Y-5.4665
X6.3768Y-5.5224
X6.5059Y-4.2303
X6.5075Y-4.6717
X6.5189Y-6.0461
X6.5311Y-5.4661
X6.6303Y-6.0626
X6.6579Y-5.6398
X6.6917Y-5.1965
X6.6953Y-5.3874
T4
X3.9673Y-4.9299
X3.9673Y-5.0299
X3.9673Y-5.1299
X3.9673Y-5.2299
X3.9673Y-5.3299
X3.9673Y-5.4299
X3.9673Y-5.5299
X3.9673Y-5.6299
X3.9673Y-5.7299
X3.9673Y-5.8299
X4.0673Y-4.9299
X4.0673Y-5.0299
X4.0673Y-5.1299
X4.0673Y-5.2299
X4.0673Y-5.3299
X4.0673Y-5.4299
X4.0673Y-5.5299
X4.0673Y-5.6299
X4.0673Y-5.7299
X4.0673Y-5.8299
X4.1673Y-4.9299
X4.1673Y-5.0299
X4.1673Y-5.1299
X4.1673Y-5.2299
X4.1673Y-5.3299
X4.1673Y-5.4299
X4.1673Y-5.5299
X4.1673Y-5.6299
X4.1673Y-5.7299
X4.1673Y-5.8299
X4.1921Y-4.7362
X4.2673Y-4.9299
X4.2673Y-5.0299
X4.2673Y-5.1299
X4.2673Y-5.2299
X4.2673Y-5.3299
X4.2673Y-5.4299
X4.2673Y-5.5299
X4.2673Y-5.6299
X4.2673Y-5.7299
X4.2673Y-5.8299
X4.2921Y-4.7362
X4.3673Y-4.9299
X4.3673Y-5.0299
X4.3673Y-5.1299
X4.3673Y-5.2299
X4.3673Y-5.3299
X4.3673Y-5.4299
X4.3673Y-5.5299
X4.3673Y-5.6299
X4.3673Y-5.7299
X4.3673Y-5.8299
X4.3921Y-4.7362
X4.4673Y-4.9299
X4.4673Y-5.0299
X4.4673Y-5.1299
X4.4673Y-5.2299
X4.4673Y-5.3299
X4.4673Y-5.4299
X4.4673Y-5.5299
X4.4673Y-5.6299
X4.4673Y-5.7299
X4.4673Y-5.8299
X4.4921Y-4.7362
X4.5673Y-4.9299
X4.5673Y-5.0299
X4.5673Y-5.1299
X4.5673Y-5.2299
X4.5673Y-5.3299
X4.5673Y-5.4299
X4.5673Y-5.5299
X4.5673Y-5.6299
X4.5673Y-5.7299
X4.5673Y-5.8299
X4.5921Y-4.7362
X4.6673Y-4.9299
X4.6673Y-5.0299
X4.6673Y-5.1299
X4.6673Y-5.2299
X4.6673Y-5.3299
X4.6673Y-5.4299
X4.6673Y-5.5299
X4.6673Y-5.6299
X4.6673Y-5.7299
X4.6673Y-5.8299
X4.6921Y-4.7362
X4.7673Y-4.9299
X4.7673Y-5.0299
X4.7673Y-5.1299
X4.7673Y-5.2299
X4.7673Y-5.3299
X4.7673Y-5.4299
X4.7673Y-5.5299
X4.7673Y-5.6299
X4.7673Y-5.7299
X4.7673Y-5.8299
X4.7921Y-4.7362
X4.8673Y-4.9299
X4.8673Y-5.0299
X4.8673Y-5.1299
X4.8673Y-5.2299
X4.8673Y-5.3299
X4.8673Y-5.4299
X4.8673Y-5.5299
X4.8673Y-5.6299
X4.8673Y-5.7299
X4.8673Y-5.8299
X4.8921Y-4.7362
X5.0386Y-4.7335
X5.0386Y-4.8335
X5.0386Y-4.9335
X5.0386Y-5.0335
X5.0386Y-5.1335
X5.0386Y-5.2335
X5.0386Y-5.3335
X5.0386Y-5.4335
X5.0386Y-5.5335
X5.0386Y-5.6335
X5.0386Y-5.7335
X5.0386Y-5.8335
T5
X3.937Y-3.937
X3.937Y-6.6535
X6.6535Y-3.937
X6.6535Y-6.6535
T2
X6.6954Y-5.9764G85X6.6698Y-5.9764
G05
X6.6954Y-6.252G85X6.6698Y-6.252
G05
T3
X6.5763Y-6.0217G85X6.5763Y-6.0099
G05
X6.5763Y-6.2185G85X6.5763Y-6.2067
G05
T0
M30
