G04 #@! TF.FileFunction,Legend,Bot*
%FSLAX46Y46*%
G04 Gerber Fmt 4.6, Leading zero omitted, Abs format (unit mm)*
G04 Created by KiCad (PCBNEW 4.0.7) date 02/28/18 12:52:47*
%MOMM*%
%LPD*%
G01*
G04 APERTURE LIST*
%ADD10C,0.100000*%
%ADD11C,0.500000*%
%ADD12C,0.300000*%
G04 APERTURE END LIST*
D10*
D11*
X139760000Y-162964286D02*
X142331429Y-166821429D01*
X137188572Y-166107143D02*
X138902857Y-166107143D01*
X138045715Y-166107143D02*
X138045715Y-163107143D01*
X138331429Y-163535714D01*
X138617143Y-163821429D01*
X138902857Y-163964286D01*
X135331429Y-163107143D02*
X135045714Y-163107143D01*
X134760000Y-163250000D01*
X134617143Y-163392857D01*
X134474286Y-163678571D01*
X134331429Y-164250000D01*
X134331429Y-164964286D01*
X134474286Y-165535714D01*
X134617143Y-165821429D01*
X134760000Y-165964286D01*
X135045714Y-166107143D01*
X135331429Y-166107143D01*
X135617143Y-165964286D01*
X135760000Y-165821429D01*
X135902857Y-165535714D01*
X136045714Y-164964286D01*
X136045714Y-164250000D01*
X135902857Y-163678571D01*
X135760000Y-163392857D01*
X135617143Y-163250000D01*
X135331429Y-163107143D01*
X132474286Y-163107143D02*
X132188571Y-163107143D01*
X131902857Y-163250000D01*
X131760000Y-163392857D01*
X131617143Y-163678571D01*
X131474286Y-164250000D01*
X131474286Y-164964286D01*
X131617143Y-165535714D01*
X131760000Y-165821429D01*
X131902857Y-165964286D01*
X132188571Y-166107143D01*
X132474286Y-166107143D01*
X132760000Y-165964286D01*
X132902857Y-165821429D01*
X133045714Y-165535714D01*
X133188571Y-164964286D01*
X133188571Y-164250000D01*
X133045714Y-163678571D01*
X132902857Y-163392857D01*
X132760000Y-163250000D01*
X132474286Y-163107143D01*
D12*
X157508572Y-153564762D02*
X157508572Y-151564762D01*
X156746667Y-151564762D01*
X156556191Y-151660000D01*
X156460952Y-151755238D01*
X156365714Y-151945714D01*
X156365714Y-152231429D01*
X156460952Y-152421905D01*
X156556191Y-152517143D01*
X156746667Y-152612381D01*
X157508572Y-152612381D01*
X155508572Y-153564762D02*
X155508572Y-151564762D01*
X154746667Y-151564762D02*
X153413333Y-153564762D01*
X153413333Y-151564762D02*
X154746667Y-153564762D01*
X152270476Y-151564762D02*
X151889524Y-151564762D01*
X151699048Y-151660000D01*
X151508571Y-151850476D01*
X151413333Y-152231429D01*
X151413333Y-152898095D01*
X151508571Y-153279048D01*
X151699048Y-153469524D01*
X151889524Y-153564762D01*
X152270476Y-153564762D01*
X152460952Y-153469524D01*
X152651429Y-153279048D01*
X152746667Y-152898095D01*
X152746667Y-152231429D01*
X152651429Y-151850476D01*
X152460952Y-151660000D01*
X152270476Y-151564762D01*
X149032381Y-153564762D02*
X149032381Y-151564762D01*
X148270476Y-151564762D01*
X148080000Y-151660000D01*
X147984761Y-151755238D01*
X147889523Y-151945714D01*
X147889523Y-152231429D01*
X147984761Y-152421905D01*
X148080000Y-152517143D01*
X148270476Y-152612381D01*
X149032381Y-152612381D01*
X147032381Y-153564762D02*
X147032381Y-152231429D01*
X147032381Y-151564762D02*
X147127619Y-151660000D01*
X147032381Y-151755238D01*
X146937142Y-151660000D01*
X147032381Y-151564762D01*
X147032381Y-151755238D01*
X146270476Y-153564762D02*
X145222857Y-152231429D01*
X146270476Y-152231429D02*
X145222857Y-153564762D01*
X143699047Y-153469524D02*
X143889523Y-153564762D01*
X144270475Y-153564762D01*
X144460952Y-153469524D01*
X144556190Y-153279048D01*
X144556190Y-152517143D01*
X144460952Y-152326667D01*
X144270475Y-152231429D01*
X143889523Y-152231429D01*
X143699047Y-152326667D01*
X143603809Y-152517143D01*
X143603809Y-152707619D01*
X144556190Y-152898095D01*
X142460951Y-153564762D02*
X142651427Y-153469524D01*
X142746666Y-153279048D01*
X142746666Y-151564762D01*
X163270477Y-156864762D02*
X163270477Y-154864762D01*
X162603810Y-156293333D01*
X161937143Y-154864762D01*
X161937143Y-156864762D01*
X160127620Y-156864762D02*
X160127620Y-155817143D01*
X160222858Y-155626667D01*
X160413334Y-155531429D01*
X160794286Y-155531429D01*
X160984763Y-155626667D01*
X160127620Y-156769524D02*
X160318096Y-156864762D01*
X160794286Y-156864762D01*
X160984763Y-156769524D01*
X161080001Y-156579048D01*
X161080001Y-156388571D01*
X160984763Y-156198095D01*
X160794286Y-156102857D01*
X160318096Y-156102857D01*
X160127620Y-156007619D01*
X159175239Y-156864762D02*
X159175239Y-154864762D01*
X158984762Y-156102857D02*
X158413334Y-156864762D01*
X158413334Y-155531429D02*
X159175239Y-156293333D01*
X156794286Y-156769524D02*
X156984762Y-156864762D01*
X157365714Y-156864762D01*
X157556191Y-156769524D01*
X157651429Y-156579048D01*
X157651429Y-155817143D01*
X157556191Y-155626667D01*
X157365714Y-155531429D01*
X156984762Y-155531429D01*
X156794286Y-155626667D01*
X156699048Y-155817143D01*
X156699048Y-156007619D01*
X157651429Y-156198095D01*
X154413333Y-154769524D02*
X156127619Y-157340952D01*
X152699047Y-156864762D02*
X153841905Y-156864762D01*
X153270476Y-156864762D02*
X153270476Y-154864762D01*
X153460952Y-155150476D01*
X153651428Y-155340952D01*
X153841905Y-155436190D01*
X151460952Y-154864762D02*
X151270476Y-154864762D01*
X151080000Y-154960000D01*
X150984762Y-155055238D01*
X150889524Y-155245714D01*
X150794285Y-155626667D01*
X150794285Y-156102857D01*
X150889524Y-156483810D01*
X150984762Y-156674286D01*
X151080000Y-156769524D01*
X151270476Y-156864762D01*
X151460952Y-156864762D01*
X151651428Y-156769524D01*
X151746666Y-156674286D01*
X151841905Y-156483810D01*
X151937143Y-156102857D01*
X151937143Y-155626667D01*
X151841905Y-155245714D01*
X151746666Y-155055238D01*
X151651428Y-154960000D01*
X151460952Y-154864762D01*
X149556190Y-154864762D02*
X149365714Y-154864762D01*
X149175238Y-154960000D01*
X149080000Y-155055238D01*
X148984762Y-155245714D01*
X148889523Y-155626667D01*
X148889523Y-156102857D01*
X148984762Y-156483810D01*
X149080000Y-156674286D01*
X149175238Y-156769524D01*
X149365714Y-156864762D01*
X149556190Y-156864762D01*
X149746666Y-156769524D01*
X149841904Y-156674286D01*
X149937143Y-156483810D01*
X150032381Y-156102857D01*
X150032381Y-155626667D01*
X149937143Y-155245714D01*
X149841904Y-155055238D01*
X149746666Y-154960000D01*
X149556190Y-154864762D01*
X146508571Y-156864762D02*
X146508571Y-154864762D01*
X145746666Y-154864762D01*
X145556190Y-154960000D01*
X145460951Y-155055238D01*
X145365713Y-155245714D01*
X145365713Y-155531429D01*
X145460951Y-155721905D01*
X145556190Y-155817143D01*
X145746666Y-155912381D01*
X146508571Y-155912381D01*
X144508571Y-156864762D02*
X144508571Y-155531429D01*
X144508571Y-155912381D02*
X144413332Y-155721905D01*
X144318094Y-155626667D01*
X144127618Y-155531429D01*
X143937142Y-155531429D01*
X142984761Y-156864762D02*
X143175237Y-156769524D01*
X143270476Y-156674286D01*
X143365714Y-156483810D01*
X143365714Y-155912381D01*
X143270476Y-155721905D01*
X143175237Y-155626667D01*
X142984761Y-155531429D01*
X142699047Y-155531429D01*
X142508571Y-155626667D01*
X142413333Y-155721905D01*
X142318095Y-155912381D01*
X142318095Y-156483810D01*
X142413333Y-156674286D01*
X142508571Y-156769524D01*
X142699047Y-156864762D01*
X142984761Y-156864762D01*
X141460952Y-155531429D02*
X141460952Y-157245714D01*
X141556190Y-157436190D01*
X141746666Y-157531429D01*
X141841904Y-157531429D01*
X141460952Y-154864762D02*
X141556190Y-154960000D01*
X141460952Y-155055238D01*
X141365713Y-154960000D01*
X141460952Y-154864762D01*
X141460952Y-155055238D01*
X139746666Y-156769524D02*
X139937142Y-156864762D01*
X140318094Y-156864762D01*
X140508571Y-156769524D01*
X140603809Y-156579048D01*
X140603809Y-155817143D01*
X140508571Y-155626667D01*
X140318094Y-155531429D01*
X139937142Y-155531429D01*
X139746666Y-155626667D01*
X139651428Y-155817143D01*
X139651428Y-156007619D01*
X140603809Y-156198095D01*
X137937142Y-156769524D02*
X138127618Y-156864762D01*
X138508570Y-156864762D01*
X138699046Y-156769524D01*
X138794285Y-156674286D01*
X138889523Y-156483810D01*
X138889523Y-155912381D01*
X138794285Y-155721905D01*
X138699046Y-155626667D01*
X138508570Y-155531429D01*
X138127618Y-155531429D01*
X137937142Y-155626667D01*
X137365713Y-155531429D02*
X136603808Y-155531429D01*
X137079999Y-154864762D02*
X137079999Y-156579048D01*
X136984760Y-156769524D01*
X136794284Y-156864762D01*
X136603808Y-156864762D01*
M02*
