G04 #@! TF.FileFunction,Soldermask,Bot*
%FSLAX46Y46*%
G04 Gerber Fmt 4.6, Leading zero omitted, Abs format (unit mm)*
G04 Created by KiCad (PCBNEW 4.0.7) date 02/28/18 12:52:47*
%MOMM*%
%LPD*%
G01*
G04 APERTURE LIST*
%ADD10C,0.100000*%
%ADD11C,6.000000*%
%ADD12R,2.032000X1.727200*%
%ADD13O,2.032000X1.727200*%
%ADD14O,0.950000X1.250000*%
%ADD15O,1.550000X1.000000*%
%ADD16R,1.727200X2.032000*%
%ADD17O,1.727200X2.032000*%
G04 APERTURE END LIST*
D10*
D11*
X100000000Y-100000000D03*
X100000000Y-169000000D03*
X169000000Y-169000000D03*
D12*
X123630000Y-125220000D03*
D13*
X123630000Y-127760000D03*
X123630000Y-130300000D03*
X123630000Y-132840000D03*
X123630000Y-135380000D03*
X123630000Y-137920000D03*
X123630000Y-140460000D03*
X123630000Y-143000000D03*
X123630000Y-145540000D03*
X123630000Y-148080000D03*
D12*
X121090000Y-125220000D03*
D13*
X121090000Y-127760000D03*
X121090000Y-130300000D03*
X121090000Y-132840000D03*
X121090000Y-135380000D03*
X121090000Y-137920000D03*
X121090000Y-140460000D03*
X121090000Y-143000000D03*
X121090000Y-145540000D03*
X121090000Y-148080000D03*
D12*
X118550000Y-125220000D03*
D13*
X118550000Y-127760000D03*
X118550000Y-130300000D03*
X118550000Y-132840000D03*
X118550000Y-135380000D03*
X118550000Y-137920000D03*
X118550000Y-140460000D03*
X118550000Y-143000000D03*
X118550000Y-145540000D03*
X118550000Y-148080000D03*
D12*
X116010000Y-125220000D03*
D13*
X116010000Y-127760000D03*
X116010000Y-130300000D03*
X116010000Y-132840000D03*
X116010000Y-135380000D03*
X116010000Y-137920000D03*
X116010000Y-140460000D03*
X116010000Y-143000000D03*
X116010000Y-145540000D03*
X116010000Y-148080000D03*
D12*
X113470000Y-125220000D03*
D13*
X113470000Y-127760000D03*
X113470000Y-130300000D03*
X113470000Y-132840000D03*
X113470000Y-135380000D03*
X113470000Y-137920000D03*
X113470000Y-140460000D03*
X113470000Y-143000000D03*
X113470000Y-145540000D03*
X113470000Y-148080000D03*
D12*
X110930000Y-125220000D03*
D13*
X110930000Y-127760000D03*
X110930000Y-130300000D03*
X110930000Y-132840000D03*
X110930000Y-135380000D03*
X110930000Y-137920000D03*
X110930000Y-140460000D03*
X110930000Y-143000000D03*
X110930000Y-145540000D03*
X110930000Y-148080000D03*
D12*
X108390000Y-125220000D03*
D13*
X108390000Y-127760000D03*
X108390000Y-130300000D03*
X108390000Y-132840000D03*
X108390000Y-135380000D03*
X108390000Y-137920000D03*
X108390000Y-140460000D03*
X108390000Y-143000000D03*
X108390000Y-145540000D03*
X108390000Y-148080000D03*
D12*
X105850000Y-125220000D03*
D13*
X105850000Y-127760000D03*
X105850000Y-130300000D03*
X105850000Y-132840000D03*
X105850000Y-135380000D03*
X105850000Y-137920000D03*
X105850000Y-140460000D03*
X105850000Y-143000000D03*
X105850000Y-145540000D03*
X105850000Y-148080000D03*
D12*
X103310000Y-125220000D03*
D13*
X103310000Y-127760000D03*
X103310000Y-130300000D03*
X103310000Y-132840000D03*
X103310000Y-135380000D03*
X103310000Y-137920000D03*
X103310000Y-140460000D03*
X103310000Y-143000000D03*
X103310000Y-145540000D03*
X103310000Y-148080000D03*
D14*
X167037460Y-157800900D03*
X167037460Y-152800900D03*
D15*
X169737460Y-158800900D03*
X169737460Y-151800900D03*
D12*
X127980000Y-120230000D03*
D13*
X127980000Y-122770000D03*
X127980000Y-125310000D03*
X127980000Y-127850000D03*
X127980000Y-130390000D03*
X127980000Y-132930000D03*
X127980000Y-135470000D03*
X127980000Y-138010000D03*
X127980000Y-140550000D03*
X127980000Y-143090000D03*
X127980000Y-145630000D03*
X127980000Y-148170000D03*
D12*
X100770000Y-125220000D03*
D13*
X100770000Y-127760000D03*
X100770000Y-130300000D03*
X100770000Y-132840000D03*
X100770000Y-135380000D03*
X100770000Y-137920000D03*
X100770000Y-140460000D03*
X100770000Y-143000000D03*
X100770000Y-145540000D03*
X100770000Y-148080000D03*
D11*
X169000000Y-100000000D03*
D16*
X106480000Y-120300000D03*
D17*
X109020000Y-120300000D03*
X111560000Y-120300000D03*
X114100000Y-120300000D03*
X116640000Y-120300000D03*
X119180000Y-120300000D03*
X121720000Y-120300000D03*
X124260000Y-120300000D03*
M02*
